<?xml version="1.0" encoding="UTF-8"?>
<!--Generator: Apple Native CoreSVG 175-->
<!DOCTYPE svg
PUBLIC "-//W3C//DTD SVG 1.1//EN"
       "http://www.w3.org/Graphics/SVG/1.1/DTD/svg11.dtd">
<svg version="1.1" xmlns="http://www.w3.org/2000/svg" xmlns:xlink="http://www.w3.org/1999/xlink" width="3300" height="2200">
 <!--glyph: "uni10058A.medium", point size: 100.0, font version: "17.3d3e1", template writer version: "65.1"-->
 <g id="Notes">
  <rect height="2200" id="artboard" style="fill:white;opacity:1" width="3300" x="0" y="0"/>
  <line style="fill:none;stroke:black;opacity:1;stroke-width:0.5;" x1="263" x2="3036" y1="292" y2="292"/>
  <text style="stroke:none;fill:black;font-family:sans-serif;font-size:13;font-weight:bold;" transform="matrix(1 0 0 1 263 322)">Weight/Scale Variations</text>
  <text style="stroke:none;fill:black;font-family:sans-serif;font-size:13;text-anchor:middle;" transform="matrix(1 0 0 1 559.711 322)">Ultralight</text>
  <text style="stroke:none;fill:black;font-family:sans-serif;font-size:13;text-anchor:middle;" transform="matrix(1 0 0 1 856.422 322)">Thin</text>
  <text style="stroke:none;fill:black;font-family:sans-serif;font-size:13;text-anchor:middle;" transform="matrix(1 0 0 1 1153.13 322)">Light</text>
  <text style="stroke:none;fill:black;font-family:sans-serif;font-size:13;text-anchor:middle;" transform="matrix(1 0 0 1 1449.84 322)">Regular</text>
  <text style="stroke:none;fill:black;font-family:sans-serif;font-size:13;text-anchor:middle;" transform="matrix(1 0 0 1 1746.56 322)">Medium</text>
  <text style="stroke:none;fill:black;font-family:sans-serif;font-size:13;text-anchor:middle;" transform="matrix(1 0 0 1 2043.27 322)">Semibold</text>
  <text style="stroke:none;fill:black;font-family:sans-serif;font-size:13;text-anchor:middle;" transform="matrix(1 0 0 1 2339.98 322)">Bold</text>
  <text style="stroke:none;fill:black;font-family:sans-serif;font-size:13;text-anchor:middle;" transform="matrix(1 0 0 1 2636.69 322)">Heavy</text>
  <text style="stroke:none;fill:black;font-family:sans-serif;font-size:13;text-anchor:middle;" transform="matrix(1 0 0 1 2933.4 322)">Black</text>
  <line style="fill:none;stroke:black;opacity:1;stroke-width:0.5;" x1="263" x2="3036" y1="1903" y2="1903"/>
  <g transform="matrix(1 0 0 1 263 1933)">
   <path d="M9.24805 0.830078Q10.8691 0.830078 12.2949 0.214844Q13.7207-0.400391 14.8096-1.49414Q15.8984-2.58789 16.5186-4.01367Q17.1387-5.43945 17.1387-7.05078Q17.1387-8.66211 16.5186-10.0879Q15.8984-11.5137 14.8047-12.6074Q13.7109-13.7012 12.2852-14.3164Q10.8594-14.9316 9.23828-14.9316Q7.62695-14.9316 6.20117-14.3164Q4.77539-13.7012 3.69141-12.6074Q2.60742-11.5137 1.9873-10.0879Q1.36719-8.66211 1.36719-7.05078Q1.36719-5.43945 1.9873-4.01367Q2.60742-2.58789 3.69629-1.49414Q4.78516-0.400391 6.21094 0.214844Q7.63672 0.830078 9.24805 0.830078ZM9.24805-0.654297Q7.91992-0.654297 6.7627-1.14746Q5.60547-1.64062 4.73145-2.51953Q3.85742-3.39844 3.36426-4.56055Q2.87109-5.72266 2.87109-7.05078Q2.87109-8.37891 3.35938-9.54102Q3.84766-10.7031 4.72168-11.582Q5.5957-12.4609 6.75293-12.9541Q7.91016-13.4473 9.23828-13.4473Q10.5762-13.4473 11.7334-12.9541Q12.8906-12.4609 13.7695-11.582Q14.6484-10.7031 15.1465-9.54102Q15.6445-8.37891 15.6445-7.05078Q15.6445-5.72266 15.1514-4.56055Q14.6582-3.39844 13.7842-2.51953Q12.9102-1.64062 11.748-1.14746Q10.5859-0.654297 9.24805-0.654297ZM5.6543-7.05078Q5.6543-6.72852 5.85938-6.52832Q6.06445-6.32812 6.40625-6.32812L8.51562-6.32812L8.51562-4.20898Q8.51562-3.88672 8.71094-3.67676Q8.90625-3.4668 9.23828-3.4668Q9.56055-3.4668 9.77051-3.67676Q9.98047-3.88672 9.98047-4.20898L9.98047-6.32812L12.0898-6.32812Q12.4219-6.32812 12.627-6.52832Q12.832-6.72852 12.832-7.05078Q12.832-7.38281 12.627-7.58789Q12.4219-7.79297 12.0898-7.79297L9.98047-7.79297L9.98047-9.90234Q9.98047-10.2344 9.77051-10.4443Q9.56055-10.6543 9.23828-10.6543Q8.90625-10.6543 8.71094-10.4443Q8.51562-10.2344 8.51562-9.90234L8.51562-7.79297L6.40625-7.79297Q6.06445-7.79297 5.85938-7.58789Q5.6543-7.38281 5.6543-7.05078Z"/>
  </g>
  <g transform="matrix(1 0 0 1 281.867 1933)">
   <path d="M11.709 2.91016Q13.75 2.91016 15.5518 2.12891Q17.3535 1.34766 18.7305-0.0292969Q20.1074-1.40625 20.8887-3.20801Q21.6699-5.00977 21.6699-7.05078Q21.6699-9.0918 20.8887-10.8936Q20.1074-12.6953 18.7305-14.0723Q17.3535-15.4492 15.5469-16.2305Q13.7402-17.0117 11.6992-17.0117Q9.6582-17.0117 7.85645-16.2305Q6.05469-15.4492 4.68262-14.0723Q3.31055-12.6953 2.5293-10.8936Q1.74805-9.0918 1.74805-7.05078Q1.74805-5.00977 2.5293-3.20801Q3.31055-1.40625 4.6875-0.0292969Q6.06445 1.34766 7.86621 2.12891Q9.66797 2.91016 11.709 2.91016ZM11.709 1.25Q9.98047 1.25 8.47656 0.605469Q6.97266-0.0390625 5.83496-1.17676Q4.69727-2.31445 4.05762-3.81836Q3.41797-5.32227 3.41797-7.05078Q3.41797-8.7793 4.05762-10.2832Q4.69727-11.7871 5.83008-12.9297Q6.96289-14.0723 8.4668-14.7119Q9.9707-15.3516 11.6992-15.3516Q13.4277-15.3516 14.9316-14.7119Q16.4355-14.0723 17.5781-12.9297Q18.7207-11.7871 19.3652-10.2832Q20.0098-8.7793 20.0098-7.05078Q20.0098-5.32227 19.3701-3.81836Q18.7305-2.31445 17.5928-1.17676Q16.4551-0.0390625 14.9463 0.605469Q13.4375 1.25 11.709 1.25ZM7.17773-7.05078Q7.17773-6.69922 7.41211-6.47461Q7.64648-6.25 8.01758-6.25L10.8887-6.25L10.8887-3.36914Q10.8887-2.99805 11.1133-2.76855Q11.3379-2.53906 11.6895-2.53906Q12.0605-2.53906 12.29-2.76855Q12.5195-2.99805 12.5195-3.36914L12.5195-6.25L15.4004-6.25Q15.7715-6.25 16.001-6.47461Q16.2305-6.69922 16.2305-7.05078Q16.2305-7.42188 16.001-7.65137Q15.7715-7.88086 15.4004-7.88086L12.5195-7.88086L12.5195-10.752Q12.5195-11.1328 12.29-11.3623Q12.0605-11.5918 11.6895-11.5918Q11.3379-11.5918 11.1133-11.3574Q10.8887-11.123 10.8887-10.752L10.8887-7.88086L8.01758-7.88086Q7.63672-7.88086 7.40723-7.65137Q7.17773-7.42188 7.17773-7.05078Z"/>
  </g>
  <g transform="matrix(1 0 0 1 305.646 1933)">
   <path d="M14.9707 5.66406Q17.0605 5.66406 18.96 5.01465Q20.8594 4.36523 22.4512 3.19336Q24.043 2.02148 25.2197 0.429688Q26.3965-1.16211 27.0459-3.06641Q27.6953-4.9707 27.6953-7.05078Q27.6953-9.14062 27.0459-11.04Q26.3965-12.9395 25.2197-14.5312Q24.043-16.123 22.4512-17.2998Q20.8594-18.4766 18.9551-19.126Q17.0508-19.7754 14.9609-19.7754Q12.8711-19.7754 10.9717-19.126Q9.07227-18.4766 7.48535-17.2998Q5.89844-16.123 4.72168-14.5312Q3.54492-12.9395 2.90039-11.04Q2.25586-9.14062 2.25586-7.05078Q2.25586-4.9707 2.90527-3.06641Q3.55469-1.16211 4.72656 0.429688Q5.89844 2.02148 7.49023 3.19336Q9.08203 4.36523 10.9814 5.01465Q12.8809 5.66406 14.9707 5.66406ZM14.9707 3.84766Q13.1641 3.84766 11.5283 3.2959Q9.89258 2.74414 8.53516 1.74805Q7.17773 0.751953 6.17676-0.610352Q5.17578-1.97266 4.62891-3.6084Q4.08203-5.24414 4.08203-7.05078Q4.08203-8.86719 4.62891-10.5029Q5.17578-12.1387 6.17188-13.501Q7.16797-14.8633 8.52539-15.8594Q9.88281-16.8555 11.5186-17.4023Q13.1543-17.9492 14.9609-17.9492Q16.7773-17.9492 18.4131-17.4023Q20.0488-16.8555 21.4111-15.8594Q22.7734-14.8633 23.7695-13.501Q24.7656-12.1387 25.3174-10.5029Q25.8691-8.86719 25.8691-7.05078Q25.8789-5.24414 25.332-3.6084Q24.7852-1.97266 23.7842-0.610352Q22.7832 0.751953 21.4209 1.74805Q20.0586 2.74414 18.4229 3.2959Q16.7871 3.84766 14.9707 3.84766ZM9.19922-7.05078Q9.19922-6.66992 9.45801-6.4209Q9.7168-6.17188 10.1172-6.17188L14.0625-6.17188L14.0625-2.2168Q14.0625-1.81641 14.3115-1.55762Q14.5605-1.29883 14.9512-1.29883Q15.3516-1.29883 15.6104-1.55273Q15.8691-1.80664 15.8691-2.2168L15.8691-6.17188L19.8242-6.17188Q20.2246-6.17188 20.4785-6.4209Q20.7324-6.66992 20.7324-7.05078Q20.7324-7.46094 20.4785-7.71484Q20.2246-7.96875 19.8242-7.96875L15.8691-7.96875L15.8691-11.9141Q15.8691-12.3242 15.6104-12.583Q15.3516-12.8418 14.9512-12.8418Q14.5605-12.8418 14.3115-12.583Q14.0625-12.3242 14.0625-11.9141L14.0625-7.96875L10.1172-7.96875Q9.70703-7.96875 9.45312-7.71484Q9.19922-7.46094 9.19922-7.05078Z"/>
  </g>
  <text style="stroke:none;fill:black;font-family:sans-serif;font-size:13;font-weight:bold;" transform="matrix(1 0 0 1 263 1953)">Design Variations</text>
  <text style="stroke:none;fill:black;font-family:sans-serif;font-size:13;" transform="matrix(1 0 0 1 263 1971)">Symbols are supported in up to nine weights and three scales.</text>
  <text style="stroke:none;fill:black;font-family:sans-serif;font-size:13;" transform="matrix(1 0 0 1 263 1989)">For optimal layout with text and other symbols, vertically align</text>
  <text style="stroke:none;fill:black;font-family:sans-serif;font-size:13;" transform="matrix(1 0 0 1 263 2007)">symbols with the adjacent text.</text>
  <line style="fill:none;stroke:#00AEEF;stroke-width:0.5;opacity:1.0;" x1="776" x2="776" y1="1919" y2="1933"/>
  <g transform="matrix(1 0 0 1 776 1933)">
   <path d="M3.31055 0.15625Q3.70117 0.15625 3.91602-0.00976562Q4.13086-0.175781 4.26758-0.585938L5.52734-4.0332L11.2891-4.0332L12.5488-0.585938Q12.6855-0.175781 12.9004-0.00976562Q13.1152 0.15625 13.4961 0.15625Q13.8867 0.15625 14.1162-0.0585938Q14.3457-0.273438 14.3457-0.644531Q14.3457-0.869141 14.2383-1.17188L9.6582-13.3691Q9.48242-13.8184 9.17969-14.043Q8.87695-14.2676 8.4082-14.2676Q7.5-14.2676 7.17773-13.3789L2.59766-1.16211Q2.49023-0.859375 2.49023-0.634766Q2.49023-0.263672 2.70996-0.0537109Q2.92969 0.15625 3.31055 0.15625ZM6.00586-5.51758L8.37891-12.0898L8.42773-12.0898L10.8008-5.51758Z"/>
  </g>
  <line style="fill:none;stroke:#00AEEF;stroke-width:0.5;opacity:1.0;" x1="793.197" x2="793.197" y1="1919" y2="1933"/>
  <text style="stroke:none;fill:black;font-family:sans-serif;font-size:13;font-weight:bold;" transform="matrix(1 0 0 1 776 1953)">Margins</text>
  <text style="stroke:none;fill:black;font-family:sans-serif;font-size:13;" transform="matrix(1 0 0 1 776 1971)">Leading and trailing margins on the left and right side of each symbol</text>
  <text style="stroke:none;fill:black;font-family:sans-serif;font-size:13;" transform="matrix(1 0 0 1 776 1989)">can be adjusted by modifying the x-location of the margin guidelines.</text>
  <text style="stroke:none;fill:black;font-family:sans-serif;font-size:13;" transform="matrix(1 0 0 1 776 2007)">Modifications are automatically applied proportionally to all</text>
  <text style="stroke:none;fill:black;font-family:sans-serif;font-size:13;" transform="matrix(1 0 0 1 776 2025)">scales and weights.</text>
  <g transform="matrix(1 0 0 1 1289 1933)">
   <path d="M2.8418 1.86523L4.54102 3.57422Q5.18555 4.22852 5.90332 4.17969Q6.62109 4.13086 7.31445 3.35938L18.0078-8.42773L17.041-9.4043L6.42578 2.27539Q6.16211 2.57812 5.89355 2.61719Q5.625 2.65625 5.27344 2.30469L4.10156 1.14258Q3.75 0.791016 3.79395 0.522461Q3.83789 0.253906 4.14062-0.0195312L15.6152-10.8203L14.6387-11.7871L3.04688-0.898438Q2.30469-0.214844 2.25098 0.498047Q2.19727 1.21094 2.8418 1.86523ZM9.25781-16.3281Q8.94531-16.0254 8.90625-15.6348Q8.86719-15.2441 9.04297-14.9512Q9.21875-14.6777 9.55566-14.541Q9.89258-14.4043 10.3809-14.5215Q11.4746-14.7754 12.5977-14.7314Q13.7207-14.6875 14.7949-13.9844L14.209-12.5293Q13.9551-11.9043 14.0674-11.4404Q14.1797-10.9766 14.5801-10.5664L16.875-8.25195Q17.2363-7.88086 17.5781-7.82227Q17.9199-7.76367 18.3398-7.8418L19.4043-8.03711L20.0684-7.36328L20.0293-6.80664Q20-6.43555 20.1221-6.12305Q20.2441-5.81055 20.6055-5.44922L21.3672-4.70703Q21.7285-4.3457 22.1533-4.33105Q22.5781-4.31641 22.9297-4.66797L25.8398-7.58789Q26.1914-7.93945 26.1816-8.35449Q26.1719-8.76953 25.8105-9.13086L25.0391-9.89258Q24.6875-10.2539 24.3799-10.3857Q24.0723-10.5176 23.7109-10.4883L23.1348-10.4395L22.4902-11.0742L22.7344-12.1973Q22.832-12.6172 22.6953-12.9834Q22.5586-13.3496 22.1191-13.7891L19.9219-15.9766Q18.6719-17.2168 17.2607-17.8369Q15.8496-18.457 14.4189-18.4814Q12.9883-18.5059 11.665-17.959Q10.3418-17.4121 9.25781-16.3281ZM10.752-15.957Q11.6602-16.6211 12.7002-16.9043Q13.7402-17.1875 14.8047-17.085Q15.8691-16.9824 16.8701-16.5137Q17.8711-16.0449 18.7012-15.2051L21.1328-12.793Q21.3086-12.6172 21.3525-12.4512Q21.3965-12.2852 21.3379-12.0312L21.0156-10.5469L22.5195-9.0625L23.5059-9.12109Q23.6914-9.13086 23.7891-9.09668Q23.8867-9.0625 24.0332-8.91602L24.6094-8.33984L22.168-5.89844L21.5918-6.47461Q21.4453-6.62109 21.4062-6.71875Q21.3672-6.81641 21.377-7.01172L21.4453-7.98828L19.9512-9.47266L18.4277-9.21875Q18.1836-9.16992 18.042-9.2041Q17.9004-9.23828 17.7148-9.41406L15.7129-11.416Q15.5176-11.5918 15.4932-11.7529Q15.4688-11.9141 15.5859-12.1875L16.4648-14.2773Q15.293-15.3711 13.8281-15.791Q12.3633-16.2109 10.8398-15.7617Q10.7227-15.7324 10.6885-15.8057Q10.6543-15.8789 10.752-15.957Z"/>
  </g>
  <text style="stroke:none;fill:black;font-family:sans-serif;font-size:13;font-weight:bold;" transform="matrix(1 0 0 1 1289 1953)">Exporting</text>
  <text style="stroke:none;fill:black;font-family:sans-serif;font-size:13;" transform="matrix(1 0 0 1 1289 1971)">Symbols should be outlined when exporting to ensure the</text>
  <text style="stroke:none;fill:black;font-family:sans-serif;font-size:13;" transform="matrix(1 0 0 1 1289 1989)">design is preserved when submitting to Xcode.</text>
  <text id="template-version" style="stroke:none;fill:black;font-family:sans-serif;font-size:13;text-anchor:end;" transform="matrix(1 0 0 1 3036 1933)">Template v.3.0</text>
  <text style="stroke:none;fill:black;font-family:sans-serif;font-size:13;text-anchor:end;" transform="matrix(1 0 0 1 3036 1951)">Requires Xcode 13 or greater</text>
  <text id="descriptive-name" style="stroke:none;fill:black;font-family:sans-serif;font-size:13;text-anchor:end;" transform="matrix(1 0 0 1 3036 1969)">Generated from arrow.triangle.2.circlepath.circle</text>
  <text style="stroke:none;fill:black;font-family:sans-serif;font-size:13;text-anchor:end;" transform="matrix(1 0 0 1 3036 1987)">Typeset at 100 points</text>
  <text style="stroke:none;fill:black;font-family:sans-serif;font-size:13;" transform="matrix(1 0 0 1 263 726)">Small</text>
  <text style="stroke:none;fill:black;font-family:sans-serif;font-size:13;" transform="matrix(1 0 0 1 263 1156)">Medium</text>
  <text style="stroke:none;fill:black;font-family:sans-serif;font-size:13;" transform="matrix(1 0 0 1 263 1586)">Large</text>
 </g>
 <g id="Guides">
  <g id="H-reference" style="fill:#27AAE1;stroke:none;" transform="matrix(1 0 0 1 339 696)">
   <path d="M0.993347 0L3.6377 0L29.3282-67.1326L30.0301-67.1326L30.0301-70.459L28.1227-70.459ZM11.6882-24.4797L46.9818-24.4797L46.2311-26.7288L12.4382-26.7288ZM55.1193 0L57.7637 0L30.6381-70.459L29.4327-70.459L29.4327-67.1326Z"/>
  </g>
  <line id="Baseline-S" style="fill:none;stroke:#27AAE1;opacity:1;stroke-width:0.5;" x1="263" x2="3036" y1="696" y2="696"/>
  <line id="Capline-S" style="fill:none;stroke:#27AAE1;opacity:1;stroke-width:0.5;" x1="263" x2="3036" y1="625.541" y2="625.541"/>
  <g id="H-reference" style="fill:#27AAE1;stroke:none;" transform="matrix(1 0 0 1 339 1126)">
   <path d="M0.993347 0L3.6377 0L29.3282-67.1326L30.0301-67.1326L30.0301-70.459L28.1227-70.459ZM11.6882-24.4797L46.9818-24.4797L46.2311-26.7288L12.4382-26.7288ZM55.1193 0L57.7637 0L30.6381-70.459L29.4327-70.459L29.4327-67.1326Z"/>
  </g>
  <line id="Baseline-M" style="fill:none;stroke:#27AAE1;opacity:1;stroke-width:0.5;" x1="263" x2="3036" y1="1126" y2="1126"/>
  <line id="Capline-M" style="fill:none;stroke:#27AAE1;opacity:1;stroke-width:0.5;" x1="263" x2="3036" y1="1055.54" y2="1055.54"/>
  <g id="H-reference" style="fill:#27AAE1;stroke:none;" transform="matrix(1 0 0 1 339 1556)">
   <path d="M0.993347 0L3.6377 0L29.3282-67.1326L30.0301-67.1326L30.0301-70.459L28.1227-70.459ZM11.6882-24.4797L46.9818-24.4797L46.2311-26.7288L12.4382-26.7288ZM55.1193 0L57.7637 0L30.6381-70.459L29.4327-70.459L29.4327-67.1326Z"/>
  </g>
  <line id="Baseline-L" style="fill:none;stroke:#27AAE1;opacity:1;stroke-width:0.5;" x1="263" x2="3036" y1="1556" y2="1556"/>
  <line id="Capline-L" style="fill:none;stroke:#27AAE1;opacity:1;stroke-width:0.5;" x1="263" x2="3036" y1="1485.54" y2="1485.54"/>
  <line id="left-margin-Regular-M" style="fill:none;stroke:#00AEEF;stroke-width:0.5;opacity:1.0;" x1="1391.32" x2="1391.32" y1="1030.79" y2="1150.12"/>
  <line id="right-margin-Regular-M" style="fill:none;stroke:#00AEEF;stroke-width:0.5;opacity:1.0;" x1="1508.37" x2="1508.37" y1="1030.79" y2="1150.12"/>
 </g>
 <g id="Symbols">
  <g id="Black-L" transform="matrix(1 0 0 1 2854.19 1556)">
   <path d="M79.1953 32.7252Q93.2356 32.7252 105.521 27.4303Q117.806 22.1354 127.174 12.7571Q136.542 3.37874 141.848-8.90649Q147.154-21.1917 147.154-35.2113Q147.154-49.2309 141.848-61.5161Q136.542-73.8013 127.164-83.1796Q117.785-92.558 105.5-97.8529Q93.2149-103.148 79.1746-103.148Q65.1563-103.148 52.8704-97.8529Q40.5846-92.558 31.2276-83.1796Q21.8707-73.8013 16.5647-61.5161Q11.2588-49.2309 11.2588-35.2113Q11.2588-21.1917 16.5647-8.90649Q21.8707 3.37874 31.238 12.7571Q40.6053 22.1354 52.8912 27.4303Q65.177 32.7252 79.1953 32.7252ZM79.1953 12.5777Q69.2941 12.5777 60.6256 8.86047Q51.9572 5.14327 45.4197-1.40458Q38.8822-7.95243 35.1644-16.6312Q31.4465-25.3101 31.4465-35.2113Q31.4465-45.1125 35.154-53.7913Q38.8615-62.4702 45.399-69.018Q51.9365-75.5659 60.6049-79.2831Q69.2734-83.0003 79.1746-83.0003Q89.0966-83.0003 97.7657-79.2831Q106.435-75.5659 112.982-69.018Q119.529-62.4702 123.257-53.7913Q126.986-45.1125 126.986-35.2113Q126.986-25.3101 123.268-16.6312Q119.551-7.95243 113.014-1.40458Q106.476 5.14327 97.7974 8.86047Q89.1186 12.5777 79.1953 12.5777ZM79.2782-3.62533Q84.3182-3.62533 88.5023-4.92134Q92.6865-6.21735 95.8962-8.4398Q98.6568-10.3155 99.212-12.8807Q99.7673-15.446 98.4054-17.4918Q97.019-19.7127 94.6068-20.4403Q92.1945-21.1678 89.3052-19.3594Q86.8583-17.7699 84.4393-17.0076Q82.0204-16.2454 79.2782-16.2454Q75.0368-16.2454 71.4527-17.8337Q67.8687-19.4219 65.1973-22.2142Q62.526-25.0064 61.1407-28.6305L64.9446-28.6305Q67.648-28.6305 68.4589-30.8326Q69.2699-33.0348 67.5846-35.1611L57.9825-47.6394Q56.505-49.602 54.3016-49.6227Q52.0983-49.6435 50.5416-47.6394L41.0978-35.1611Q39.4502-33.0335 40.2702-30.832Q41.0902-28.6305 43.7158-28.6305L48.0842-28.6305Q49.5707-21.3287 53.9753-15.698Q58.3799-10.0674 64.9245-6.84634Q71.4692-3.62533 79.2782-3.62533ZM79.2368-66.8036Q74.2565-66.8036 70.0827-65.5186Q65.909-64.2336 62.6408-61.9891Q59.8595-60.1342 59.3445-57.5689Q58.8295-55.0037 60.1329-52.9592Q61.5544-50.7733 63.9777-50.0276Q66.4009-49.2818 69.2318-51.0903Q71.6568-52.7187 74.1055-53.4615Q76.5543-54.2043 79.2368-54.2043Q83.4795-54.2043 87.1032-52.6167Q90.7268-51.029 93.3877-48.255Q96.0487-45.4809 97.395-41.7985L93.4474-41.7985Q90.823-41.7985 90.0018-39.6359Q89.1805-37.4733 90.8268-35.2886L100.43-22.7895Q101.945-20.8477 104.159-20.8276Q106.373-20.8075 107.85-22.7895L117.314-35.2886Q119-37.4745 118.19-39.6365Q117.38-41.7985 114.697-41.7985L110.453-41.7985Q109.025-49.1222 104.62-54.7705Q100.216-60.4187 93.6605-63.6112Q87.1056-66.8036 79.2368-66.8036Z"/>
  </g>
  <g id="Heavy-L" transform="matrix(1 0 0 1 2558.42 1556)">
   <path d="M78.2511 31.7672Q92.088 31.7672 104.202 26.5464Q116.316 21.3256 125.559 12.0677Q134.802 2.8099 140.04-9.30402Q145.279-21.4179 145.279-35.2251Q145.279-49.0322 140.04-61.1461Q134.802-73.2601 125.544-82.5179Q116.286-91.7758 104.172-96.9966Q92.0582-102.217 78.2213-102.217Q64.4202-102.217 52.3033-96.9966Q40.1863-91.7758 30.9613-82.5179Q21.7362-73.2601 16.4975-61.1461Q11.2588-49.0322 11.2588-35.2251Q11.2588-21.4179 16.4975-9.30402Q21.7362 2.8099 30.9761 12.0677Q40.2161 21.3256 52.333 26.5464Q64.45 31.7672 78.2511 31.7672ZM78.2511 14.0252Q68.0447 14.0252 59.1149 10.2016Q50.1851 6.37791 43.4463-0.375708Q36.7076-7.12933 32.8809-16.074Q29.0543-25.0188 29.0543-35.2251Q29.0543-45.4314 32.8661-54.3761Q36.6778-63.3208 43.4166-70.0745Q50.1553-76.8281 59.0851-80.6517Q68.015-84.4754 78.2213-84.4754Q88.4574-84.4754 97.3902-80.6517Q106.323-76.8281 113.074-70.0745Q119.824-63.3208 123.666-54.3761Q127.507-45.4314 127.507-35.2251Q127.507-25.0188 123.684-16.074Q119.86-7.12933 113.121-0.375708Q106.383 6.37791 97.4379 10.2016Q88.4932 14.0252 78.2511 14.0252ZM78.3701-2.85991Q83.6225-2.85991 88.1591-4.32509Q92.6956-5.79027 96.1221-8.30926Q98.7235-10.146 99.2503-12.6001Q99.777-15.0543 98.3809-17.0007Q96.9369-19.0811 94.6541-19.6135Q92.3713-20.146 89.7462-18.4492Q87.0241-16.5518 84.2918-15.6273Q81.5595-14.7027 78.3701-14.7027Q73.6254-14.7027 69.6169-16.5405Q65.6084-18.3783 62.6838-21.5799Q59.7591-24.7816 58.3743-28.9103L62.8606-28.9103Q65.4235-28.9103 66.1512-30.97Q66.879-33.0296 65.3282-35.0299L55.6347-47.8672Q54.2085-49.788 52.0961-49.8178Q49.9838-49.8476 48.4832-47.8672L38.9385-35.0299Q37.4026-33.0236 38.1391-30.9669Q38.8757-28.9103 41.3702-28.9103L46.3056-28.9103Q47.8007-21.2782 52.3191-15.4068Q56.8376-9.53534 63.5693-6.19763Q70.301-2.85991 78.3701-2.85991ZM78.3106-67.647Q73.1089-67.647 68.5872-66.1997Q64.0655-64.7524 60.5944-62.1976Q57.9632-60.3906 57.4767-57.9365Q56.9902-55.4824 58.3417-53.5419Q59.7884-51.4644 62.0891-50.9275Q64.3899-50.3907 66.9703-52.0875Q69.6566-54.0057 72.4142-54.9198Q75.1719-55.8339 78.3106-55.8339Q83.0614-55.8339 87.107-53.9992Q91.1527-52.1644 94.0625-48.9672Q96.9722-45.7699 98.3362-41.5966L93.6475-41.5966Q91.1591-41.5966 90.4164-39.5741Q89.6738-37.5517 91.2037-35.5067L100.903-22.6397Q102.344-20.7486 104.472-20.7219Q106.599-20.6951 108.025-22.6397L117.593-35.5067Q119.15-37.5577 118.426-39.5771Q117.701-41.5966 115.168-41.5966L110.411-41.5966Q108.96-49.2645 104.442-55.1373Q99.9235-61.0101 93.1769-64.3286Q86.4304-67.647 78.3106-67.647Z"/>
  </g>
  <g id="Bold-L" transform="matrix(1 0 0 1 2262.89 1556)">
   <path d="M77.0653 30.566Q90.6516 30.566 102.549 25.4396Q114.447 20.3133 123.533 11.2089Q132.619 2.10448 137.771-9.79333Q142.923-21.6912 142.923-35.2405Q142.923-48.7898 137.771-60.6877Q132.619-72.5855 123.515-81.6899Q114.41-90.7942 102.512-95.9206Q90.6146-101.047 77.0283-101.047Q63.4932-101.047 51.5882-95.9206Q39.6833-90.7942 30.623-81.6899Q21.5627-72.5855 16.4108-60.6877Q11.2588-48.7898 11.2588-35.2405Q11.2588-21.6912 16.4108-9.79333Q21.5627 2.10448 30.6415 11.2089Q39.7203 20.3133 51.6252 25.4396Q63.5301 30.566 77.0653 30.566ZM77.0653 15.8201Q66.4831 15.8201 57.2278 11.8629Q47.9725 7.90583 40.9827 0.897553Q33.9929-6.11072 30.0287-15.3845Q26.0645-24.6583 26.0645-35.2405Q26.0645-45.8227 30.0102-55.0965Q33.9559-64.3703 40.9457-71.3786Q47.9355-78.3868 57.1908-82.3439Q66.4461-86.3011 77.0283-86.3011Q87.6474-86.3011 96.9099-82.3439Q106.172-78.3868 113.173-71.3786Q120.175-64.3703 124.157-55.0965Q128.14-45.8227 128.14-35.2405Q128.14-24.6583 124.183-15.3845Q120.226-6.11072 113.236 0.897553Q106.246 7.90583 96.9725 11.8629Q87.6986 15.8201 77.0653 15.8201ZM77.2132-2.12456Q82.7234-2.12456 87.6715-3.80633Q92.6195-5.4881 96.3028-8.38484Q98.6715-10.1378 99.1491-12.4086Q99.6267-14.6794 98.2383-16.463Q96.7702-18.3342 94.6897-18.6513Q92.6093-18.9683 90.3229-17.4224Q87.2183-15.0943 84.075-13.9608Q80.9317-12.8274 77.2132-12.8274Q71.8594-12.8274 67.3445-14.9702Q62.8297-17.113 59.6101-20.8244Q56.3906-24.5358 55.0149-29.3011L60.3107-29.3011Q62.6645-29.3011 63.2906-31.1567Q63.9166-33.0123 62.5393-34.8372L52.8386-48.0012Q51.4842-49.8666 49.4995-49.9036Q47.5148-49.9406 46.0942-48.0012L36.5259-34.8372Q35.1407-32.998 35.7711-31.1496Q36.4014-29.3011 38.7032-29.3011L44.3074-29.3011Q45.8005-21.3081 50.4276-15.1759Q55.0548-9.04382 61.9713-5.58419Q68.8877-2.12456 77.2132-2.12456ZM77.1392-68.4667Q71.6725-68.4667 66.7429-66.8105Q61.8134-65.1543 58.1009-62.2064Q55.6952-60.4904 55.2578-58.2196Q54.8204-55.9489 56.1796-54.1794Q57.6115-52.272 59.7175-51.9659Q61.8236-51.6599 64.0808-53.2059Q67.1342-55.5404 70.2992-56.6706Q73.4642-57.8008 77.1392-57.8008Q82.5073-57.8008 87.0553-55.6651Q91.6032-53.5295 94.8043-49.807Q98.0053-46.0846 99.3746-41.2901L93.834-41.2901Q91.5465-41.2901 90.9019-39.4676Q90.2573-37.6452 91.6282-35.791L101.343-22.59Q102.69-20.7616 104.693-20.7317Q106.696-20.7018 108.051-22.59L117.642-35.791Q119.033-37.6594 118.414-39.4748Q117.795-41.2901 115.479-41.2901L110.096-41.2901Q108.632-49.3344 104.005-55.4484Q99.3781-61.5624 92.4431-65.0145Q85.5082-68.4667 77.1392-68.4667Z"/>
  </g>
  <g id="Semibold-L" transform="matrix(1 0 0 1 1966.99 1556)">
   <path d="M76.2478 29.7379Q89.6614 29.7379 101.41 24.6766Q113.159 19.6153 122.137 10.6168Q131.114 1.61818 136.206-10.1307Q141.299-21.8795 141.299-35.2511Q141.299-48.6228 136.206-60.3716Q131.114-72.1204 122.116-81.119Q113.117-90.1176 101.368-95.1789Q89.6194-100.24 76.2058-100.24Q62.854-100.24 51.0953-95.1789Q39.3365-90.1176 30.3898-81.119Q21.4432-72.1204 16.351-60.3716Q11.2588-48.6228 11.2588-35.2511Q11.2588-21.8795 16.351-10.1307Q21.4432 1.61818 30.4108 10.6168Q39.3785 19.6153 51.1372 24.6766Q62.896 29.7379 76.2478 29.7379ZM76.2478 17.0574Q65.4065 17.0574 55.9268 13.0083Q46.4471 8.95916 39.2843 1.77533Q32.1214-5.4085 28.0624-14.9092Q24.0033-24.4099 24.0033-35.2511Q24.0033-46.0924 28.0414-55.5931Q32.0795-65.0938 39.2423-72.2776Q46.4052-79.4614 55.8848-83.5105Q65.3645-87.5597 76.2058-87.5597Q87.089-87.5597 96.5787-83.5105Q106.068-79.4614 113.242-72.2776Q120.416-65.0938 124.496-55.5931Q128.576-46.0924 128.576-35.2511Q128.576-24.4099 124.527-14.9092Q120.478-5.4085 113.315 1.77533Q106.152 8.95916 96.6516 13.0083Q87.1509 17.0574 76.2478 17.0574ZM76.4157-1.61762Q82.1036-1.61762 87.3353-3.4487Q92.567-5.27978 96.4274-8.43694Q98.6357-10.1321 99.0794-12.2765Q99.5231-14.4209 98.14-16.0923Q96.6553-17.8193 94.7143-17.9879Q92.7734-18.1565 90.7205-16.7145Q87.3522-14.0894 83.9255-12.812Q80.4989-11.5346 76.4157-11.5346Q70.642-11.5346 65.778-13.8876Q60.914-16.2407 57.4912-20.3035Q54.0683-24.3664 52.6989-29.5705L58.5528-29.5705Q60.7624-29.5705 61.3184-31.2854Q61.8744-33.0003 60.6167-34.7044L50.9109-48.0936Q49.606-49.9208 47.7093-49.9628Q45.8127-50.0047 44.4472-48.0936L34.8626-34.7044Q33.5814-32.9804 34.1385-31.2754Q34.6956-29.5705 36.8646-29.5705L42.9298-29.5705Q44.4216-21.3286 49.1236-15.0168Q53.8257-8.70496 60.8696-5.16129Q67.9135-1.61762 76.4157-1.61762ZM76.3317-69.0317Q70.6823-69.0317 65.4715-67.2316Q60.2608-65.4314 56.3819-62.2124Q54.1316-60.5592 53.7281-58.4148Q53.3246-56.2704 54.6891-54.6189Q56.1107-52.8287 58.0826-52.6818Q60.0544-52.5349 62.0887-53.9769Q65.3952-56.5984 68.8411-57.8776Q72.287-59.1568 76.3317-59.1568Q82.1253-59.1568 87.0196-56.8136Q91.9138-54.4705 95.3157-50.386Q98.7176-46.3015 100.09-41.0789L93.9626-41.0789Q91.8135-41.0789 91.2366-39.3942Q90.6596-37.7096 91.9209-35.987L101.646-22.5557Q102.928-20.7705 104.846-20.7385Q106.763-20.7065 108.068-22.5557L117.675-35.987Q118.953-37.7295 118.407-39.4042Q117.86-41.0789 115.693-41.0789L109.879-41.0789Q108.406-49.3826 103.704-55.6628Q99.0021-61.9431 91.9373-65.4874Q84.8724-69.0317 76.3317-69.0317Z"/>
  </g>
  <g id="Medium-L" transform="matrix(1 0 0 1 1670.9 1556)">
   <path d="M75.6279 29.11Q88.9106 29.11 100.546 24.0981Q112.182 19.0862 121.078 10.1678Q129.973 1.24944 135.02-10.3864Q140.067-22.0223 140.067-35.2592Q140.067-48.4961 135.02-60.1319Q129.973-71.7678 121.055-80.6862Q112.137-89.6045 100.501-94.6164Q88.8648-99.6283 75.5822-99.6283Q62.3695-99.6283 50.7215-94.6164Q39.0736-89.6045 30.213-80.6862Q21.3525-71.7678 16.3056-60.1319Q11.2588-48.4961 11.2588-35.2592Q11.2588-22.0223 16.3056-10.3864Q21.3525 1.24944 30.2359 10.1678Q39.1193 19.0862 50.7673 24.0981Q62.4152 29.11 75.6279 29.11ZM75.6279 17.9956Q64.5902 17.9956 54.9404 13.8767Q45.2905 9.75784 37.9965 2.4409Q30.7024-4.87605 26.5714-14.5488Q22.4405-24.2215 22.4405-35.2592Q22.4405-46.2969 26.5486-55.9696Q30.6567-65.6423 37.9507-72.9593Q45.2448-80.2762 54.8946-84.3951Q64.5445-88.514 75.5822-88.514Q86.6657-88.514 96.3276-84.3951Q105.989-80.2762 113.294-72.9593Q120.599-65.6423 124.753-55.9696Q128.907-46.2969 128.907-35.2592Q128.907-24.2215 124.788-14.5488Q120.669-4.87605 113.375 2.4409Q106.081 9.75784 96.4083 13.8767Q86.7356 17.9956 75.6279 17.9956ZM75.8109-1.23323Q81.6336-1.23323 87.0804-3.17752Q92.5273-5.12182 96.5218-8.47645Q98.6085-10.1278 99.0265-12.1763Q99.4445-14.2249 98.0654-15.8112Q96.5681-17.4289 94.733-17.4849Q92.8978-17.5409 91.022-16.1777Q87.4537-13.3275 83.8122-11.9409Q80.1707-10.5543 75.8109-10.5543Q69.7189-10.5543 64.5902-13.0668Q59.4615-15.5793 55.8845-19.9086Q52.3075-24.2379 50.9429-29.7747L57.2199-29.7747Q59.3202-29.7747 59.8231-31.383Q60.3259-32.9912 59.1588-34.6036L49.4493-48.1636Q48.1819-49.9619 46.352-50.0076Q44.5221-50.0534 43.1984-48.1636L33.6014-34.6036Q32.3991-32.9671 32.9007-31.3709Q33.4022-29.7747 35.4704-29.7747L41.8853-29.7747Q43.376-21.3442 48.1349-14.8961Q52.8938-8.44803 60.0342-4.84063Q67.1747-1.23323 75.8109-1.23323ZM75.7194-69.4602Q69.9315-69.4602 64.5075-67.5509Q59.0835-65.6415 55.0784-62.217Q52.946-60.6114 52.5682-58.5628Q52.1904-56.5143 53.559-54.9522Q54.9728-53.2508 56.8429-53.2246Q58.713-53.1983 60.5783-54.5615Q64.0767-57.4006 67.7355-58.7928Q71.3943-60.1849 75.7194-60.1849Q81.8356-60.1849 86.9925-57.6845Q92.1493-55.1841 95.7035-50.825Q99.2576-46.466 100.633-40.9187L94.0601-40.9187Q92.016-40.9187 91.4903-39.3386Q90.9646-37.7585 92.1428-36.1356L101.876-22.5298Q103.109-20.7773 104.961-20.7436Q106.814-20.71 108.082-22.5298L117.7-36.1356Q118.891-37.7826 118.401-39.3507Q117.91-40.9187 115.855-40.9187L109.715-40.9187Q108.235-49.4191 103.476-55.8254Q98.717-62.2318 91.5537-65.846Q84.3903-69.4602 75.7194-69.4602Z"/>
  </g>
  <g id="Regular-L" transform="matrix(1 0 0 1 1374.99 1556)">
   <path d="M74.8194 28.2909Q87.9312 28.2909 99.4198 23.3434Q110.908 18.3959 119.697 9.58221Q128.485 0.768476 133.473-10.7201Q138.46-22.2086 138.46-35.2697Q138.46-48.3308 133.473-59.8193Q128.485-71.3079 119.671-80.1216Q110.858-88.9353 99.3691-93.8828Q87.8805-98.8303 74.7687-98.8303Q61.7374-98.8303 50.234-93.8828Q38.7306-88.9353 29.9824-80.1216Q21.2342-71.3079 16.2465-59.8193Q11.2588-48.3308 11.2588-35.2697Q11.2588-22.2086 16.2465-10.7201Q21.2342 0.768476 30.0077 9.58221Q38.7813 18.3959 50.2847 23.3434Q61.7881 28.2909 74.8194 28.2909ZM74.8194 19.2194Q63.5255 19.2194 53.6537 15.0095Q43.7819 10.7996 36.3167 3.30903Q28.8515-4.18154 24.6267-14.0786Q20.402-23.9757 20.402-35.2697Q20.402-46.5637 24.6014-56.4608Q28.8008-66.3579 36.266-73.8484Q43.7313-81.339 53.603-85.5489Q63.4748-89.7588 74.7687-89.7588Q86.1134-89.7588 96-85.5489Q105.887-81.339 113.362-73.8484Q120.838-66.3579 125.088-56.4608Q129.338-46.5637 129.338-35.2697Q129.338-23.9757 125.128-14.0786Q120.918-4.18154 113.453 3.30903Q105.988 10.7996 96.0909 15.0095Q86.1938 19.2194 74.8194 19.2194ZM75.0222-0.731858Q81.0206-0.731858 86.748-2.82382Q92.4754-4.91579 96.6451-8.52798Q98.573-10.1221 98.9576-12.0457Q99.3421-13.9693 97.9682-15.4445Q96.4545-16.9197 94.7573-16.8288Q93.0601-16.7379 91.4153-15.4776Q87.5861-12.3337 83.6644-10.8047Q79.7426-9.27564 75.0222-9.27564Q68.5148-9.27564 63.0408-11.9961Q57.5668-14.7165 53.7888-19.3935Q50.0107-24.0704 48.6524-30.0411L55.4814-30.0411Q57.4391-30.0411 57.8726-31.5103Q58.3061-32.9794 57.2573-34.4722L47.5428-48.255Q46.3244-50.0155 44.5815-50.0661Q42.8387-50.1168 41.5696-48.255L31.9564-34.4722Q30.857-32.9497 31.2861-31.4954Q31.7152-30.0411 33.652-30.0411L40.5228-30.0411Q42.0123-21.3646 46.8452-14.7387Q51.6782-8.1129 58.9447-4.42238Q66.2111-0.731858 75.0222-0.731858ZM74.9208-70.0191Q68.9521-70.0191 63.2501-67.9673Q57.548-65.9156 53.3783-62.2229Q51.3996-60.6795 51.0553-58.7559Q50.711-56.8323 52.0849-55.3868Q53.4885-53.8015 55.2259-53.9326Q56.9633-54.0637 58.6081-55.324Q62.3569-58.447 66.2935-59.9865Q70.23-61.526 74.9208-61.526Q81.4578-61.526 86.9572-58.8204Q92.4565-56.1148 96.2092-51.3977Q99.962-46.6805 101.341-40.7098L94.1872-40.7098Q92.2802-40.7098 91.8213-39.266Q91.3625-37.8222 92.4322-36.3294L102.176-22.4959Q103.344-20.7862 105.112-20.7503Q106.881-20.7145 108.099-22.4959L117.733-36.3294Q118.812-37.8519 118.393-39.2809Q117.974-40.7098 116.067-40.7098L109.501-40.7098Q108.011-49.4668 103.178-56.0375Q98.3452-62.6083 91.0534-66.3137Q83.7615-70.0191 74.9208-70.0191Z"/>
  </g>
  <g id="Light-L" transform="matrix(1 0 0 1 1079.2 1556)">
   <path d="M73.8959 27.3674Q86.8436 27.3674 98.1577 22.502Q109.472 17.6366 118.137 8.95629Q126.802 0.275949 131.708-11.0381Q136.614-22.3522 136.614-35.2697Q136.614-48.1872 131.708-59.5013Q126.802-70.8154 118.122-79.4957Q109.442-88.176 98.1275-93.0414Q86.8134-97.9069 73.8658-97.9069Q60.9986-97.9069 49.6594-93.0414Q38.3201-88.176 29.6951-79.4957Q21.07-70.8154 16.1644-59.5013Q11.2588-48.1872 11.2588-35.2697Q11.2588-22.3522 16.1644-11.0381Q21.07 0.275949 29.7102 8.95629Q38.3503 17.6366 49.6895 22.502Q61.0287 27.3674 73.8959 27.3674ZM73.8959 20.4712Q62.3557 20.4712 52.2479 16.1587Q42.1402 11.8462 34.4903 4.18122Q26.8403-3.48379 22.5027-13.6066Q18.1651-23.7295 18.1651-35.2697Q18.1651-46.8099 22.4876-56.9328Q26.8102-67.0556 34.4601-74.7206Q42.11-82.3856 52.2178-86.6981Q62.3255-91.0106 73.8658-91.0106Q85.4362-91.0106 95.5691-86.6981Q105.702-82.3856 113.342-74.7206Q120.982-67.0556 125.334-56.9328Q129.687-46.8099 129.687-35.2697Q129.687-23.7295 125.375-13.6066Q121.062-3.48379 113.412 4.18122Q105.762 11.8462 95.6394 16.1587Q85.5166 20.4712 73.8959 20.4712ZM74.0166-1.59378Q80.1586-1.59378 86.0092-3.8807Q91.8597-6.16763 96.132-10.1082Q97.6701-11.415 97.9315-12.9179Q98.1928-14.4208 97.1473-15.5266Q95.9209-16.6324 94.6342-16.562Q93.3474-16.4917 92.0104-15.416Q87.6477-11.6565 83.295-9.93248Q78.9423-8.2085 74.0166-8.2085Q67.1809-8.2085 61.4812-11.1136Q55.7814-14.0188 51.9213-19.0651Q48.0611-24.1114 46.7644-30.5952L53.9217-30.5952Q55.51-30.5952 55.882-31.7463Q56.2539-32.8973 55.3693-34.1439L46.332-47.3931Q45.2162-49.092 43.6581-49.1221Q42.0999-49.1523 40.9539-47.3931L31.977-34.1439Q31.0622-32.8471 31.3989-31.7212Q31.7357-30.5952 33.3441-30.5952L40.4613-30.5952Q41.8686-21.9803 46.5682-15.416Q51.2677-8.85169 58.3598-5.22273Q65.4518-1.59378 74.0166-1.59378ZM73.9563-69.1366Q67.8645-69.1366 62.029-66.8899Q56.1935-64.6432 51.9212-60.6222Q50.353-59.3455 50.1319-57.8427Q49.9107-56.3398 50.9562-55.2842Q52.0519-54.0477 53.3789-54.1583Q54.7059-54.2689 56.0429-55.3445Q60.3252-59.1242 64.703-60.8381Q69.0808-62.5521 73.9563-62.5521Q80.8422-62.5521 86.557-59.672Q92.2718-56.792 96.1169-51.7055Q99.962-46.619 101.239-40.1352L93.9204-40.1352Q92.3623-40.1352 91.9752-38.9992Q91.5882-37.8632 92.4528-36.6167L101.54-23.3373Q102.626-21.6686 104.199-21.6636Q105.772-21.6585 106.888-23.3373L115.845-36.6167Q116.78-37.9135 116.433-39.0243Q116.086-40.1352 114.528-40.1352L107.592-40.1352Q106.185-48.8306 101.485-55.3295Q96.7855-61.8285 89.6784-65.4825Q82.5713-69.1366 73.9563-69.1366Z"/>
  </g>
  <g id="Thin-L" transform="matrix(1 0 0 1 783.716 1556)">
   <path d="M72.6746 26.1461Q85.405 26.1461 96.4884 21.3892Q107.572 16.6324 116.074 8.12846Q124.577-0.375458 129.374-11.4588Q134.171-22.5422 134.171-35.2697Q134.171-47.9972 129.374-59.0806Q124.577-70.1639 116.073-78.6679Q107.569-87.1718 96.4854-91.9286Q85.402-96.6855 72.6715-96.6855Q60.0215-96.6855 48.8994-91.9286Q37.7773-87.1718 29.3151-78.6679Q20.8529-70.1639 16.0558-59.0806Q11.2588-47.9972 11.2588-35.2697Q11.2588-22.5422 16.0558-11.4588Q20.8529-0.375458 29.3166 8.12846Q37.7803 16.6324 48.9024 21.3892Q60.0245 26.1461 72.6746 26.1461ZM72.6746 22.1269Q60.8086 22.1269 50.3887 17.6787Q39.9688 13.2305 32.0746 5.33475Q24.1804-2.56097 19.6935-12.9824Q15.2066-23.4038 15.2066-35.2697Q15.2066-47.1356 19.692-57.557Q24.1774-67.9784 32.0716-75.8742Q39.9658-83.7699 50.3857-88.2181Q60.8056-92.6663 72.6715-92.6663Q84.5405-92.6663 94.9991-88.2181Q105.458-83.7699 113.315-75.8742Q121.172-67.9784 125.66-57.557Q130.149-47.1356 130.149-35.2697Q130.149-23.4038 125.7-12.9824Q121.252-2.56097 113.358 5.33475Q105.464 13.2305 95.0423 17.6787Q84.6209 22.1269 72.6746 22.1269ZM72.6866-2.73374Q79.0187-2.73374 85.0321-5.27851Q91.0455-7.82329 95.4535-12.1981Q96.4758-13.125 96.5744-14.0714Q96.6729-15.0179 96.0617-15.6352Q95.2152-16.2524 94.4713-16.2092Q93.7274-16.166 92.7975-15.3346Q87.7291-10.7608 82.8064-8.77895Q77.8837-6.79712 72.6866-6.79712Q65.4167-6.79712 59.4184-9.94655Q53.4201-13.096 49.4514-18.6308Q45.4827-24.1657 44.2673-31.3281L51.8589-31.3281Q52.9587-31.3281 53.2492-32.0584Q53.5397-32.7888 52.8722-33.7096L44.7307-46.2531Q43.7505-47.8706 42.4367-47.8736Q41.1228-47.8766 40.1396-46.2531L32.0041-33.7096Q31.3336-32.7114 31.5482-32.0197Q31.7629-31.3281 32.937-31.3281L40.3799-31.3281Q41.6786-22.7945 46.2018-16.3117Q50.7249-9.8288 57.5862-6.28127Q64.4476-2.73374 72.6866-2.73374ZM72.6806-67.9695Q66.4259-67.9695 60.4141-65.465Q54.4022-62.9604 49.9942-58.5052Q48.9688-57.5813 48.9105-56.6348Q48.8522-55.6884 49.4634-55.1485Q50.152-54.3734 50.9361-54.4569Q51.7202-54.5403 52.6501-55.3717Q57.6381-60.0199 62.5995-61.9645Q67.5609-63.9092 72.6806-63.9092Q80.0279-63.9092 86.0277-60.7984Q92.0275-57.6877 95.9948-52.1126Q99.962-46.5375 101.103-39.3752L93.5676-39.3752Q92.4708-39.3752 92.1788-38.6464Q91.8868-37.9175 92.4799-36.9967L100.699-24.4501Q101.676-22.8357 102.991-22.8714Q104.307-22.9071 105.287-24.4501L113.348-36.9967Q114.093-37.9949 113.841-38.6851Q113.589-39.3752 112.493-39.3752L105.068-39.3752Q103.769-47.9892 99.2459-54.3931Q94.7227-60.7971 87.8599-64.3833Q80.997-67.9695 72.6806-67.9695Z"/>
  </g>
  <g id="Ultralight-L" transform="matrix(1 0 0 1 487.631 1556)">
   <path d="M72.049 25.5205Q84.6682 25.5205 95.6335 20.8192Q106.599 16.118 115.018 7.70445Q123.437-0.709105 128.178-11.6743Q132.92-22.6395 132.92-35.2697Q132.92-47.8999 128.178-58.8651Q123.437-69.8303 115.023-78.2439Q106.61-86.6574 95.6443-91.3586Q84.6791-96.0599 72.0598-96.0599Q59.521-96.0599 48.5101-91.3586Q37.4993-86.6574 29.1205-78.2439Q20.7417-69.8303 16.0002-58.8651Q11.2588-47.8999 11.2588-35.2697Q11.2588-22.6395 16.0002-11.6743Q20.7417-0.709105 29.115 7.70445Q37.4884 16.118 48.4992 20.8192Q59.5101 25.5205 72.049 25.5205ZM72.049 22.9749Q60.0162 22.9749 49.4364 18.4572Q38.8567 13.9395 30.8374 5.92558Q22.818-2.0883 18.2546-12.6626Q13.6913-23.2369 13.6913-35.2697Q13.6913-47.3025 18.2601-57.8768Q22.8289-68.4511 30.8482-76.465Q38.8676-84.4789 49.4473-88.9966Q60.0271-93.5143 72.0598-93.5143Q84.0817-93.5143 94.7071-88.9966Q105.333-84.4789 113.301-76.465Q121.269-68.4511 125.827-57.8768Q130.385-47.3025 130.385-35.2697Q130.385-23.2369 125.867-12.6626Q121.349-2.0883 113.33 5.92558Q105.311 13.9395 94.7365 18.4572Q84.1621 22.9749 72.049 22.9749ZM72.0054-3.31763Q78.4348-3.31763 84.5316-5.99447Q90.6284-8.67131 95.1059-13.2686Q95.8641-14.0008 95.8793-14.6623Q95.8944-15.3238 95.5056-15.6908Q94.8538-16.0578 94.3879-16.0285Q93.922-15.9991 93.2007-15.2929Q87.7708-10.302 82.5562-8.18811Q77.3416-6.07421 72.0054-6.07421Q64.5131-6.07421 58.3618-9.34876Q52.2106-12.6233 48.1863-18.4084Q44.162-24.1935 42.9883-31.7034L50.8024-31.7034Q51.6519-31.7034 51.9007-32.2183Q52.1495-32.7331 51.5932-33.4872L43.9104-45.6692Q42.9998-47.245 41.8111-47.2341Q40.6223-47.2232 39.7226-45.6692L32.018-33.4872Q31.4726-32.6418 31.6247-32.1726Q31.7768-31.7034 32.7285-31.7034L40.3381-31.7034Q41.5813-23.2116 46.0141-16.7704Q50.4469-10.3293 57.19-6.82345Q63.9332-3.31763 72.0054-3.31763ZM72.0272-67.3717Q65.6891-67.3717 59.5869-64.7351Q53.4846-62.0985 49.0071-57.4208Q48.2598-56.6777 48.2849-56.0162Q48.31-55.3547 48.6988-55.079Q49.1789-54.5403 49.6849-54.6098Q50.191-54.6793 50.9124-55.3856Q56.2618-60.4786 61.5221-62.5415Q66.7824-64.6043 72.0272-64.6043Q79.6109-64.6043 85.7566-61.3754Q91.9024-58.1465 95.9322-52.3212Q99.962-46.4958 101.033-38.9859L93.3869-38.9859Q92.5264-38.9859 92.2831-38.4656Q92.0397-37.9453 92.4938-37.1913L100.268-25.0201Q101.189-23.4335 102.373-23.49Q103.556-23.5466 104.467-25.0201L112.069-37.1913Q112.717-38.0366 112.513-38.5113Q112.31-38.9859 111.45-38.9859L103.775-38.9859Q102.532-47.5582 98.0989-53.9135Q93.6662-60.2688 86.9284-63.8203Q80.1907-67.3717 72.0272-67.3717Z"/>
  </g>
  <g id="Black-M" transform="matrix(1 0 0 1 2871.36 1126)">
   <path d="M62.0423 18.1161Q73.0725 18.1161 82.714 13.9613Q92.3555 9.80654 99.704 2.45531Q107.052-4.89592 111.21-14.5374Q115.367-24.1789 115.367-35.2035Q115.367-46.2282 111.21-55.8697Q107.052-65.5112 99.7012-72.8624Q92.35-80.2136 82.7085-84.3684Q73.067-88.5232 62.0368-88.5232Q51.0119-88.5232 41.3705-84.3684Q31.7292-80.2136 24.3833-72.8624Q17.0375-65.5112 12.8801-55.8697Q8.72266-46.2282 8.72266-35.2035Q8.72266-24.1789 12.8801-14.5374Q17.0375-4.89592 24.3861 2.45531Q31.7347 9.80654 41.376 13.9613Q51.0174 18.1161 62.0423 18.1161ZM62.0423 0.734266Q54.6003 0.734266 48.0771-2.06802Q41.554-4.87031 36.637-9.78999Q31.7201-14.7097 28.918-21.2356Q26.1159-27.7615 26.1159-35.2035Q26.1159-42.6456 28.9152-49.1715Q31.7146-55.6974 36.6315-60.6171Q41.5485-65.5368 48.0716-68.3391Q54.5948-71.1414 62.0368-71.1414Q69.4844-71.1414 76.0074-68.3391Q82.5304-65.5368 87.4502-60.6171Q92.3701-55.6974 95.175-49.1715Q97.9799-42.6456 97.9799-35.2035Q97.9799-27.7615 95.1776-21.2356Q92.3753-14.7097 87.4584-9.78999Q82.5414-4.87031 76.0155-2.06802Q69.4896 0.734266 62.0423 0.734266ZM62.0644-11.519Q65.8059-11.519 68.7614-12.4041Q71.7168-13.2892 74.0312-14.8007Q76.2539-16.2484 76.6918-18.2743Q77.1298-20.3002 76.1487-21.9204Q75.163-23.7119 73.2385-24.446Q71.314-25.1802 68.8901-23.7082Q67.1585-22.6579 65.4954-22.1804Q63.8323-21.7029 62.0644-21.7029Q59.1664-21.7029 56.7238-22.744Q54.2813-23.7851 52.4183-25.6466Q50.5553-27.508 49.49-29.9515L51.8949-29.9515Q54.0603-29.9515 54.7516-31.737Q55.443-33.5225 54.044-35.2447L46.7752-44.5314Q45.6003-46.0795 43.8401-46.085Q42.0799-46.0905 40.8424-44.5314L33.6988-35.2447Q32.3514-33.5228 33.0458-31.7372Q33.7403-29.9515 35.8427-29.9515L38.7731-29.9515Q39.9062-24.5868 43.2027-20.4397Q46.4993-16.2927 51.3852-13.9058Q56.2712-11.519 62.0644-11.519ZM62.0534-58.8469Q58.3686-58.8469 55.4159-57.9644Q52.4633-57.0819 50.0918-55.5652Q47.8636-54.1231 47.4568-52.0971Q47.05-50.0712 47.974-48.4507Q49.0119-46.7114 50.939-45.9513Q52.8661-45.1913 55.2328-46.6633Q56.9592-47.7648 58.6507-48.2167Q60.3422-48.6685 62.0534-48.6685Q64.9511-48.6685 67.4249-47.6273Q69.8988-46.586 71.759-44.7505Q73.6193-42.915 74.6333-40.4144L72.1894-40.4144Q70.0867-40.4144 69.3926-38.6602Q68.6985-36.906 70.0462-35.1268L77.3147-25.8346Q78.5412-24.292 80.3041-24.2863Q82.0671-24.2806 83.242-25.8346L90.3914-35.1268Q91.7901-36.9057 91.0986-38.6601Q90.407-40.4144 88.2472-40.4144L85.3499-40.4144Q84.2738-45.7843 80.9773-49.9575Q77.6808-54.1307 72.7921-56.4888Q67.9033-58.8469 62.0534-58.8469Z"/>
  </g>
  <g id="Heavy-M" transform="matrix(1 0 0 1 2575.48 1126)">
   <path d="M61.2045 17.2648Q72.0509 17.2648 81.541 13.1749Q91.0312 9.08498 98.2688 1.83921Q105.506-5.40657 109.606-14.8967Q113.705-24.3868 113.705-35.217Q113.705-46.0473 109.606-55.5374Q105.506-65.0275 98.2607-72.2733Q91.0149-79.519 81.5248-83.6089Q72.0347-87.6988 61.1882-87.6988Q50.3604-87.6988 40.8691-83.6089Q31.3778-79.519 24.1495-72.2733Q16.9211-65.0275 12.8219-55.5374Q8.72266-46.0473 8.72266-35.217Q8.72266-24.3868 12.8219-14.8967Q16.9211-5.40657 24.1576 1.83921Q31.394 9.08498 40.8853 13.1749Q50.3767 17.2648 61.2045 17.2648ZM61.2045 2.03385Q53.4869 2.03385 46.73-0.86303Q39.9731-3.75991 34.8765-8.86466Q29.7798-13.9694 26.8817-20.7344Q23.9836-27.4994 23.9836-35.217Q23.9836-42.9346 26.8736-49.6996Q29.7636-56.4646 34.8602-61.5694Q39.9568-66.6741 46.7137-69.571Q53.4706-72.4679 61.1882-72.4679Q68.922-72.4679 75.6802-69.571Q82.4383-66.6741 87.5418-61.5694Q92.6453-56.4646 95.5516-49.6996Q98.4578-42.9346 98.4578-35.217Q98.4578-27.4994 95.5609-20.7344Q92.664-13.9694 87.5674-8.86466Q82.4708-3.75991 75.7057-0.86303Q68.9407 2.03385 61.2045 2.03385ZM61.2694-10.6913Q65.2054-10.6913 68.494-11.7237Q71.7826-12.7562 74.2993-14.5273Q76.4024-15.9634 76.8239-17.9195Q77.2453-19.8756 76.2004-21.4329Q75.1319-23.121 73.2961-23.6625Q71.4603-24.204 69.2663-22.8241Q67.315-21.5296 65.3853-20.9115Q63.4556-20.2933 61.2694-20.2933Q57.9097-20.2933 55.0731-21.5613Q52.2365-22.8293 50.1334-25.0569Q48.0303-27.2844 46.9598-30.174L50.0017-30.174Q52.0636-30.174 52.6793-31.8495Q53.2951-33.525 52.0124-35.1468L44.5918-44.8336Q43.4576-46.3465 41.7693-46.3628Q40.081-46.379 38.8869-44.8336L31.586-35.1468Q30.3307-33.5226 30.9521-31.8483Q31.5736-30.174 33.5781-30.174L37.0401-30.174Q38.1892-24.4806 41.6093-20.0925Q45.0294-15.7044 50.1144-13.1978Q55.1993-10.6913 61.2694-10.6913ZM61.2369-59.7528Q57.347-59.7528 54.0666-58.7296Q50.7861-57.7065 48.2257-55.9167Q46.1064-54.4968 45.7161-52.5407Q45.3258-50.5846 46.3271-49.0298Q47.418-47.3642 49.2632-46.8103Q51.1084-46.2563 53.2587-47.6362Q55.1914-48.9604 57.1441-49.5637Q59.0968-50.167 61.2369-50.167Q64.5991-50.167 67.4656-48.9002Q70.3322-47.6335 72.4271-45.4183Q74.5221-43.2032 75.5628-40.2701L72.4097-40.2701Q70.4077-40.2701 69.7838-38.6245Q69.1599-36.9789 70.4127-35.3135L77.8358-25.6104Q78.9974-24.1137 80.6938-24.0987Q82.3902-24.0837 83.5244-25.6104L90.8392-35.3135Q92.1243-36.9813 91.5097-38.6257Q90.8952-40.2701 88.8495-40.2701L85.4849-40.2701Q84.3795-45.9821 80.9594-50.3814Q77.5392-54.7808 72.4462-57.2668Q67.3531-59.7528 61.2369-59.7528Z"/>
  </g>
  <g id="Bold-M" transform="matrix(1 0 0 1 2279.69 1126)">
   <path d="M60.2672 16.3124Q70.9082 16.3124 80.2289 12.2951Q89.5497 8.27781 96.6634 1.15Q103.777-5.9778 107.811-15.2986Q111.845-24.6193 111.845-35.2321Q111.845-45.8449 107.811-55.1656Q103.777-64.4864 96.6493-71.6142Q89.5215-78.742 80.2007-82.7593Q70.8799-86.7766 60.2389-86.7766Q49.6317-86.7766 40.3082-82.7593Q30.9846-78.742 23.8878-71.6142Q16.791-64.4864 12.7568-55.1656Q8.72266-45.8449 8.72266-35.2321Q8.72266-24.6193 12.7568-15.2986Q16.791-5.9778 23.902 1.15Q31.0129 8.27781 40.3364 12.2951Q49.6599 16.3124 60.2672 16.3124ZM60.2672 3.48763Q52.2414 3.48763 45.223 0.484927Q38.2046-2.51777 32.907-7.82954Q27.6093-13.1413 24.6039-20.1738Q21.5984-27.2063 21.5984-35.2321Q21.5984-43.2579 24.5897-50.2904Q27.5811-57.3229 32.8787-62.6347Q38.1764-67.9464 45.1948-70.9491Q52.2131-73.9518 60.2389-73.9518Q68.293-73.9518 75.3141-70.9491Q82.3352-67.9464 87.6443-62.6347Q92.9533-57.3229 95.9728-50.2904Q98.9924-43.2579 98.9924-35.2321Q98.9924-27.2063 95.9897-20.1738Q92.987-13.1413 87.6894-7.82954Q82.3917-2.51777 75.3592 0.484927Q68.3267 3.48763 60.2672 3.48763ZM60.3801-9.76529Q64.5336-9.76529 68.1948-10.9627Q71.8561-12.16 74.5993-14.2215Q76.5686-15.6447 76.9716-17.5227Q77.3746-19.4006 76.2583-20.8874Q75.0972-22.4599 73.3605-22.7859Q71.6239-23.1119 69.6871-21.8351Q67.49-20.2675 65.2621-19.492Q63.0342-18.7165 60.3801-18.7165Q56.5039-18.7165 53.2265-20.2382Q49.9491-21.76 47.5775-24.3972Q45.2058-27.0343 44.1295-30.4228L47.8837-30.4228Q49.83-30.4228 50.3612-31.9753Q50.8923-33.5278 49.7398-35.0373L42.1493-45.1717Q41.0606-46.6453 39.4528-46.6735Q37.8449-46.7017 36.6995-45.1717L29.2225-35.0373Q28.0703-33.5223 28.6101-31.9725Q29.1498-30.4228 31.0448-30.4228L35.1015-30.4228Q36.2684-24.3619 39.8268-19.7041Q43.3852-15.0464 48.6927-12.4058Q54.0002-9.76529 60.3801-9.76529ZM60.3236-60.7661Q56.2043-60.7661 52.5571-59.5856Q48.91-58.4051 46.1383-56.3099Q44.1407-54.9149 43.7689-53.037Q43.397-51.159 44.4848-49.6777Q45.6351-48.0945 47.3886-47.7711Q49.1422-47.4477 51.0504-48.7246Q53.2137-50.298 55.4587-51.0706Q57.7036-51.8431 60.3236-51.8431Q64.2053-51.8431 67.5112-50.3242Q70.817-48.8052 73.1745-46.1654Q75.532-43.5256 76.6025-40.1086L72.6561-40.1086Q70.7666-40.1086 70.2214-38.5845Q69.6761-37.0604 70.8228-35.5223L78.4188-25.3597Q79.5078-23.9144 81.1298-23.8889Q82.7517-23.8634 83.8404-25.3597L91.34-35.5223Q92.4981-37.0659 91.9697-38.5872Q91.4413-40.1086 89.5233-40.1086L85.636-40.1086Q84.4977-46.2033 80.9393-50.8557Q77.3809-55.508 72.0592-58.1371Q66.7376-60.7661 60.3236-60.7661Z"/>
  </g>
  <g id="Semibold-M" transform="matrix(1 0 0 1 1983.62 1126)">
   <path d="M59.621 15.6559Q70.1203 15.6559 79.3244 11.6886Q88.5284 7.72135 95.5566 0.674869Q102.585-6.37161 106.574-15.5756Q110.564-24.7797 110.564-35.2425Q110.564-45.7053 106.574-54.9093Q102.585-64.1134 95.5384-71.1598Q88.4919-78.2063 79.2879-82.1736Q70.0838-86.1408 59.5845-86.1408Q49.1293-86.1408 39.9215-82.1736Q30.7136-78.2063 23.7075-71.1598Q16.7013-64.1134 12.712-54.9093Q8.72266-45.7053 8.72266-35.2425Q8.72266-24.7797 12.712-15.5756Q16.7013-6.37161 23.7257 0.674869Q30.7501 7.72135 39.958 11.6886Q49.1658 15.6559 59.621 15.6559ZM59.621 4.48985Q51.3827 4.48985 44.1841 1.4142Q36.9855-1.66145 31.5492-7.11594Q26.113-12.5704 23.0335-19.7873Q19.954-27.0042 19.954-35.2425Q19.954-43.4808 23.0153-50.6977Q26.0765-57.9145 31.5127-63.369Q36.9489-68.8235 44.1476-71.8992Q51.3462-74.9748 59.5845-74.9748Q67.8593-74.9748 75.0618-71.8992Q82.2642-68.8235 87.7149-63.369Q93.1655-57.9145 96.2633-50.6977Q99.361-43.4808 99.361-35.2425Q99.361-27.0042 96.2853-19.7873Q93.2097-12.5704 87.7735-7.11594Q82.3372-1.66145 75.1203 1.4142Q67.9035 4.48985 59.621 4.48985ZM59.767-9.12693Q64.0704-9.12693 67.9886-10.438Q71.9068-11.749 74.806-14.0106Q76.6831-15.425 77.0734-17.2491Q77.4637-19.0732 76.2982-20.5114Q75.0732-22.0042 73.405-22.1816Q71.7367-22.3591 69.9772-21.1533Q67.6107-19.3974 65.1772-18.5134Q62.7437-17.6294 59.767-17.6294Q55.5348-17.6294 51.9535-19.3261Q48.3722-21.0228 45.8154-23.9424Q43.2586-26.8619 42.1782-30.5944L46.4237-30.5944Q48.2902-30.5944 48.763-32.062Q49.2359-33.5297 48.173-34.9618L40.4655-45.4048Q39.4082-46.8512 37.8558-46.8877Q36.3034-46.9242 35.1914-45.4048L27.5932-34.9618Q26.512-33.5221 26.9955-32.0582Q27.4789-30.5944 29.2984-30.5944L33.765-30.5944Q34.9442-24.28 38.5979-19.4364Q42.2517-14.5928 47.7126-11.8598Q53.1736-9.12693 59.767-9.12693ZM59.694-61.4647Q55.4164-61.4647 51.5165-60.1757Q47.6166-58.8868 44.6992-56.581Q42.7856-55.2032 42.4265-53.3791Q42.0673-51.5549 43.2147-50.1243Q44.406-48.598 46.0963-48.4335Q47.7867-48.2691 49.528-49.4749Q51.8504-51.22 54.2968-52.1094Q56.7432-52.9987 59.694-52.9987Q63.9339-52.9987 67.5426-51.3058Q71.1512-49.6129 73.6897-46.6804Q76.2282-43.7478 77.3193-39.9973L72.826-39.9973Q71.0141-39.9973 70.523-38.5569Q70.0319-37.1166 71.1055-35.6663L78.8207-25.1868Q79.8596-23.7769 81.4303-23.7442Q83.0009-23.7115 84.0582-25.1868L91.6853-35.6663Q92.7558-37.1242 92.2868-38.5607Q91.8178-39.9973 89.9877-39.9973L85.7402-39.9973Q84.5792-46.3558 80.9254-51.1826Q77.2717-56.0094 71.7925-58.737Q66.3133-61.4647 59.694-61.4647Z"/>
  </g>
  <g id="Medium-M" transform="matrix(1 0 0 1 1687.4 1126)">
   <path d="M59.1311 15.158Q69.523 15.158 78.6385 11.2287Q87.754 7.29942 94.7174 0.314603Q101.681-6.67021 105.636-15.7857Q109.591-24.9012 109.591-35.2504Q109.591-45.5995 105.636-54.715Q101.681-63.8305 94.696-70.8153Q87.7112-77.8002 78.5957-81.7295Q69.4802-85.6588 59.0883-85.6588Q48.7484-85.6588 39.6283-81.7295Q30.5081-77.8002 23.5707-70.8153Q16.6333-63.8305 12.678-54.715Q8.72266-45.5995 8.72266-35.2504Q8.72266-24.9012 12.678-15.7857Q16.6333-6.67021 23.5921 0.314603Q30.5509 7.29942 39.671 11.2287Q48.7912 15.158 59.1311 15.158ZM59.1311 5.24978Q50.7316 5.24978 43.3963 2.11881Q36.061-1.01215 30.5197-6.57486Q24.9784-12.1376 21.8428-19.4943Q18.7072-26.8509 18.7072-35.2504Q18.7072-43.6498 21.8214-51.0065Q24.9356-58.3632 30.4769-63.9259Q36.0183-69.4886 43.3536-72.6195Q50.6889-75.7505 59.0883-75.7505Q67.5305-75.7505 74.8704-72.6195Q82.2103-69.4886 87.7684-63.9259Q93.3265-58.3632 96.4835-51.0065Q99.6405-43.6498 99.6405-35.2504Q99.6405-26.8509 96.5095-19.4943Q93.3785-12.1376 87.8372-6.57486Q82.2959-1.01215 74.9392 2.11881Q67.5825 5.24978 59.1311 5.24978ZM59.3022-8.6429Q63.7192-8.6429 67.8322-10.0401Q71.9452-11.4373 74.9628-13.8508Q76.7699-15.2583 77.1506-17.0416Q77.5312-18.8249 76.3284-20.2263Q75.0551-21.6586 73.4387-21.7234Q71.8223-21.7882 70.1972-20.6363Q67.7022-18.7376 65.1128-17.7714Q62.5234-16.8052 59.3022-16.8052Q54.8-16.8052 50.9882-18.6345Q47.1765-20.4639 44.4793-23.5976Q41.7822-26.7312 40.6987-30.7244L45.3166-30.7244Q47.1226-30.7244 47.5513-32.1278Q47.9799-33.5311 46.9851-34.9046L39.1887-45.5815Q38.1552-47.0074 36.6449-47.0501Q35.1345-47.0929 34.048-45.5815L26.3578-34.9046Q25.3304-33.5219 25.7712-32.1232Q26.2119-30.7244 27.9742-30.7244L32.7516-30.7244Q33.9402-24.2179 37.6662-19.2333Q41.3922-14.2488 46.9695-11.4458Q52.5468-8.6429 59.3022-8.6429ZM59.2166-61.9944Q54.8191-61.9944 50.7275-60.6232Q46.6359-59.252 43.608-56.7865Q41.7581-55.4217 41.4086-53.6384Q41.0591-51.8552 42.2517-50.463Q43.474-48.9797 45.1164-48.9358Q46.7588-48.8919 48.3736-50.0438Q50.8166-51.9192 53.4158-52.897Q56.0149-53.8749 59.2166-53.8749Q63.7281-53.8749 67.5664-52.0502Q71.4046-50.2254 74.0804-47.0709Q76.7561-43.9164 77.8629-39.9128L72.9548-39.9128Q71.2018-39.9128 70.7518-38.536Q70.3018-37.1592 71.3198-35.7755L79.1254-25.0557Q80.1264-23.6727 81.6582-23.6346Q83.1899-23.5964 84.2234-25.0557L91.9472-35.7755Q92.9512-37.1684 92.5272-38.5406Q92.1032-39.9128 90.3399-39.9128L85.8192-39.9128Q84.6409-46.4714 80.9149-51.4305Q77.1889-56.3895 71.5902-59.192Q65.9915-61.9944 59.2166-61.9944Z"/>
  </g>
  <g id="Regular-M" transform="matrix(1 0 0 1 1391.32 1126)">
   <path d="M58.492 14.5087Q68.7438 14.5087 77.7439 10.6289Q86.7439 6.74907 93.6228-0.155309Q100.502-7.05969 104.413-16.0597Q108.324-25.0598 108.324-35.2606Q108.324-45.4615 104.413-54.4616Q100.502-63.4616 93.5973-70.366Q86.693-77.2704 77.6929-81.1502Q68.6929-85.03 58.441-85.03Q48.2515-85.03 39.2458-81.1502Q30.2401-77.2704 23.3923-70.366Q16.5446-63.4616 12.6336-54.4616Q8.72266-45.4615 8.72266-35.2606Q8.72266-25.0598 12.6336-16.0597Q16.5446-7.05969 23.4178-0.155309Q30.291 6.74907 39.2968 10.6289Q48.3025 14.5087 58.492 14.5087ZM58.492 6.24099Q49.8824 6.24099 42.3688 3.03788Q34.8553-0.165238 29.1769-5.86909Q23.4985-11.573 20.2897-19.112Q17.0809-26.6511 17.0809-35.2606Q17.0809-43.8702 20.2642-51.4093Q23.4476-58.9483 29.1259-64.6522Q34.8043-70.3561 42.3179-73.5592Q49.8315-76.7623 58.441-76.7623Q67.1016-76.7623 74.6208-73.5592Q82.1401-70.3561 87.8383-64.6522Q93.5364-58.9483 96.7707-51.4093Q100.005-43.8702 100.005-35.2606Q100.005-26.6511 96.8019-19.112Q93.5988-11.573 87.9204-5.86909Q82.242-0.165238 74.7029 3.03788Q67.1639 6.24099 58.492 6.24099ZM58.6958-8.01156Q63.2612-8.01156 67.6283-9.5212Q71.9954-11.0308 75.1673-13.6422Q76.8832-15.041 77.2513-16.771Q77.6194-18.5011 76.3679-19.8545Q75.0314-21.2079 73.4826-21.1258Q71.9338-21.0436 70.4841-19.962Q67.8215-17.8771 65.0288-16.8036Q62.236-15.7301 58.6958-15.7301Q53.8415-15.7301 49.7292-17.7325Q45.6169-19.7349 42.7366-23.1478Q39.8564-26.5607 38.7689-30.8941L43.8725-30.8941Q45.5998-30.8941 45.9707-32.2136Q46.3416-33.533 45.4355-34.8299L37.5234-45.8121Q36.5209-47.211 35.0654-47.262Q33.6099-47.313 32.5565-45.8121L24.7463-34.8299Q23.7892-33.5217 24.1743-32.2079Q24.5594-30.8941 26.247-30.8941L31.4298-30.8941Q32.6305-24.1369 36.4508-18.9685Q40.2711-13.8001 46.0002-10.9058Q51.7292-8.01156 58.6958-8.01156ZM58.5939-62.6853Q54.0399-62.6853 49.6983-61.2068Q45.3567-59.7283 42.1847-57.0546Q40.4179-55.7068 40.081-53.9768Q39.7441-52.2468 40.9955-50.9047Q42.2584-49.4776 43.8383-49.5909Q45.4182-49.7042 46.868-50.7859Q49.4682-52.8311 52.2666-53.9244Q55.0651-55.0178 58.5939-55.0178Q63.4596-55.0178 67.5974-53.021Q71.7352-51.0243 74.59-47.5802Q77.4447-44.1362 78.5718-39.8027L73.1228-39.8027Q71.4466-39.8027 71.0501-38.5088Q70.6537-37.2148 71.5994-35.9179L79.5229-24.8848Q80.4744-23.5368 81.9554-23.4915Q83.4364-23.4462 84.4388-24.8848L92.2887-35.9179Q93.2061-37.2261 92.8408-38.5144Q92.4756-39.8027 90.7993-39.8027L85.9222-39.8027Q84.7215-46.6222 80.9012-51.7538Q77.0809-56.8854 71.3264-59.7853Q65.5719-62.6853 58.5939-62.6853Z"/>
  </g>
  <g id="Light-M" transform="matrix(1 0 0 1 1095.44 1126)">
   <path d="M57.664 13.6807Q67.7687 13.6807 76.6123 9.87453Q85.456 6.06831 92.2245-0.716478Q98.993-7.50127 102.83-16.3449Q106.668-25.1886 106.668-35.2606Q106.668-45.3327 102.83-54.1764Q98.993-63.02 92.2082-69.8048Q85.4234-76.5896 76.5798-80.3958Q67.7361-84.202 57.6315-84.202Q47.5892-84.202 38.7306-80.3958Q29.8721-76.5896 23.1348-69.8048Q16.3974-63.02 12.56-54.1764Q8.72266-45.3327 8.72266-35.2606Q8.72266-25.1886 12.56-16.3449Q16.3974-7.50127 23.151-0.716478Q29.9047 6.06831 38.7632 9.87453Q47.6217 13.6807 57.664 13.6807ZM57.664 7.36333Q48.8337 7.36333 41.1085 4.06822Q33.3833 0.773111 27.5394-5.08714Q21.6954-10.9474 18.3854-18.6888Q15.0755-26.4303 15.0755-35.2606Q15.0755-44.091 18.3692-51.8325Q21.6629-59.5739 27.5068-65.4342Q33.3508-71.2944 41.076-74.5895Q48.8011-77.8846 57.6315-77.8846Q66.4944-77.8846 74.2345-74.5895Q81.9745-71.2944 87.8199-65.4342Q93.6652-59.5739 96.9915-51.8325Q100.318-44.091 100.318-35.2606Q100.318-26.4303 97.0227-18.6888Q93.7275-10.9474 87.8836-5.08714Q82.0396 0.773111 74.2982 4.06822Q66.5567 7.36333 57.664 7.36333ZM57.7943-8.78432Q62.4884-8.78432 66.9659-10.4687Q71.4434-12.1532 74.7074-15.059Q76.0737-16.2002 76.3313-17.553Q76.589-18.9058 75.6319-19.9281Q74.553-20.9503 73.3722-20.8866Q72.1914-20.8229 71.0177-19.9068Q67.8767-17.2699 64.6976-16.0216Q61.5185-14.7733 57.7943-14.7733Q52.6455-14.7733 48.3308-16.9413Q44.0162-19.1093 41.0623-22.8534Q38.1085-26.5975 37.0762-31.3909L42.4742-31.3909Q43.8702-31.3909 44.186-32.4252Q44.5017-33.4594 43.7428-34.5355L36.4379-45.0393Q35.5274-46.3831 34.2375-46.4156Q32.9476-46.4482 32.0045-45.0393L24.7647-34.5355Q23.9732-33.4297 24.2755-32.4103Q24.5778-31.3909 25.971-31.3909L31.3746-31.3909Q32.5018-24.6889 36.2025-19.5757Q39.9032-14.4625 45.4758-11.6234Q51.0485-8.78432 57.7943-8.78432ZM57.7292-61.8941Q53.0648-61.8941 48.6036-60.2409Q44.1423-58.5876 40.8784-55.6195Q39.4795-54.5109 39.253-53.158Q39.0265-51.8052 39.9836-50.8127Q40.9704-49.6984 42.1824-49.7933Q43.3943-49.8882 44.5681-50.8043Q47.6467-53.4383 50.8407-54.688Q54.0347-55.9377 57.7292-55.9377Q62.9077-55.9377 67.2386-53.7846Q71.5696-51.6315 74.5072-47.8562Q77.4447-44.081 78.4798-39.2876L72.8836-39.2876Q71.5201-39.2876 71.1881-38.2696Q70.8561-37.2516 71.6178-36.1755L78.9525-25.6391Q79.8304-24.3279 81.1366-24.3102Q82.4428-24.2926 83.3533-25.6391L90.5959-36.1755Q91.3846-37.2813 91.0837-38.2844Q90.7829-39.2876 89.4194-39.2876L84.2111-39.2876Q83.084-46.0519 79.3833-51.119Q75.6826-56.1862 70.0937-59.0402Q64.5047-61.8941 57.7292-61.8941Z"/>
  </g>
  <g id="Thin-M" transform="matrix(1 0 0 1 799.828 1126)">
   <path d="M56.569 12.5857Q66.479 12.5857 75.1158 8.87683Q83.7526 5.16794 90.3751-1.45867Q96.9976-8.08529 100.738-16.7221Q104.478-25.3589 104.478-35.2606Q104.478-45.1624 100.738-53.7992Q96.9976-62.436 90.371-69.0626Q83.7444-75.6892 75.1076-79.3981Q66.4707-83.107 56.5608-83.107Q46.7131-83.107 38.0493-79.3981Q29.3854-75.6892 22.7941-69.0626Q16.2027-62.436 12.4627-53.7992Q8.72266-45.1624 8.72266-35.2606Q8.72266-25.3589 12.4627-16.7221Q16.2027-8.08529 22.7982-1.45867Q29.3936 5.16794 38.0575 8.87683Q46.7214 12.5857 56.569 12.5857ZM56.569 8.84771Q47.4466 8.84771 39.4416 5.43093Q31.4366 2.01415 25.3736-4.05293Q19.3107-10.12 15.8668-18.1291Q12.423-26.1383 12.423-35.2606Q12.423-44.383 15.8627-52.3921Q19.3024-60.4013 25.3654-66.4684Q31.4284-72.5354 39.4334-75.9522Q47.4384-79.369 56.5608-79.369Q65.6914-79.369 73.7234-75.9522Q81.7555-72.5354 87.7955-66.4684Q93.8356-60.4013 97.2835-52.3921Q100.731-44.383 100.731-35.2606Q100.731-26.1383 97.3147-18.1291Q93.8979-10.12 87.8349-4.05293Q81.7719 2.01415 73.7628 5.43093Q65.7537 8.84771 56.569 8.84771ZM56.6019-9.80635Q61.4664-9.80635 66.0899-11.722Q70.7134-13.6376 74.099-16.9327Q75.003-17.7332 75.1146-18.5872Q75.2263-19.4412 74.6585-20.0254Q73.9203-20.6096 73.2262-20.5702Q72.5321-20.5308 71.7234-19.8338Q67.9497-16.4669 64.2596-14.9874Q60.5695-13.5079 56.6019-13.5079Q51.0638-13.5079 46.4814-15.8949Q41.8991-18.2819 38.8479-22.464Q35.7967-26.6461 34.8375-32.0479L40.6248-32.0479Q41.5828-32.0479 41.8256-32.705Q42.0683-33.3621 41.5041-34.1462L35.0021-44.0173Q34.2134-45.2881 33.1424-45.2963Q32.0715-45.3045 31.2745-44.0173L24.789-34.1462Q24.2166-33.308 24.4093-32.678Q24.6021-32.0479 25.606-32.0479L31.3016-32.0479Q32.3314-25.4189 35.8739-20.3787Q39.4165-15.3385 44.7823-12.5724Q50.1481-9.80635 56.6019-9.80635ZM56.5855-60.8478Q51.7751-60.8478 47.1557-58.9633Q42.5363-57.0789 39.1507-53.7214Q38.2385-52.9291 38.158-52.0751Q38.0775-51.2212 38.6452-50.691Q39.267-49.9904 39.9923-50.061Q40.7176-50.1315 41.5263-50.8286Q45.2376-54.2413 48.9548-55.6979Q52.672-57.1544 56.5855-57.1544Q62.1776-57.1544 66.7641-54.7945Q71.3506-52.4345 74.3977-48.2212Q77.4447-44.008 78.3581-38.6062L72.5673-38.6062Q71.6175-38.6062 71.3706-37.9532Q71.1238-37.3002 71.6422-36.5162L78.1982-26.6368Q78.9787-25.3743 80.0538-25.3931Q81.1288-25.4119 81.9176-26.6368L88.3572-36.5162Q88.9755-37.3543 88.7598-37.9803Q88.5441-38.6062 87.5943-38.6062L81.948-38.6062Q80.9183-45.2975 77.3757-50.2795Q73.8332-55.2615 68.4633-58.0546Q63.0933-60.8478 56.5855-60.8478Z"/>
  </g>
  <g id="Ultralight-M" transform="matrix(1 0 0 1 503.679 1126)">
   <path d="M56.0081 12.0248Q65.8184 12.0248 74.3492 8.36581Q82.8801 4.70678 89.4278-1.83882Q95.9756-8.38442 99.6657-16.9153Q103.356-25.4462 103.356-35.2606Q103.356-45.0751 99.6657-53.606Q95.9756-62.1369 89.43-68.6825Q82.8844-75.2281 74.3535-78.8871Q65.8226-82.5461 56.0124-82.5461Q46.2644-82.5461 37.7003-78.8871Q29.1361-75.2281 22.6196-68.6825Q16.103-62.1369 12.4128-53.606Q8.72266-45.0751 8.72266-35.2606Q8.72266-25.4462 12.4128-16.9153Q16.103-8.38442 22.6175-1.83882Q29.1319 4.70678 37.6961 8.36581Q46.2602 12.0248 56.0081 12.0248ZM56.0081 9.60801Q46.7362 9.60801 38.5878 6.12891Q30.4395 2.64981 24.2644-3.52322Q18.0892-9.69625 14.5768-17.8425Q11.0645-25.9887 11.0645-35.2606Q11.0645-44.5326 14.579-52.6788Q18.0934-60.825 24.2686-66.9981Q30.4437-73.1711 38.5921-76.6502Q46.7404-80.1293 56.0124-80.1293Q65.2801-80.1293 73.4617-76.6502Q81.6433-73.1711 87.7831-66.9981Q93.9228-60.825 97.4331-52.6788Q100.943-44.5326 100.943-35.2606Q100.943-25.9887 97.4642-17.8425Q93.9851-9.69625 87.81-3.52322Q81.6348 2.64981 73.4886 6.12891Q65.3424 9.60801 56.0081 9.60801ZM55.9912-10.3298Q60.9429-10.3298 65.6412-12.3638Q70.3395-14.3978 73.7874-17.8924Q74.4546-18.5184 74.4914-19.1169Q74.5283-19.7154 74.16-20.0753Q73.5963-20.4351 73.1514-20.4082Q72.7066-20.3813 72.0848-19.7964Q67.9871-16.0556 64.0352-14.4577Q60.0834-12.8598 55.9912-12.8598Q50.2537-12.8598 45.5342-15.359Q40.8147-17.8582 37.7137-22.2646Q34.6127-26.6711 33.6908-32.3844L39.6776-32.3844Q40.4112-32.3844 40.6166-32.8483Q40.8219-33.3122 40.3574-33.9467L34.2668-43.4938Q33.5403-44.7272 32.5816-44.7229Q31.6228-44.7187 30.9006-43.4938L24.8015-33.9467Q24.3412-33.2457 24.4779-32.8151Q24.6146-32.3844 25.4191-32.3844L31.2642-32.3844Q32.2442-25.7929 35.7057-20.79Q39.1672-15.7872 44.4271-13.0585Q49.687-10.3298 55.9912-10.3298ZM55.9997-60.3118Q51.1145-60.3118 46.4141-58.309Q41.7137-56.3061 38.2657-52.7493Q37.6028-52.119 37.5971-51.5205Q37.5914-50.922 37.9597-50.6287Q38.3946-50.14 38.8706-50.1981Q39.3466-50.2561 39.9683-50.8411Q44.0037-54.6526 47.9889-56.2151Q51.974-57.7776 55.9997-57.7776Q61.8037-57.7776 66.5211-55.3117Q71.2384-52.8458 74.3416-48.4082Q77.4447-43.9706 78.2958-38.2572L72.4053-38.2572Q71.6673-38.2572 71.4641-37.7912Q71.2609-37.3252 71.6546-36.6907L77.8118-27.1479Q78.5425-25.9102 79.4991-25.9478Q80.4557-25.9853 81.1822-27.1479L87.2105-36.6907Q87.7416-37.3917 87.5695-37.8245Q87.3974-38.2572 86.6595-38.2572L80.7889-38.2572Q79.809-44.9111 76.3475-49.8495Q72.8859-54.7879 67.6282-57.5499Q62.3704-60.3118 55.9997-60.3118Z"/>
  </g>
  <g id="Black-S" transform="matrix(1 0 0 1 2884.57 696)">
   <path d="M48.8281 6.78711Q57.5195 6.78711 65.1123 3.51562Q72.7051 0.244141 78.4912-5.54199Q84.2773-11.3281 87.5488-18.9209Q90.8203-26.5137 90.8203-35.2051Q90.8203-43.8965 87.5488-51.4893Q84.2773-59.082 78.4912-64.8682Q72.7051-70.6543 65.1123-73.9258Q57.5195-77.1973 48.8281-77.1973Q40.1367-77.1973 32.5439-73.9258Q24.9512-70.6543 19.165-64.8682Q13.3789-59.082 10.1074-51.4893Q6.83594-43.8965 6.83594-35.2051Q6.83594-26.5137 10.1074-18.9209Q13.3789-11.3281 19.165-5.54199Q24.9512 0.244141 32.5439 3.51562Q40.1367 6.78711 48.8281 6.78711ZM48.8281-7.37305Q43.0664-7.37305 38.0127-9.5459Q32.959-11.7188 29.1504-15.5273Q25.3418-19.3359 23.1689-24.3896Q20.9961-29.4434 20.9961-35.2051Q20.9961-40.9668 23.1689-46.0205Q25.3418-51.0742 29.1504-54.8828Q32.959-58.6914 38.0127-60.8643Q43.0664-63.0371 48.8281-63.0371Q54.5898-63.0371 59.6436-60.8643Q64.6973-58.6914 68.5059-54.8828Q72.3145-51.0742 74.4873-46.0205Q76.6602-40.9668 76.6602-35.2051Q76.6602-29.4434 74.4873-24.3896Q72.3145-19.3359 68.5059-15.5273Q64.6973-11.7188 59.6436-9.5459Q54.5898-7.37305 48.8281-7.37305ZM48.8281-16.9434Q51.709-16.9434 53.9307-17.6025Q56.1523-18.2617 57.9102-19.3848Q59.668-20.5078 60.0098-22.0947Q60.3516-23.6816 59.6191-24.9512Q58.8867-26.3672 57.373-27.002Q55.8594-27.6367 53.9062-26.4648Q52.5879-25.6836 51.3428-25.3418Q50.0977-25 48.8281-25Q46.6797-25 44.873-25.7568Q43.0664-26.5137 41.6748-27.8809Q40.2832-29.248 39.4531-31.0547L41.1621-31.0547Q42.8711-31.0547 43.4326-32.4707Q43.9941-33.8867 42.8711-35.2539L37.2559-42.3828Q36.3281-43.6035 34.9365-43.6035Q33.5449-43.6035 32.5684-42.3828L27.0508-35.2539Q25.9766-33.8867 26.5381-32.4707Q27.0996-31.0547 28.7598-31.0547L30.9082-31.0547Q31.7871-26.9531 34.3262-23.7793Q36.8652-20.6055 40.625-18.7744Q44.3848-16.9434 48.8281-16.9434ZM48.8281-53.418Q45.9961-53.418 43.7744-52.7588Q41.5527-52.0996 39.7461-50.9766Q37.9883-49.8535 37.6709-48.2666Q37.3535-46.6797 38.0371-45.4102Q38.8184-44.043 40.332-43.3838Q41.8457-42.7246 43.75-43.8965Q45.0684-44.7266 46.3379-45.0439Q47.6074-45.3613 48.8281-45.3613Q50.9766-45.3613 52.8076-44.6045Q54.6387-43.8477 56.0303-42.5049Q57.4219-41.1621 58.2031-39.3066L56.4941-39.3066Q54.834-39.3066 54.2725-37.915Q53.7109-36.5234 54.7852-35.1074L60.4004-27.9785Q61.377-26.7578 62.7686-26.7578Q64.1602-26.7578 65.0879-27.9785L70.6055-35.1074Q71.7285-36.5234 71.167-37.915Q70.6055-39.3066 68.8965-39.3066L66.748-39.3066Q65.918-43.4082 63.3789-46.6064Q60.8398-49.8047 57.0801-51.6113Q53.3203-53.418 48.8281-53.418Z"/>
  </g>
  <g id="Heavy-S" transform="matrix(1 0 0 1 2588.47 696)">
   <path d="M48.2173 6.16479Q56.7704 6.16479 64.2537 2.9394Q71.737-0.285985 77.4425-5.99721Q83.1479-11.7084 86.3791-19.1917Q89.6102-26.675 89.6102-35.2166Q89.6102-43.7582 86.3791-51.2415Q83.1479-58.7248 77.4367-64.436Q71.7255-70.1472 64.2422-73.3726Q56.7589-76.598 48.2058-76.598Q39.6642-76.598 32.1809-73.3726Q24.6976-70.1472 18.9979-64.436Q13.2982-58.7248 10.0671-51.2415Q6.83594-43.7582 6.83594-35.2166Q6.83594-26.675 10.0671-19.1917Q13.2982-11.7084 19.0037-5.99721Q24.7092-0.285985 32.1924 2.9394Q39.6757 6.16479 48.2173 6.16479ZM48.2173-6.40499Q42.2482-6.40499 37.0216-8.64699Q31.795-10.889 27.8539-14.8359Q23.9128-18.7828 21.6708-24.0151Q19.4288-29.2474 19.4288-35.2166Q19.4288-41.1858 21.665-46.4181Q23.9012-51.6504 27.8424-55.5973Q31.7835-59.5442 37.0101-61.7862Q42.2366-64.0282 48.2058-64.0282Q54.1865-64.0282 59.4131-61.7862Q64.6396-59.5442 68.5865-55.5973Q72.5334-51.6504 74.7812-46.4181Q77.0289-41.1858 77.0289-35.2166Q77.0289-29.2474 74.7869-24.0151Q72.5449-18.7828 68.6038-14.8359Q64.6627-10.889 59.4304-8.64699Q54.198-6.40499 48.2173-6.40499ZM48.2634-16.1366Q51.2941-16.1366 53.7866-16.8995Q56.2791-17.6624 58.1983-18.9699Q59.8985-20.116 60.2403-21.6914Q60.5821-23.2668 59.7574-24.5248Q58.9213-25.8947 57.4364-26.3623Q55.9516-26.83 54.1598-25.7158Q52.7147-24.7962 51.2909-24.3565Q49.8672-23.9167 48.2634-23.9167Q45.7577-23.9167 43.6399-24.8464Q41.5221-25.7761 39.9346-27.4141Q38.3471-29.0521 37.5055-31.1815L39.7216-31.1815Q41.3844-31.1815 41.8883-32.5398Q42.3922-33.8982 41.3499-35.2078L35.5272-42.7401Q34.6225-43.9377 33.2712-43.9492Q31.92-43.9608 30.9665-42.7401L25.2414-35.2078Q24.2248-33.8982 24.7345-32.5398Q25.2442-31.1815 26.8582-31.1815L29.4331-31.1815Q30.335-26.7918 32.9951-23.4048Q35.6552-20.0177 39.6051-18.0772Q43.555-16.1366 48.2634-16.1366ZM48.2404-54.2938Q45.247-54.2938 42.7603-53.5367Q40.2735-52.7796 38.3171-51.4606Q36.6053-50.326 36.288-48.7506Q35.9706-47.1752 36.7579-45.9172Q37.6198-44.5731 39.1104-44.0925Q40.6011-43.612 42.3555-44.7262Q43.7891-45.6716 45.2315-46.0984Q46.6739-46.5253 48.2404-46.5253Q50.7461-46.5253 52.8883-45.5956Q55.0305-44.6659 56.6123-43.0408Q58.194-41.4156 59.0098-39.249L56.7131-39.249Q55.099-39.249 54.5894-37.915Q54.0797-36.5811 55.0963-35.2342L60.919-27.6904Q61.8495-26.5043 63.2065-26.4927Q64.5635-26.4812 65.4682-27.6904L71.2047-35.2342Q72.2471-36.5811 71.7432-37.915Q71.2393-39.249 69.588-39.249L67.0823-39.249Q66.2176-43.6502 63.5575-47.0501Q60.8975-50.4501 56.9418-52.3719Q52.9861-54.2938 48.2404-54.2938Z"/>
  </g>
  <g id="Bold-S" transform="matrix(1 0 0 1 2292.43 696)">
   <path d="M47.5342 5.46875Q55.9326 5.46875 63.2935 2.29492Q70.6543-0.878906 76.2695-6.50635Q81.8848-12.1338 85.0708-19.4946Q88.2568-26.8555 88.2568-35.2295Q88.2568-43.6035 85.0708-50.9644Q81.8848-58.3252 76.2573-63.9526Q70.6299-69.5801 63.269-72.7539Q55.9082-75.9277 47.5098-75.9277Q39.1357-75.9277 31.7749-72.7539Q24.4141-69.5801 18.811-63.9526Q13.208-58.3252 10.022-50.9644Q6.83594-43.6035 6.83594-35.2295Q6.83594-26.8555 10.022-19.4946Q13.208-12.1338 18.8232-6.50635Q24.4385-0.878906 31.7993 2.29492Q39.1602 5.46875 47.5342 5.46875ZM47.5342-5.32227Q41.333-5.32227 35.9131-7.6416Q30.4932-9.96094 26.4038-14.0625Q22.3145-18.1641 19.9951-23.5962Q17.6758-29.0283 17.6758-35.2295Q17.6758-41.4307 19.9829-46.8628Q22.29-52.2949 26.3794-56.3965Q30.4688-60.498 35.8887-62.8174Q41.3086-65.1367 47.5098-65.1367Q53.7354-65.1367 59.1553-62.8174Q64.5752-60.498 68.6768-56.3965Q72.7783-52.2949 75.1099-46.8628Q77.4414-41.4307 77.4414-35.2295Q77.4414-29.0283 75.1221-23.5962Q72.8027-18.1641 68.7134-14.0625Q64.624-9.96094 59.1919-7.6416Q53.7598-5.32227 47.5342-5.32227ZM47.6318-15.2344Q50.8301-15.2344 53.6255-16.1133Q56.4209-16.9922 58.5205-18.5059Q60.1562-19.6777 60.498-21.2402Q60.8398-22.8027 59.9121-24.0479Q58.96-25.3662 57.5073-25.647Q56.0547-25.9277 54.4434-24.8779Q52.8564-23.8037 51.2329-23.2544Q49.6094-22.7051 47.6318-22.7051Q44.7266-22.7051 42.2607-23.8281Q39.7949-24.9512 37.9883-26.8921Q36.1816-28.833 35.3271-31.3232L38.1104-31.3232Q39.7217-31.3232 40.1611-32.6172Q40.6006-33.9111 39.6484-35.1562L33.5938-43.1396Q32.7148-44.3115 31.4087-44.3359Q30.1025-44.3604 29.1748-43.1396L23.2178-35.1562Q22.2656-33.9111 22.7173-32.6172Q23.1689-31.3232 24.7314-31.3232L27.7832-31.3232Q28.7109-26.6113 31.5063-22.9858Q34.3018-19.3604 38.4644-17.2974Q42.627-15.2344 47.6318-15.2344ZM47.583-55.2734Q44.4092-55.2734 41.626-54.4067Q38.8428-53.54 36.7188-52.002Q35.0586-50.8545 34.7412-49.292Q34.4238-47.7295 35.3271-46.4844Q36.2793-45.166 37.7441-44.8853Q39.209-44.6045 40.7959-45.6543Q42.3584-46.7285 43.9941-47.2778Q45.6299-47.8271 47.583-47.8271Q50.4883-47.8271 52.9785-46.7041Q55.4688-45.5811 57.2632-43.6401Q59.0576-41.6992 59.9121-39.1846L56.958-39.1846Q55.3955-39.1846 54.9438-37.915Q54.4922-36.6455 55.4443-35.376L61.499-27.3682Q62.3779-26.2207 63.6963-26.1963Q65.0146-26.1719 65.8936-27.3682L71.875-35.376Q72.8271-36.6455 72.3877-37.915Q71.9482-39.1846 70.3613-39.1846L67.4561-39.1846Q66.5527-43.9209 63.7573-47.5464Q60.9619-51.1719 56.7871-53.2227Q52.6123-55.2734 47.583-55.2734Z"/>
  </g>
  <g id="Semibold-S" transform="matrix(1 0 0 1 1996.19 696)">
   <path d="M47.0632 4.98887Q55.355 4.98887 62.6314 1.85059Q69.9078-1.2877 75.4608-6.85737Q81.0139-12.4271 84.1688-19.7035Q87.3237-26.9799 87.3237-35.2384Q87.3237-43.4969 84.1688-50.7733Q81.0139-58.0497 75.4442-63.6194Q69.8745-69.1891 62.5981-72.3273Q55.3217-75.4656 47.0299-75.4656Q38.7714-75.4656 31.495-72.3273Q24.2186-69.1891 18.6822-63.6194Q13.1458-58.0497 9.99087-50.7733Q6.83594-43.4969 6.83594-35.2384Q6.83594-26.9799 9.99087-19.7035Q13.1458-12.4271 18.6988-6.85737Q24.2519-1.2877 31.5283 1.85059Q38.8047 4.98887 47.0632 4.98887ZM47.0632-4.57578Q40.7021-4.57578 35.1488-6.94844Q29.5956-9.32109 25.4041-13.5293Q21.2125-17.7375 18.8398-23.3074Q16.4672-28.8772 16.4672-35.2384Q16.4672-41.5995 18.8232-47.1694Q21.1792-52.7393 25.3708-56.9475Q29.5623-61.1557 35.1155-63.5283Q40.6688-65.901 47.0299-65.901Q53.4243-65.901 58.9775-63.5283Q64.5308-61.1557 68.739-56.9475Q72.9472-52.7393 75.3365-47.1694Q77.7258-41.5995 77.7258-35.2384Q77.7258-28.8772 75.3531-23.3074Q72.9805-17.7375 68.7889-13.5293Q64.5974-9.32109 59.0275-6.94844Q53.4576-4.57578 47.0632-4.57578ZM47.1964-14.6123Q50.5102-14.6123 53.5144-15.5712Q56.5187-16.5301 58.7427-18.1859Q60.334-19.3756 60.6758-20.9292Q61.0176-22.4828 60.0187-23.719Q58.9866-25.0019 57.5562-25.1538Q56.1258-25.3057 54.6389-24.3003Q52.9542-23.1194 51.1929-22.4946Q49.4316-21.8697 47.1964-21.8697Q44.0156-21.8697 41.3099-23.1261Q38.6041-24.3824 36.6464-26.5322Q34.6887-28.6819 33.8253-31.421L36.9995-31.421Q38.5753-31.421 38.9703-32.6705Q39.3653-33.92 38.4754-35.1207L32.2607-43.4151Q31.3996-44.5692 30.1246-44.6025Q28.8495-44.6358 27.9396-43.4151L21.8226-35.1207Q20.9148-33.92 21.3265-32.6705Q21.7382-31.421 23.2651-31.421L26.6457-31.421Q27.5912-26.4869 30.4799-22.697Q33.3687-18.9071 37.6779-16.7597Q41.9871-14.6123 47.1964-14.6123ZM47.1298-55.9488Q43.8315-55.9488 40.8439-55.0066Q37.8563-54.0644 35.6168-52.3752Q33.9922-51.2188 33.6748-49.6652Q33.3574-48.1116 34.3407-46.8754Q35.3551-45.5748 36.8021-45.4318Q38.2492-45.2888 39.7206-46.2941Q41.372-47.4572 43.141-48.091Q44.9101-48.7247 47.1298-48.7247Q50.3105-48.7247 53.0407-47.4684Q55.7709-46.212 57.712-44.0534Q59.653-41.8947 60.5342-39.1401L57.1269-39.1401Q55.5999-39.1401 55.1882-37.915Q54.7766-36.6899 55.6843-35.4737L61.8989-27.146Q62.7423-26.0252 64.034-25.9919Q65.3257-25.9586 66.1868-27.146L72.3371-35.4737Q73.2271-36.6899 72.832-37.915Q72.437-39.1401 70.8945-39.1401L67.7138-39.1401Q66.7838-44.1075 63.8951-47.8885Q61.0063-51.6695 56.6805-53.8092Q52.3546-55.9488 47.1298-55.9488Z"/>
  </g>
  <g id="Medium-S" transform="matrix(1 0 0 1 1699.83 696)">
   <path d="M46.7061 4.625Q54.917 4.625 62.1294 1.51367Q69.3418-1.59766 74.8477-7.12354Q80.3535-12.6494 83.4849-19.8618Q86.6162-27.0742 86.6162-35.2451Q86.6162-43.416 83.4849-50.6284Q80.3535-57.8408 74.8276-63.3667Q69.3018-68.8926 62.0894-72.0039Q54.877-75.1152 46.666-75.1152Q38.4951-75.1152 31.2827-72.0039Q24.0703-68.8926 18.5845-63.3667Q13.0986-57.8408 9.96729-50.6284Q6.83594-43.416 6.83594-35.2451Q6.83594-27.0742 9.96729-19.8618Q13.0986-12.6494 18.6045-7.12354Q24.1104-1.59766 31.3228 1.51367Q38.5352 4.625 46.7061 4.625ZM46.7061-4.00977Q40.2236-4.00977 34.5693-6.42285Q28.915-8.83594 24.646-13.125Q20.377-17.4141 17.9639-23.0884Q15.5508-28.7627 15.5508-35.2451Q15.5508-41.7275 17.9438-47.4019Q20.3369-53.0762 24.606-57.3652Q28.875-61.6543 34.5293-64.0674Q40.1836-66.4805 46.666-66.4805Q53.1885-66.4805 58.8428-64.0674Q64.4971-61.6543 68.7861-57.3652Q73.0752-53.0762 75.5083-47.4019Q77.9414-41.7275 77.9414-35.2451Q77.9414-28.7627 75.5283-23.0884Q73.1152-17.4141 68.8462-13.125Q64.5771-8.83594 58.9028-6.42285Q53.2285-4.00977 46.7061-4.00977ZM46.8662-14.1406Q50.2676-14.1406 53.4302-15.1602Q56.5928-16.1797 58.9111-17.9434Q60.4688-19.1465 60.8105-20.6934Q61.1523-22.2402 60.0996-23.4697Q59.0068-24.7256 57.5933-24.7798Q56.1797-24.834 54.7871-23.8623Q53.0283-22.6006 51.1626-21.9185Q49.2969-21.2363 46.8662-21.2363Q43.4766-21.2363 40.5889-22.5938Q37.7012-23.9512 35.6289-26.2593Q33.5566-28.5674 32.6865-31.4951L36.1572-31.4951Q37.7061-31.4951 38.0674-32.7109Q38.4287-33.9268 37.5859-35.0938L31.25-43.624Q30.4023-44.7646 29.1509-44.8047Q27.8994-44.8447 27.0029-43.624L20.7646-35.0938Q19.8906-33.9268 20.272-32.7109Q20.6533-31.4951 22.1533-31.4951L25.7832-31.4951Q26.7422-26.3926 29.7017-22.478Q32.6611-18.5635 37.0815-16.3521Q41.502-14.1406 46.8662-14.1406ZM46.7861-56.4609Q43.3936-56.4609 40.251-55.4614Q37.1084-54.4619 34.7812-52.6582Q33.1836-51.4951 32.8662-49.9482Q32.5488-48.4014 33.5928-47.1719Q34.6543-45.8848 36.0879-45.8462Q37.5215-45.8076 38.9053-46.7793Q40.624-48.0098 42.4941-48.7075Q44.3643-49.4053 46.7861-49.4053Q50.1758-49.4053 53.0879-48.0479Q56-46.6904 58.0522-44.3667Q60.1045-42.043 61.0059-39.1064L57.2549-39.1064Q55.7549-39.1064 55.3735-37.915Q54.9922-36.7236 55.8662-35.5479L62.2021-26.9775Q63.0186-25.877 64.29-25.8369Q65.5615-25.7969 66.4092-26.9775L72.6875-35.5479Q73.5303-36.7236 73.1689-37.915Q72.8076-39.1064 71.2988-39.1064L67.9092-39.1064Q66.959-44.249 63.9995-48.1479Q61.04-52.0469 56.5996-54.2539Q52.1592-56.4609 46.7861-56.4609Z"/>
  </g>
  <g id="Regular-S" transform="matrix(1 0 0 1 1403.58 696)">
   <path d="M46.2402 4.15039Q54.3457 4.15039 61.4746 1.07422Q68.6035-2.00195 74.0479-7.4707Q79.4922-12.9395 82.5928-20.0684Q85.6934-27.1973 85.6934-35.2539Q85.6934-43.3105 82.5928-50.4395Q79.4922-57.5684 74.0234-63.0371Q68.5547-68.5059 61.4258-71.582Q54.2969-74.6582 46.1914-74.6582Q38.1348-74.6582 31.0059-71.582Q23.877-68.5059 18.457-63.0371Q13.0371-57.5684 9.93652-50.4395Q6.83594-43.3105 6.83594-35.2539Q6.83594-27.1973 9.93652-20.0684Q13.0371-12.9395 18.4814-7.4707Q23.9258-2.00195 31.0547 1.07422Q38.1836 4.15039 46.2402 4.15039ZM46.2402-3.27148Q39.5996-3.27148 33.8135-5.7373Q28.0273-8.20312 23.6572-12.5977Q19.2871-16.9922 16.8213-22.8027Q14.3555-28.6133 14.3555-35.2539Q14.3555-41.8945 16.7969-47.7051Q19.2383-53.5156 23.6084-57.9102Q27.9785-62.3047 33.7646-64.7705Q39.5508-67.2363 46.1914-67.2363Q52.8809-67.2363 58.667-64.7705Q64.4531-62.3047 68.8477-57.9102Q73.2422-53.5156 75.7324-47.7051Q78.2227-41.8945 78.2227-35.2539Q78.2227-28.6133 75.7568-22.8027Q73.291-16.9922 68.9209-12.5977Q64.5508-8.20312 58.7402-5.7373Q52.9297-3.27148 46.2402-3.27148ZM46.4355-13.5254Q49.9512-13.5254 53.3203-14.624Q56.6895-15.7227 59.1309-17.627Q60.6445-18.8477 60.9863-20.3857Q61.3281-21.9238 60.2051-23.1445Q59.0332-24.3652 57.6416-24.292Q56.25-24.2188 54.9805-23.291Q53.125-21.9238 51.123-21.167Q49.1211-20.4102 46.4355-20.4102Q42.7734-20.4102 39.6484-21.8994Q36.5234-23.3887 34.3018-25.9033Q32.0801-28.418 31.2012-31.5918L35.0586-31.5918Q36.5723-31.5918 36.8896-32.7637Q37.207-33.9355 36.4258-35.0586L29.9316-43.8965Q29.1016-45.0195 27.8809-45.0684Q26.6602-45.1172 25.7812-43.8965L19.3848-35.0586Q18.5547-33.9355 18.8965-32.7637Q19.2383-31.5918 20.7031-31.5918L24.6582-31.5918Q25.6348-26.2695 28.6865-22.1924Q31.7383-18.1152 36.3037-15.8203Q40.8691-13.5254 46.4355-13.5254ZM46.3379-57.1289Q42.8223-57.1289 39.4775-56.0547Q36.1328-54.9805 33.6914-53.0273Q32.1289-51.8555 31.8115-50.3174Q31.4941-48.7793 32.6172-47.5586Q33.7402-46.2891 35.1562-46.3867Q36.5723-46.4844 37.8418-47.4121Q39.6484-48.7305 41.6504-49.5117Q43.6523-50.293 46.3379-50.293Q50-50.293 53.1494-48.8037Q56.2988-47.3145 58.4961-44.7754Q60.6934-42.2363 61.6211-39.0625L57.4219-39.0625Q55.957-39.0625 55.6152-37.915Q55.2734-36.7676 56.1035-35.6445L62.5977-26.7578Q63.3789-25.6836 64.624-25.6348Q65.8691-25.5859 66.6992-26.7578L73.1445-35.6445Q73.9258-36.7676 73.6084-37.915Q73.291-39.0625 71.8262-39.0625L68.1641-39.0625Q67.1875-44.4336 64.1357-48.4863Q61.084-52.5391 56.4941-54.834Q51.9043-57.1289 46.3379-57.1289Z"/>
  </g>
  <g id="Light-S" transform="matrix(1 0 0 1 1107.6 696)">
   <path d="M45.5078 3.41797Q53.4831 3.41797 60.4736 0.406901Q67.4642-2.60417 72.8109-7.96712Q78.1576-13.3301 81.193-20.3206Q84.2285-27.3112 84.2285-35.2539Q84.2285-43.1966 81.193-50.1872Q78.1576-57.1777 72.7946-62.5407Q67.4316-67.9036 60.4411-70.9147Q53.4505-73.9258 45.4753-73.9258Q37.5488-73.9258 30.5501-70.9147Q23.5514-67.9036 18.2292-62.5407Q12.9069-57.1777 9.87142-50.1872Q6.83594-43.1966 6.83594-35.2539Q6.83594-27.3112 9.87142-20.3206Q12.9069-13.3301 18.2454-7.96712Q23.584-2.60417 30.5827 0.406901Q37.5814 3.41797 45.5078 3.41797ZM45.5078-2.27865Q38.6719-2.27865 32.6986-4.82585Q26.7253-7.37305 22.2087-11.9059Q17.6921-16.4388 15.1367-22.4284Q12.5814-28.418 12.5814-35.2539Q12.5814-42.0898 15.1204-48.0794Q17.6595-54.069 22.1761-58.6019Q26.6927-63.1348 32.666-65.682Q38.6393-68.2292 45.4753-68.2292Q52.3438-68.2292 58.3252-65.682Q64.3066-63.1348 68.8314-58.6019Q73.3561-54.069 75.9277-48.0794Q78.4993-42.0898 78.4993-35.2539Q78.4993-28.418 75.9521-22.4284Q73.4049-16.4388 68.8883-11.9059Q64.3717-7.37305 58.3822-4.82585Q52.3926-2.27865 45.5078-2.27865ZM45.638-14.209Q49.2676-14.209 52.7344-15.4622Q56.2012-16.7155 58.724-18.8802Q59.9284-19.873 60.1725-21.0775Q60.4167-22.2819 59.554-23.2096Q58.61-24.1374 57.5439-24.0804Q56.4779-24.0234 55.4525-23.2422Q53.1738-21.3867 50.8301-20.4753Q48.4863-19.5638 45.638-19.5638Q41.7155-19.5638 38.4115-21.1995Q35.1074-22.8353 32.8206-25.6429Q30.5339-28.4505 29.7038-32.0312L33.8216-32.0312Q35.0423-32.0312 35.3109-32.9508Q35.5794-33.8704 34.9284-34.7982L28.9714-43.2129Q28.2227-44.2871 27.1484-44.3197Q26.0742-44.3522 25.293-43.2129L19.401-34.7982Q18.7174-33.8542 18.986-32.9427Q19.2546-32.0312 20.459-32.0312L24.6094-32.0312Q25.5208-26.7578 28.4668-22.7295Q31.4128-18.7012 35.8398-16.4551Q40.2669-14.209 45.638-14.209ZM45.5729-56.429Q41.9596-56.429 38.5091-55.2002Q35.0586-53.9714 32.5358-51.7578Q31.2988-50.7975 31.0791-49.5931Q30.8594-48.3887 31.722-47.4772Q32.6009-46.4844 33.6914-46.5658Q34.7819-46.6471 35.8073-47.4284Q38.0371-49.2676 40.389-50.1872Q42.7409-51.1068 45.5729-51.1068Q49.5117-51.1068 52.832-49.4792Q56.1523-47.8516 58.4229-45.0195Q60.6934-42.1875 61.5397-38.6068L57.2103-38.6068Q56.0221-38.6068 55.7373-37.7035Q55.4525-36.8001 56.1198-35.8724L62.0931-27.4251Q62.8092-26.3835 63.8997-26.359Q64.9902-26.3346 65.7389-27.4251L71.6471-35.8724Q72.3145-36.8164 72.054-37.7116Q71.7936-38.6068 70.6055-38.6068L66.6504-38.6068Q65.7389-43.929 62.793-47.9248Q59.847-51.9206 55.4036-54.1748Q50.9603-56.429 45.5729-56.429Z"/>
  </g>
  <g id="Thin-S" transform="matrix(1 0 0 1 811.863 696)">
   <path d="M44.5391 2.44928Q52.3422 2.44928 59.1498-0.47568Q65.9573-3.40064 71.1749-8.62368Q76.3924-13.8467 79.3418-20.6543Q82.2911-27.4619 82.2911-35.2539Q82.2911-43.0459 79.3418-49.8535Q76.3924-56.6611 71.1694-61.8841Q65.9463-67.1072 59.1387-70.0321Q52.3311-72.9571 44.5281-72.9571Q36.7739-72.9571 29.9474-70.0321Q23.1209-67.1072 17.9278-61.8841Q12.7347-56.6611 9.78531-49.8535Q6.83594-43.0459 6.83594-35.2539Q6.83594-27.4619 9.78531-20.6543Q12.7347-13.8467 17.9333-8.62368Q23.1319-3.40064 29.9584-0.47568Q36.7849 2.44928 44.5391 2.44928ZM44.5391-0.965537Q37.4449-0.965537 31.224-3.62037Q25.0032-6.2752 20.2928-10.9911Q15.5825-15.7069 12.9087-21.9333Q10.235-28.1597 10.235-35.2539Q10.235-42.3482 12.9032-48.5745Q15.5714-54.8009 20.2818-59.5168Q24.9921-64.2326 31.213-66.8874Q37.4338-69.5423 44.5281-69.5423Q51.6334-69.5423 57.8731-66.8874Q64.1129-64.2326 68.8099-59.5168Q73.5068-54.8009 76.1861-48.5745Q78.8653-42.3482 78.8653-35.2539Q78.8653-28.1597 76.2105-21.9333Q73.5556-15.7069 68.8453-10.9911Q64.135-6.2752 57.9086-3.62037Q51.6822-0.965537 44.5391-0.965537ZM44.5832-15.1131Q48.3635-15.1131 51.9594-16.5708Q55.5554-18.0286 58.1858-20.5377Q58.9812-21.2292 59.0962-21.9923Q59.2112-22.7555 58.693-23.2957Q58.0503-23.836 57.4148-23.8006Q56.7792-23.7651 56.0767-23.1776Q53.2384-20.6763 50.4426-19.5604Q47.6468-18.4444 44.5832-18.4444Q40.3163-18.4444 36.7755-20.2739Q33.2346-22.1034 30.8617-25.2985Q28.4888-28.4936 27.7233-32.6125L32.1856-32.6125Q33.0188-32.6125 33.2228-33.1984Q33.4268-33.7843 32.948-34.4538L27.7013-42.3088Q27.0602-43.3184 26.1798-43.3294Q25.2993-43.3405 24.6472-42.3088L19.4226-34.4538Q18.9327-33.7465 19.1044-33.1795Q19.2761-32.6125 20.1361-32.6125L24.5448-32.6125Q25.3701-27.4036 28.1762-23.4399Q30.9822-19.4761 35.2263-17.2946Q39.4705-15.1131 44.5832-15.1131ZM44.5612-55.5034Q40.8187-55.5034 37.2283-54.0701Q33.6379-52.6367 31.0074-50.0788Q30.201-49.3983 30.1104-48.6352Q30.0198-47.872 30.5381-47.3696Q31.0941-46.7427 31.754-46.8025Q32.414-46.8624 33.1165-47.4499Q35.906-49.9779 38.7207-51.0805Q41.5354-52.1831 44.5612-52.1831Q48.8659-52.1831 52.4123-50.3725Q55.9586-48.5619 58.326-45.3424Q60.6934-42.1229 61.4321-38.004L56.9304-38.004Q56.1082-38.004 55.8988-37.4236Q55.6893-36.8432 56.1413-36.1738L61.4258-28.3077Q62.0558-27.3091 62.9418-27.317Q63.8278-27.3248 64.4689-28.3077L69.6667-36.1738Q70.1833-36.881 69.9983-37.4425Q69.8132-38.004 68.991-38.004L64.6484-38.004Q63.8231-43.2617 61.017-47.1821Q58.211-51.1026 53.9614-53.303Q49.7118-55.5034 44.5612-55.5034Z"/>
  </g>
  <g id="Ultralight-S" transform="matrix(1 0 0 1 515.649 696)">
   <path d="M44.043 1.95312Q51.7578 1.95312 58.4717-0.927734Q65.1855-3.80859 70.3369-8.95996Q75.4883-14.1113 78.3936-20.8252Q81.2988-27.5391 81.2988-35.2539Q81.2988-42.9688 78.3936-49.6826Q75.4883-56.3965 70.3369-61.5479Q65.1855-66.6992 58.4717-69.5801Q51.7578-72.4609 44.043-72.4609Q36.377-72.4609 29.6387-69.5801Q22.9004-66.6992 17.7734-61.5479Q12.6465-56.3965 9.74121-49.6826Q6.83594-42.9688 6.83594-35.2539Q6.83594-27.5391 9.74121-20.8252Q12.6465-14.1113 17.7734-8.95996Q22.9004-3.80859 29.6387-0.927734Q36.377 1.95312 44.043 1.95312ZM44.043-0.292969Q36.8164-0.292969 30.4688-3.00293Q24.1211-5.71289 19.3115-10.5225Q14.502-15.332 11.7676-21.6797Q9.0332-28.0273 9.0332-35.2539Q9.0332-42.4805 11.7676-48.8281Q14.502-55.1758 19.3115-59.9854Q24.1211-64.7949 30.4688-67.5049Q36.8164-70.2148 44.043-70.2148Q51.2695-70.2148 57.6416-67.5049Q64.0137-64.7949 68.7988-59.9854Q73.584-55.1758 76.3184-48.8281Q79.0527-42.4805 79.0527-35.2539Q79.0527-28.0273 76.3428-21.6797Q73.6328-15.332 68.8232-10.5225Q64.0137-5.71289 57.666-3.00293Q51.3184-0.292969 44.043-0.292969ZM44.043-15.5762Q47.9004-15.5762 51.5625-17.1387Q55.2246-18.7012 57.9102-21.3867Q58.4961-21.9238 58.5449-22.4609Q58.5938-22.998 58.252-23.3398Q57.7637-23.6816 57.3486-23.6572Q56.9336-23.6328 56.3965-23.1445Q53.2715-20.3125 50.2441-19.0918Q47.2168-17.8711 44.043-17.8711Q39.5996-17.8711 35.9375-19.7998Q32.2754-21.7285 29.8584-25.1221Q27.4414-28.5156 26.709-32.9102L31.3477-32.9102Q31.9824-32.9102 32.1533-33.3252Q32.3242-33.7402 31.9336-34.2773L27.0508-41.8457Q26.4648-42.8223 25.6836-42.8223Q24.9023-42.8223 24.3164-41.8457L19.4336-34.2773Q19.043-33.6914 19.165-33.3008Q19.2871-32.9102 19.9707-32.9102L24.5117-32.9102Q25.293-27.7344 28.0273-23.8037Q30.7617-19.873 34.9121-17.7246Q39.0625-15.5762 44.043-15.5762ZM44.043-55.0293Q40.2344-55.0293 36.5723-53.4912Q32.9102-51.9531 30.2246-49.2188Q29.6387-48.6816 29.6143-48.1445Q29.5898-47.6074 29.9316-47.3145Q30.3223-46.875 30.7617-46.9238Q31.2012-46.9727 31.7383-47.4609Q34.8145-50.3418 37.8662-51.5381Q40.918-52.7344 44.043-52.7344Q48.5352-52.7344 52.1973-50.8301Q55.8594-48.9258 58.2764-45.5078Q60.6934-42.0898 61.377-37.6953L56.7871-37.6953Q56.1523-37.6953 55.9814-37.2803Q55.8105-36.8652 56.1523-36.3281L61.084-28.7598Q61.6699-27.7832 62.4512-27.8076Q63.2324-27.832 63.8184-28.7598L68.6523-36.3281Q69.0918-36.9141 68.9453-37.3047Q68.7988-37.6953 68.1641-37.6953L63.623-37.6953Q62.8418-42.9199 60.1074-46.8018Q57.373-50.6836 53.2227-52.8564Q49.0723-55.0293 44.043-55.0293Z"/>
  </g>
 </g>
</svg>
