<?xml version="1.0" encoding="UTF-8"?>
<!--Generator: Apple Native CoreSVG 175-->
<!DOCTYPE svg
PUBLIC "-//W3C//DTD SVG 1.1//EN"
       "http://www.w3.org/Graphics/SVG/1.1/DTD/svg11.dtd">
<svg version="1.1" xmlns="http://www.w3.org/2000/svg" xmlns:xlink="http://www.w3.org/1999/xlink" width="3300" height="2200">
 <!--glyph: "uni100407.medium", point size: 100.0, font version: "17.3d3e1", template writer version: "65.1"-->
 <g id="Notes">
  <rect height="2200" id="artboard" style="fill:white;opacity:1" width="3300" x="0" y="0"/>
  <line style="fill:none;stroke:black;opacity:1;stroke-width:0.5;" x1="263" x2="3036" y1="292" y2="292"/>
  <text style="stroke:none;fill:black;font-family:sans-serif;font-size:13;font-weight:bold;" transform="matrix(1 0 0 1 263 322)">Weight/Scale Variations</text>
  <text style="stroke:none;fill:black;font-family:sans-serif;font-size:13;text-anchor:middle;" transform="matrix(1 0 0 1 559.711 322)">Ultralight</text>
  <text style="stroke:none;fill:black;font-family:sans-serif;font-size:13;text-anchor:middle;" transform="matrix(1 0 0 1 856.422 322)">Thin</text>
  <text style="stroke:none;fill:black;font-family:sans-serif;font-size:13;text-anchor:middle;" transform="matrix(1 0 0 1 1153.13 322)">Light</text>
  <text style="stroke:none;fill:black;font-family:sans-serif;font-size:13;text-anchor:middle;" transform="matrix(1 0 0 1 1449.84 322)">Regular</text>
  <text style="stroke:none;fill:black;font-family:sans-serif;font-size:13;text-anchor:middle;" transform="matrix(1 0 0 1 1746.56 322)">Medium</text>
  <text style="stroke:none;fill:black;font-family:sans-serif;font-size:13;text-anchor:middle;" transform="matrix(1 0 0 1 2043.27 322)">Semibold</text>
  <text style="stroke:none;fill:black;font-family:sans-serif;font-size:13;text-anchor:middle;" transform="matrix(1 0 0 1 2339.98 322)">Bold</text>
  <text style="stroke:none;fill:black;font-family:sans-serif;font-size:13;text-anchor:middle;" transform="matrix(1 0 0 1 2636.69 322)">Heavy</text>
  <text style="stroke:none;fill:black;font-family:sans-serif;font-size:13;text-anchor:middle;" transform="matrix(1 0 0 1 2933.4 322)">Black</text>
  <line style="fill:none;stroke:black;opacity:1;stroke-width:0.5;" x1="263" x2="3036" y1="1903" y2="1903"/>
  <g transform="matrix(1 0 0 1 263 1933)">
   <path d="M9.24805 0.830078Q10.8691 0.830078 12.2949 0.214844Q13.7207-0.400391 14.8096-1.49414Q15.8984-2.58789 16.5186-4.01367Q17.1387-5.43945 17.1387-7.05078Q17.1387-8.66211 16.5186-10.0879Q15.8984-11.5137 14.8047-12.6074Q13.7109-13.7012 12.2852-14.3164Q10.8594-14.9316 9.23828-14.9316Q7.62695-14.9316 6.20117-14.3164Q4.77539-13.7012 3.69141-12.6074Q2.60742-11.5137 1.9873-10.0879Q1.36719-8.66211 1.36719-7.05078Q1.36719-5.43945 1.9873-4.01367Q2.60742-2.58789 3.69629-1.49414Q4.78516-0.400391 6.21094 0.214844Q7.63672 0.830078 9.24805 0.830078ZM9.24805-0.654297Q7.91992-0.654297 6.7627-1.14746Q5.60547-1.64062 4.73145-2.51953Q3.85742-3.39844 3.36426-4.56055Q2.87109-5.72266 2.87109-7.05078Q2.87109-8.37891 3.35938-9.54102Q3.84766-10.7031 4.72168-11.582Q5.5957-12.4609 6.75293-12.9541Q7.91016-13.4473 9.23828-13.4473Q10.5762-13.4473 11.7334-12.9541Q12.8906-12.4609 13.7695-11.582Q14.6484-10.7031 15.1465-9.54102Q15.6445-8.37891 15.6445-7.05078Q15.6445-5.72266 15.1514-4.56055Q14.6582-3.39844 13.7842-2.51953Q12.9102-1.64062 11.748-1.14746Q10.5859-0.654297 9.24805-0.654297ZM5.6543-7.05078Q5.6543-6.72852 5.85938-6.52832Q6.06445-6.32812 6.40625-6.32812L8.51562-6.32812L8.51562-4.20898Q8.51562-3.88672 8.71094-3.67676Q8.90625-3.4668 9.23828-3.4668Q9.56055-3.4668 9.77051-3.67676Q9.98047-3.88672 9.98047-4.20898L9.98047-6.32812L12.0898-6.32812Q12.4219-6.32812 12.627-6.52832Q12.832-6.72852 12.832-7.05078Q12.832-7.38281 12.627-7.58789Q12.4219-7.79297 12.0898-7.79297L9.98047-7.79297L9.98047-9.90234Q9.98047-10.2344 9.77051-10.4443Q9.56055-10.6543 9.23828-10.6543Q8.90625-10.6543 8.71094-10.4443Q8.51562-10.2344 8.51562-9.90234L8.51562-7.79297L6.40625-7.79297Q6.06445-7.79297 5.85938-7.58789Q5.6543-7.38281 5.6543-7.05078Z"/>
  </g>
  <g transform="matrix(1 0 0 1 281.867 1933)">
   <path d="M11.709 2.91016Q13.75 2.91016 15.5518 2.12891Q17.3535 1.34766 18.7305-0.0292969Q20.1074-1.40625 20.8887-3.20801Q21.6699-5.00977 21.6699-7.05078Q21.6699-9.0918 20.8887-10.8936Q20.1074-12.6953 18.7305-14.0723Q17.3535-15.4492 15.5469-16.2305Q13.7402-17.0117 11.6992-17.0117Q9.6582-17.0117 7.85645-16.2305Q6.05469-15.4492 4.68262-14.0723Q3.31055-12.6953 2.5293-10.8936Q1.74805-9.0918 1.74805-7.05078Q1.74805-5.00977 2.5293-3.20801Q3.31055-1.40625 4.6875-0.0292969Q6.06445 1.34766 7.86621 2.12891Q9.66797 2.91016 11.709 2.91016ZM11.709 1.25Q9.98047 1.25 8.47656 0.605469Q6.97266-0.0390625 5.83496-1.17676Q4.69727-2.31445 4.05762-3.81836Q3.41797-5.32227 3.41797-7.05078Q3.41797-8.7793 4.05762-10.2832Q4.69727-11.7871 5.83008-12.9297Q6.96289-14.0723 8.4668-14.7119Q9.9707-15.3516 11.6992-15.3516Q13.4277-15.3516 14.9316-14.7119Q16.4355-14.0723 17.5781-12.9297Q18.7207-11.7871 19.3652-10.2832Q20.0098-8.7793 20.0098-7.05078Q20.0098-5.32227 19.3701-3.81836Q18.7305-2.31445 17.5928-1.17676Q16.4551-0.0390625 14.9463 0.605469Q13.4375 1.25 11.709 1.25ZM7.17773-7.05078Q7.17773-6.69922 7.41211-6.47461Q7.64648-6.25 8.01758-6.25L10.8887-6.25L10.8887-3.36914Q10.8887-2.99805 11.1133-2.76855Q11.3379-2.53906 11.6895-2.53906Q12.0605-2.53906 12.29-2.76855Q12.5195-2.99805 12.5195-3.36914L12.5195-6.25L15.4004-6.25Q15.7715-6.25 16.001-6.47461Q16.2305-6.69922 16.2305-7.05078Q16.2305-7.42188 16.001-7.65137Q15.7715-7.88086 15.4004-7.88086L12.5195-7.88086L12.5195-10.752Q12.5195-11.1328 12.29-11.3623Q12.0605-11.5918 11.6895-11.5918Q11.3379-11.5918 11.1133-11.3574Q10.8887-11.123 10.8887-10.752L10.8887-7.88086L8.01758-7.88086Q7.63672-7.88086 7.40723-7.65137Q7.17773-7.42188 7.17773-7.05078Z"/>
  </g>
  <g transform="matrix(1 0 0 1 305.646 1933)">
   <path d="M14.9707 5.66406Q17.0605 5.66406 18.96 5.01465Q20.8594 4.36523 22.4512 3.19336Q24.043 2.02148 25.2197 0.429688Q26.3965-1.16211 27.0459-3.06641Q27.6953-4.9707 27.6953-7.05078Q27.6953-9.14062 27.0459-11.04Q26.3965-12.9395 25.2197-14.5312Q24.043-16.123 22.4512-17.2998Q20.8594-18.4766 18.9551-19.126Q17.0508-19.7754 14.9609-19.7754Q12.8711-19.7754 10.9717-19.126Q9.07227-18.4766 7.48535-17.2998Q5.89844-16.123 4.72168-14.5312Q3.54492-12.9395 2.90039-11.04Q2.25586-9.14062 2.25586-7.05078Q2.25586-4.9707 2.90527-3.06641Q3.55469-1.16211 4.72656 0.429688Q5.89844 2.02148 7.49023 3.19336Q9.08203 4.36523 10.9814 5.01465Q12.8809 5.66406 14.9707 5.66406ZM14.9707 3.84766Q13.1641 3.84766 11.5283 3.2959Q9.89258 2.74414 8.53516 1.74805Q7.17773 0.751953 6.17676-0.610352Q5.17578-1.97266 4.62891-3.6084Q4.08203-5.24414 4.08203-7.05078Q4.08203-8.86719 4.62891-10.5029Q5.17578-12.1387 6.17188-13.501Q7.16797-14.8633 8.52539-15.8594Q9.88281-16.8555 11.5186-17.4023Q13.1543-17.9492 14.9609-17.9492Q16.7773-17.9492 18.4131-17.4023Q20.0488-16.8555 21.4111-15.8594Q22.7734-14.8633 23.7695-13.501Q24.7656-12.1387 25.3174-10.5029Q25.8691-8.86719 25.8691-7.05078Q25.8789-5.24414 25.332-3.6084Q24.7852-1.97266 23.7842-0.610352Q22.7832 0.751953 21.4209 1.74805Q20.0586 2.74414 18.4229 3.2959Q16.7871 3.84766 14.9707 3.84766ZM9.19922-7.05078Q9.19922-6.66992 9.45801-6.4209Q9.7168-6.17188 10.1172-6.17188L14.0625-6.17188L14.0625-2.2168Q14.0625-1.81641 14.3115-1.55762Q14.5605-1.29883 14.9512-1.29883Q15.3516-1.29883 15.6104-1.55273Q15.8691-1.80664 15.8691-2.2168L15.8691-6.17188L19.8242-6.17188Q20.2246-6.17188 20.4785-6.4209Q20.7324-6.66992 20.7324-7.05078Q20.7324-7.46094 20.4785-7.71484Q20.2246-7.96875 19.8242-7.96875L15.8691-7.96875L15.8691-11.9141Q15.8691-12.3242 15.6104-12.583Q15.3516-12.8418 14.9512-12.8418Q14.5605-12.8418 14.3115-12.583Q14.0625-12.3242 14.0625-11.9141L14.0625-7.96875L10.1172-7.96875Q9.70703-7.96875 9.45312-7.71484Q9.19922-7.46094 9.19922-7.05078Z"/>
  </g>
  <text style="stroke:none;fill:black;font-family:sans-serif;font-size:13;font-weight:bold;" transform="matrix(1 0 0 1 263 1953)">Design Variations</text>
  <text style="stroke:none;fill:black;font-family:sans-serif;font-size:13;" transform="matrix(1 0 0 1 263 1971)">Symbols are supported in up to nine weights and three scales.</text>
  <text style="stroke:none;fill:black;font-family:sans-serif;font-size:13;" transform="matrix(1 0 0 1 263 1989)">For optimal layout with text and other symbols, vertically align</text>
  <text style="stroke:none;fill:black;font-family:sans-serif;font-size:13;" transform="matrix(1 0 0 1 263 2007)">symbols with the adjacent text.</text>
  <line style="fill:none;stroke:#00AEEF;stroke-width:0.5;opacity:1.0;" x1="776" x2="776" y1="1919" y2="1933"/>
  <g transform="matrix(1 0 0 1 776 1933)">
   <path d="M3.31055 0.15625Q3.70117 0.15625 3.91602-0.00976562Q4.13086-0.175781 4.26758-0.585938L5.52734-4.0332L11.2891-4.0332L12.5488-0.585938Q12.6855-0.175781 12.9004-0.00976562Q13.1152 0.15625 13.4961 0.15625Q13.8867 0.15625 14.1162-0.0585938Q14.3457-0.273438 14.3457-0.644531Q14.3457-0.869141 14.2383-1.17188L9.6582-13.3691Q9.48242-13.8184 9.17969-14.043Q8.87695-14.2676 8.4082-14.2676Q7.5-14.2676 7.17773-13.3789L2.59766-1.16211Q2.49023-0.859375 2.49023-0.634766Q2.49023-0.263672 2.70996-0.0537109Q2.92969 0.15625 3.31055 0.15625ZM6.00586-5.51758L8.37891-12.0898L8.42773-12.0898L10.8008-5.51758Z"/>
  </g>
  <line style="fill:none;stroke:#00AEEF;stroke-width:0.5;opacity:1.0;" x1="793.197" x2="793.197" y1="1919" y2="1933"/>
  <text style="stroke:none;fill:black;font-family:sans-serif;font-size:13;font-weight:bold;" transform="matrix(1 0 0 1 776 1953)">Margins</text>
  <text style="stroke:none;fill:black;font-family:sans-serif;font-size:13;" transform="matrix(1 0 0 1 776 1971)">Leading and trailing margins on the left and right side of each symbol</text>
  <text style="stroke:none;fill:black;font-family:sans-serif;font-size:13;" transform="matrix(1 0 0 1 776 1989)">can be adjusted by modifying the x-location of the margin guidelines.</text>
  <text style="stroke:none;fill:black;font-family:sans-serif;font-size:13;" transform="matrix(1 0 0 1 776 2007)">Modifications are automatically applied proportionally to all</text>
  <text style="stroke:none;fill:black;font-family:sans-serif;font-size:13;" transform="matrix(1 0 0 1 776 2025)">scales and weights.</text>
  <g transform="matrix(1 0 0 1 1289 1933)">
   <path d="M2.8418 1.86523L4.54102 3.57422Q5.18555 4.22852 5.90332 4.17969Q6.62109 4.13086 7.31445 3.35938L18.0078-8.42773L17.041-9.4043L6.42578 2.27539Q6.16211 2.57812 5.89355 2.61719Q5.625 2.65625 5.27344 2.30469L4.10156 1.14258Q3.75 0.791016 3.79395 0.522461Q3.83789 0.253906 4.14062-0.0195312L15.6152-10.8203L14.6387-11.7871L3.04688-0.898438Q2.30469-0.214844 2.25098 0.498047Q2.19727 1.21094 2.8418 1.86523ZM9.25781-16.3281Q8.94531-16.0254 8.90625-15.6348Q8.86719-15.2441 9.04297-14.9512Q9.21875-14.6777 9.55566-14.541Q9.89258-14.4043 10.3809-14.5215Q11.4746-14.7754 12.5977-14.7314Q13.7207-14.6875 14.7949-13.9844L14.209-12.5293Q13.9551-11.9043 14.0674-11.4404Q14.1797-10.9766 14.5801-10.5664L16.875-8.25195Q17.2363-7.88086 17.5781-7.82227Q17.9199-7.76367 18.3398-7.8418L19.4043-8.03711L20.0684-7.36328L20.0293-6.80664Q20-6.43555 20.1221-6.12305Q20.2441-5.81055 20.6055-5.44922L21.3672-4.70703Q21.7285-4.3457 22.1533-4.33105Q22.5781-4.31641 22.9297-4.66797L25.8398-7.58789Q26.1914-7.93945 26.1816-8.35449Q26.1719-8.76953 25.8105-9.13086L25.0391-9.89258Q24.6875-10.2539 24.3799-10.3857Q24.0723-10.5176 23.7109-10.4883L23.1348-10.4395L22.4902-11.0742L22.7344-12.1973Q22.832-12.6172 22.6953-12.9834Q22.5586-13.3496 22.1191-13.7891L19.9219-15.9766Q18.6719-17.2168 17.2607-17.8369Q15.8496-18.457 14.4189-18.4814Q12.9883-18.5059 11.665-17.959Q10.3418-17.4121 9.25781-16.3281ZM10.752-15.957Q11.6602-16.6211 12.7002-16.9043Q13.7402-17.1875 14.8047-17.085Q15.8691-16.9824 16.8701-16.5137Q17.8711-16.0449 18.7012-15.2051L21.1328-12.793Q21.3086-12.6172 21.3525-12.4512Q21.3965-12.2852 21.3379-12.0312L21.0156-10.5469L22.5195-9.0625L23.5059-9.12109Q23.6914-9.13086 23.7891-9.09668Q23.8867-9.0625 24.0332-8.91602L24.6094-8.33984L22.168-5.89844L21.5918-6.47461Q21.4453-6.62109 21.4062-6.71875Q21.3672-6.81641 21.377-7.01172L21.4453-7.98828L19.9512-9.47266L18.4277-9.21875Q18.1836-9.16992 18.042-9.2041Q17.9004-9.23828 17.7148-9.41406L15.7129-11.416Q15.5176-11.5918 15.4932-11.7529Q15.4688-11.9141 15.5859-12.1875L16.4648-14.2773Q15.293-15.3711 13.8281-15.791Q12.3633-16.2109 10.8398-15.7617Q10.7227-15.7324 10.6885-15.8057Q10.6543-15.8789 10.752-15.957Z"/>
  </g>
  <text style="stroke:none;fill:black;font-family:sans-serif;font-size:13;font-weight:bold;" transform="matrix(1 0 0 1 1289 1953)">Exporting</text>
  <text style="stroke:none;fill:black;font-family:sans-serif;font-size:13;" transform="matrix(1 0 0 1 1289 1971)">Symbols should be outlined when exporting to ensure the</text>
  <text style="stroke:none;fill:black;font-family:sans-serif;font-size:13;" transform="matrix(1 0 0 1 1289 1989)">design is preserved when submitting to Xcode.</text>
  <text id="template-version" style="stroke:none;fill:black;font-family:sans-serif;font-size:13;text-anchor:end;" transform="matrix(1 0 0 1 3036 1933)">Template v.3.0</text>
  <text style="stroke:none;fill:black;font-family:sans-serif;font-size:13;text-anchor:end;" transform="matrix(1 0 0 1 3036 1951)">Requires Xcode 13 or greater</text>
  <text id="descriptive-name" style="stroke:none;fill:black;font-family:sans-serif;font-size:13;text-anchor:end;" transform="matrix(1 0 0 1 3036 1969)">Generated from plus.square.on.square</text>
  <text style="stroke:none;fill:black;font-family:sans-serif;font-size:13;text-anchor:end;" transform="matrix(1 0 0 1 3036 1987)">Typeset at 100 points</text>
  <text style="stroke:none;fill:black;font-family:sans-serif;font-size:13;" transform="matrix(1 0 0 1 263 726)">Small</text>
  <text style="stroke:none;fill:black;font-family:sans-serif;font-size:13;" transform="matrix(1 0 0 1 263 1156)">Medium</text>
  <text style="stroke:none;fill:black;font-family:sans-serif;font-size:13;" transform="matrix(1 0 0 1 263 1586)">Large</text>
 </g>
 <g id="Guides">
  <g id="H-reference" style="fill:#27AAE1;stroke:none;" transform="matrix(1 0 0 1 339 696)">
   <path d="M0.993347 0L3.6377 0L29.3282-67.1326L30.0301-67.1326L30.0301-70.459L28.1227-70.459ZM11.6882-24.4797L46.9818-24.4797L46.2311-26.7288L12.4382-26.7288ZM55.1193 0L57.7637 0L30.6381-70.459L29.4327-70.459L29.4327-67.1326Z"/>
  </g>
  <line id="Baseline-S" style="fill:none;stroke:#27AAE1;opacity:1;stroke-width:0.5;" x1="263" x2="3036" y1="696" y2="696"/>
  <line id="Capline-S" style="fill:none;stroke:#27AAE1;opacity:1;stroke-width:0.5;" x1="263" x2="3036" y1="625.541" y2="625.541"/>
  <g id="H-reference" style="fill:#27AAE1;stroke:none;" transform="matrix(1 0 0 1 339 1126)">
   <path d="M0.993347 0L3.6377 0L29.3282-67.1326L30.0301-67.1326L30.0301-70.459L28.1227-70.459ZM11.6882-24.4797L46.9818-24.4797L46.2311-26.7288L12.4382-26.7288ZM55.1193 0L57.7637 0L30.6381-70.459L29.4327-70.459L29.4327-67.1326Z"/>
  </g>
  <line id="Baseline-M" style="fill:none;stroke:#27AAE1;opacity:1;stroke-width:0.5;" x1="263" x2="3036" y1="1126" y2="1126"/>
  <line id="Capline-M" style="fill:none;stroke:#27AAE1;opacity:1;stroke-width:0.5;" x1="263" x2="3036" y1="1055.54" y2="1055.54"/>
  <g id="H-reference" style="fill:#27AAE1;stroke:none;" transform="matrix(1 0 0 1 339 1556)">
   <path d="M0.993347 0L3.6377 0L29.3282-67.1326L30.0301-67.1326L30.0301-70.459L28.1227-70.459ZM11.6882-24.4797L46.9818-24.4797L46.2311-26.7288L12.4382-26.7288ZM55.1193 0L57.7637 0L30.6381-70.459L29.4327-70.459L29.4327-67.1326Z"/>
  </g>
  <line id="Baseline-L" style="fill:none;stroke:#27AAE1;opacity:1;stroke-width:0.5;" x1="263" x2="3036" y1="1556" y2="1556"/>
  <line id="Capline-L" style="fill:none;stroke:#27AAE1;opacity:1;stroke-width:0.5;" x1="263" x2="3036" y1="1485.54" y2="1485.54"/>
  <line id="left-margin-Regular-M" style="fill:none;stroke:#00AEEF;stroke-width:0.5;opacity:1.0;" x1="1385.73" x2="1385.73" y1="1030.79" y2="1150.12"/>
  <line id="right-margin-Regular-M" style="fill:none;stroke:#00AEEF;stroke-width:0.5;opacity:1.0;" x1="1513.96" x2="1513.96" y1="1030.79" y2="1150.12"/>
 </g>
 <g id="Symbols">
  <g id="Black-L" transform="matrix(1 0 0 1 2843.68 1556)">
   <path d="M39.8559 5.05921L59.6248 5.05921L59.6248-14.9225L42.5866-14.9225Q39.3787-14.9225 37.7216-16.4817Q36.0645-18.0408 36.0645-21.4849L36.0645-81.6062Q36.0645-85.11 37.7216-86.6393Q39.3787-88.1686 42.5866-88.1686L102.791-88.1686Q106.052-88.1686 107.682-86.6393Q109.312-85.11 109.312-81.6062L109.312-68.1801L129.292-68.1801L129.292-84.4613Q129.292-95.7861 123.091-101.968Q116.889-108.15 105.522-108.15L39.8559-108.15Q28.4872-108.15 22.2856-101.969Q16.084-95.7873 16.084-84.4613L16.084-18.6298Q16.084-7.30381 22.2856-1.1223Q28.4872 5.05921 39.8559 5.05921ZM73.9199 37.7731L139.586 37.7731Q150.953 37.7731 157.155 31.5916Q163.356 25.4101 163.356 14.0853L163.356-51.7475Q163.356-63.0722 157.155-69.2537Q150.953-75.4352 139.586-75.4352L73.9199-75.4352Q62.5511-75.4352 56.3495-69.2543Q50.1479-63.0735 50.1479-51.7475L50.1479 14.0853Q50.1479 25.4126 56.3495 31.5929Q62.5511 37.7731 73.9199 37.7731ZM76.6506 17.7926Q73.4426 17.7926 71.7855 16.2341Q70.1284 14.6756 70.1284 11.229L70.1284-48.8911Q70.1284-52.3936 71.7855-53.9242Q73.4426-55.4547 76.6506-55.4547L136.855-55.4547Q140.116-55.4547 141.746-53.9242Q143.376-52.3936 143.376-48.8911L143.376 11.229Q143.376 14.6756 141.746 16.2341Q140.116 17.7926 136.855 17.7926ZM77.9107-18.8304Q77.9107-15.3897 80.1364-13.0868Q82.362-10.7839 85.787-10.7839L98.7049-10.7839L98.7049 2.15472Q98.7049 5.53699 100.997 7.77303Q103.29 10.0091 106.75 10.0091Q110.193 10.0091 112.517 7.77367Q114.841 5.53828 114.841 2.15472L114.841-10.7839L127.759-10.7839Q131.163-10.7839 133.389-13.0868Q135.614-15.3897 135.614-18.8304Q135.614-22.2931 133.389-24.607Q131.163-26.921 127.759-26.921L114.841-26.921L114.841-39.8389Q114.841-43.2431 112.517-45.4785Q110.193-47.7139 106.75-47.7139Q103.29-47.7139 100.997-45.4779Q98.7049-43.2419 98.7049-39.8389L98.7049-26.921L85.787-26.921Q82.3607-26.921 80.1357-24.607Q77.9107-22.2931 77.9107-18.8304Z"/>
  </g>
  <g id="Heavy-L" transform="matrix(1 0 0 1 2548.69 1556)">
   <path d="M38.8328 4.23032L57.6853 4.23032L57.6853-13.2736L40.957-13.2736Q37.3499-13.2736 35.4659-15.0758Q33.5818-16.878 33.5818-20.7022L33.5818-81.431Q33.5818-85.3059 35.4659-87.0828Q37.3499-88.8597 40.957-88.8597L101.805-88.8597Q105.432-88.8597 107.303-87.0828Q109.174-85.3059 109.174-81.431L109.174-68.0198L126.672-68.0198L126.672-83.7338Q126.672-94.6408 120.787-100.502Q114.902-106.364 103.929-106.364L38.8328-106.364Q27.8542-106.364 21.9691-100.505Q16.084-94.6469 16.084-83.7338L16.084-18.3994Q16.084-7.48636 21.9691-1.62802Q27.8542 4.23032 38.8328 4.23032ZM72.0697 35.991L137.166 35.991Q148.139 35.991 154.024 30.1327Q159.909 24.2743 159.909 13.3673L159.909-51.9731Q159.909-62.8801 154.024-68.7385Q148.139-74.5968 137.166-74.5968L72.0697-74.5968Q61.0911-74.5968 55.206-68.7415Q49.3209-62.8862 49.3209-51.9731L49.3209 13.3673Q49.3209 24.2864 55.206 30.1387Q61.0911 35.991 72.0697 35.991ZM74.1939 18.4932Q70.5868 18.4932 68.7028 16.694Q66.8188 14.8948 66.8188 11.0585L66.8188-49.6643Q66.8188-53.5331 68.7028-55.3161Q70.5868-57.099 74.1939-57.099L135.042-57.099Q138.669-57.099 140.54-55.3161Q142.411-53.5331 142.411-49.6643L142.411 11.0585Q142.411 14.8948 140.54 16.694Q138.669 18.4932 135.042 18.4932ZM75.7334-19.2999Q75.7334-16.1662 77.7616-14.0859Q79.7899-12.0056 82.9445-12.0056L97.3175-12.0056L97.3175 2.39716Q97.3175 5.48626 99.3829 7.52938Q101.448 9.57249 104.606 9.57249Q107.752 9.57249 109.862 7.53239Q111.972 5.4923 111.972 2.39716L111.972-12.0056L126.345-12.0056Q129.47-12.0056 131.498-14.0859Q133.526-16.1662 133.526-19.2999Q133.526-22.4694 131.498-24.5676Q129.47-26.6658 126.345-26.6658L111.972-26.6658L111.972-41.0388Q111.972-44.1637 109.862-46.2038Q107.752-48.2439 104.606-48.2439Q101.448-48.2439 99.3829-46.2007Q97.3175-44.1576 97.3175-41.0388L97.3175-26.6658L82.9445-26.6658Q79.7838-26.6658 77.7586-24.5676Q75.7334-22.4694 75.7334-19.2999Z"/>
  </g>
  <g id="Bold-L" transform="matrix(1 0 0 1 2254.05 1556)">
   <path d="M37.5443 3.26855L55.3344 3.26855L55.3344-11.1814L38.9901-11.1814Q34.8616-11.1814 32.6907-13.2901Q30.5198-15.3987 30.5198-19.7116L30.5198-81.1371Q30.5198-85.4934 32.6907-87.5803Q34.8616-89.6672 38.9901-89.6672L100.564-89.6672Q104.664-89.6672 106.842-87.5803Q109.02-85.4934 109.02-81.1371L109.02-67.9354L123.456-67.9354L123.456-82.8048Q123.456-93.1669 117.958-98.6421Q112.46-104.117 102.009-104.117L37.5443-104.117Q27.0798-104.117 21.5819-98.6492Q16.084-93.1811 16.084-82.8048L16.084-18.0438Q16.084-7.66755 21.5819-2.1995Q27.0798 3.26855 37.5443 3.26855ZM69.8561 33.7529L134.321 33.7529Q144.771 33.7529 150.269 28.2848Q155.767 22.8168 155.767 12.4547L155.767-52.3205Q155.767-62.6826 150.269-68.1506Q144.771-73.6187 134.321-73.6187L69.8561-73.6187Q59.3916-73.6187 53.8937-68.1577Q48.3958-62.6968 48.3958-52.3205L48.3958 12.4547Q48.3958 22.8452 53.8937 28.2991Q59.3916 33.7529 69.8561 33.7529ZM71.3019 19.3171Q67.1734 19.3171 65.0025 17.2156Q62.8315 15.1141 62.8315 10.7728L62.8315-50.6385Q62.8315-54.9806 65.0025-57.0817Q67.1734-59.1829 71.3019-59.1829L132.875-59.1829Q136.976-59.1829 139.154-57.0817Q141.332-54.9806 141.332-50.6385L141.332 10.7728Q141.332 15.1141 139.154 17.2156Q136.976 19.3171 132.875 19.3171ZM73.223-19.9258Q73.223-17.2045 74.99-15.4121Q76.7571-13.6197 79.5374-13.6197L95.7683-13.6197L95.7683 2.64821Q95.7683 5.34029 97.5422 7.12587Q99.3161 8.91145 102.06 8.91145Q104.81 8.91145 106.639 7.13298Q108.469 5.35451 108.469 2.64821L108.469-13.6197L124.7-13.6197Q127.443-13.6197 129.21-15.4121Q130.977-17.2045 130.977-19.9258Q130.977-22.6983 129.21-24.5163Q127.443-26.3343 124.7-26.3343L108.469-26.3343L108.469-42.5652Q108.469-45.3085 106.639-47.087Q104.81-48.8654 102.06-48.8654Q99.3161-48.8654 97.5422-47.0799Q95.7683-45.2943 95.7683-42.5652L95.7683-26.3343L79.5374-26.3343Q76.7429-26.3343 74.9829-24.5163Q73.223-22.6983 73.223-19.9258Z"/>
  </g>
  <g id="Semibold-L" transform="matrix(1 0 0 1 1958.76 1556)">
   <path d="M36.6561 2.60551L53.7137 2.60551L53.7137-9.73914L37.6342-9.73914Q33.1463-9.73914 30.7775-12.059Q28.4088-14.379 28.4088-19.0286L28.4088-80.9345Q28.4088-85.6226 30.7775-87.9233Q33.1463-90.224 37.6342-90.224L99.7079-90.224Q104.135-90.224 106.524-87.9233Q108.913-85.6226 108.913-80.9345L108.913-67.8773L121.238-67.8773L121.238-82.1644Q121.238-92.1508 116.007-97.3597Q110.776-102.569 100.686-102.569L36.6561-102.569Q26.546-102.569 21.315-97.3696Q16.084-92.1707 16.084-82.1644L16.084-17.7987Q16.084-7.79245 21.315-2.59347Q26.546 2.60551 36.6561 2.60551ZM68.3301 32.2099L132.36 32.2099Q142.45 32.2099 147.681 27.0109Q152.912 21.812 152.912 11.8256L152.912-52.56Q152.912-62.5464 147.681-67.7453Q142.45-72.9443 132.36-72.9443L68.3301-72.9443Q58.22-72.9443 52.989-67.7553Q47.758-62.5662 47.758-52.56L47.758 11.8256Q47.758 21.8517 52.989 27.0308Q58.22 32.2099 68.3301 32.2099ZM69.3081 19.8851Q64.8202 19.8851 62.4515 17.5752Q60.0827 15.2652 60.0827 10.5758L60.0827-51.3102Q60.0827-55.9784 62.4515-58.299Q64.8202-60.6196 69.3081-60.6196L131.382-60.6196Q135.809-60.6196 138.198-58.299Q140.587-55.9784 140.587-51.3102L140.587 10.5758Q140.587 15.2652 138.198 17.5752Q135.809 19.8851 131.382 19.8851ZM71.4923-20.3573Q71.4923-17.9203 73.0793-16.3264Q74.6664-14.7325 77.1886-14.7325L94.7004-14.7325L94.7004 2.82129Q94.7004 5.23965 96.2733 6.84769Q97.8462 8.45572 100.305 8.45572Q102.782 8.45572 104.418 6.85762Q106.054 5.25953 106.054 2.82129L106.054-14.7325L123.566-14.7325Q126.046-14.7325 127.633-16.3264Q129.22-17.9203 129.22-20.3573Q129.22-22.8561 127.633-24.4809Q126.046-26.1057 123.566-26.1057L106.054-26.1057L106.054-43.6175Q106.054-46.0978 104.418-47.6959Q102.782-49.2939 100.305-49.2939Q97.8462-49.2939 96.2733-47.6859Q94.7004-46.0779 94.7004-43.6175L94.7004-26.1057L77.1886-26.1057Q74.6465-26.1057 73.0694-24.4809Q71.4923-22.8561 71.4923-20.3573Z"/>
  </g>
  <g id="Medium-L" transform="matrix(1 0 0 1 1663.13 1556)">
   <path d="M35.9826 2.10277L52.4848 2.10277L52.4848-8.64552L36.606-8.64552Q31.8456-8.64552 29.3269-11.1256Q26.8081-13.6057 26.8081-18.5108L26.8081-80.7809Q26.8081-85.7206 29.3269-88.1833Q31.8456-90.6461 36.606-90.6461L99.0591-90.6461Q103.733-90.6461 106.283-88.1833Q108.833-85.7206 108.833-80.7809L108.833-67.8332L119.557-67.8332L119.557-81.6788Q119.557-91.3803 114.528-96.3874Q109.5-101.394 99.6825-101.394L35.9826-101.394Q26.1413-101.394 21.1126-96.3994Q16.084-91.4045 16.084-81.6788L16.084-17.6128Q16.084-7.88716 21.1126-2.8922Q26.1413 2.10277 35.9826 2.10277ZM67.173 31.04L130.873 31.04Q140.69 31.04 145.719 26.045Q150.747 21.0501 150.747 11.3485L150.747-52.7416Q150.747-62.4431 145.719-67.4381Q140.69-72.433 130.873-72.433L67.173-72.433Q57.3316-72.433 52.303-67.4501Q47.2743-62.4672 47.2743-52.7416L47.2743 11.3485Q47.2743 21.0984 52.303 26.0692Q57.3316 31.04 67.173 31.04ZM67.7964 20.3159Q63.036 20.3159 60.5172 17.8478Q57.9985 15.3798 57.9985 10.4264L57.9985-51.8195Q57.9985-56.735 60.5172-59.222Q63.036-61.7089 67.7964-61.7089L130.249-61.7089Q134.924-61.7089 137.474-59.222Q140.023-56.735 140.023-51.8195L140.023 10.4264Q140.023 15.3798 137.474 17.8478Q134.924 20.3159 130.249 20.3159ZM70.18-20.6844Q70.18-18.4631 71.6305-17.0197Q73.0811-15.5762 75.4076-15.5762L93.8906-15.5762L93.8906 2.95252Q93.8906 5.16335 95.3111 6.63676Q96.7317 8.11017 98.9746 8.11017Q101.244 8.11017 102.733 6.64884Q104.223 5.1875 104.223 2.95252L104.223-15.5762L122.706-15.5762Q124.986-15.5762 126.437-17.0197Q127.887-18.4631 127.887-20.6844Q127.887-22.9757 126.437-24.4541Q124.986-25.9325 122.706-25.9325L104.223-25.9325L104.223-44.4155Q104.223-46.6962 102.733-48.1575Q101.244-49.6189 98.9746-49.6189Q96.7317-49.6189 95.3111-48.1455Q93.8906-46.672 93.8906-44.4155L93.8906-25.9325L75.4076-25.9325Q73.0569-25.9325 71.6185-24.4541Q70.18-22.9757 70.18-20.6844Z"/>
  </g>
  <g id="Regular-L" transform="matrix(1 0 0 1 1367.83 1556)">
   <path d="M35.1041 1.44702L50.8819 1.44702L50.8819-7.21907L35.265-7.21907Q30.1491-7.21907 27.4347-9.90811Q24.7203-12.5971 24.7203-17.8353L24.7203-80.5805Q24.7203-85.8484 27.4347-88.5226Q30.1491-91.1967 35.265-91.1967L98.2128-91.1967Q103.21-91.1967 105.969-88.5226Q108.728-85.8484 108.728-80.5805L108.728-67.7757L117.364-67.7757L117.364-81.0454Q117.364-90.3754 112.599-95.1191Q107.835-99.8628 98.3737-99.8628L35.1041-99.8628Q25.6133-99.8628 20.8487-95.134Q16.084-90.4051 16.084-81.0454L16.084-17.3704Q16.084-8.0107 20.8487-3.28184Q25.6133 1.44702 35.1041 1.44702ZM65.6637 29.514L128.933 29.514Q138.394 29.514 143.159 24.7851Q147.924 20.0563 147.924 10.7263L147.924-52.9784Q147.924-62.3084 143.159-67.0372Q138.394-71.7661 128.933-71.7661L65.6637-71.7661Q56.1729-71.7661 51.4082-67.0521Q46.6436-62.3381 46.6436-52.9784L46.6436 10.7263Q46.6436 20.1158 51.4082 24.8149Q56.1729 29.514 65.6637 29.514ZM65.8245 20.8776Q60.7087 20.8776 57.9943 18.2035Q55.2799 15.5293 55.2799 10.2316L55.2799-52.4838Q55.2799-57.7219 57.9943-60.4258Q60.7087-63.1298 65.8245-63.1298L128.772-63.1298Q133.769-63.1298 136.528-60.4258Q139.287-57.7219 139.287-52.4838L139.287 10.2316Q139.287 15.5293 136.528 18.2035Q133.769 20.8776 128.772 20.8776ZM68.4683-21.1112Q68.4683-19.1711 69.7408-17.9239Q71.0133-16.6768 73.0845-16.6768L92.8343-16.6768L92.8343 3.12369Q92.8343 5.06382 94.0561 6.36164Q95.2779 7.65946 97.239 7.65946Q99.2386 7.65946 100.536 6.37651Q101.834 5.09356 101.834 3.12369L101.834-16.6768L121.584-16.6768Q123.605-16.6768 124.877-17.9239Q126.15-19.1711 126.15-21.1112Q126.15-23.1317 124.877-24.4191Q123.605-25.7064 121.584-25.7064L101.834-25.7064L101.834-45.4562Q101.834-47.4768 100.536-48.7597Q99.2386-50.0427 97.239-50.0427Q95.2779-50.0427 94.0561-48.7449Q92.8343-47.447 92.8343-45.4562L92.8343-25.7064L73.0845-25.7064Q70.9836-25.7064 69.726-24.4191Q68.4683-23.1317 68.4683-21.1112Z"/>
  </g>
  <g id="Light-L" transform="matrix(1 0 0 1 1072.13 1556)">
   <path d="M34.078 1.20076L49.5891 1.20076L49.5891-5.45418L34.2389-5.45418Q28.5894-5.45418 25.639-8.38948Q22.6887-11.3248 22.6887-17.0145L22.6887-79.8827Q22.6887-85.6226 25.639-88.5328Q28.5894-91.443 34.2389-91.443L97.2278-91.443Q102.676-91.443 105.702-88.5328Q108.728-85.6226 108.728-79.8827L108.728-68.4529L115.332-68.4529L115.332-80.2245Q115.332-89.0004 110.804-93.5492Q106.275-98.0979 97.3886-98.0979L34.078-98.0979Q25.1413-98.0979 20.6127-93.5743Q16.084-89.0507 16.084-80.2245L16.084-16.6727Q16.084-7.84652 20.6127-3.32288Q25.1413 1.20076 34.078 1.20076ZM64.6376 27.7696L127.948 27.7696Q136.835 27.7696 141.363 23.246Q145.892 18.7223 145.892 9.94647L145.892-53.6556Q145.892-62.4315 141.363-66.9552Q136.835-71.4788 127.948-71.4788L64.6376-71.4788Q55.7009-71.4788 51.1722-66.9803Q46.6436-62.4818 46.6436-53.6556L46.6436 9.94647Q46.6436 18.8229 51.1722 23.2962Q55.7009 27.7696 64.6376 27.7696ZM64.7984 21.165Q59.149 21.165 56.1986 18.2548Q53.2482 15.3446 53.2482 9.55441L53.2482-53.2636Q53.2482-58.9533 56.1986-61.9137Q59.149-64.8741 64.7984-64.8741L127.787-64.8741Q133.236-64.8741 136.262-61.9137Q139.287-58.9533 139.287-53.2636L139.287 9.55441Q139.287 15.3446 136.262 18.2548Q133.236 21.165 127.787 21.165ZM67.9348-21.8295Q67.9348-20.3819 68.9199-19.4118Q69.9051-18.4417 71.4633-18.4417L92.8549-18.4417L92.8549 2.98004Q92.8549 4.42764 93.8099 5.42789Q94.7649 6.42814 96.1924 6.42814Q97.7405 6.42814 98.7408 5.45302Q99.741 4.4779 99.741 2.98004L99.741-18.4417L121.133-18.4417Q122.661-18.4417 123.646-19.4118Q124.631-20.3819 124.631-21.8295Q124.631-23.3575 123.646-24.3678Q122.661-25.3781 121.133-25.3781L99.741-25.3781L99.741-46.7696Q99.741-48.2977 98.7408-49.2728Q97.7405-50.2479 96.1924-50.2479Q94.7649-50.2479 93.8099-49.2476Q92.8549-48.2474 92.8549-46.7696L92.8549-25.3781L71.4633-25.3781Q69.8549-25.3781 68.8948-24.3678Q67.9348-23.3575 67.9348-21.8295Z"/>
  </g>
  <g id="Thin-L" transform="matrix(1 0 0 1 776.761 1556)">
   <path d="M32.7209 0.875052L47.8791 0.875052L47.8791-3.11997L32.8818-3.11997Q26.5266-3.11997 23.2641-6.38098Q20.0016-9.64199 20.0016-15.9288L20.0016-78.9599Q20.0016-85.3241 23.2641-88.5464Q26.5266-91.7687 32.8818-91.7687L95.925-91.7687Q101.97-91.7687 105.349-88.5464Q108.728-85.3241 108.728-78.9599L108.728-69.3486L112.645-69.3486L112.645-79.1388Q112.645-87.1819 108.429-91.4728Q104.212-95.7637 96.0858-95.7637L32.7209-95.7637Q24.5171-95.7637 20.3005-91.5115Q16.084-87.2593 16.084-79.1388L16.084-15.7498Q16.084-7.62939 20.3005-3.37717Q24.5171 0.875052 32.7209 0.875052ZM63.2805 25.4626L126.645 25.4626Q134.772 25.4626 138.988 21.2103Q143.205 16.9581 143.205 8.91508L143.205-54.5513Q143.205-62.5944 138.988-66.8466Q134.772-71.0988 126.645-71.0988L63.2805-71.0988Q55.0766-71.0988 50.8601-66.8853Q46.6436-62.6718 46.6436-54.5513L46.6436 8.91508Q46.6436 17.1129 50.8601 21.2877Q55.0766 25.4626 63.2805 25.4626ZM63.4413 21.5449Q57.0862 21.5449 53.8237 18.3226Q50.5612 15.1003 50.5612 8.65873L50.5612-54.295Q50.5612-60.5818 53.8237-63.8815Q57.0862-67.1812 63.4413-67.1812L126.485-67.1812Q132.53-67.1812 135.909-63.8815Q139.287-60.5818 139.287-54.295L139.287 8.65873Q139.287 15.1003 135.909 18.3226Q132.53 21.5449 126.485 21.5449ZM67.2291-22.7794Q67.2291-21.9832 67.8343-21.3796Q68.4395-20.7759 69.3191-20.7759L92.882-20.7759L92.882 2.79004Q92.882 3.58624 93.4842 4.19293Q94.0863 4.79962 94.8081 4.79962Q95.7591 4.79962 96.3658 4.23163Q96.9725 3.66364 96.9725 2.79004L96.9725-20.7759L120.535-20.7759Q121.412-20.7759 122.017-21.3796Q122.622-21.9832 122.622-22.7794Q122.622-23.656 122.017-24.2999Q121.412-24.9438 120.535-24.9438L96.9725-24.9438L96.9725-48.5067Q96.9725-49.3833 96.3658-49.9513Q95.7591-50.5193 94.8081-50.5193Q94.0863-50.5193 93.4842-49.9126Q92.882-49.3059 92.882-48.5067L92.882-24.9438L69.3191-24.9438Q68.3621-24.9438 67.7956-24.2999Q67.2291-23.656 67.2291-22.7794Z"/>
  </g>
  <g id="Ultralight-L" transform="matrix(1 0 0 1 480.736 1556)">
   <path d="M32.0258 0.708228L47.0033 0.708228L47.0033-1.9244L32.1867-1.9244Q25.4701-1.9244 22.0477-5.35223Q18.6253-8.78006 18.6253-15.3727L18.6253-78.4872Q18.6253-85.1712 22.0477-88.5533Q25.4701-91.9355 32.1867-91.9355L95.2577-91.9355Q101.609-91.9355 105.168-88.5533Q108.728-85.1712 108.728-78.4872L108.728-69.8074L111.269-69.8074L111.269-78.5828Q111.269-86.2504 107.212-90.4093Q103.156-94.5682 95.4185-94.5682L32.0258-94.5682Q24.1973-94.5682 20.1406-90.455Q16.084-86.3418 16.084-78.5828L16.084-15.2772Q16.084-7.51817 20.1406-3.40497Q24.1973 0.708228 32.0258 0.708228ZM62.5854 24.2809L125.978 24.2809Q133.715 24.2809 137.772 20.1677Q141.829 16.0545 141.829 8.3868L141.829-55.0101Q141.829-62.6778 137.772-66.791Q133.715-70.9042 125.978-70.9042L62.5854-70.9042Q54.7569-70.9042 50.7002-66.8366Q46.6436-62.7691 46.6436-55.0101L46.6436 8.3868Q46.6436 16.2371 50.7002 20.259Q54.7569 24.2809 62.5854 24.2809ZM62.7463 21.7396Q56.0297 21.7396 52.6073 18.3574Q49.1849 14.9752 49.1849 8.19996L49.1849-54.8233Q49.1849-61.4159 52.6073-64.8894Q56.0297-68.3629 62.7463-68.3629L125.817-68.3629Q132.169-68.3629 135.728-64.8894Q139.287-61.4159 139.287-54.8233L139.287 8.19996Q139.287 14.9752 135.728 18.3574Q132.169 21.7396 125.817 21.7396ZM66.8676-23.266Q66.8676-22.8034 67.2782-22.3874Q67.6887-21.9714 68.2208-21.9714L92.8959-21.9714L92.8959 2.69273Q92.8959 3.15528 93.3173 3.56039Q93.7388 3.96551 94.0991 3.96551Q94.7443 3.96551 95.1494 3.60604Q95.5545 3.24658 95.5545 2.69273L95.5545-21.9714L120.23-21.9714Q120.773-21.9714 121.183-22.3874Q121.594-22.8034 121.594-23.266Q121.594-23.809 121.183-24.2652Q120.773-24.7214 120.23-24.7214L95.5545-24.7214L95.5545-49.3964Q95.5545-49.9394 95.1494-50.2989Q94.7443-50.6583 94.0991-50.6583Q93.7388-50.6583 93.3173-50.2532Q92.8959-49.8481 92.8959-49.3964L92.8959-24.7214L68.2208-24.7214Q67.5974-24.7214 67.2325-24.2652Q66.8676-23.809 66.8676-23.266Z"/>
  </g>
  <g id="Black-M" transform="matrix(1 0 0 1 2862.55 1126)">
   <path d="M31.6183-3.33714L47.6855-3.33714L47.6855-20.6749L34.2552-20.6749Q32.0406-20.6749 30.9198-21.7073Q29.799-22.7397 29.799-25.1424L29.799-71.2156Q29.799-73.6751 30.9198-74.6791Q32.0406-75.6831 34.2552-75.6831L80.3504-75.6831Q82.6233-75.6831 83.7151-74.6791Q84.8069-73.6751 84.8069-71.2156L84.8069-60.9873L102.145-60.9873L102.145-73.8855Q102.145-82.9431 97.1003-87.982Q92.0556-93.0209 82.9873-93.0209L31.6183-93.0209Q22.5503-93.0209 17.5056-87.9819Q12.4609-82.9428 12.4609-73.8855L12.4609-22.4725Q12.4609-13.4152 17.5056-8.37615Q22.5503-3.33714 31.6183-3.33714ZM58.7199 22.6239L110.089 22.6239Q119.157 22.6239 124.202 17.5849Q129.247 12.5459 129.247 3.48823L129.247-47.9245Q129.247-56.9821 124.202-62.0211Q119.157-67.0602 110.089-67.0602L58.7199-67.0602Q49.6519-67.0602 44.6072-62.021Q39.5625-56.9818 39.5625-47.9245L39.5625 3.48823Q39.5625 12.5452 44.6072 17.5846Q49.6519 22.6239 58.7199 22.6239ZM61.3568 5.28581Q59.1421 5.28581 58.0214 4.25328Q56.9006 3.22074 56.9006 0.818605L56.9006-45.2549Q56.9006-47.7147 58.0214-48.7184Q59.1421-49.7221 61.3568-49.7221L107.452-49.7221Q109.725-49.7221 110.817-48.7184Q111.908-47.7147 111.908-45.2549L111.908 0.818605Q111.908 3.22074 110.817 4.25328Q109.725 5.28581 107.452 5.28581ZM62.1596-22.2183Q62.1596-19.3556 64.0147-17.4176Q65.8698-15.4797 68.6861-15.4797L77.666-15.4797L77.666-6.49419Q77.666-3.68858 79.6012-1.83075Q81.5365 0.0270837 84.405 0.0270837Q87.2671 0.0270837 89.2106-1.8309Q91.154-3.68888 91.154-6.49419L91.154-15.4797L100.134-15.4797Q102.945-15.4797 104.8-17.4176Q106.655-19.3556 106.655-22.2183Q106.655-25.0862 104.8-27.0268Q102.945-28.9673 100.134-28.9673L91.154-28.9673L91.154-37.9473Q91.154-40.7581 89.2106-42.6161Q87.2671-44.4741 84.405-44.4741Q81.5365-44.4741 79.6012-42.6162Q77.666-40.7584 77.666-37.9473L77.666-28.9673L68.6861-28.9673Q65.8701-28.9673 64.0148-27.0268Q62.1596-25.0862 62.1596-22.2183Z"/>
  </g>
  <g id="Heavy-M" transform="matrix(1 0 0 1 2567.43 1126)">
   <path d="M30.7128-4.12471L45.9088-4.12471L45.9088-19.2257L32.7568-19.2257Q30.2012-19.2257 28.8804-20.473Q27.5595-21.7203 27.5595-24.453L27.5595-71.1086Q27.5595-73.8874 28.8804-75.1117Q30.2012-76.3359 32.7568-76.3359L79.4773-76.3359Q82.0668-76.3359 83.3695-75.1117Q84.6722-73.8874 84.6722-71.1086L84.6722-60.7681L99.7707-60.7681L99.7707-73.25Q99.7707-81.9505 95.0137-86.6937Q90.2567-91.437 81.5213-91.437L30.7128-91.437Q21.975-91.437 17.218-86.6949Q12.4609-81.9529 12.4609-73.25L12.4609-22.3116Q12.4609-13.6088 17.218-8.86674Q21.975-4.12471 30.7128-4.12471ZM57.0059 21.0427L107.814 21.0427Q116.55 21.0427 121.307 16.3007Q126.064 11.5587 126.064 2.85824L126.064-48.0826Q126.064-56.783 121.307-61.5251Q116.55-66.2671 107.814-66.2671L57.0059-66.2671Q48.2681-66.2671 43.5111-61.5263Q38.754-56.7855 38.754-48.0826L38.754 2.85824Q38.754 11.5636 43.5111 16.3031Q48.2681 21.0427 57.0059 21.0427ZM59.0499 5.94414Q56.4943 5.94414 55.1734 4.69808Q53.8526 3.45202 53.8526 0.714403L53.8526-45.9388Q53.8526-48.7151 55.1734-49.9418Q56.4943-51.1685 59.0499-51.1685L105.77-51.1685Q108.36-51.1685 109.663-49.9418Q110.965-48.7151 110.965-45.9388L110.965 0.714403Q110.965 3.45202 109.663 4.69808Q108.36 5.94414 105.77 5.94414ZM60.0804-22.611Q60.0804-20.0029 61.769-18.257Q63.4575-16.5111 66.0569-16.5111L76.3078-16.5111L76.3078-6.24394Q76.3078-3.67948 78.0456-1.98279Q79.7834-0.286098 82.4052-0.286098Q85.0182-0.286098 86.7803-1.98157Q88.5425-3.67704 88.5425-6.24394L88.5425-16.5111L98.7934-16.5111Q101.377-16.5111 103.065-18.257Q104.754-20.0029 104.754-22.611Q104.754-25.2377 103.065-26.9929Q101.377-28.7482 98.7934-28.7482L88.5425-28.7482L88.5425-38.9991Q88.5425-41.5822 86.7803-43.2777Q85.0182-44.9732 82.4052-44.9732Q79.7834-44.9732 78.0456-43.2765Q76.3078-41.5798 76.3078-38.9991L76.3078-28.7482L66.0569-28.7482Q63.4551-28.7482 61.7677-26.9929Q60.0804-25.2377 60.0804-22.611Z"/>
  </g>
  <g id="Bold-M" transform="matrix(1 0 0 1 2272.49 1126)">
   <path d="M29.6999-5.00573L43.9213-5.00573L43.9213-17.6046L31.0806-17.6046Q28.1436-17.6046 26.5989-19.0923Q25.0543-20.58 25.0543-23.6819L25.0543-70.989Q25.0543-74.1249 26.5989-75.5956Q28.1436-77.0662 31.0806-77.0662L78.5007-77.0662Q81.4442-77.0662 82.9828-75.5956Q84.5214-74.1249 84.5214-70.989L84.5214-60.5229L97.1148-60.5229L97.1148-72.5391Q97.1148-80.84 92.6795-85.2526Q88.2442-89.6651 79.8814-89.6651L29.6999-89.6651Q21.3315-89.6651 16.8962-85.2553Q12.4609-80.8455 12.4609-72.5391L12.4609-22.1317Q12.4609-13.8253 16.8962-9.41553Q21.3315-5.00573 29.6999-5.00573ZM55.0885 19.274L105.27 19.274Q113.633 19.274 118.068 14.8642Q122.503 10.4544 122.503 2.1535L122.503-48.2595Q122.503-56.5603 118.068-60.9701Q113.633-65.3799 105.27-65.3799L55.0885-65.3799Q46.7202-65.3799 42.2849-60.9729Q37.8496-56.5658 37.8496-48.2595L37.8496 2.1535Q37.8496 10.4654 42.2849 14.8697Q46.7202 19.274 55.0885 19.274ZM56.4693 6.68057Q53.5322 6.68057 51.9876 5.19565Q50.443 3.71073 50.443 0.597838L50.443-46.7038Q50.443-49.8342 51.9876-51.3104Q53.5322-52.7865 56.4693-52.7865L103.889-52.7865Q106.833-52.7865 108.371-51.3104Q109.91-49.8342 109.91-46.7038L109.91 0.597838Q109.91 3.71073 108.371 5.19565Q106.833 6.68057 103.889 6.68057ZM57.7545-23.0502Q57.7545-20.727 59.2568-19.196Q60.7591-17.6649 63.1158-17.6649L74.7885-17.6649L74.7885-5.964Q74.7885-3.66931 76.3054-2.15287Q77.8223-0.636436 80.1683-0.636436Q82.5025-0.636436 84.0618-2.15011Q85.6211-3.66379 85.6211-5.964L85.6211-17.6649L97.2938-17.6649Q99.6222-17.6649 101.125-19.196Q102.627-20.727 102.627-23.0502Q102.627-25.4072 101.125-26.9551Q99.6222-28.503 97.2938-28.503L85.6211-28.503L85.6211-40.1757Q85.6211-42.5042 84.0618-44.0178Q82.5025-45.5315 80.1683-45.5315Q77.8223-45.5315 76.3054-44.0151Q74.7885-42.4986 74.7885-40.1757L74.7885-28.503L63.1158-28.503Q60.7536-28.503 59.254-26.9551Q57.7545-25.4072 57.7545-23.0502Z"/>
  </g>
  <g id="Semibold-M" transform="matrix(1 0 0 1 1977.01 1126)">
   <path d="M29.0015-5.6131L42.5512-5.6131L42.5512-16.4871L29.925-16.4871Q26.725-16.4871 25.0262-18.1405Q23.3273-19.7939 23.3273-23.1502L23.3273-70.9065Q23.3273-74.2886 25.0262-75.9292Q26.725-77.5697 29.925-77.5697L77.8274-77.5697Q81.0149-77.5697 82.7162-75.9292Q84.4175-74.2886 84.4175-70.9065L84.4175-60.3538L95.2838-60.3538L95.2838-72.0491Q95.2838-80.0744 91.0704-84.259Q86.8569-88.4436 78.7509-88.4436L29.0015-88.4436Q20.8878-88.4436 16.6744-84.2629Q12.4609-80.0821 12.4609-72.0491L12.4609-22.0077Q12.4609-13.9746 16.6744-9.79387Q20.8878-5.6131 29.0015-5.6131ZM53.7667 18.0546L103.516 18.0546Q111.622 18.0546 115.836 13.8738Q120.049 9.69305 120.049 1.66766L120.049-48.3814Q120.049-56.4068 115.836-60.5875Q111.622-64.7683 103.516-64.7683L53.7667-64.7683Q45.653-64.7683 41.4396-60.5913Q37.2261-56.4144 37.2261-48.3814L37.2261 1.66766Q37.2261 9.70833 41.4396 13.8815Q45.653 18.0546 53.7667 18.0546ZM54.6902 7.18827Q51.4902 7.18827 49.7913 5.53868Q48.0924 3.88909 48.0924 0.517478L48.0924-47.2312Q48.0924-50.6057 49.7913-52.2538Q51.4902-53.902 54.6902-53.902L102.593-53.902Q105.78-53.902 107.481-52.2538Q109.183-50.6057 109.183-47.2312L109.183 0.517478Q109.183 3.88909 107.481 5.53868Q105.78 7.18827 102.593 7.18827ZM56.151-23.353Q56.151-21.2262 57.5249-19.8433Q58.8989-18.4604 61.0882-18.4604L73.7411-18.4604L73.7411-5.77101Q73.7411-3.6623 75.1057-2.27013Q76.4704-0.877957 78.6261-0.877957Q80.7682-0.877957 82.1877-2.26631Q83.6071-3.65466 83.6071-5.77101L83.6071-18.4604L96.2599-18.4604Q98.4128-18.4604 99.7867-19.8433Q101.161-21.2262 101.161-23.353Q101.161-25.5241 99.7867-26.929Q98.4128-28.334 96.2599-28.334L83.6071-28.334L83.6071-40.9869Q83.6071-43.1397 82.1877-44.5281Q80.7682-45.9164 78.6261-45.9164Q76.4704-45.9164 75.1057-44.5242Q73.7411-43.1321 73.7411-40.9869L73.7411-28.334L61.0882-28.334Q58.8912-28.334 57.5211-26.929Q56.151-25.5241 56.151-23.353Z"/>
  </g>
  <g id="Medium-M" transform="matrix(1 0 0 1 1681.23 1126)">
   <path d="M28.472-6.07363L41.5122-6.07363L41.5122-15.6397L29.0488-15.6397Q25.6495-15.6397 23.8336-17.4187Q22.0177-19.1978 22.0177-22.7471L22.0177-70.844Q22.0177-74.4128 23.8336-76.1821Q25.6495-77.9514 29.0488-77.9514L77.3168-77.9514Q80.6895-77.9514 82.5141-76.1821Q84.3387-74.4128 84.3387-70.844L84.3387-60.2257L93.8955-60.2257L93.8955-71.6775Q93.8955-79.494 89.8502-83.5057Q85.805-87.5174 77.8937-87.5174L28.472-87.5174Q20.5515-87.5174 16.5062-83.5103Q12.4609-79.5032 12.4609-71.6775L12.4609-21.9136Q12.4609-14.0878 16.5062-10.0807Q20.5515-6.07363 28.472-6.07363ZM52.7644 17.13L102.186 17.13Q110.097 17.13 114.143 13.1229Q118.188 9.11579 118.188 1.29928L118.188-48.4738Q118.188-56.2903 114.143-60.2974Q110.097-64.3046 102.186-64.3046L52.7644-64.3046Q44.8439-64.3046 40.7986-60.3021Q36.7534-56.2996 36.7534-48.4738L36.7534 1.29928Q36.7534 9.13429 40.7986 13.1321Q44.8439 17.13 52.7644 17.13ZM53.3413 7.57322Q49.9419 7.57322 48.126 5.79878Q46.3101 4.02433 46.3101 0.456547L46.3101-47.6311Q46.3101-51.1907 48.126-52.9692Q49.9419-54.7478 53.3413-54.7478L101.609-54.7478Q104.982-54.7478 106.807-52.9692Q108.631-51.1907 108.631-47.6311L108.631 0.456547Q108.631 4.02433 106.807 5.79878Q104.982 7.57322 101.609 7.57322ZM54.9352-23.5826Q54.9352-21.6047 56.2118-20.3341Q57.4883-19.0635 59.5508-19.0635L72.9469-19.0635L72.9469-5.62468Q72.9469-3.65698 74.1961-2.35903Q75.4453-1.06109 77.4568-1.06109Q79.4532-1.06109 80.7666-2.35441Q82.08-3.64773 82.08-5.62468L82.08-19.0635L95.476-19.0635Q97.4957-19.0635 98.7723-20.3341Q100.049-21.6047 100.049-23.5826Q100.049-25.6127 98.7723-26.9093Q97.4957-28.2058 95.476-28.2058L82.08-28.2058L82.08-41.6019Q82.08-43.6216 80.7666-44.9149Q79.4532-46.2083 77.4568-46.2083Q75.4453-46.2083 74.1961-44.9103Q72.9469-43.6124 72.9469-41.6019L72.9469-28.2058L59.5508-28.2058Q57.4791-28.2058 56.2071-26.9093Q54.9352-25.6127 54.9352-23.5826Z"/>
  </g>
  <g id="Regular-M" transform="matrix(1 0 0 1 1385.73 1126)">
   <path d="M27.7814-6.67433L40.1571-6.67433L40.1571-14.5344L27.906-14.5344Q24.2465-14.5344 22.2781-16.4773Q20.3096-18.4203 20.3096-22.2213L20.3096-70.7624Q20.3096-74.5747 22.2781-76.512Q24.2465-78.4493 27.906-78.4493L76.6509-78.4493Q80.265-78.4493 82.2505-76.512Q84.2359-74.5747 84.2359-70.7624L84.2359-60.0585L92.0846-60.0585L92.0846-71.1928Q92.0846-78.7368 88.2588-82.5231Q84.4329-86.3094 76.7755-86.3094L27.7814-86.3094Q20.1127-86.3094 16.2868-82.5288Q12.4609-78.7482 12.4609-71.1928L12.4609-21.7909Q12.4609-14.2355 16.2868-10.4549Q20.1127-6.67433 27.7814-6.67433ZM51.4571 15.924L100.451 15.924Q108.109 15.924 111.935 12.1434Q115.76 8.36285 115.76 0.818781L115.76-48.5944Q115.76-56.1385 111.935-59.9191Q108.109-63.6997 100.451-63.6997L51.4571-63.6997Q43.7885-63.6997 39.9626-59.9247Q36.1367-56.1498 36.1367-48.5944L36.1367 0.818781Q36.1367 8.38554 39.9626 12.1548Q43.7885 15.924 51.4571 15.924ZM51.5818 8.07534Q47.9223 8.07534 45.9539 6.13803Q43.9854 4.20072 43.9854 0.37707L43.9854-48.1527Q43.9854-51.9537 45.9539-53.9023Q47.9223-55.851 51.5818-55.851L100.327-55.851Q103.941-55.851 105.926-53.9023Q107.912-51.9537 107.912-48.1527L107.912 0.37707Q107.912 4.20072 105.926 6.13803Q103.941 8.07534 100.327 8.07534ZM53.3494-23.8821Q53.3494-22.0984 54.4989-20.9743Q55.6485-19.8502 57.5455-19.8502L71.911-19.8502L71.911-5.43381Q71.911-3.65004 73.0096-2.475Q74.1082-1.29996 75.9315-1.29996Q77.738-1.29996 78.913-2.46933Q80.0881-3.6387 80.0881-5.43381L80.0881-19.8502L94.4535-19.8502Q96.2996-19.8502 97.4492-20.9743Q98.5987-22.0984 98.5987-23.8821Q98.5987-25.7282 97.4492-26.8835Q96.2996-28.0387 94.4535-28.0387L80.0881-28.0387L80.0881-42.4041Q80.0881-44.2502 78.913-45.4196Q77.738-46.5889 75.9315-46.5889Q74.1082-46.5889 73.0096-45.4139Q71.911-44.2389 71.911-42.4041L71.911-28.0387L57.5455-28.0387Q55.6371-28.0387 54.4933-26.8835Q53.3494-25.7282 53.3494-23.8821Z"/>
  </g>
  <g id="Light-M" transform="matrix(1 0 0 1 1089.93 1126)">
   <path d="M26.8614-6.89512L38.998-6.89512L38.998-12.952L26.986-12.952Q22.8482-12.952 20.6682-15.1158Q18.4881-17.2796 18.4881-21.4853L18.4881-70.1368Q18.4881-74.3723 20.6682-76.5212Q22.8482-78.6701 26.986-78.6701L75.7678-78.6701Q79.7866-78.6701 82.0113-76.5212Q84.2359-74.3723 84.2359-70.1368L84.2359-60.6656L90.2631-60.6656L90.2631-70.4568Q90.2631-77.5041 86.6488-81.1156Q83.0346-84.727 75.8924-84.727L26.8614-84.727Q19.6895-84.727 16.0752-81.1304Q12.4609-77.5338 12.4609-70.4568L12.4609-21.1654Q12.4609-14.0883 16.0752-10.4917Q19.6895-6.89512 26.8614-6.89512ZM50.5372 14.3601L99.5682 14.3601Q106.71 14.3601 110.325 10.7635Q113.939 7.16691 113.939 0.119619L113.939-49.2016Q113.939-56.2489 110.325-59.8455Q106.71-63.4421 99.5682-63.4421L50.5372-63.4421Q43.3653-63.4421 39.751-59.8603Q36.1367-56.2786 36.1367-49.2016L36.1367 0.119619Q36.1367 7.2264 39.751 10.7933Q43.3653 14.3601 50.5372 14.3601ZM50.6618 8.33292Q46.524 8.33292 44.344 6.18403Q42.1639 4.03513 42.1639-0.230097L42.1639-48.8519Q42.1639-53.0576 44.344-55.2362Q46.524-57.4149 50.6618-57.4149L99.4436-57.4149Q103.462-57.4149 105.687-55.2362Q107.912-53.0576 107.912-48.8519L107.912-0.230097Q107.912 4.03513 105.687 6.18403Q103.462 8.33292 99.4436 8.33292ZM52.871-24.5261Q52.871-23.1839 53.763-22.3082Q54.6549-21.4325 56.092-21.4325L71.9294-21.4325L71.9294-5.5626Q71.9294-4.22041 72.7888-3.31215Q73.6482-2.4039 74.9932-2.4039Q76.3949-2.4039 77.3031-3.29728Q78.2114-4.19067 78.2114-5.5626L78.2114-21.4325L94.0488-21.4325Q95.4532-21.4325 96.3452-22.3082Q97.2372-23.1839 97.2372-24.5261Q97.2372-25.9306 96.3452-26.8375Q95.4532-27.7443 94.0488-27.7443L78.2114-27.7443L78.2114-43.5817Q78.2114-44.9862 77.3031-45.8795Q76.3949-46.7729 74.9932-46.7729Q73.6482-46.7729 72.7888-45.8647Q71.9294-44.9564 71.9294-43.5817L71.9294-27.7443L56.092-27.7443Q54.6252-27.7443 53.7481-26.8375Q52.871-25.9306 52.871-24.5261Z"/>
  </g>
  <g id="Thin-M" transform="matrix(1 0 0 1 794.415 1126)">
   <path d="M25.6447-7.18713L37.4649-7.18713L37.4649-10.8593L25.7693-10.8593Q20.9988-10.8593 18.5389-13.3151Q16.079-15.7709 16.079-20.512L16.079-69.3095Q16.079-74.1046 18.5389-76.5334Q20.9988-78.9621 25.7693-78.9621L74.5997-78.9621Q79.1539-78.9621 81.6949-76.5334Q84.2359-74.1046 84.2359-69.3095L84.2359-61.4687L87.854-61.4687L87.854-69.4834Q87.854-75.8737 84.5196-79.254Q81.1852-82.6343 74.7244-82.6343L25.6447-82.6343Q19.1298-82.6343 15.7954-79.2811Q12.4609-75.9278 12.4609-69.4834L12.4609-20.338Q12.4609-13.8936 15.7954-10.5404Q19.1298-7.18713 25.6447-7.18713ZM49.3205 12.2917L98.4001 12.2917Q104.861 12.2917 108.195 8.93845Q111.53 5.58519 111.53-0.805079L111.53-50.0046Q111.53-56.3949 108.195-59.7481Q104.861-63.1014 98.4001-63.1014L49.3205-63.1014Q42.8056-63.1014 39.4712-59.7752Q36.1367-56.449 36.1367-50.0046L36.1367-0.805079Q36.1367 5.69335 39.4712 8.99253Q42.8056 12.2917 49.3205 12.2917ZM49.4451 8.6736Q44.6746 8.6736 42.2147 6.24486Q39.7548 3.81613 39.7548-1.03312L39.7548-49.7766Q39.7548-54.5177 42.2147-57.0005Q44.6746-59.4833 49.4451-59.4833L98.2755-59.4833Q102.83-59.4833 105.371-57.0005Q107.912-54.5177 107.912-49.7766L107.912-1.03312Q107.912 3.81613 105.371 6.24486Q102.83 8.6736 98.2755 8.6736ZM52.2383-25.3778Q52.2383-24.6196 52.7896-24.0724Q53.3409-23.5253 54.1696-23.5253L71.9537-23.5253L71.9537-5.73294Q71.9537-4.97477 72.4968-4.41936Q73.0398-3.86395 73.7522-3.86395Q74.6185-3.86395 75.1739-4.39232Q75.7293-4.92069 75.7293-5.73294L75.7293-23.5253L93.5134-23.5253Q94.3339-23.5253 94.8852-24.0724Q95.4365-24.6196 95.4365-25.3778Q95.4365-26.1983 94.8852-26.7766Q94.3339-27.355 93.5134-27.355L75.7293-27.355L75.7293-45.139Q75.7293-45.9595 75.1739-46.4879Q74.6185-47.0163 73.7522-47.0163Q73.0398-47.0163 72.4968-46.4609Q71.9537-45.9054 71.9537-45.139L71.9537-27.355L54.1696-27.355Q53.2868-27.355 52.7626-26.7766Q52.2383-26.1983 52.2383-25.3778Z"/>
  </g>
  <g id="Ultralight-M" transform="matrix(1 0 0 1 498.319 1126)">
   <path d="M25.0215-7.33669L36.6797-7.33669L36.6797-9.78742L25.1461-9.78742Q20.0516-9.78742 17.4483-12.3928Q14.8451-14.9981 14.8451-20.0134L14.8451-68.8857Q14.8451-73.9675 17.4483-76.5396Q20.0516-79.1117 25.1461-79.1117L74.0015-79.1117Q78.8299-79.1117 81.5329-76.5396Q84.2359-73.9675 84.2359-68.8857L84.2359-61.88L86.6201-61.88L86.6201-68.9849Q86.6201-75.0386 83.429-78.3005Q80.2379-81.5624 74.1261-81.5624L25.0215-81.5624Q18.8432-81.5624 15.652-78.3338Q12.4609-75.1052 12.4609-68.9849L12.4609-19.9142Q12.4609-13.7939 15.652-10.5653Q18.8432-7.33669 25.0215-7.33669ZM48.6973 11.2323L97.8019 11.2323Q103.914 11.2323 107.105 8.00366Q110.296 4.77504 110.296-1.27871L110.296-50.4159Q110.296-56.4697 107.105-59.6983Q103.914-62.9269 97.8019-62.9269L48.6973-62.9269Q42.5189-62.9269 39.3278-59.7316Q36.1367-56.5362 36.1367-50.4159L36.1367-1.27871Q36.1367 4.90813 39.3278 8.07021Q42.5189 11.2323 48.6973 11.2323ZM48.8219 8.8481Q43.7274 8.8481 41.1241 6.27602Q38.5209 3.70395 38.5209-1.44443L38.5209-50.2502Q38.5209-55.2655 41.1241-57.9041Q43.7274-60.5427 48.8219-60.5427L97.6773-60.5427Q102.506-60.5427 105.209-57.9041Q107.912-55.2655 107.912-50.2502L107.912-1.44443Q107.912 3.70395 105.209 6.27602Q102.506 8.8481 97.6773 8.8481ZM51.9142-25.814Q51.9142-25.355 52.291-24.9761Q52.6678-24.5971 53.185-24.5971L71.9662-24.5971L71.9662-5.82019Q71.9662-5.36115 72.3472-4.98646Q72.7282-4.61178 73.1165-4.61178Q73.7086-4.61178 74.0833-4.95319Q74.458-5.29461 74.458-5.82019L74.458-24.5971L93.2392-24.5971Q93.7605-24.5971 94.1373-24.9761Q94.5142-25.355 94.5142-25.814Q94.5142-26.3354 94.1373-26.7455Q93.7605-27.1555 93.2392-27.1555L74.458-27.1555L74.458-45.9367Q74.458-46.4581 74.0833-46.7995Q73.7086-47.1409 73.1165-47.1409Q72.7282-47.1409 72.3472-46.7662Q71.9662-46.3915 71.9662-45.9367L71.9662-27.1555L53.185-27.1555Q52.6013-27.1555 52.2578-26.7455Q51.9142-26.3354 51.9142-25.814Z"/>
  </g>
  <g id="Black-S" transform="matrix(1 0 0 1 2877.44 696)">
   <path d="M25-10.0098L37.8418-10.0098L37.8418-24.1699L27.2461-24.1699Q25.5859-24.1699 24.7559-24.9268Q23.9258-25.6836 23.9258-27.4902L23.9258-63.4277Q23.9258-65.2832 24.7559-66.0156Q25.5859-66.748 27.2461-66.748L63.1836-66.748Q64.8926-66.748 65.6982-66.0156Q66.5039-65.2832 66.5039-63.4277L66.5039-55.5176L80.6641-55.5176L80.6641-65.6738Q80.6641-72.8516 76.6357-76.8799Q72.6074-80.9082 65.4297-80.9082L25-80.9082Q17.8223-80.9082 13.7939-76.8799Q9.76562-72.8516 9.76562-65.6738L9.76562-25.2441Q9.76562-18.0664 13.7939-14.0381Q17.8223-10.0098 25-10.0098ZM46.4844 10.498L86.9141 10.498Q94.0918 10.498 98.1201 6.46973Q102.148 2.44141 102.148-4.73633L102.148-45.166Q102.148-52.3438 98.1201-56.3721Q94.0918-60.4004 86.9141-60.4004L46.4844-60.4004Q39.3066-60.4004 35.2783-56.3721Q31.25-52.3438 31.25-45.166L31.25-4.73633Q31.25 2.44141 35.2783 6.46973Q39.3066 10.498 46.4844 10.498ZM48.7305-3.66211Q47.0703-3.66211 46.2402-4.41895Q45.4102-5.17578 45.4102-6.98242L45.4102-42.9199Q45.4102-44.7754 46.2402-45.5078Q47.0703-46.2402 48.7305-46.2402L84.668-46.2402Q86.377-46.2402 87.1826-45.5078Q87.9883-44.7754 87.9883-42.9199L87.9883-6.98242Q87.9883-5.17578 87.1826-4.41895Q86.377-3.66211 84.668-3.66211ZM49.3164-24.9512Q49.3164-22.6562 50.8057-21.0938Q52.2949-19.5312 54.541-19.5312L61.2793-19.5312L61.2793-12.793Q61.2793-10.5469 62.8418-9.05762Q64.4043-7.56836 66.6992-7.56836Q68.9941-7.56836 70.5566-9.05762Q72.1191-10.5469 72.1191-12.793L72.1191-19.5312L78.8574-19.5312Q81.1035-19.5312 82.5928-21.0938Q84.082-22.6562 84.082-24.9512Q84.082-27.2461 82.5928-28.8086Q81.1035-30.3711 78.8574-30.3711L72.1191-30.3711L72.1191-37.1094Q72.1191-39.3555 70.5566-40.8447Q68.9941-42.334 66.6992-42.334Q64.4043-42.334 62.8418-40.8447Q61.2793-39.3555 61.2793-37.1094L61.2793-30.3711L54.541-30.3711Q52.2949-30.3711 50.8057-28.8086Q49.3164-27.2461 49.3164-24.9512Z"/>
  </g>
  <g id="Heavy-S" transform="matrix(1 0 0 1 2581.98 696)">
   <path d="M24.3431-10.6551L36.4704-10.6551L36.4704-23.1327L26.0821-23.1327Q24.1915-23.1327 23.2173-24.0451Q22.2432-24.9576 22.2432-26.9947L22.2432-63.4162Q22.2432-65.4906 23.2173-66.3844Q24.1915-67.2782 26.0821-67.2782L62.5497-67.2782Q64.4777-67.2782 65.4332-66.3844Q66.3887-65.4906 66.3887-63.4162L66.3887-55.2525L78.8662-55.2525L78.8662-65.2244Q78.8662-72.1601 75.0569-75.9579Q71.2475-79.7558 64.2888-79.7558L24.3431-79.7558Q17.3843-79.7558 13.575-75.9579Q9.76562-72.1601 9.76562-65.2244L9.76562-25.1865Q9.76562-18.2508 13.575-14.453Q17.3843-10.6551 24.3431-10.6551ZM45.136 9.3456L85.0817 9.3456Q92.0404 9.3456 95.8498 5.54777Q99.6592 1.74994 99.6592-5.18578L99.6592-45.2236Q99.6592-52.1594 95.8498-55.9572Q92.0404-59.755 85.0817-59.755L45.136-59.755Q38.1772-59.755 34.3679-55.9572Q30.5585-52.1594 30.5585-45.2236L30.5585-5.18578Q30.5585 1.74994 34.3679 5.54777Q38.1772 9.3456 45.136 9.3456ZM46.875-3.13198Q44.9844-3.13198 44.0103-4.0444Q43.0361-4.95682 43.0361-6.99395L43.0361-43.4155Q43.0361-45.4899 44.0103-46.3837Q44.9844-47.2774 46.875-47.2774L83.3427-47.2774Q85.2706-47.2774 86.2261-46.3837Q87.1816-45.4899 87.1816-43.4155L87.1816-6.99395Q87.1816-4.95682 86.2261-4.0444Q85.2706-3.13198 83.3427-3.13198ZM47.5993-25.2047Q47.5993-23.0711 48.979-21.6412Q50.3588-20.2112 52.4781-20.2112L60.1153-20.2112L60.1153-12.5625Q60.1153-10.4662 61.5395-9.08067Q62.9637-7.69513 65.1088-7.69513Q67.2424-7.69513 68.6839-9.08067Q70.1254-10.4662 70.1254-12.5625L70.1254-20.2112L77.7626-20.2112Q79.8704-20.2112 81.2502-21.6412Q82.6299-23.0711 82.6299-25.2047Q82.6299-27.3498 81.2502-28.7855Q79.8704-30.2213 77.7626-30.2213L70.1254-30.2213L70.1254-37.8585Q70.1254-39.9663 68.6839-41.3518Q67.2424-42.7373 65.1088-42.7373Q62.9637-42.7373 61.5395-41.3518Q60.1153-39.9663 60.1153-37.8585L60.1153-30.2213L52.4781-30.2213Q50.3588-30.2213 48.979-28.7855Q47.5993-27.3498 47.5993-25.2047Z"/>
  </g>
  <g id="Bold-S" transform="matrix(1 0 0 1 2286.66 696)">
   <path d="M23.6084-11.377L34.9365-11.377L34.9365-21.9727L24.7803-21.9727Q22.6318-21.9727 21.4966-23.0591Q20.3613-24.1455 20.3613-26.4404L20.3613-63.4033Q20.3613-65.7227 21.4966-66.7969Q22.6318-67.8711 24.7803-67.8711L61.8408-67.8711Q64.0137-67.8711 65.1367-66.7969Q66.2598-65.7227 66.2598-63.4033L66.2598-54.9561L76.8555-54.9561L76.8555-64.7217Q76.8555-71.3867 73.291-74.9268Q69.7266-78.4668 63.0127-78.4668L23.6084-78.4668Q16.8945-78.4668 13.3301-74.9268Q9.76562-71.3867 9.76562-64.7217L9.76562-25.1221Q9.76562-18.457 13.3301-14.917Q16.8945-11.377 23.6084-11.377ZM43.6279 8.05664L83.0322 8.05664Q89.7461 8.05664 93.3105 4.5166Q96.875 0.976562 96.875-5.68848L96.875-45.2881Q96.875-51.9531 93.3105-55.4932Q89.7461-59.0332 83.0322-59.0332L43.6279-59.0332Q36.9141-59.0332 33.3496-55.4932Q29.7852-51.9531 29.7852-45.2881L29.7852-5.68848Q29.7852 0.976562 33.3496 4.5166Q36.9141 8.05664 43.6279 8.05664ZM44.7998-2.53906Q42.6514-2.53906 41.5161-3.62549Q40.3809-4.71191 40.3809-7.00684L40.3809-43.9697Q40.3809-46.2891 41.5161-47.3633Q42.6514-48.4375 44.7998-48.4375L81.8604-48.4375Q84.0332-48.4375 85.1562-47.3633Q86.2793-46.2891 86.2793-43.9697L86.2793-7.00684Q86.2793-4.71191 85.1562-3.62549Q84.0332-2.53906 81.8604-2.53906ZM45.6787-25.4883Q45.6787-23.5352 46.936-22.2534Q48.1934-20.9717 50.1709-20.9717L58.8135-20.9717L58.8135-12.3047Q58.8135-10.376 60.083-9.10645Q61.3525-7.83691 63.3301-7.83691Q65.2832-7.83691 66.5894-9.10645Q67.8955-10.376 67.8955-12.3047L67.8955-20.9717L76.5381-20.9717Q78.4912-20.9717 79.7485-22.2534Q81.0059-23.5352 81.0059-25.4883Q81.0059-27.4658 79.7485-28.7598Q78.4912-30.0537 76.5381-30.0537L67.8955-30.0537L67.8955-38.6963Q67.8955-40.6494 66.5894-41.9189Q65.2832-43.1885 63.3301-43.1885Q61.3525-43.1885 60.083-41.9189Q58.8135-40.6494 58.8135-38.6963L58.8135-30.0537L50.1709-30.0537Q48.1934-30.0537 46.936-28.7598Q45.6787-27.4658 45.6787-25.4883Z"/>
  </g>
  <g id="Semibold-S" transform="matrix(1 0 0 1 1990.91 696)">
   <path d="M23.1019-11.8746L33.879-11.8746L33.879-21.1729L23.8827-21.1729Q21.5565-21.1729 20.3102-22.3792Q19.0639-23.5856 19.0639-26.0583L19.0639-63.3944Q19.0639-65.8826 20.3102-67.0812Q21.5565-68.2799 23.8827-68.2799L61.3521-68.2799Q63.6938-68.2799 64.9323-67.0812Q66.1709-65.8826 66.1709-63.3944L66.1709-54.7517L75.4691-54.7517L75.4691-64.3751Q75.4691-70.8535 72.0735-74.2158Q68.6779-77.5781 62.1329-77.5781L23.1019-77.5781Q16.5568-77.5781 13.1612-74.2158Q9.76562-70.8535 9.76562-64.3751L9.76562-25.0776Q9.76562-18.5992 13.1612-15.2369Q16.5568-11.8746 23.1019-11.8746ZM42.5882 7.16797L81.6192 7.16797Q88.1643 7.16797 91.5599 3.80566Q94.9555 0.443359 94.9555-6.03506L94.9555-45.3325Q94.9555-51.8109 91.5599-55.1732Q88.1643-58.5355 81.6192-58.5355L42.5882-58.5355Q36.0432-58.5355 32.6476-55.1732Q29.252-51.8109 29.252-45.3325L29.252-6.03506Q29.252 0.443359 32.6476 3.80566Q36.0432 7.16797 42.5882 7.16797ZM43.369-2.13027Q41.0429-2.13027 39.7965-3.33667Q38.5502-4.54307 38.5502-7.01572L38.5502-44.3519Q38.5502-46.84 39.7965-48.0387Q41.0429-49.2373 43.369-49.2373L80.8384-49.2373Q83.1801-49.2373 84.4187-48.0387Q85.6572-46.84 85.6572-44.3519L85.6572-7.01572Q85.6572-4.54307 84.4187-3.33667Q83.1801-2.13027 80.8384-2.13027ZM44.3546-25.6838Q44.3546-23.8551 45.5275-22.6755Q46.7004-21.496 48.5802-21.496L57.9159-21.496L57.9159-12.127Q57.9159-10.3138 59.0788-9.12422Q60.2417-7.93467 62.1037-7.93467Q63.9324-7.93467 65.1453-9.12422Q66.3581-10.3138 66.3581-12.127L66.3581-21.496L75.6938-21.496Q77.5403-21.496 78.7132-22.6755Q79.8861-23.8551 79.8861-25.6838Q79.8861-27.5458 78.7132-28.742Q77.5403-29.9382 75.6938-29.9382L66.3581-29.9382L66.3581-39.2739Q66.3581-41.1204 65.1453-42.31Q63.9324-43.4995 62.1037-43.4995Q60.2417-43.4995 59.0788-42.31Q57.9159-41.1204 57.9159-39.2739L57.9159-29.9382L48.5802-29.9382Q46.7004-29.9382 45.5275-28.742Q44.3546-27.5458 44.3546-25.6838Z"/>
  </g>
  <g id="Medium-S" transform="matrix(1 0 0 1 1694.92 696)">
   <path d="M22.7178-12.252L33.0771-12.252L33.0771-20.5664L23.2021-20.5664Q20.7412-20.5664 19.4106-21.8638Q18.0801-23.1611 18.0801-25.7686L18.0801-63.3877Q18.0801-66.0039 19.4106-67.2969Q20.7412-68.5898 23.2021-68.5898L60.9814-68.5898Q63.4512-68.5898 64.7773-67.2969Q66.1035-66.0039 66.1035-63.3877L66.1035-54.5967L74.418-54.5967L74.418-64.1123Q74.418-70.4492 71.1504-73.6768Q67.8828-76.9043 61.4658-76.9043L22.7178-76.9043Q16.3008-76.9043 13.0332-73.6768Q9.76562-70.4492 9.76562-64.1123L9.76562-25.0439Q9.76562-18.707 13.0332-15.4795Q16.3008-12.252 22.7178-12.252ZM41.7998 6.49414L80.5479 6.49414Q86.9648 6.49414 90.2324 3.2666Q93.5 0.0390625 93.5-6.29785L93.5-45.3662Q93.5-51.7031 90.2324-54.9307Q86.9648-58.1582 80.5479-58.1582L41.7998-58.1582Q35.3828-58.1582 32.1152-54.9307Q28.8477-51.7031 28.8477-45.3662L28.8477-6.29785Q28.8477 0.0390625 32.1152 3.2666Q35.3828 6.49414 41.7998 6.49414ZM42.2842-1.82031Q39.8232-1.82031 38.4927-3.11768Q37.1621-4.41504 37.1621-7.02246L37.1621-44.6416Q37.1621-47.2578 38.4927-48.5508Q39.8232-49.8438 42.2842-49.8438L80.0635-49.8438Q82.5332-49.8438 83.8594-48.5508Q85.1855-47.2578 85.1855-44.6416L85.1855-7.02246Q85.1855-4.41504 83.8594-3.11768Q82.5332-1.82031 80.0635-1.82031ZM43.3506-25.832Q43.3506-24.0977 44.4595-22.9956Q45.5684-21.8936 47.374-21.8936L57.2354-21.8936L57.2354-11.9922Q57.2354-10.2666 58.3174-9.1377Q59.3994-8.00879 61.1738-8.00879Q62.9082-8.00879 64.0503-9.1377Q65.1924-10.2666 65.1924-11.9922L65.1924-21.8936L75.0537-21.8936Q76.8193-21.8936 77.9282-22.9956Q79.0371-24.0977 79.0371-25.832Q79.0371-27.6064 77.9282-28.7285Q76.8193-29.8506 75.0537-29.8506L65.1924-29.8506L65.1924-39.7119Q65.1924-41.4775 64.0503-42.6064Q62.9082-43.7354 61.1738-43.7354Q59.3994-43.7354 58.3174-42.6064Q57.2354-41.4775 57.2354-39.7119L57.2354-29.8506L47.374-29.8506Q45.5684-29.8506 44.4595-28.7285Q43.3506-27.6064 43.3506-25.832Z"/>
  </g>
  <g id="Regular-S" transform="matrix(1 0 0 1 1399.16 696)">
   <path d="M22.2168-12.7441L32.0312-12.7441L32.0312-19.7754L22.3145-19.7754Q19.6777-19.7754 18.2373-21.1914Q16.7969-22.6074 16.7969-25.3906L16.7969-63.3789Q16.7969-66.1621 18.2373-67.5781Q19.6777-68.9941 22.3145-68.9941L60.498-68.9941Q63.1348-68.9941 64.5752-67.5781Q66.0156-66.1621 66.0156-63.3789L66.0156-54.3945L73.0469-54.3945L73.0469-63.7695Q73.0469-69.9219 69.9463-72.9736Q66.8457-76.0254 60.5957-76.0254L22.2168-76.0254Q15.9668-76.0254 12.8662-72.9736Q9.76562-69.9219 9.76562-63.7695L9.76562-25Q9.76562-18.8477 12.8662-15.7959Q15.9668-12.7441 22.2168-12.7441ZM40.7715 5.61523L79.1504 5.61523Q85.4004 5.61523 88.501 2.56348Q91.6016-0.488281 91.6016-6.64062L91.6016-45.4102Q91.6016-51.5625 88.501-54.6143Q85.4004-57.666 79.1504-57.666L40.7715-57.666Q34.5215-57.666 31.4209-54.6143Q28.3203-51.5625 28.3203-45.4102L28.3203-6.64062Q28.3203-0.488281 31.4209 2.56348Q34.5215 5.61523 40.7715 5.61523ZM40.8691-1.41602Q38.2324-1.41602 36.792-2.83203Q35.3516-4.24805 35.3516-7.03125L35.3516-45.0195Q35.3516-47.8027 36.792-49.2188Q38.2324-50.6348 40.8691-50.6348L79.0527-50.6348Q81.6895-50.6348 83.1299-49.2188Q84.5703-47.8027 84.5703-45.0195L84.5703-7.03125Q84.5703-4.24805 83.1299-2.83203Q81.6895-1.41602 79.0527-1.41602ZM42.041-26.0254Q42.041-24.4141 43.0664-23.4131Q44.0918-22.4121 45.8008-22.4121L56.3477-22.4121L56.3477-11.8164Q56.3477-10.2051 57.3242-9.15527Q58.3008-8.10547 59.9609-8.10547Q61.5723-8.10547 62.6221-9.15527Q63.6719-10.2051 63.6719-11.8164L63.6719-22.4121L74.2188-22.4121Q75.8789-22.4121 76.9043-23.4131Q77.9297-24.4141 77.9297-26.0254Q77.9297-27.6855 76.9043-28.7109Q75.8789-29.7363 74.2188-29.7363L63.6719-29.7363L63.6719-40.2832Q63.6719-41.9434 62.6221-42.9932Q61.5723-44.043 59.9609-44.043Q58.3008-44.043 57.3242-42.9932Q56.3477-41.9434 56.3477-40.2832L56.3477-29.7363L45.8008-29.7363Q44.0918-29.7363 43.0664-28.7109Q42.041-27.6855 42.041-26.0254Z"/>
  </g>
  <g id="Light-S" transform="matrix(1 0 0 1 1103.25 696)">
   <path d="M21.403-12.9395L31.0059-12.9395L31.0059-18.3757L21.5007-18.3757Q18.4408-18.3757 16.8132-19.987Q15.1855-21.5983 15.1855-24.7396L15.1855-62.8255Q15.1855-65.9831 16.8132-67.5863Q18.4408-69.1895 21.5007-69.1895L59.7168-69.1895Q62.7116-69.1895 64.3636-67.5863Q66.0156-65.9831 66.0156-62.8255L66.0156-54.9316L71.4355-54.9316L71.4355-63.1185Q71.4355-68.8314 68.5221-71.7285Q65.6087-74.6257 59.8145-74.6257L21.403-74.6257Q15.5924-74.6257 12.679-71.7367Q9.76562-68.8477 9.76562-63.1185L9.76562-24.4466Q9.76562-18.7174 12.679-15.8285Q15.5924-12.9395 21.403-12.9395ZM39.9577 4.23177L78.3691 4.23177Q84.1634 4.23177 87.0768 1.34277Q89.9902-1.54622 89.9902-7.25911L89.9902-45.9473Q89.9902-51.6602 87.0768-54.5492Q84.1634-57.4382 78.3691-57.4382L39.9577-57.4382Q34.1471-57.4382 31.2337-54.5573Q28.3203-51.6764 28.3203-45.9473L28.3203-7.25911Q28.3203-1.51367 31.2337 1.35905Q34.1471 4.23177 39.9577 4.23177ZM40.0553-1.18815Q36.9954-1.18815 35.3678-2.79134Q33.7402-4.39453 33.7402-7.56836L33.7402-45.638Q33.7402-48.7793 35.3678-50.3988Q36.9954-52.0182 40.0553-52.0182L78.2715-52.0182Q81.2663-52.0182 82.9183-50.3988Q84.5703-48.7793 84.5703-45.638L84.5703-7.56836Q84.5703-4.39453 82.9183-2.79134Q81.2663-1.18815 78.2715-1.18815ZM41.6178-26.5951Q41.6178-25.3743 42.4154-24.5931Q43.2129-23.8118 44.515-23.8118L56.3639-23.8118L56.3639-11.9303Q56.3639-10.7096 57.1289-9.89583Q57.8939-9.08203 59.1309-9.08203Q60.3841-9.08203 61.1979-9.8877Q62.0117-10.6934 62.0117-11.9303L62.0117-23.8118L73.8607-23.8118Q75.1302-23.8118 75.9277-24.5931Q76.7253-25.3743 76.7253-26.5951Q76.7253-27.8646 75.9277-28.6702Q75.1302-29.4759 73.8607-29.4759L62.0117-29.4759L62.0117-41.3249Q62.0117-42.5944 61.1979-43.4001Q60.3841-44.2057 59.1309-44.2057Q57.8939-44.2057 57.1289-43.3919Q56.3639-42.5781 56.3639-41.3249L56.3639-29.4759L44.515-29.4759Q43.1966-29.4759 42.4072-28.6702Q41.6178-27.8646 41.6178-26.5951Z"/>
  </g>
  <g id="Thin-S" transform="matrix(1 0 0 1 807.602 696)">
   <path d="M20.3267-13.1978L29.6497-13.1978L29.6497-16.5244L20.4243-16.5244Q16.8048-16.5244 14.9296-18.394Q13.0544-20.2637 13.0544-23.8785L13.0544-62.0936Q13.0544-65.7463 14.9296-67.597Q16.8048-69.4478 20.4243-69.4478L58.6835-69.4478Q62.1519-69.4478 64.0838-67.597Q66.0156-65.7463 66.0156-62.0936L66.0156-55.642L69.3044-55.642L69.3044-62.2574Q69.3044-67.3891 66.6386-70.0817Q63.9727-72.7744 58.7812-72.7744L20.3267-72.7744Q15.0973-72.7744 12.4315-70.1006Q9.76562-67.4269 9.76562-62.2574L9.76562-23.7147Q9.76562-18.5452 12.4315-15.8715Q15.0973-13.1978 20.3267-13.1978ZM38.8814 2.40203L77.3359 2.40203Q82.5274 2.40203 85.1933-0.271705Q87.8591-2.94544 87.8591-8.07712L87.8591-46.6576Q87.8591-51.7893 85.1933-54.463Q82.5274-57.1368 77.3359-57.1368L38.8814-57.1368Q33.652-57.1368 30.9862-54.4819Q28.3203-51.8271 28.3203-46.6576L28.3203-8.07712Q28.3203-2.86983 30.9862-0.233902Q33.652 2.40203 38.8814 2.40203ZM38.979-0.886782Q35.3594-0.886782 33.4843-2.73753Q31.6091-4.58827 31.6091-8.27873L31.6091-46.456Q31.6091-50.0709 33.4843-51.9594Q35.3594-53.848 38.979-53.848L77.2382-53.848Q80.7066-53.848 82.6385-51.9594Q84.5703-50.0709 84.5703-46.456L84.5703-8.27873Q84.5703-4.58827 82.6385-2.73753Q80.7066-0.886782 77.2382-0.886782ZM41.0582-27.3485Q41.0582-26.6444 41.5543-26.1538Q42.0505-25.6631 42.8144-25.6631L56.3855-25.6631L56.3855-12.081Q56.3855-11.377 56.8706-10.8753Q57.3557-10.3736 58.033-10.3736Q58.8127-10.3736 59.3144-10.8564Q59.816-11.3392 59.816-12.081L59.816-25.6631L73.3871-25.6631Q74.14-25.6631 74.6362-26.1538Q75.1323-26.6444 75.1323-27.3485Q75.1323-28.1014 74.6362-28.6164Q74.14-29.1315 73.3871-29.1315L59.816-29.1315L59.816-42.7026Q59.816-43.4555 59.3144-43.9382Q58.8127-44.421 58.033-44.421Q57.3557-44.421 56.8706-43.9193Q56.3855-43.4177 56.3855-42.7026L56.3855-29.1315L42.8144-29.1315Q42.0127-29.1315 41.5354-28.6164Q41.0582-28.1014 41.0582-27.3485Z"/>
  </g>
  <g id="Ultralight-S" transform="matrix(1 0 0 1 511.434 696)">
   <path d="M19.7754-13.3301L28.9551-13.3301L28.9551-15.5762L19.873-15.5762Q15.9668-15.5762 13.9648-17.5781Q11.9629-19.5801 11.9629-23.4375L11.9629-61.7188Q11.9629-65.625 13.9648-67.6025Q15.9668-69.5801 19.873-69.5801L58.1543-69.5801Q61.8652-69.5801 63.9404-67.6025Q66.0156-65.625 66.0156-61.7188L66.0156-56.0059L68.2129-56.0059L68.2129-61.8164Q68.2129-66.6504 65.6738-69.2383Q63.1348-71.8262 58.252-71.8262L19.7754-71.8262Q14.8438-71.8262 12.3047-69.2627Q9.76562-66.6992 9.76562-61.8164L9.76562-23.3398Q9.76562-18.457 12.3047-15.8936Q14.8438-13.3301 19.7754-13.3301ZM38.3301 1.46484L76.8066 1.46484Q81.6895 1.46484 84.2285-1.09863Q86.7676-3.66211 86.7676-8.49609L86.7676-47.0215Q86.7676-51.8555 84.2285-54.4189Q81.6895-56.9824 76.8066-56.9824L38.3301-56.9824Q33.3984-56.9824 30.8594-54.4434Q28.3203-51.9043 28.3203-47.0215L28.3203-8.49609Q28.3203-3.56445 30.8594-1.0498Q33.3984 1.46484 38.3301 1.46484ZM38.4277-0.732422Q34.5215-0.732422 32.5195-2.70996Q30.5176-4.6875 30.5176-8.64258L30.5176-46.875Q30.5176-50.7324 32.5195-52.7588Q34.5215-54.7852 38.4277-54.7852L76.709-54.7852Q80.4199-54.7852 82.4951-52.7588Q84.5703-50.7324 84.5703-46.875L84.5703-8.64258Q84.5703-4.6875 82.4951-2.70996Q80.4199-0.732422 76.709-0.732422ZM40.7715-27.7344Q40.7715-27.2949 41.1133-26.9531Q41.4551-26.6113 41.9434-26.6113L56.3965-26.6113L56.3965-12.1582Q56.3965-11.7188 56.7383-11.377Q57.0801-11.0352 57.4707-11.0352Q58.0078-11.0352 58.3496-11.3525Q58.6914-11.6699 58.6914-12.1582L58.6914-26.6113L73.1445-26.6113Q73.6328-26.6113 73.9746-26.9531Q74.3164-27.2949 74.3164-27.7344Q74.3164-28.2227 73.9746-28.5889Q73.6328-28.9551 73.1445-28.9551L58.6914-28.9551L58.6914-43.4082Q58.6914-43.8965 58.3496-44.2139Q58.0078-44.5312 57.4707-44.5312Q57.0801-44.5312 56.7383-44.1895Q56.3965-43.8477 56.3965-43.4082L56.3965-28.9551L41.9434-28.9551Q41.4062-28.9551 41.0889-28.5889Q40.7715-28.2227 40.7715-27.7344Z"/>
  </g>
 </g>
</svg>
