<?xml version="1.0" encoding="UTF-8"?>
<!--Generator: Apple Native CoreSVG 175-->
<!DOCTYPE svg
PUBLIC "-//W3C//DTD SVG 1.1//EN"
       "http://www.w3.org/Graphics/SVG/1.1/DTD/svg11.dtd">
<svg version="1.1" xmlns="http://www.w3.org/2000/svg" xmlns:xlink="http://www.w3.org/1999/xlink" width="3300" height="2200">
 <!--glyph: "uni100926.medium", point size: 100.0, font version: "17.3d3e1", template writer version: "65.1"-->
 <g id="Notes">
  <rect height="2200" id="artboard" style="fill:white;opacity:1" width="3300" x="0" y="0"/>
  <line style="fill:none;stroke:black;opacity:1;stroke-width:0.5;" x1="263" x2="3036" y1="292" y2="292"/>
  <text style="stroke:none;fill:black;font-family:sans-serif;font-size:13;font-weight:bold;" transform="matrix(1 0 0 1 263 322)">Weight/Scale Variations</text>
  <text style="stroke:none;fill:black;font-family:sans-serif;font-size:13;text-anchor:middle;" transform="matrix(1 0 0 1 559.711 322)">Ultralight</text>
  <text style="stroke:none;fill:black;font-family:sans-serif;font-size:13;text-anchor:middle;" transform="matrix(1 0 0 1 856.422 322)">Thin</text>
  <text style="stroke:none;fill:black;font-family:sans-serif;font-size:13;text-anchor:middle;" transform="matrix(1 0 0 1 1153.13 322)">Light</text>
  <text style="stroke:none;fill:black;font-family:sans-serif;font-size:13;text-anchor:middle;" transform="matrix(1 0 0 1 1449.84 322)">Regular</text>
  <text style="stroke:none;fill:black;font-family:sans-serif;font-size:13;text-anchor:middle;" transform="matrix(1 0 0 1 1746.56 322)">Medium</text>
  <text style="stroke:none;fill:black;font-family:sans-serif;font-size:13;text-anchor:middle;" transform="matrix(1 0 0 1 2043.27 322)">Semibold</text>
  <text style="stroke:none;fill:black;font-family:sans-serif;font-size:13;text-anchor:middle;" transform="matrix(1 0 0 1 2339.98 322)">Bold</text>
  <text style="stroke:none;fill:black;font-family:sans-serif;font-size:13;text-anchor:middle;" transform="matrix(1 0 0 1 2636.69 322)">Heavy</text>
  <text style="stroke:none;fill:black;font-family:sans-serif;font-size:13;text-anchor:middle;" transform="matrix(1 0 0 1 2933.4 322)">Black</text>
  <line style="fill:none;stroke:black;opacity:1;stroke-width:0.5;" x1="263" x2="3036" y1="1903" y2="1903"/>
  <g transform="matrix(1 0 0 1 263 1933)">
   <path d="M9.24805 0.830078Q10.8691 0.830078 12.2949 0.214844Q13.7207-0.400391 14.8096-1.49414Q15.8984-2.58789 16.5186-4.01367Q17.1387-5.43945 17.1387-7.05078Q17.1387-8.66211 16.5186-10.0879Q15.8984-11.5137 14.8047-12.6074Q13.7109-13.7012 12.2852-14.3164Q10.8594-14.9316 9.23828-14.9316Q7.62695-14.9316 6.20117-14.3164Q4.77539-13.7012 3.69141-12.6074Q2.60742-11.5137 1.9873-10.0879Q1.36719-8.66211 1.36719-7.05078Q1.36719-5.43945 1.9873-4.01367Q2.60742-2.58789 3.69629-1.49414Q4.78516-0.400391 6.21094 0.214844Q7.63672 0.830078 9.24805 0.830078ZM9.24805-0.654297Q7.91992-0.654297 6.7627-1.14746Q5.60547-1.64062 4.73145-2.51953Q3.85742-3.39844 3.36426-4.56055Q2.87109-5.72266 2.87109-7.05078Q2.87109-8.37891 3.35938-9.54102Q3.84766-10.7031 4.72168-11.582Q5.5957-12.4609 6.75293-12.9541Q7.91016-13.4473 9.23828-13.4473Q10.5762-13.4473 11.7334-12.9541Q12.8906-12.4609 13.7695-11.582Q14.6484-10.7031 15.1465-9.54102Q15.6445-8.37891 15.6445-7.05078Q15.6445-5.72266 15.1514-4.56055Q14.6582-3.39844 13.7842-2.51953Q12.9102-1.64062 11.748-1.14746Q10.5859-0.654297 9.24805-0.654297ZM5.6543-7.05078Q5.6543-6.72852 5.85938-6.52832Q6.06445-6.32812 6.40625-6.32812L8.51562-6.32812L8.51562-4.20898Q8.51562-3.88672 8.71094-3.67676Q8.90625-3.4668 9.23828-3.4668Q9.56055-3.4668 9.77051-3.67676Q9.98047-3.88672 9.98047-4.20898L9.98047-6.32812L12.0898-6.32812Q12.4219-6.32812 12.627-6.52832Q12.832-6.72852 12.832-7.05078Q12.832-7.38281 12.627-7.58789Q12.4219-7.79297 12.0898-7.79297L9.98047-7.79297L9.98047-9.90234Q9.98047-10.2344 9.77051-10.4443Q9.56055-10.6543 9.23828-10.6543Q8.90625-10.6543 8.71094-10.4443Q8.51562-10.2344 8.51562-9.90234L8.51562-7.79297L6.40625-7.79297Q6.06445-7.79297 5.85938-7.58789Q5.6543-7.38281 5.6543-7.05078Z"/>
  </g>
  <g transform="matrix(1 0 0 1 281.867 1933)">
   <path d="M11.709 2.91016Q13.75 2.91016 15.5518 2.12891Q17.3535 1.34766 18.7305-0.0292969Q20.1074-1.40625 20.8887-3.20801Q21.6699-5.00977 21.6699-7.05078Q21.6699-9.0918 20.8887-10.8936Q20.1074-12.6953 18.7305-14.0723Q17.3535-15.4492 15.5469-16.2305Q13.7402-17.0117 11.6992-17.0117Q9.6582-17.0117 7.85645-16.2305Q6.05469-15.4492 4.68262-14.0723Q3.31055-12.6953 2.5293-10.8936Q1.74805-9.0918 1.74805-7.05078Q1.74805-5.00977 2.5293-3.20801Q3.31055-1.40625 4.6875-0.0292969Q6.06445 1.34766 7.86621 2.12891Q9.66797 2.91016 11.709 2.91016ZM11.709 1.25Q9.98047 1.25 8.47656 0.605469Q6.97266-0.0390625 5.83496-1.17676Q4.69727-2.31445 4.05762-3.81836Q3.41797-5.32227 3.41797-7.05078Q3.41797-8.7793 4.05762-10.2832Q4.69727-11.7871 5.83008-12.9297Q6.96289-14.0723 8.4668-14.7119Q9.9707-15.3516 11.6992-15.3516Q13.4277-15.3516 14.9316-14.7119Q16.4355-14.0723 17.5781-12.9297Q18.7207-11.7871 19.3652-10.2832Q20.0098-8.7793 20.0098-7.05078Q20.0098-5.32227 19.3701-3.81836Q18.7305-2.31445 17.5928-1.17676Q16.4551-0.0390625 14.9463 0.605469Q13.4375 1.25 11.709 1.25ZM7.17773-7.05078Q7.17773-6.69922 7.41211-6.47461Q7.64648-6.25 8.01758-6.25L10.8887-6.25L10.8887-3.36914Q10.8887-2.99805 11.1133-2.76855Q11.3379-2.53906 11.6895-2.53906Q12.0605-2.53906 12.29-2.76855Q12.5195-2.99805 12.5195-3.36914L12.5195-6.25L15.4004-6.25Q15.7715-6.25 16.001-6.47461Q16.2305-6.69922 16.2305-7.05078Q16.2305-7.42188 16.001-7.65137Q15.7715-7.88086 15.4004-7.88086L12.5195-7.88086L12.5195-10.752Q12.5195-11.1328 12.29-11.3623Q12.0605-11.5918 11.6895-11.5918Q11.3379-11.5918 11.1133-11.3574Q10.8887-11.123 10.8887-10.752L10.8887-7.88086L8.01758-7.88086Q7.63672-7.88086 7.40723-7.65137Q7.17773-7.42188 7.17773-7.05078Z"/>
  </g>
  <g transform="matrix(1 0 0 1 305.646 1933)">
   <path d="M14.9707 5.66406Q17.0605 5.66406 18.96 5.01465Q20.8594 4.36523 22.4512 3.19336Q24.043 2.02148 25.2197 0.429688Q26.3965-1.16211 27.0459-3.06641Q27.6953-4.9707 27.6953-7.05078Q27.6953-9.14062 27.0459-11.04Q26.3965-12.9395 25.2197-14.5312Q24.043-16.123 22.4512-17.2998Q20.8594-18.4766 18.9551-19.126Q17.0508-19.7754 14.9609-19.7754Q12.8711-19.7754 10.9717-19.126Q9.07227-18.4766 7.48535-17.2998Q5.89844-16.123 4.72168-14.5312Q3.54492-12.9395 2.90039-11.04Q2.25586-9.14062 2.25586-7.05078Q2.25586-4.9707 2.90527-3.06641Q3.55469-1.16211 4.72656 0.429688Q5.89844 2.02148 7.49023 3.19336Q9.08203 4.36523 10.9814 5.01465Q12.8809 5.66406 14.9707 5.66406ZM14.9707 3.84766Q13.1641 3.84766 11.5283 3.2959Q9.89258 2.74414 8.53516 1.74805Q7.17773 0.751953 6.17676-0.610352Q5.17578-1.97266 4.62891-3.6084Q4.08203-5.24414 4.08203-7.05078Q4.08203-8.86719 4.62891-10.5029Q5.17578-12.1387 6.17188-13.501Q7.16797-14.8633 8.52539-15.8594Q9.88281-16.8555 11.5186-17.4023Q13.1543-17.9492 14.9609-17.9492Q16.7773-17.9492 18.4131-17.4023Q20.0488-16.8555 21.4111-15.8594Q22.7734-14.8633 23.7695-13.501Q24.7656-12.1387 25.3174-10.5029Q25.8691-8.86719 25.8691-7.05078Q25.8789-5.24414 25.332-3.6084Q24.7852-1.97266 23.7842-0.610352Q22.7832 0.751953 21.4209 1.74805Q20.0586 2.74414 18.4229 3.2959Q16.7871 3.84766 14.9707 3.84766ZM9.19922-7.05078Q9.19922-6.66992 9.45801-6.4209Q9.7168-6.17188 10.1172-6.17188L14.0625-6.17188L14.0625-2.2168Q14.0625-1.81641 14.3115-1.55762Q14.5605-1.29883 14.9512-1.29883Q15.3516-1.29883 15.6104-1.55273Q15.8691-1.80664 15.8691-2.2168L15.8691-6.17188L19.8242-6.17188Q20.2246-6.17188 20.4785-6.4209Q20.7324-6.66992 20.7324-7.05078Q20.7324-7.46094 20.4785-7.71484Q20.2246-7.96875 19.8242-7.96875L15.8691-7.96875L15.8691-11.9141Q15.8691-12.3242 15.6104-12.583Q15.3516-12.8418 14.9512-12.8418Q14.5605-12.8418 14.3115-12.583Q14.0625-12.3242 14.0625-11.9141L14.0625-7.96875L10.1172-7.96875Q9.70703-7.96875 9.45312-7.71484Q9.19922-7.46094 9.19922-7.05078Z"/>
  </g>
  <text style="stroke:none;fill:black;font-family:sans-serif;font-size:13;font-weight:bold;" transform="matrix(1 0 0 1 263 1953)">Design Variations</text>
  <text style="stroke:none;fill:black;font-family:sans-serif;font-size:13;" transform="matrix(1 0 0 1 263 1971)">Symbols are supported in up to nine weights and three scales.</text>
  <text style="stroke:none;fill:black;font-family:sans-serif;font-size:13;" transform="matrix(1 0 0 1 263 1989)">For optimal layout with text and other symbols, vertically align</text>
  <text style="stroke:none;fill:black;font-family:sans-serif;font-size:13;" transform="matrix(1 0 0 1 263 2007)">symbols with the adjacent text.</text>
  <line style="fill:none;stroke:#00AEEF;stroke-width:0.5;opacity:1.0;" x1="776" x2="776" y1="1919" y2="1933"/>
  <g transform="matrix(1 0 0 1 776 1933)">
   <path d="M3.31055 0.15625Q3.70117 0.15625 3.91602-0.00976562Q4.13086-0.175781 4.26758-0.585938L5.52734-4.0332L11.2891-4.0332L12.5488-0.585938Q12.6855-0.175781 12.9004-0.00976562Q13.1152 0.15625 13.4961 0.15625Q13.8867 0.15625 14.1162-0.0585938Q14.3457-0.273438 14.3457-0.644531Q14.3457-0.869141 14.2383-1.17188L9.6582-13.3691Q9.48242-13.8184 9.17969-14.043Q8.87695-14.2676 8.4082-14.2676Q7.5-14.2676 7.17773-13.3789L2.59766-1.16211Q2.49023-0.859375 2.49023-0.634766Q2.49023-0.263672 2.70996-0.0537109Q2.92969 0.15625 3.31055 0.15625ZM6.00586-5.51758L8.37891-12.0898L8.42773-12.0898L10.8008-5.51758Z"/>
  </g>
  <line style="fill:none;stroke:#00AEEF;stroke-width:0.5;opacity:1.0;" x1="793.197" x2="793.197" y1="1919" y2="1933"/>
  <text style="stroke:none;fill:black;font-family:sans-serif;font-size:13;font-weight:bold;" transform="matrix(1 0 0 1 776 1953)">Margins</text>
  <text style="stroke:none;fill:black;font-family:sans-serif;font-size:13;" transform="matrix(1 0 0 1 776 1971)">Leading and trailing margins on the left and right side of each symbol</text>
  <text style="stroke:none;fill:black;font-family:sans-serif;font-size:13;" transform="matrix(1 0 0 1 776 1989)">can be adjusted by modifying the x-location of the margin guidelines.</text>
  <text style="stroke:none;fill:black;font-family:sans-serif;font-size:13;" transform="matrix(1 0 0 1 776 2007)">Modifications are automatically applied proportionally to all</text>
  <text style="stroke:none;fill:black;font-family:sans-serif;font-size:13;" transform="matrix(1 0 0 1 776 2025)">scales and weights.</text>
  <g transform="matrix(1 0 0 1 1289 1933)">
   <path d="M2.8418 1.86523L4.54102 3.57422Q5.18555 4.22852 5.90332 4.17969Q6.62109 4.13086 7.31445 3.35938L18.0078-8.42773L17.041-9.4043L6.42578 2.27539Q6.16211 2.57812 5.89355 2.61719Q5.625 2.65625 5.27344 2.30469L4.10156 1.14258Q3.75 0.791016 3.79395 0.522461Q3.83789 0.253906 4.14062-0.0195312L15.6152-10.8203L14.6387-11.7871L3.04688-0.898438Q2.30469-0.214844 2.25098 0.498047Q2.19727 1.21094 2.8418 1.86523ZM9.25781-16.3281Q8.94531-16.0254 8.90625-15.6348Q8.86719-15.2441 9.04297-14.9512Q9.21875-14.6777 9.55566-14.541Q9.89258-14.4043 10.3809-14.5215Q11.4746-14.7754 12.5977-14.7314Q13.7207-14.6875 14.7949-13.9844L14.209-12.5293Q13.9551-11.9043 14.0674-11.4404Q14.1797-10.9766 14.5801-10.5664L16.875-8.25195Q17.2363-7.88086 17.5781-7.82227Q17.9199-7.76367 18.3398-7.8418L19.4043-8.03711L20.0684-7.36328L20.0293-6.80664Q20-6.43555 20.1221-6.12305Q20.2441-5.81055 20.6055-5.44922L21.3672-4.70703Q21.7285-4.3457 22.1533-4.33105Q22.5781-4.31641 22.9297-4.66797L25.8398-7.58789Q26.1914-7.93945 26.1816-8.35449Q26.1719-8.76953 25.8105-9.13086L25.0391-9.89258Q24.6875-10.2539 24.3799-10.3857Q24.0723-10.5176 23.7109-10.4883L23.1348-10.4395L22.4902-11.0742L22.7344-12.1973Q22.832-12.6172 22.6953-12.9834Q22.5586-13.3496 22.1191-13.7891L19.9219-15.9766Q18.6719-17.2168 17.2607-17.8369Q15.8496-18.457 14.4189-18.4814Q12.9883-18.5059 11.665-17.959Q10.3418-17.4121 9.25781-16.3281ZM10.752-15.957Q11.6602-16.6211 12.7002-16.9043Q13.7402-17.1875 14.8047-17.085Q15.8691-16.9824 16.8701-16.5137Q17.8711-16.0449 18.7012-15.2051L21.1328-12.793Q21.3086-12.6172 21.3525-12.4512Q21.3965-12.2852 21.3379-12.0312L21.0156-10.5469L22.5195-9.0625L23.5059-9.12109Q23.6914-9.13086 23.7891-9.09668Q23.8867-9.0625 24.0332-8.91602L24.6094-8.33984L22.168-5.89844L21.5918-6.47461Q21.4453-6.62109 21.4062-6.71875Q21.3672-6.81641 21.377-7.01172L21.4453-7.98828L19.9512-9.47266L18.4277-9.21875Q18.1836-9.16992 18.042-9.2041Q17.9004-9.23828 17.7148-9.41406L15.7129-11.416Q15.5176-11.5918 15.4932-11.7529Q15.4688-11.9141 15.5859-12.1875L16.4648-14.2773Q15.293-15.3711 13.8281-15.791Q12.3633-16.2109 10.8398-15.7617Q10.7227-15.7324 10.6885-15.8057Q10.6543-15.8789 10.752-15.957Z"/>
  </g>
  <text style="stroke:none;fill:black;font-family:sans-serif;font-size:13;font-weight:bold;" transform="matrix(1 0 0 1 1289 1953)">Exporting</text>
  <text style="stroke:none;fill:black;font-family:sans-serif;font-size:13;" transform="matrix(1 0 0 1 1289 1971)">Symbols should be outlined when exporting to ensure the</text>
  <text style="stroke:none;fill:black;font-family:sans-serif;font-size:13;" transform="matrix(1 0 0 1 1289 1989)">design is preserved when submitting to Xcode.</text>
  <text id="template-version" style="stroke:none;fill:black;font-family:sans-serif;font-size:13;text-anchor:end;" transform="matrix(1 0 0 1 3036 1933)">Template v.3.0</text>
  <text style="stroke:none;fill:black;font-family:sans-serif;font-size:13;text-anchor:end;" transform="matrix(1 0 0 1 3036 1951)">Requires Xcode 13 or greater</text>
  <text id="descriptive-name" style="stroke:none;fill:black;font-family:sans-serif;font-size:13;text-anchor:end;" transform="matrix(1 0 0 1 3036 1969)">Generated from newspaper</text>
  <text style="stroke:none;fill:black;font-family:sans-serif;font-size:13;text-anchor:end;" transform="matrix(1 0 0 1 3036 1987)">Typeset at 100 points</text>
  <text style="stroke:none;fill:black;font-family:sans-serif;font-size:13;" transform="matrix(1 0 0 1 263 726)">Small</text>
  <text style="stroke:none;fill:black;font-family:sans-serif;font-size:13;" transform="matrix(1 0 0 1 263 1156)">Medium</text>
  <text style="stroke:none;fill:black;font-family:sans-serif;font-size:13;" transform="matrix(1 0 0 1 263 1586)">Large</text>
 </g>
 <g id="Guides">
  <g id="H-reference" style="fill:#27AAE1;stroke:none;" transform="matrix(1 0 0 1 339 696)">
   <path d="M0.993347 0L3.6377 0L29.3282-67.1326L30.0301-67.1326L30.0301-70.459L28.1227-70.459ZM11.6882-24.4797L46.9818-24.4797L46.2311-26.7288L12.4382-26.7288ZM55.1193 0L57.7637 0L30.6381-70.459L29.4327-70.459L29.4327-67.1326Z"/>
  </g>
  <line id="Baseline-S" style="fill:none;stroke:#27AAE1;opacity:1;stroke-width:0.5;" x1="263" x2="3036" y1="696" y2="696"/>
  <line id="Capline-S" style="fill:none;stroke:#27AAE1;opacity:1;stroke-width:0.5;" x1="263" x2="3036" y1="625.541" y2="625.541"/>
  <g id="H-reference" style="fill:#27AAE1;stroke:none;" transform="matrix(1 0 0 1 339 1126)">
   <path d="M0.993347 0L3.6377 0L29.3282-67.1326L30.0301-67.1326L30.0301-70.459L28.1227-70.459ZM11.6882-24.4797L46.9818-24.4797L46.2311-26.7288L12.4382-26.7288ZM55.1193 0L57.7637 0L30.6381-70.459L29.4327-70.459L29.4327-67.1326Z"/>
  </g>
  <line id="Baseline-M" style="fill:none;stroke:#27AAE1;opacity:1;stroke-width:0.5;" x1="263" x2="3036" y1="1126" y2="1126"/>
  <line id="Capline-M" style="fill:none;stroke:#27AAE1;opacity:1;stroke-width:0.5;" x1="263" x2="3036" y1="1055.54" y2="1055.54"/>
  <g id="H-reference" style="fill:#27AAE1;stroke:none;" transform="matrix(1 0 0 1 339 1556)">
   <path d="M0.993347 0L3.6377 0L29.3282-67.1326L30.0301-67.1326L30.0301-70.459L28.1227-70.459ZM11.6882-24.4797L46.9818-24.4797L46.2311-26.7288L12.4382-26.7288ZM55.1193 0L57.7637 0L30.6381-70.459L29.4327-70.459L29.4327-67.1326Z"/>
  </g>
  <line id="Baseline-L" style="fill:none;stroke:#27AAE1;opacity:1;stroke-width:0.5;" x1="263" x2="3036" y1="1556" y2="1556"/>
  <line id="Capline-L" style="fill:none;stroke:#27AAE1;opacity:1;stroke-width:0.5;" x1="263" x2="3036" y1="1485.54" y2="1485.54"/>
  <line id="left-margin-Regular-M" style="fill:none;stroke:#00AEEF;stroke-width:0.5;opacity:1.0;" x1="1381.88" x2="1381.88" y1="1030.79" y2="1150.12"/>
  <line id="right-margin-Regular-M" style="fill:none;stroke:#00AEEF;stroke-width:0.5;opacity:1.0;" x1="1517.8" x2="1517.8" y1="1030.79" y2="1150.12"/>
 </g>
 <g id="Symbols">
  <g id="Black-L" transform="matrix(1 0 0 1 2839.15 1556)">
   <path d="M16.084 11.5109Q16.084 22.4165 23.0989 28.8042Q30.1139 35.1919 42.1388 35.1919L148.653 35.1919Q160.021 35.1919 166.222 29.0106Q172.423 22.8294 172.423 11.5035L172.423-81.9213Q172.423-93.2472 166.222-99.4284Q160.021-105.61 148.653-105.61L71.9634-105.61Q60.5959-105.61 54.3938-99.4284Q48.1918-93.2472 48.1918-81.9213L48.1918-60.175L37.9553-60.175Q27.6432-60.175 21.8636-54.4608Q16.084-48.7467 16.084-38.5642ZM36.065 8.8426L36.065-35.2714Q36.065-37.5342 37.3966-38.8647Q38.7283-40.1951 40.9935-40.1951L48.1918-40.1951L48.1918 8.8426Q48.1918 11.6974 46.5031 13.4541Q44.8143 15.2108 42.1388 15.2108Q39.5009 15.2108 37.7829 13.4333Q36.065 11.6558 36.065 8.8426ZM67.4638 15.2108Q68.1728 13.3928 68.1728 11.3235L68.1728-79.0657Q68.1728-82.3933 69.7425-84.011Q71.3121-85.6287 74.6942-85.6287L145.922-85.6287Q149.363-85.6287 150.903-84.011Q152.444-82.3933 152.444-79.0657L152.444 8.64784Q152.444 11.9171 150.903 13.564Q149.363 15.2108 145.922 15.2108ZM82.8792-60.5347L137.759-60.5347Q140-60.5347 141.556-62.1009Q143.113-63.6671 143.113-65.9077Q143.113-68.1274 141.585-69.6546Q140.058-71.1818 137.759-71.1818L82.8792-71.1818Q80.5582-71.1818 79.0213-69.6546Q77.4843-68.1274 77.4843-65.9077Q77.4843-63.6671 79.0505-62.1009Q80.6166-60.5347 82.8792-60.5347ZM82.8792-40.1951L137.759-40.1951Q140.058-40.1951 141.585-41.7113Q143.113-43.2275 143.113-45.468Q143.113-47.7086 141.556-49.2748Q140-50.841 137.759-50.841L82.8792-50.841Q80.6166-50.841 79.0505-49.2748Q77.4843-47.7086 77.4843-45.468Q77.4843-43.2275 79.0213-41.7113Q80.5582-40.1951 82.8792-40.1951ZM85.8868-0.0866843L99.5081-0.0866843Q103.452-0.0866843 105.725-2.38825Q107.997-4.68981 107.997-8.55357L107.997-22.0137Q107.997-25.8983 105.725-28.1602Q103.452-30.4222 99.5081-30.4222L85.8868-30.4222Q82.023-30.4222 79.7214-28.1602Q77.4199-25.8983 77.4199-22.0137L77.4199-8.55357Q77.4199-4.68981 79.7214-2.38825Q82.023-0.0866843 85.8868-0.0866843ZM118.602-19.8335L137.758-19.8335Q139.999-19.8335 141.526-21.3607Q143.053-22.8879 143.053-25.0492Q143.053-27.3482 141.526-28.8852Q139.999-30.4222 137.758-30.4222L118.602-30.4222Q116.282-30.4222 114.755-28.8852Q113.228-27.3482 113.228-25.0492Q113.228-22.8879 114.784-21.3607Q116.341-19.8335 118.602-19.8335ZM118.602-0.0866843L137.758-0.0866843Q139.999-0.0866843 141.526-1.61327Q143.053-3.13985 143.053-5.35958Q143.053-7.62096 141.526-9.18775Q139.999-10.7545 137.758-10.7545L118.602-10.7545Q116.341-10.7545 114.784-9.18775Q113.228-7.62096 113.228-5.35958Q113.228-3.13985 114.755-1.61327Q116.282-0.0866843 118.602-0.0866843Z"/>
  </g>
  <g id="Heavy-L" transform="matrix(1 0 0 1 2544.1 1556)">
   <path d="M16.084 12.0302Q16.084 22.5093 22.5262 28.4982Q28.9685 34.4872 40.3403 34.4872L146.348 34.4872Q157.321 34.4872 163.206 28.6302Q169.09 22.7732 169.09 11.8604L169.09-82.2881Q169.09-93.2009 163.206-99.0579Q157.321-104.915 146.348-104.915L69.8135-104.915Q58.8404-104.915 52.9532-99.0579Q47.066-93.2009 47.066-82.2881L47.066-58.424L35.7192-58.424Q26.4587-58.424 21.2713-53.3412Q16.084-48.2585 16.084-39.2015ZM33.5844 9.99643L33.5844-36.2623Q33.5844-38.4176 34.8458-39.6734Q36.1072-40.9292 38.2738-40.9292L47.066-40.9292L47.066 9.99643Q47.066 13.1072 45.1686 15.047Q43.2712 16.9867 40.3403 16.9867Q37.4239 16.9867 35.5041 15.0168Q33.5844 13.0468 33.5844 9.99643ZM63.4801 16.9867Q64.5664 14.6245 64.5664 11.7585L64.5664-79.9828Q64.5664-83.7197 66.3843-85.5671Q68.2021-87.4145 71.9377-87.4145L144.224-87.4145Q148.004-87.4145 149.8-85.5671Q151.595-83.7197 151.595-79.9828L151.595 9.55507Q151.595 13.2474 149.8 15.1171Q148.004 16.9867 144.224 16.9867ZM79.7335-61.7298L136.464-61.7298Q138.542-61.7298 139.98-63.1807Q141.419-64.6316 141.419-66.7094Q141.419-68.757 140.003-70.1733Q138.587-71.5897 136.464-71.5897L79.7335-71.5897Q77.5752-71.5897 76.1467-70.1733Q74.7181-68.757 74.7181-66.7094Q74.7181-64.6316 76.169-63.1807Q77.6199-61.7298 79.7335-61.7298ZM79.7335-40.9292L136.464-40.9292Q138.587-40.9292 140.003-42.3276Q141.419-43.726 141.419-45.8038Q141.419-47.8816 139.98-49.3325Q138.542-50.7834 136.464-50.7834L79.7335-50.7834Q77.6199-50.7834 76.169-49.3325Q74.7181-47.8816 74.7181-45.8038Q74.7181-43.726 76.1467-42.3276Q77.5752-40.9292 79.7335-40.9292ZM82.9132 0.369263L97.1724 0.369263Q101.035 0.369263 103.256-1.87329Q105.476-4.11584 105.476-7.89848L105.476-21.6849Q105.476-25.4977 103.256-27.7029Q101.035-29.908 97.1724-29.908L82.9132-29.908Q79.1305-29.908 76.8879-27.7029Q74.6453-25.4977 74.6453-21.6849L74.6453-7.89848Q74.6453-4.11584 76.8879-1.87329Q79.1305 0.369263 82.9132 0.369263ZM116.259-20.0928L136.458-20.0928Q138.536-20.0928 139.953-21.5091Q141.369-22.9254 141.369-24.9284Q141.369-27.0508 139.953-28.4794Q138.536-29.908 136.458-29.908L116.259-29.908Q114.106-29.908 112.69-28.4794Q111.273-27.0508 111.273-24.9284Q111.273-22.9254 112.712-21.5091Q114.151-20.0928 116.259-20.0928ZM116.259 0.369263L136.458 0.369263Q138.536 0.369263 139.953-1.04425Q141.369-2.45776 141.369-4.50533Q141.369-6.61336 139.953-8.06708Q138.536-9.52081 136.458-9.52081L116.259-9.52081Q114.151-9.52081 112.712-8.06708Q111.273-6.61336 111.273-4.50533Q111.273-2.45776 112.69-1.04425Q114.106 0.369263 116.259 0.369263Z"/>
  </g>
  <g id="Bold-L" transform="matrix(1 0 0 1 2249.48 1556)">
   <path d="M16.084 12.8171Q16.084 22.6692 21.8267 28.1626Q27.5693 33.656 38.0821 33.656L143.468 33.656Q153.919 33.656 159.416 28.1912Q164.912 22.7264 164.912 12.3507L164.912-82.7788Q164.912-93.1545 159.416-98.6193Q153.919-104.084 143.468-104.084L67.0579-104.084Q56.6062-104.084 51.1034-98.6193Q45.6006-93.1545 45.6006-82.7788L45.6006-56.2645L33.0573-56.2645Q25.0507-56.2645 20.5673-51.9282Q16.084-47.5919 16.084-39.8662ZM30.5258 11.4852L30.5258-37.3948Q30.5258-39.4567 31.7286-40.6464Q32.9315-41.836 35.0199-41.836L45.6006-41.836L45.6006 11.4852Q45.6006 14.9037 43.4644 17.059Q41.3281 19.2143 38.0821 19.2143Q34.8274 19.2143 32.6766 17.021Q30.5258 14.8277 30.5258 11.4852ZM58.4725 19.2143Q60.0424 16.2727 60.0424 12.4753L60.0424-81.1051Q60.0424-85.364 62.1713-87.5032Q64.3002-89.6424 68.5036-89.6424L142.022-89.6424Q146.254-89.6424 148.369-87.5032Q150.483-85.364 150.483-81.1051L150.483 10.677Q150.483 14.9067 148.369 17.0605Q146.254 19.2143 142.022 19.2143ZM75.8451-63.1977L134.732-63.1977Q136.587-63.1977 137.869-64.4916Q139.15-65.7856 139.15-67.6411Q139.15-69.4586 137.883-70.7256Q136.616-71.9925 134.732-71.9925L75.8451-71.9925Q73.9091-71.9925 72.6299-70.7256Q71.3507-69.4586 71.3507-67.6411Q71.3507-65.7856 72.6445-64.4916Q73.9383-63.1977 75.8451-63.1977ZM75.8451-41.836L134.732-41.836Q136.616-41.836 137.883-43.0773Q139.15-44.3185 139.15-46.1741Q139.15-48.0296 137.869-49.3234Q136.587-50.6173 134.732-50.6173L75.8451-50.6173Q73.9383-50.6173 72.6445-49.3234Q71.3507-48.0296 71.3507-46.1741Q71.3507-44.3185 72.6299-43.0773Q73.9091-41.836 75.8451-41.836ZM79.2549 0.863252L94.2385 0.863252Q97.9867 0.863252 100.138-1.30258Q102.289-3.46842 102.289-7.1362L102.289-21.218Q102.289-24.9239 100.138-27.0561Q97.9867-29.1883 94.2385-29.1883L79.2549-29.1883Q75.5869-29.1883 73.4211-27.0561Q71.2552-24.9239 71.2552-21.218L71.2552-7.1362Q71.2552-3.46842 73.4211-1.30258Q75.5869 0.863252 79.2549 0.863252ZM113.295-20.4229L134.718-20.4229Q136.574-20.4229 137.841-21.6898Q139.108-22.9566 139.108-24.7451Q139.108-26.6299 137.841-27.9091Q136.574-29.1883 134.718-29.1883L113.295-29.1883Q111.372-29.1883 110.105-27.9091Q108.838-26.6299 108.838-24.7451Q108.838-22.9566 110.12-21.6898Q111.401-20.4229 113.295-20.4229ZM113.295 0.863252L134.718 0.863252Q136.574 0.863252 137.841-0.397015Q139.108-1.65728 139.108-3.47476Q139.108-5.36845 137.841-6.66893Q136.574-7.9694 134.718-7.9694L113.295-7.9694Q111.401-7.9694 110.12-6.66893Q108.838-5.36845 108.838-3.47476Q108.838-1.65728 110.105-0.397015Q111.372 0.863252 113.295 0.863252Z"/>
  </g>
  <g id="Semibold-L" transform="matrix(1 0 0 1 1954.21 1556)">
   <path d="M16.084 13.3597Q16.084 22.7795 21.3444 27.9313Q26.6048 33.0831 36.5254 33.0831L141.482 33.0831Q151.574 33.0831 156.802 27.8886Q162.031 22.6941 162.031 12.6888L162.031-83.1171Q162.031-93.1224 156.802-98.3169Q151.574-103.511 141.482-103.511L65.1581-103.511Q55.0661-103.511 49.8282-98.3169Q44.5903-93.1224 44.5903-83.1171L44.5903-54.7757L31.2221-54.7757Q24.08-54.7757 20.082-50.9541Q16.084-47.1324 16.084-40.3245ZM28.4171 12.5116L28.4171-38.1756Q28.4171-40.173 29.5797-41.3171Q30.7423-42.4612 32.7767-42.4612L44.5903-42.4612L44.5903 12.5116Q44.5903 16.1422 42.2895 18.4461Q39.9886 20.7499 36.5254 20.7499Q33.0375 20.7499 30.7273 18.4027Q28.4171 16.0555 28.4171 12.5116ZM55.0202 20.7499Q56.9235 17.4089 56.9235 12.9695L56.9235-81.8788Q56.9235-86.4976 59.2669-88.8379Q61.6103-91.1783 66.1362-91.1783L140.504-91.1783Q145.048-91.1783 147.382-88.8379Q149.716-86.4976 149.716-81.8788L149.716 11.4505Q149.716 16.0506 147.382 18.4003Q145.048 20.7499 140.504 20.7499ZM73.1645-64.2097L133.537-64.2097Q135.239-64.2097 136.413-65.3954Q137.586-66.5811 137.586-68.2834Q137.586-69.9423 136.422-71.1062Q135.258-72.2702 133.537-72.2702L73.1645-72.2702Q71.3817-72.2702 70.2054-71.1062Q69.0292-69.9423 69.0292-68.2834Q69.0292-66.5811 70.2147-65.3954Q71.4002-64.2097 73.1645-64.2097ZM73.1645-42.4612L133.537-42.4612Q135.258-42.4612 136.422-43.5941Q137.586-44.7269 137.586-46.4293Q137.586-48.1317 136.413-49.3172Q135.239-50.5027 133.537-50.5027L73.1645-50.5027Q71.4002-50.5027 70.2147-49.3172Q69.0292-48.1317 69.0292-46.4293Q69.0292-44.7269 70.2054-43.5941Q71.3817-42.4612 73.1645-42.4612ZM76.7329 1.2038L92.2158 1.2038Q95.8849 1.2038 97.9885-0.909142Q100.092-3.02209 100.092-6.61069L100.092-20.8962Q100.092-24.5283 97.9885-26.6102Q95.8849-28.6921 92.2158-28.6921L76.7329-28.6921Q73.144-28.6921 71.031-26.6102Q68.9181-24.5283 68.9181-20.8962L68.9181-6.61069Q68.9181-3.02209 71.031-0.909142Q73.144 1.2038 76.7329 1.2038ZM111.251-20.6505L133.518-20.6505Q135.221-20.6505 136.385-21.8143Q137.549-22.9781 137.549-24.6187Q137.549-26.3397 136.385-27.5159Q135.221-28.6921 133.518-28.6921L111.251-28.6921Q109.487-28.6921 108.323-27.5159Q107.159-26.3397 107.159-24.6187Q107.159-22.9781 108.332-21.8143Q109.505-20.6505 111.251-20.6505ZM111.251 1.2038L133.518 1.2038Q135.221 1.2038 136.385 0.0491826Q137.549-1.10544 137.549-2.7643Q137.549-4.51021 136.385-5.70504Q135.221-6.89987 133.518-6.89987L111.251-6.89987Q109.505-6.89987 108.332-5.70504Q107.159-4.51021 107.159-2.7643Q107.159-1.10544 108.323 0.0491826Q109.487 1.2038 111.251 1.2038Z"/>
  </g>
  <g id="Medium-L" transform="matrix(1 0 0 1 1658.59 1556)">
   <path d="M16.084 13.771Q16.084 22.8631 20.9787 27.7559Q25.8735 32.6486 35.345 32.6486L139.976 32.6486Q149.796 32.6486 154.821 27.6591Q159.847 22.6696 159.847 12.9451L159.847-83.3736Q159.847-93.0982 154.821-98.0877Q149.796-103.077 139.976-103.077L63.7177-103.077Q53.8982-103.077 48.8613-98.0877Q43.8243-93.0982 43.8243-83.3736L43.8243-53.6469L29.8306-53.6469Q23.344-53.6469 19.714-50.2155Q16.084-46.784 16.084-40.672ZM26.8183 13.2898L26.8183-38.7676Q26.8183-40.7162 27.9503-41.8257Q29.0823-42.9352 31.0758-42.9352L43.8243-42.9352L43.8243 13.2898Q43.8243 17.0813 41.3986 19.4978Q38.9729 21.9143 35.345 21.9143Q31.6802 21.9143 29.2493 19.4504Q26.8183 16.9864 26.8183 13.2898ZM52.4026 21.9143Q54.5587 18.2705 54.5587 13.3442L54.5587-82.4655Q54.5587-87.3571 57.0647-89.85Q59.5706-92.3428 64.3411-92.3428L139.352-92.3428Q144.133-92.3428 146.634-89.85Q149.135-87.3571 149.135-82.4655L149.135 12.0369Q149.135 16.918 146.634 19.4161Q144.133 21.9143 139.352 21.9143ZM71.1319-64.9771L132.631-64.9771Q134.218-64.9771 135.309-66.0807Q136.399-67.1842 136.399-68.7705Q136.399-70.3091 135.314-71.3949Q134.228-72.4807 132.631-72.4807L71.1319-72.4807Q69.4653-72.4807 68.3671-71.3949Q67.269-70.3091 67.269-68.7705Q67.269-67.1842 68.3724-66.0807Q69.4758-64.9771 71.1319-64.9771ZM71.1319-42.9352L132.631-42.9352Q134.228-42.9352 135.314-43.9859Q136.399-45.0366 136.399-46.6228Q136.399-48.2091 135.309-49.3125Q134.218-50.4159 132.631-50.4159L71.1319-50.4159Q69.4758-50.4159 68.3724-49.3125Q67.269-48.2091 67.269-46.6228Q67.269-45.0366 68.3671-43.9859Q69.4653-42.9352 71.1319-42.9352ZM74.8206 1.46203L90.6822 1.46203Q94.2912 1.46203 96.3587-0.610819Q98.4263-2.68366 98.4263-6.21223L98.4263-20.6522Q98.4263-24.2284 96.3587-26.2721Q94.2912-28.3159 90.6822-28.3159L74.8206-28.3159Q71.2917-28.3159 69.2188-26.2721Q67.146-24.2284 67.146-20.6522L67.146-6.21223Q67.146-2.68366 69.2188-0.610819Q71.2917 1.46203 74.8206 1.46203ZM109.702-20.8231L132.609-20.8231Q134.195-20.8231 135.281-21.9088Q136.367-22.9944 136.367-24.5229Q136.367-26.1196 135.281-27.2178Q134.195-28.3159 132.609-28.3159L109.702-28.3159Q108.057-28.3159 106.972-27.2178Q105.886-26.1196 105.886-24.5229Q105.886-22.9944 106.977-21.9088Q108.068-20.8231 109.702-20.8231ZM109.702 1.46203L132.609 1.46203Q134.195 1.46203 135.281 0.387509Q136.367-0.687009 136.367-2.22559Q136.367-3.85946 135.281-4.97419Q134.195-6.08891 132.609-6.08891L109.702-6.08891Q108.068-6.08891 106.977-4.97419Q105.886-3.85946 105.886-2.22559Q105.886-0.687009 106.972 0.387509Q108.057 1.46203 109.702 1.46203Z"/>
  </g>
  <g id="Regular-L" transform="matrix(1 0 0 1 1363.3 1556)">
   <path d="M16.084 14.3076Q16.084 22.9722 20.5018 27.5271Q24.9195 32.0819 33.8053 32.0819L138.012 32.0819Q147.476 32.0819 152.237 27.3598Q156.998 22.6377 156.998 13.2794L156.998-83.7082Q156.998-93.0665 152.237-97.7886Q147.476-102.511 138.012-102.511L61.8388-102.511Q52.375-102.511 47.6001-97.7886Q42.8252-93.0665 42.8252-83.7082L42.8252-52.1745L28.0156-52.1745Q22.384-52.1745 19.234-49.2521Q16.084-46.3296 16.084-41.1252ZM24.7329 14.3049L24.7329-39.5398Q24.7329-41.4246 25.825-42.4891Q26.9171-43.5535 28.8572-43.5535L42.8252-43.5535L42.8252 14.3049Q42.8252 18.3062 40.2367 20.8696Q37.6481 23.433 33.8053 23.433Q29.9099 23.433 27.3214 20.8169Q24.7329 18.2007 24.7329 14.3049ZM48.9883 23.433Q51.4741 19.3943 51.4741 13.8329L51.4741-83.2307Q51.4741-88.4782 54.1922-91.17Q56.9103-93.8618 61.9997-93.8618L137.851-93.8618Q142.94-93.8618 145.658-91.17Q148.376-88.4782 148.376-83.2307L148.376 12.8019Q148.376 18.0494 145.658 20.7412Q142.94 23.433 137.851 23.433ZM68.4807-65.9779L131.45-65.9779Q132.885-65.9779 133.869-66.9745Q134.852-67.971 134.852-69.4057Q134.852-70.7874 133.869-71.7714Q132.885-72.7554 131.45-72.7554L68.4807-72.7554Q66.9656-72.7554 65.9693-71.7714Q64.973-70.7874 64.973-69.4057Q64.973-67.971 65.9693-66.9745Q66.9656-65.9779 68.4807-65.9779ZM68.4807-43.5535L131.45-43.5535Q132.885-43.5535 133.869-44.4971Q134.852-45.4406 134.852-46.8753Q134.852-48.31 133.869-49.3063Q132.885-50.3026 131.45-50.3026L68.4807-50.3026Q66.9656-50.3026 65.9693-49.3063Q64.973-48.31 64.973-46.8753Q64.973-45.4406 65.9693-44.4971Q66.9656-43.5535 68.4807-43.5535ZM72.3263 1.79884L88.6818 1.79884Q92.2124 1.79884 94.233-0.221701Q96.2535-2.24224 96.2535-5.69249L96.2535-20.3339Q96.2535-23.8371 94.233-25.8312Q92.2124-27.8252 88.6818-27.8252L72.3263-27.8252Q68.8756-27.8252 66.8551-25.8312Q64.8345-23.8371 64.8345-20.3339L64.8345-5.69249Q64.8345-2.24224 66.8551-0.221701Q68.8756 1.79884 72.3263 1.79884ZM107.681-21.0482L131.422-21.0482Q132.857-21.0482 133.841-22.032Q134.825-23.0157 134.825-24.3979Q134.825-25.8326 133.841-26.8289Q132.857-27.8252 131.422-27.8252L107.681-27.8252Q106.193-27.8252 105.209-26.8289Q104.226-25.8326 104.226-24.3979Q104.226-23.0157 105.209-22.032Q106.193-21.0482 107.681-21.0482ZM107.681 1.79884L131.422 1.79884Q132.857 1.79884 133.841 0.828803Q134.825-0.14123 134.825-1.52294Q134.825-3.01065 133.841-4.0209Q132.857-5.03114 131.422-5.03114L107.681-5.03114Q106.193-5.03114 105.209-4.0209Q104.226-3.01065 104.226-1.52294Q104.226-0.14123 105.209 0.828803Q106.193 1.79884 107.681 1.79884Z"/>
  </g>
  <g id="Light-L" transform="matrix(1 0 0 1 1068.2 1556)">
   <path d="M16.084 15.7772Q16.084 23.373 20.0819 27.5748Q24.0797 31.7767 32.0494 31.7767L135.855 31.7767Q144.747 31.7767 149.269 27.2644Q153.792 22.7522 153.792 13.9284L153.792-84.2809Q153.792-93.1047 149.269-97.6169Q144.747-102.129 135.855-102.129L59.3387-102.129Q50.4475-102.129 45.9016-97.6169Q41.3556-93.1047 41.3556-84.2809L41.3556-50.7431L26.8706-50.7431Q21.7924-50.7431 18.9382-48.107Q16.084-45.4709 16.084-40.7818ZM22.7099 15.717L22.7099-39.7116Q22.7099-41.7873 23.9451-42.9758Q25.1804-44.1644 27.3495-44.1644L41.3556-44.1644L41.3556 15.717Q41.3556 19.8714 38.7289 22.5111Q36.1022 25.1508 32.0494 25.1508Q27.9632 25.1508 25.3365 22.4774Q22.7099 19.804 22.7099 15.717ZM45.0567 25.1508Q47.9815 21.3217 47.9815 15.4743L47.9815-83.9179Q47.9815-89.6233 50.9382-92.5633Q53.8948-95.5033 59.4995-95.5033L135.694-95.5033Q141.299-95.5033 144.255-92.5633Q147.212-89.6233 147.212-83.9179L147.212 13.5654Q147.212 19.2708 144.255 22.2108Q141.299 25.1508 135.694 25.1508ZM65.8469-66.913L129.427-66.913Q130.575-66.913 131.378-67.7093Q132.18-68.5055 132.18-69.6539Q132.18-70.7682 131.378-71.571Q130.575-72.3738 129.427-72.3738L65.8469-72.3738Q64.6181-72.3738 63.8222-71.571Q63.0263-70.7682 63.0263-69.6539Q63.0263-68.5055 63.8222-67.7093Q64.6181-66.913 65.8469-66.913ZM65.8469-44.1644L129.427-44.1644Q130.575-44.1644 131.378-44.9266Q132.18-45.6888 132.18-46.8371Q132.18-47.9855 131.378-48.7814Q130.575-49.5773 129.427-49.5773L65.8469-49.5773Q64.6181-49.5773 63.8222-48.7814Q63.0263-47.9855 63.0263-46.8371Q63.0263-45.6888 63.8222-44.9266Q64.6181-44.1644 65.8469-44.1644ZM69.9599 1.68436L86.3916 1.68436Q89.7504 1.68436 91.6947-0.259859Q93.6389-2.20408 93.6389-5.48247L93.6389-19.6278Q93.6389-22.9402 91.6947-24.8674Q89.7504-26.7946 86.3916-26.7946L69.9599-26.7946Q66.6807-26.7946 64.7365-24.8674Q62.7923-22.9402 62.7923-19.6278L62.7923-5.48247Q62.7923-2.20408 64.7365-0.259859Q66.6807 1.68436 69.9599 1.68436ZM105.238-21.3346L129.38-21.3346Q130.529-21.3346 131.332-22.137Q132.134-22.9394 132.134-24.0545Q132.134-25.2028 131.332-25.9987Q130.529-26.7946 129.38-26.7946L105.238-26.7946Q104.056-26.7946 103.253-25.9987Q102.451-25.2028 102.451-24.0545Q102.451-22.9394 103.253-22.137Q104.056-21.3346 105.238-21.3346ZM105.238 1.68436L129.38 1.68436Q130.529 1.68436 131.332 0.905119Q132.134 0.125877 132.134-0.988404Q132.134-2.17086 131.332-2.99031Q130.529-3.80976 129.38-3.80976L105.238-3.80976Q104.056-3.80976 103.253-2.99031Q102.451-2.17086 102.451-0.988404Q102.451 0.125877 103.253 0.905119Q104.056 1.68436 105.238 1.68436Z"/>
  </g>
  <g id="Thin-L" transform="matrix(1 0 0 1 773.605 1556)">
   <path d="M16.084 17.7208Q16.084 23.9031 19.5265 27.638Q22.969 31.3729 29.7271 31.3729L133.002 31.3729Q141.137 31.3729 145.344 27.1382Q149.551 22.9036 149.551 14.7867L149.551-85.0383Q149.551-93.1551 145.344-97.3898Q141.137-101.624 133.002-101.624L56.032-101.624Q47.8983-101.624 43.6551-97.3898Q39.412-93.1551 39.412-85.0383L39.412-48.85L25.3561-48.85Q21.01-48.85 18.547-46.5926Q16.084-44.3351 16.084-40.3276ZM20.0343 17.5847L20.0343-39.9389Q20.0343-42.2669 21.4589-43.6196Q22.8835-44.9723 25.3554-44.9723L39.412-44.9723L39.412 17.5847Q39.412 21.9414 36.7348 24.682Q34.0577 27.4227 29.7271 27.4227Q25.3886 27.4227 22.7114 24.6735Q20.0343 21.9244 20.0343 17.5847ZM39.8569 27.4227Q43.3623 23.8709 43.3623 17.6453L43.3623-84.8267Q43.3623-91.1377 46.6345-94.406Q49.9066-97.6742 56.1929-97.6742L132.842-97.6742Q139.128-97.6742 142.4-94.406Q145.672-91.1377 145.672-84.8267L145.672 14.5751Q145.672 20.8861 142.4 24.1544Q139.128 27.4227 132.842 27.4227ZM62.3634-68.1496L126.751-68.1496Q127.521-68.1496 128.084-68.6811Q128.646-69.2125 128.646-69.9822Q128.646-70.7427 128.084-71.3059Q127.521-71.8691 126.751-71.8691L62.3634-71.8691Q61.5133-71.8691 60.9825-71.3059Q60.4516-70.7427 60.4516-69.9822Q60.4516-69.2125 60.9825-68.6811Q61.5133-68.1496 62.3634-68.1496ZM62.3634-44.9723L126.751-44.9723Q127.521-44.9723 128.084-45.4946Q128.646-46.017 128.646-46.7867Q128.646-47.5563 128.084-48.0872Q127.521-48.618 126.751-48.618L62.3634-48.618Q61.5133-48.618 60.9825-48.0872Q60.4516-47.5563 60.4516-46.7867Q60.4516-46.017 60.9825-45.4946Q61.5133-44.9723 62.3634-44.9723ZM66.8301 1.53296L83.3628 1.53296Q86.4942 1.53296 88.3375-0.310327Q90.1808-2.15361 90.1808-5.20468L90.1808-18.6939Q90.1808-21.7541 88.3375-23.5928Q86.4942-25.4316 83.3628-25.4316L66.8301-25.4316Q63.7778-25.4316 61.9345-23.5928Q60.0912-21.7541 60.0912-18.6939L60.0912-5.20468Q60.0912-2.15361 61.9345-0.310327Q63.7778 1.53296 66.8301 1.53296ZM102.007-21.7133L126.679-21.7133Q127.45-21.7133 128.012-22.2759Q128.575-22.8385 128.575-23.6002Q128.575-24.3699 128.012-24.9007Q127.45-25.4316 126.679-25.4316L102.007-25.4316Q101.229-25.4316 100.666-24.9007Q100.104-24.3699 100.104-23.6002Q100.104-22.8385 100.666-22.2759Q101.229-21.7133 102.007-21.7133ZM102.007 1.53296L126.679 1.53296Q127.45 1.53296 128.012 1.00605Q128.575 0.479146 128.575-0.281441Q128.575-1.06016 128.012-1.62727Q127.45-2.19439 126.679-2.19439L102.007-2.19439Q101.229-2.19439 100.666-1.62727Q100.104-1.06016 100.104-0.281441Q100.104 0.479146 100.666 1.00605Q101.229 1.53296 102.007 1.53296Z"/>
  </g>
  <g id="Ultralight-L" transform="matrix(1 0 0 1 477.98 1556)">
   <path d="M16.084 18.7163Q16.084 24.1747 19.2421 27.6704Q22.4001 31.1661 28.5376 31.1661L131.541 31.1661Q139.289 31.1661 143.334 27.0736Q147.379 22.9811 147.379 15.2264L147.379-85.4263Q147.379-93.181 143.334-97.2735Q139.289-101.366 131.541-101.366L54.3384-101.366Q46.5926-101.366 42.5045-97.2735Q38.4165-93.181 38.4165-85.4263L38.4165-47.8803L24.5804-47.8803Q20.6092-47.8803 18.3466-45.8169Q16.084-43.7534 16.084-40.095ZM18.6638 18.5414L18.6638-40.0554Q18.6638-42.5126 20.1854-43.9493Q21.707-45.3861 24.3341-45.3861L38.4165-45.3861L38.4165 18.5414Q38.4165 23.0016 35.7135 25.7939Q33.0105 28.5863 28.5376 28.5863Q24.0698 28.5863 21.3668 25.7984Q18.6638 23.0105 18.6638 18.5414ZM37.1936 28.5863Q40.9963 25.1766 40.9963 18.7572L40.9963-85.2922Q40.9963-91.9134 44.4301-95.3498Q47.8639-98.7862 54.4992-98.7862L131.381-98.7862Q138.016-98.7862 141.45-95.3498Q144.883-91.9134 144.883-85.2922L144.883 15.0923Q144.883 21.7135 141.45 25.1499Q138.016 28.5863 131.381 28.5863ZM60.5791-68.783L125.381-68.783Q125.957-68.783 126.396-69.1788Q126.836-69.5746 126.836-70.1503Q126.836-70.7297 126.396-71.1702Q125.957-71.6106 125.381-71.6106L60.5791-71.6106Q59.9231-71.6106 59.528-71.1702Q59.1329-70.7297 59.1329-70.1503Q59.1329-69.5746 59.528-69.1788Q59.9231-68.783 60.5791-68.783ZM60.5791-45.3861L125.381-45.3861Q125.957-45.3861 126.396-45.7856Q126.836-46.1851 126.836-46.7608Q126.836-47.3365 126.396-47.7316Q125.957-48.1266 125.381-48.1266L60.5791-48.1266Q59.9231-48.1266 59.528-47.7316Q59.1329-47.3365 59.1329-46.7608Q59.1329-46.1851 59.528-45.7856Q59.9231-45.3861 60.5791-45.3861ZM65.227 1.45541L81.8114 1.45541Q84.8264 1.45541 86.618-0.336176Q88.4096-2.12776 88.4096-5.06241L88.4096-18.2156Q88.4096-21.1465 86.618-22.94Q84.8264-24.7334 81.8114-24.7334L65.227-24.7334Q62.291-24.7334 60.4994-22.94Q58.7078-21.1465 58.7078-18.2156L58.7078-5.06241Q58.7078-2.12776 60.4994-0.336176Q62.291 1.45541 65.227 1.45541ZM100.353-21.9073L125.295-21.9073Q125.873-21.9073 126.312-22.347Q126.752-22.7868 126.752-23.3676Q126.752-23.9433 126.312-24.3384Q125.873-24.7334 125.295-24.7334L100.353-24.7334Q99.7807-24.7334 99.341-24.3384Q98.9012-23.9433 98.9012-23.3676Q98.9012-22.7868 99.341-22.347Q99.7807-21.9073 100.353-21.9073ZM100.353 1.45541L125.295 1.45541Q125.873 1.45541 126.312 1.05775Q126.752 0.660089 126.752 0.0806623Q126.752-0.491262 126.312-0.929134Q125.873-1.36701 125.295-1.36701L100.353-1.36701Q99.7807-1.36701 99.341-0.929134Q98.9012-0.491262 98.9012 0.0806623Q98.9012 0.660089 99.341 1.05775Q99.7807 1.45541 100.353 1.45541Z"/>
  </g>
  <g id="Black-M" transform="matrix(1 0 0 1 2859.16 1126)">
   <path d="M12.4609 0.735073Q12.4609 9.40587 18.331 14.6495Q24.2011 19.8932 33.9545 19.8932L116.856 19.8932Q125.925 19.8932 130.969 14.8541Q136.014 9.815 136.014 0.75766L136.014-71.1659Q136.014-80.2232 130.969-85.2623Q125.925-90.3014 116.856-90.3014L57.2621-90.3014Q48.1938-90.3014 43.1492-85.2623Q38.1046-80.2232 38.1046-71.1659L38.1046-55.8667L31.1722-55.8667Q22.3542-55.8667 17.4075-50.9359Q12.4609-46.005 12.4609-37.2188ZM29.7989-1.8853L29.7989-34.4337Q29.7989-36.305 30.9103-37.4167Q32.0218-38.5285 33.8925-38.5285L38.1046-38.5285L38.1046-1.8853Q38.1046 0.12721 36.9705 1.34122Q35.8363 2.55522 33.9545 2.55522Q32.1242 2.55522 30.9616 1.33572Q29.7989 0.116228 29.7989-1.8853ZM55.158 2.55522Q55.4426 1.6428 55.4426 0.685649L55.4426-68.4961Q55.4426-70.7845 56.4777-71.874Q57.5128-72.9634 59.8989-72.9634L114.219-72.9634Q116.663-72.9634 117.669-71.874Q118.676-70.7845 118.676-68.4961L118.676-1.91214Q118.676 0.319223 117.669 1.43722Q116.663 2.55522 114.219 2.55522ZM66.5567-53.9341L107.567-53.9341Q109.404-53.9341 110.686-55.2195Q111.969-56.5048 111.969-58.3417Q111.969-60.1732 110.715-61.4271Q109.461-62.681 107.567-62.681L66.5567-62.681Q64.6575-62.681 63.4007-61.4271Q62.1439-60.1732 62.1439-58.3417Q62.1439-56.5048 63.4292-55.2195Q64.7146-53.9341 66.5567-53.9341ZM66.5567-38.5285L107.567-38.5285Q109.461-38.5285 110.715-39.7798Q111.969-41.0311 111.969-42.868Q111.969-44.7049 110.686-45.9902Q109.404-47.2756 107.567-47.2756L66.5567-47.2756Q64.7146-47.2756 63.4292-45.9902Q62.1439-44.7049 62.1439-42.868Q62.1439-41.0311 63.4007-39.7798Q64.6575-38.5285 66.5567-38.5285ZM68.7751-8.41025L78.7902-8.41025Q81.8923-8.41025 83.6873-10.2337Q85.4822-12.0572 85.4822-15.0971L85.4822-25.1776Q85.4822-28.2229 83.6873-30.0151Q81.8923-31.8073 78.7902-31.8073L68.7751-31.8073Q65.7352-31.8073 63.9117-30.0151Q62.0882-28.2229 62.0882-25.1776L62.0882-15.0971Q62.0882-12.0572 63.9117-10.2337Q65.7352-8.41025 68.7751-8.41025ZM93.569-23.1176L107.567-23.1176Q109.404-23.1176 110.658-24.3715Q111.912-25.6254 111.912-27.3997Q111.912-29.2937 110.658-30.5505Q109.404-31.8073 107.567-31.8073L93.569-31.8073Q91.6695-31.8073 90.4156-30.5505Q89.1617-29.2937 89.1617-27.3997Q89.1617-25.6254 90.4442-24.3715Q91.7266-23.1176 93.569-23.1176ZM93.569-8.41025L107.567-8.41025Q109.404-8.41025 110.658-9.66428Q111.912-10.9183 111.912-12.7498Q111.912-14.5922 110.658-15.8774Q109.404-17.1625 107.567-17.1625L93.569-17.1625Q91.7266-17.1625 90.4442-15.8774Q89.1617-14.5922 89.1617-12.7498Q89.1617-10.9183 90.4156-9.66428Q91.6695-8.41025 93.569-8.41025Z"/>
  </g>
  <g id="Heavy-M" transform="matrix(1 0 0 1 2563.93 1126)">
   <path d="M12.4609 1.10712Q12.4609 9.45957 17.8099 14.346Q23.1589 19.2324 32.3583 19.2324L114.802 19.2324Q123.538 19.2324 128.295 14.491Q133.051 9.74949 133.051 1.04673L133.051-71.4717Q133.051-80.1744 128.295-84.9159Q123.538-89.6574 114.802-89.6574L55.391-89.6574Q46.6554-89.6574 41.8976-84.9159Q37.1397-80.1744 37.1397-71.4717L37.1397-54.287L29.0919-54.287Q21.2508-54.287 16.8559-49.947Q12.4609-45.607 12.4609-37.8735ZM27.5605-0.887628L27.5605-35.3865Q27.5605-37.1351 28.5901-38.1624Q29.6197-39.1897 31.3729-39.1897L37.1397-39.1897L37.1397-0.887628Q37.1397 1.36097 35.805 2.74689Q34.4704 4.13282 32.3583 4.13282Q30.2734 4.13282 28.917 2.73048Q27.5605 1.32815 27.5605-0.887628ZM51.6264 4.13282Q52.2393 2.66908 52.2393 0.95945L52.2393-69.3293Q52.2393-71.9755 53.495-73.2666Q54.7507-74.5578 57.435-74.5578L112.758-74.5578Q115.486-74.5578 116.72-73.2666Q117.954-71.9755 117.954-69.3293L117.954-1.09569Q117.954 1.50693 116.72 2.81988Q115.486 4.13282 112.758 4.13282ZM63.7245-55.0161L106.487-55.0161Q108.192-55.0161 109.376-56.2072Q110.56-57.3984 110.56-59.1026Q110.56-60.7904 109.398-61.9527Q108.235-63.1149 106.487-63.1149L63.7245-63.1149Q61.9579-63.1149 60.7887-61.9527Q59.6194-60.7904 59.6194-59.1026Q59.6194-57.3984 60.8105-56.2072Q62.0016-55.0161 63.7245-55.0161ZM63.7245-39.1897L106.487-39.1897Q108.235-39.1897 109.398-40.3426Q110.56-41.4955 110.56-43.1997Q110.56-44.904 109.376-46.0951Q108.192-47.2862 106.487-47.2862L63.7245-47.2862Q62.0016-47.2862 60.8105-46.0951Q59.6194-44.904 59.6194-43.1997Q59.6194-41.4955 60.7887-40.3426Q61.9579-39.1897 63.7245-39.1897ZM66.0865-7.95397L76.7182-7.95397Q79.7569-7.95397 81.5079-9.72682Q83.2589-11.4997 83.2589-14.4761L83.2589-24.9213Q83.2589-27.9141 81.5079-29.6569Q79.7569-31.3997 76.7182-31.3997L66.0865-31.3997Q63.11-31.3997 61.3372-29.6569Q59.5644-27.9141 59.5644-24.9213L59.5644-14.4761Q59.5644-11.4997 61.3372-9.72682Q63.11-7.95397 66.0865-7.95397ZM91.5035-23.3446L106.485-23.3446Q108.189-23.3446 109.352-24.5068Q110.514-25.6691 110.514-27.3133Q110.514-29.0612 109.352-30.2305Q108.189-31.3997 106.485-31.3997L91.5035-31.3997Q89.7393-31.3997 88.577-30.2305Q87.4148-29.0612 87.4148-27.3133Q87.4148-25.6691 88.5988-24.5068Q89.7829-23.3446 91.5035-23.3446ZM91.5035-7.95397L106.485-7.95397Q108.189-7.95397 109.352-9.11507Q110.514-10.2762 110.514-11.964Q110.514-13.6847 109.352-14.8769Q108.189-16.0692 106.485-16.0692L91.5035-16.0692Q89.7829-16.0692 88.5988-14.8769Q87.4148-13.6847 87.4148-11.964Q87.4148-10.2762 88.577-9.11507Q89.7393-7.95397 91.5035-7.95397Z"/>
  </g>
  <g id="Bold-M" transform="matrix(1 0 0 1 2268.88 1126)">
   <path d="M12.4609 1.52331Q12.4609 9.51964 17.2269 14.0065Q21.9929 18.4933 30.5727 18.4933L112.504 18.4933Q120.868 18.4933 125.302 14.0848Q129.737 9.6762 129.737 1.37009L129.737-71.8138Q129.737-80.1199 125.302-84.5284Q120.868-88.937 112.504-88.937L53.298-88.937Q44.9346-88.937 40.4974-84.5284Q36.0602-80.1199 36.0602-71.8138L36.0602-52.52L26.7648-52.52Q20.0166-52.52 16.2388-48.8409Q12.4609-45.1618 12.4609-38.6058ZM25.0566 0.228412L25.0566-36.4523Q25.0566-38.0637 25.9946-38.9966Q26.9326-39.9294 28.5543-39.9294L36.0602-39.9294L36.0602 0.228412Q36.0602 2.74111 34.5013 4.31935Q32.9424 5.89759 30.5727 5.89759Q28.203 5.89759 26.6298 4.29073Q25.0566 2.68386 25.0566 0.228412ZM47.6758 5.89759Q48.656 3.81712 48.656 1.26574L48.656-70.2613Q48.656-73.3078 50.1585-74.8245Q51.6609-76.3413 54.6787-76.3413L111.124-76.3413Q114.17-76.3413 115.658-74.8245Q117.146-73.3078 117.146-70.2613L117.146-0.182382Q117.146 2.83555 115.658 4.36657Q114.17 5.89759 111.124 5.89759ZM60.5563-56.2265L105.28-56.2265Q106.836-56.2265 107.91-57.3122Q108.984-58.398 108.984-59.9538Q108.984-61.4809 107.924-62.5407Q106.864-63.6004 105.28-63.6004L60.5563-63.6004Q58.9381-63.6004 57.8667-62.5407Q56.7953-61.4809 56.7953-59.9538Q56.7953-58.398 57.881-57.3122Q58.9667-56.2265 60.5563-56.2265ZM60.5563-39.9294L105.28-39.9294Q106.864-39.9294 107.924-40.9722Q108.984-42.015 108.984-43.5709Q108.984-45.1267 107.91-46.2124Q106.836-47.2981 105.28-47.2981L60.5563-47.2981Q58.9667-47.2981 57.881-46.2124Q56.7953-45.1267 56.7953-43.5709Q56.7953-42.015 57.8667-40.9722Q58.9381-39.9294 60.5563-39.9294ZM63.0789-7.44355L74.4003-7.44355Q77.3681-7.44355 79.07-9.15974Q80.7719-10.8759 80.7719-13.7814L80.7719-24.6346Q80.7719-27.5687 79.07-29.2562Q77.3681-30.9438 74.4003-30.9438L63.0789-30.9438Q60.1734-30.9438 58.4572-29.2562Q56.741-27.5687 56.741-24.6346L56.741-13.7814Q56.741-10.8759 58.4572-9.15974Q60.1734-7.44355 63.0789-7.44355ZM89.193-23.5985L105.275-23.5985Q106.831-23.5985 107.89-24.6582Q108.95-25.7179 108.95-27.2166Q108.95-28.801 107.89-29.8724Q106.831-30.9438 105.275-30.9438L89.193-30.9438Q87.58-30.9438 86.5203-29.8724Q85.4606-28.801 85.4606-27.2166Q85.4606-25.7179 86.5345-24.6582Q87.6085-23.5985 89.193-23.5985ZM89.193-7.44355L105.275-7.44355Q106.831-7.44355 107.89-8.50069Q108.95-9.55784 108.95-11.085Q108.95-12.6695 107.89-13.7578Q106.831-14.8461 105.275-14.8461L89.193-14.8461Q87.6085-14.8461 86.5345-13.7578Q85.4606-12.6695 85.4606-11.085Q85.4606-9.55784 86.5203-8.50069Q87.58-7.44355 89.193-7.44355Z"/>
  </g>
  <g id="Semibold-M" transform="matrix(1 0 0 1 1973.31 1126)">
   <path d="M12.4609 1.81023Q12.4609 9.56105 16.825 13.7724Q21.1892 17.9838 29.3418 17.9838L110.92 17.9838Q119.027 17.9838 123.24 13.8047Q127.452 9.62568 127.452 1.59302L127.452-72.0496Q127.452-80.0822 123.24-84.2613Q119.027-88.4403 110.92-88.4403L51.855-88.4403Q43.7483-88.4403 39.5322-84.2613Q35.3161-80.0822 35.3161-72.0496L35.3161-51.3017L25.1605-51.3017Q19.1657-51.3017 15.8133-48.0783Q12.4609-44.8548 12.4609-39.1107ZM23.3305 0.997803L23.3305-37.1871Q23.3305-38.7039 24.2053-39.5716Q25.0801-40.4394 26.6112-40.4394L35.3161-40.4394L35.3161 0.997803Q35.3161 3.69256 33.6026 5.40339Q31.889 7.11422 29.3418 7.11422Q26.7757 7.11422 25.0531 5.36635Q23.3305 3.61847 23.3305 0.997803ZM44.9523 7.11422Q46.1856 4.60858 46.1856 1.47689L46.1856-70.9038Q46.1856-74.2262 47.8583-75.8985Q49.5309-77.5708 52.7785-77.5708L109.997-77.5708Q113.263-77.5708 114.926-75.8985Q116.59-74.2262 116.59-70.9038L116.59 0.447249Q116.59 3.7515 114.926 5.43286Q113.263 7.11422 109.997 7.11422ZM58.3721-57.0609L104.447-57.0609Q105.901-57.0609 106.899-58.074Q107.897-59.0871 107.897-60.5406Q107.897-61.9569 106.908-62.946Q105.919-63.9351 104.447-63.9351L58.3721-63.9351Q56.8563-63.9351 55.8523-62.946Q54.8484-61.9569 54.8484-60.5406Q54.8484-59.0871 55.8614-58.074Q56.8745-57.0609 58.3721-57.0609ZM58.3721-40.4394L104.447-40.4394Q105.919-40.4394 106.908-41.4063Q107.897-42.3732 107.897-43.8267Q107.897-45.2802 106.899-46.2932Q105.901-47.3063 104.447-47.3063L58.3721-47.3063Q56.8745-47.3063 55.8614-46.2932Q54.8484-45.2802 54.8484-43.8267Q54.8484-42.3732 55.8523-41.4063Q56.8563-40.4394 58.3721-40.4394ZM61.0055-7.09168L72.8024-7.09168Q75.7212-7.09168 77.3893-8.76881Q79.0573-10.4459 79.0573-13.3024L79.0573-24.4369Q79.0573-27.3305 77.3893-28.98Q75.7212-30.6295 72.8024-30.6295L61.0055-30.6295Q58.1489-30.6295 56.4718-28.98Q54.7946-27.3305 54.7946-24.4369L54.7946-13.3024Q54.7946-10.4459 56.4718-8.76881Q58.1489-7.09168 61.0055-7.09168ZM87.6001-23.7736L104.44-23.7736Q105.894-23.7736 106.883-24.7626Q107.872-25.7516 107.872-27.1499Q107.872-28.6216 106.883-29.6256Q105.894-30.6295 104.44-30.6295L87.6001-30.6295Q86.0914-30.6295 85.1024-29.6256Q84.1134-28.6216 84.1134-27.1499Q84.1134-25.7516 85.1114-24.7626Q86.1095-23.7736 87.6001-23.7736ZM87.6001-7.09168L104.44-7.09168Q105.894-7.09168 106.883-8.07715Q107.872-9.06262 107.872-10.479Q107.872-11.9696 106.883-12.9862Q105.894-14.0029 104.44-14.0029L87.6001-14.0029Q86.1095-14.0029 85.1114-12.9862Q84.1134-11.9696 84.1134-10.479Q84.1134-9.06262 85.1024-8.07715Q86.0914-7.09168 87.6001-7.09168Z"/>
  </g>
  <g id="Medium-M" transform="matrix(1 0 0 1 1677.47 1126)">
   <path d="M12.4609 2.02778Q12.4609 9.59245 16.5203 13.5949Q20.5797 17.5974 28.4084 17.5974L109.719 17.5974Q117.631 17.5974 121.676 13.5924Q125.72 9.58737 125.72 1.76205L125.72-72.2284Q125.72-80.0537 121.676-84.0587Q117.631-88.0637 109.719-88.0637L50.7609-88.0637Q42.8487-88.0637 38.8003-84.0587Q34.7519-80.0537 34.7519-72.2284L34.7519-50.378L23.9441-50.378Q18.5205-50.378 15.4907-47.5001Q12.4609-44.6221 12.4609-39.4935ZM22.0216 1.58119L22.0216-37.7442Q22.0216-39.1893 22.8486-40.0077Q23.6755-40.826 25.1378-40.826L34.7519-40.826L34.7519 1.58119Q34.7519 4.414 32.9211 6.22536Q31.0903 8.03671 28.4084 8.03671Q25.6934 8.03671 23.8575 6.18193Q22.0216 4.32714 22.0216 1.58119ZM42.8873 8.03671Q44.3125 5.20869 44.3125 1.63699L44.3125-71.391Q44.3125-74.9226 46.1142-76.7128Q47.9158-78.5031 51.3377-78.5031L109.142-78.5031Q112.575-78.5031 114.371-76.7128Q116.167-74.9226 116.167-71.391L116.167 0.924661Q116.167 4.446 114.371 6.24136Q112.575 8.03671 109.142 8.03671ZM56.716-57.6935L103.816-57.6935Q105.192-57.6935 106.133-58.6516Q107.073-59.6096 107.073-60.9855Q107.073-62.3179 106.138-63.2534Q105.202-64.1888 103.816-64.1888L56.716-64.1888Q55.2778-64.1888 54.325-63.2534Q53.3722-62.3179 53.3722-60.9855Q53.3722-59.6096 54.3301-58.6516Q55.288-57.6935 56.716-57.6935ZM56.716-40.826L103.816-40.826Q105.202-40.826 106.138-41.7354Q107.073-42.6448 107.073-44.0207Q107.073-45.3966 106.133-46.3545Q105.192-47.3125 103.816-47.3125L56.716-47.3125Q55.288-47.3125 54.3301-46.3545Q53.3722-45.3966 53.3722-44.0207Q53.3722-42.6448 54.325-41.7354Q55.2778-40.826 56.716-40.826ZM59.4334-6.82487L71.5908-6.82487Q74.4725-6.82487 76.1149-8.47238Q77.7573-10.1199 77.7573-12.9393L77.7573-24.2871Q77.7573-27.15 76.1149-28.7706Q74.4725-30.3912 71.5908-30.3912L59.4334-30.3912Q56.6138-30.3912 54.9663-28.7706Q53.3188-27.15 53.3188-24.2871L53.3188-12.9393Q53.3188-10.1199 54.9663-8.47238Q56.6138-6.82487 59.4334-6.82487ZM86.3923-23.9064L103.807-23.9064Q105.183-23.9064 106.119-24.8417Q107.054-25.7771 107.054-27.0994Q107.054-28.4856 106.119-29.4384Q105.183-30.3912 103.807-30.3912L86.3923-30.3912Q84.9626-30.3912 84.0272-29.4384Q83.0918-28.4856 83.0918-27.0994Q83.0918-25.7771 84.0324-24.8417Q84.9729-23.9064 86.3923-23.9064ZM86.3923-6.82487L103.807-6.82487Q105.183-6.82487 106.119-7.756Q107.054-8.68713 107.054-10.0195Q107.054-11.4389 106.119-12.4012Q105.183-13.3635 103.807-13.3635L86.3923-13.3635Q84.9729-13.3635 84.0324-12.4012Q83.0918-11.4389 83.0918-10.0195Q83.0918-8.68713 84.0272-7.756Q84.9626-6.82487 86.3923-6.82487Z"/>
  </g>
  <g id="Regular-M" transform="matrix(1 0 0 1 1381.88 1126)">
   <path d="M12.4609 2.31155Q12.4609 9.6334 16.1228 13.3634Q19.7848 17.0934 27.191 17.0934L108.152 17.0934Q115.811 17.0934 119.635 13.3154Q123.46 9.53741 123.46 1.98253L123.46-72.4616Q123.46-80.0165 119.635-83.7945Q115.811-87.5725 108.152-87.5725L49.3338-87.5725Q41.6754-87.5725 37.8457-83.7945Q34.0159-80.0165 34.0159-72.4616L34.0159-49.1732L22.3574-49.1732Q17.679-49.1732 15.07-46.7459Q12.4609-44.3185 12.4609-39.9929ZM20.3144 2.34212L20.3144-38.4709Q20.3144-39.8225 21.0789-40.5764Q21.8434-41.3304 23.2161-41.3304L34.0159-41.3304L34.0159 2.34212Q34.0159 5.355 32.0322 7.29749Q30.0485 9.23997 27.191 9.23997Q24.2818 9.23997 22.2981 7.24573Q20.3144 5.25149 20.3144 2.34212ZM40.1937 9.23997Q41.8694 5.99145 41.8694 1.84582L41.8694-72.0265Q41.8694-75.831 43.8392-77.775Q45.8091-79.7191 49.4584-79.7191L108.028-79.7191Q111.677-79.7191 113.647-77.775Q115.617-75.831 115.617-72.0265L115.617 1.54737Q115.617 5.35188 113.647 7.29593Q111.677 9.23997 108.028 9.23997ZM54.5558-58.5188L102.993-58.5188Q104.267-58.5188 105.133-59.4049Q105.998-60.2911 105.998-61.5658Q105.998-62.7887 105.133-63.6542Q104.267-64.5198 102.993-64.5198L54.5558-64.5198Q53.2188-64.5198 52.3327-63.6542Q51.4466-62.7887 51.4466-61.5658Q51.4466-60.2911 52.3327-59.4049Q53.2188-58.5188 54.5558-58.5188ZM54.5558-41.3304L102.993-41.3304Q104.267-41.3304 105.133-42.1647Q105.998-42.999 105.998-44.2737Q105.998-45.5484 105.133-46.4345Q104.267-47.3206 102.993-47.3206L54.5558-47.3206Q53.2188-47.3206 52.3327-46.4345Q51.4466-45.5484 51.4466-44.2737Q51.4466-42.999 52.3327-42.1647Q53.2188-41.3304 54.5558-41.3304ZM57.3828-6.47686L70.0105-6.47686Q72.8438-6.47686 74.4527-8.08574Q76.0616-9.69463 76.0616-12.4656L76.0616-24.0916Q76.0616-26.9144 74.4527-28.4974Q72.8438-30.0804 70.0105-30.0804L57.3828-30.0804Q54.6116-30.0804 53.0027-28.4974Q51.3938-26.9144 51.3938-24.0916L51.3938-12.4656Q51.3938-9.69463 53.0027-8.08574Q54.6116-6.47686 57.3828-6.47686ZM84.8169-24.0795L102.982-24.0795Q104.257-24.0795 105.122-24.945Q105.988-25.8104 105.988-27.0335Q105.988-28.3082 105.122-29.1943Q104.257-30.0804 102.982-30.0804L84.8169-30.0804Q83.4904-30.0804 82.6249-29.1943Q81.7594-28.3082 81.7594-27.0335Q81.7594-25.8104 82.6249-24.945Q83.4904-24.0795 84.8169-24.0795ZM84.8169-6.47686L102.982-6.47686Q104.257-6.47686 105.122-7.33711Q105.988-8.19735 105.988-9.42021Q105.988-10.7468 105.122-11.6382Q104.257-12.5296 102.982-12.5296L84.8169-12.5296Q83.4904-12.5296 82.6249-11.6382Q81.7594-10.7468 81.7594-9.42021Q81.7594-8.19735 82.6249-7.33711Q83.4904-6.47686 84.8169-6.47686Z"/>
  </g>
  <g id="Light-M" transform="matrix(1 0 0 1 1086.61 1126)">
   <path d="M12.4609 3.62909Q12.4609 9.99276 15.7464 13.4063Q19.0318 16.8198 25.6167 16.8198L106.219 16.8198Q113.364 16.8198 116.975 13.2299Q120.585 9.64004 120.585 2.56439L120.585-72.9751Q120.585-80.0507 116.975-83.6406Q113.364-87.2304 106.219-87.2304L47.0923-87.2304Q39.9474-87.2304 36.3229-83.6406Q32.6983-80.0507 32.6983-72.9751L32.6983-47.8899L21.3308-47.8899Q17.1486-47.8899 14.8048-45.7193Q12.4609-43.5486 12.4609-39.685ZM18.5007 3.60821L18.5007-38.625Q18.5007-40.1476 19.3935-41.0128Q20.2864-41.878 21.8643-41.878L32.6983-41.878L32.6983 3.60821Q32.6983 6.75821 30.6804 8.76912Q28.6625 10.78 25.6167 10.78Q22.5365 10.78 20.5186 8.73447Q18.5007 6.68891 18.5007 3.60821ZM36.6688 10.78Q38.7381 7.71952 38.7381 3.31746L38.7381-72.6426Q38.7381-76.8576 40.9219-79.0241Q43.1056-81.1907 47.2169-81.1907L106.094-81.1907Q110.205-81.1907 112.389-79.0241Q114.573-76.8576 114.573-72.6426L114.573 2.23187Q114.573 6.44691 112.389 8.61347Q110.205 10.78 106.094 10.78ZM52.1944-59.3571L101.179-59.3571Q102.197-59.3571 102.9-60.0637Q103.603-60.7704 103.603-61.7883Q103.603-62.7714 102.9-63.4746Q102.197-64.1777 101.179-64.1777L52.1944-64.1777Q51.1141-64.1777 50.4077-63.4746Q49.7013-62.7714 49.7013-61.7883Q49.7013-60.7704 50.4077-60.0637Q51.1141-59.3571 52.1944-59.3571ZM52.1944-41.878L101.179-41.878Q102.197-41.878 102.9-42.5498Q103.603-43.2215 103.603-44.2395Q103.603-45.2575 102.9-45.9639Q102.197-46.6703 101.179-46.6703L52.1944-46.6703Q51.1141-46.6703 50.4077-45.9639Q49.7013-45.2575 49.7013-44.2395Q49.7013-43.2215 50.4077-42.5498Q51.1141-41.878 52.1944-41.878ZM55.2611-6.57949L67.9573-6.57949Q70.6365-6.57949 72.177-8.11995Q73.7174-9.66042 73.7174-12.2773L73.7174-23.4585Q73.7174-26.1103 72.177-27.6334Q70.6365-29.1564 67.9573-29.1564L55.2611-29.1564Q52.6438-29.1564 51.1033-27.6334Q49.5628-26.1103 49.5628-23.4585L49.5628-12.2773Q49.5628-9.66042 51.1033-8.11995Q52.6438-6.57949 55.2611-6.57949ZM82.6269-24.3362L101.151-24.3362Q102.17-24.3362 102.872-25.0391Q103.575-25.742 103.575-26.7256Q103.575-27.7436 102.872-28.45Q102.17-29.1564 101.151-29.1564L82.6269-29.1564Q81.574-29.1564 80.8711-28.45Q80.1682-27.7436 80.1682-26.7256Q80.1682-25.742 80.8711-25.0391Q81.574-24.3362 82.6269-24.3362ZM82.6269-6.57949L101.151-6.57949Q102.17-6.57949 102.872-7.26869Q103.575-7.95788 103.575-8.94098Q103.575-9.99384 102.872-10.7142Q102.17-11.4345 101.151-11.4345L82.6269-11.4345Q81.574-11.4345 80.8711-10.7142Q80.1682-9.99384 80.1682-8.94098Q80.1682-7.95788 80.8711-7.26869Q81.574-6.57949 82.6269-6.57949Z"/>
  </g>
  <g id="Thin-M" transform="matrix(1 0 0 1 791.8 1126)">
   <path d="M12.4609 5.37165Q12.4609 10.468 15.2485 13.4629Q18.036 16.4578 23.5346 16.4578L103.661 16.4578Q110.128 16.4578 113.456 13.1168Q116.784 9.77578 116.784 3.33396L116.784-73.6541Q116.784-80.096 113.456-83.437Q110.128-86.778 103.661-86.778L44.1277-86.778Q37.6619-86.778 34.3088-83.437Q30.9558-80.096 30.9558-73.6541L30.9558-46.1926L19.973-46.1926Q16.4471-46.1926 14.454-44.3615Q12.4609-42.5304 12.4609-39.2777ZM16.1019 5.2827L16.1019-38.8288Q16.1019-40.5776 17.1645-41.59Q18.2271-42.6024 20.0765-42.6024L30.9558-42.6024L30.9558 5.2827Q30.9558 8.61407 28.8926 10.7155Q26.8295 12.8169 23.5346 12.8169Q20.2282 12.8169 18.165 10.7034Q16.1019 8.59002 16.1019 5.2827ZM32.0069 12.8169Q34.5967 10.005 34.5967 5.26381L34.5967-73.4574Q34.5967-78.2154 37.0634-80.6762Q39.53-83.1371 44.2523-83.1371L103.537-83.1371Q108.259-83.1371 110.726-80.6762Q113.192-78.2154 113.192-73.4574L113.192 3.13718Q113.192 7.89517 110.726 10.356Q108.259 12.8169 103.537 12.8169ZM49.0713-60.4658L98.7802-60.4658Q99.4586-60.4658 99.9465-60.935Q100.434-61.4042 100.434-62.0826Q100.434-62.7486 99.9465-63.2369Q99.4586-63.7252 98.7802-63.7252L49.0713-63.7252Q48.3305-63.7252 47.8618-63.2369Q47.393-62.7486 47.393-62.0826Q47.393-61.4042 47.8618-60.935Q48.3305-60.4658 49.0713-60.4658ZM49.0713-42.6024L98.7802-42.6024Q99.4586-42.6024 99.9465-43.0591Q100.434-43.5158 100.434-44.1943Q100.434-44.8727 99.9465-45.3415Q99.4586-45.8102 98.7802-45.8102L49.0713-45.8102Q48.3305-45.8102 47.8618-45.3415Q47.393-44.8727 47.393-44.1943Q47.393-43.5158 47.8618-43.0591Q48.3305-42.6024 49.0713-42.6024ZM52.4551-6.71523L65.2417-6.71523Q67.7172-6.71523 69.1671-8.1652Q70.6171-9.61517 70.6171-12.0283L70.6171-22.6213Q70.6171-25.0469 69.1671-26.4906Q67.7172-27.9343 65.2417-27.9343L52.4551-27.9343Q50.0411-27.9343 48.5912-26.4906Q47.1412-25.0469 47.1412-22.6213L47.1412-12.0283Q47.1412-9.61517 48.5912-8.1652Q50.0411-6.71523 52.4551-6.71523ZM79.7304-24.6758L98.7295-24.6758Q99.4088-24.6758 99.8967-25.1636Q100.385-25.6515 100.385-26.3184Q100.385-26.9968 99.8967-27.4656Q99.4088-27.9343 98.7295-27.9343L79.7304-27.9343Q79.0395-27.9343 78.5516-27.4656Q78.0637-26.9968 78.0637-26.3184Q78.0637-25.6515 78.5516-25.1636Q79.0395-24.6758 79.7304-24.6758ZM79.7304-6.71523L98.7295-6.71523Q99.4088-6.71523 99.8967-7.17819Q100.385-7.64115 100.385-8.30715Q100.385-8.99804 99.8967-9.49216Q99.4088-9.98627 98.7295-9.98627L79.7304-9.98627Q79.0395-9.98627 78.5516-9.49216Q78.0637-8.99804 78.0637-8.30715Q78.0637-7.64115 78.5516-7.17819Q79.0395-6.71523 79.7304-6.71523Z"/>
  </g>
  <g id="Ultralight-M" transform="matrix(1 0 0 1 496.063 1126)">
   <path d="M12.4609 6.26417Q12.4609 10.7115 14.9935 13.4919Q17.526 16.2724 22.4682 16.2724L102.352 16.2724Q108.471 16.2724 111.653 13.0588Q114.836 9.8453 114.836 3.72813L114.836-74.002Q114.836-80.1191 111.653-83.3327Q108.471-86.5462 102.352-86.5462L42.6093-86.5462Q36.4912-86.5462 33.2773-83.3327Q30.0633-80.1191 30.0633-74.002L30.0633-45.3232L19.2776-45.3232Q16.0878-45.3232 14.2744-43.6661Q12.4609-42.0089 12.4609-39.0692ZM14.8732 6.14037L14.8732-38.9332Q14.8732-40.7979 16.0228-41.8856Q17.1724-42.9733 19.1608-42.9733L30.0633-42.9733L30.0633 6.14037Q30.0633 9.56464 27.9769 11.7124Q25.8906 13.8601 22.4682 13.8601Q19.0458 13.8601 16.9595 11.7119Q14.8732 9.56375 14.8732 6.14037ZM29.6191 13.8601Q32.4755 11.1757 32.4755 6.26072L32.4755-73.8747Q32.4755-78.9108 35.0871-81.5224Q37.6986-84.134 42.7339-84.134L102.227-84.134Q107.262-84.134 109.874-81.5224Q112.485-78.9108 112.485-73.8747L112.485 3.60087Q112.485 8.63697 109.874 11.2485Q107.262 13.8601 102.227 13.8601ZM47.4716-61.0337L97.5515-61.0337Q98.0561-61.0337 98.4338-61.3813Q98.8116-61.7288 98.8116-62.2334Q98.8116-62.7369 98.4338-63.1152Q98.0561-63.4935 97.5515-63.4935L47.4716-63.4935Q46.9048-63.4935 46.5577-63.1152Q46.2107-62.7369 46.2107-62.2334Q46.2107-61.7288 46.5577-61.3813Q46.9048-61.0337 47.4716-61.0337ZM47.4716-42.9733L97.5515-42.9733Q98.0561-42.9733 98.4338-43.32Q98.8116-43.6666 98.8116-44.1711Q98.8116-44.6756 98.4338-45.0227Q98.0561-45.3697 97.5515-45.3697L47.4716-45.3697Q46.9048-45.3697 46.5577-45.0227Q46.2107-44.6756 46.2107-44.1711Q46.2107-43.6666 46.5577-43.32Q46.9048-42.9733 47.4716-42.9733ZM51.0179-6.78476L63.8509-6.78476Q66.2219-6.78476 67.6255-8.18838Q69.0291-9.592 69.0291-11.9007L69.0291-22.1925Q69.0291-24.5021 67.6255-25.9053Q66.2219-27.3084 63.8509-27.3084L51.0179-27.3084Q48.7081-27.3084 47.3045-25.9053Q45.9009-24.5021 45.9009-22.1925L45.9009-11.9007Q45.9009-9.592 47.3045-8.18838Q48.7081-6.78476 51.0179-6.78476ZM78.2468-24.8497L97.4891-24.8497Q97.9947-24.8497 98.3725-25.2274Q98.7502-25.6052 98.7502-26.1098Q98.7502-26.6143 98.3725-26.9614Q97.9947-27.3084 97.4891-27.3084L78.2468-27.3084Q77.7413-27.3084 77.3635-26.9614Q76.9858-26.6143 76.9858-26.1098Q76.9858-25.6052 77.3635-25.2274Q77.7413-24.8497 78.2468-24.8497ZM78.2468-6.78476L97.4891-6.78476Q97.9947-6.78476 98.3725-7.13184Q98.7502-7.47893 98.7502-7.9825Q98.7502-8.488 98.3725-8.86624Q97.9947-9.24448 97.4891-9.24448L78.2468-9.24448Q77.7413-9.24448 77.3635-8.86624Q76.9858-8.488 76.9858-7.9825Q76.9858-7.47893 77.3635-7.13184Q77.7413-6.78476 78.2468-6.78476Z"/>
  </g>
  <g id="Black-S" transform="matrix(1 0 0 1 2874.86 696)">
   <path d="M9.76562-7.08008Q9.76562-0.244141 14.502 3.95508Q19.2383 8.1543 27.002 8.1543L92.0898 8.1543Q99.2676 8.1543 103.296 4.12598Q107.324 0.0976562 107.324-7.08008L107.324-63.3301Q107.324-70.5078 103.296-74.5361Q99.2676-78.5645 92.0898-78.5645L45.3125-78.5645Q38.1348-78.5645 34.1064-74.5361Q30.0781-70.5078 30.0781-63.3301L30.0781-51.8066L25-51.8066Q17.8223-51.8066 13.7939-47.7783Q9.76562-43.75 9.76562-36.5723ZM23.9258-9.32617L23.9258-34.3262Q23.9258-35.8398 24.8291-36.7432Q25.7324-37.6465 27.2461-37.6465L30.0781-37.6465L30.0781-9.32617Q30.0781-7.8125 29.248-6.90918Q28.418-6.00586 27.002-6.00586Q25.6348-6.00586 24.7803-6.90918Q23.9258-7.8125 23.9258-9.32617ZM44.0918-6.00586Q44.2383-6.54297 44.2383-7.08008L44.2383-61.084Q44.2383-62.793 44.9951-63.5986Q45.752-64.4043 47.5586-64.4043L89.8438-64.4043Q91.6992-64.4043 92.4316-63.5986Q93.1641-62.793 93.1641-61.084L93.1641-9.32617Q93.1641-7.66602 92.4316-6.83594Q91.6992-6.00586 89.8438-6.00586ZM52.8809-49.6094L84.5215-49.6094Q85.9863-49.6094 87.0117-50.6348Q88.0371-51.6602 88.0371-53.125Q88.0371-54.5898 87.0361-55.5908Q86.0352-56.5918 84.5215-56.5918L52.8809-56.5918Q51.3672-56.5918 50.3662-55.5908Q49.3652-54.5898 49.3652-53.125Q49.3652-51.6602 50.3906-50.6348Q51.416-49.6094 52.8809-49.6094ZM52.8809-37.6465L84.5215-37.6465Q86.0352-37.6465 87.0361-38.6475Q88.0371-39.6484 88.0371-41.1133Q88.0371-42.5781 87.0117-43.6035Q85.9863-44.6289 84.5215-44.6289L52.8809-44.6289Q51.416-44.6289 50.3906-43.6035Q49.3652-42.5781 49.3652-41.1133Q49.3652-39.6484 50.3662-38.6475Q51.3672-37.6465 52.8809-37.6465ZM54.5898-14.3555L62.2559-14.3555Q64.6973-14.3555 66.1133-15.7959Q67.5293-17.2363 67.5293-19.6289L67.5293-27.3926Q67.5293-29.7852 66.1133-31.2012Q64.6973-32.6172 62.2559-32.6172L54.5898-32.6172Q52.1973-32.6172 50.7568-31.2012Q49.3164-29.7852 49.3164-27.3926L49.3164-19.6289Q49.3164-17.2363 50.7568-15.7959Q52.1973-14.3555 54.5898-14.3555ZM73.8281-25.6836L84.5215-25.6836Q85.9863-25.6836 86.9873-26.6846Q87.9883-27.6855 87.9883-29.1016Q87.9883-30.6152 86.9873-31.6162Q85.9863-32.6172 84.5215-32.6172L73.8281-32.6172Q72.3145-32.6172 71.3135-31.6162Q70.3125-30.6152 70.3125-29.1016Q70.3125-27.6855 71.3379-26.6846Q72.3633-25.6836 73.8281-25.6836ZM73.8281-14.3555L84.5215-14.3555Q85.9863-14.3555 86.9873-15.3564Q87.9883-16.3574 87.9883-17.8223Q87.9883-19.2871 86.9873-20.3125Q85.9863-21.3379 84.5215-21.3379L73.8281-21.3379Q72.3633-21.3379 71.3379-20.3125Q70.3125-19.2871 70.3125-17.8223Q70.3125-16.3574 71.3135-15.3564Q72.3145-14.3555 73.8281-14.3555Z"/>
  </g>
  <g id="Heavy-S" transform="matrix(1 0 0 1 2579.23 696)">
   <path d="M9.76562-6.93026Q9.76562-0.244141 14.1044 3.69002Q18.4431 7.62417 25.838 7.62417L90.5801 7.62417Q97.5389 7.62417 101.348 3.82634Q105.158 0.0285095 105.158-6.90721L105.158-63.526Q105.158-70.4617 101.348-74.2595Q97.5389-78.0574 90.5801-78.0574L43.9987-78.0574Q37.0399-78.0574 33.2306-74.2595Q29.4212-70.4617 29.4212-63.526L29.4212-50.6196L23.352-50.6196Q16.9464-50.6196 13.356-47.0638Q9.76562-43.508 9.76562-37.1715ZM22.2432-8.6347L22.2432-35.1214Q22.2432-36.5083 23.0601-37.3251Q23.877-38.142 25.2639-38.142L29.4212-38.142L29.4212-8.6347Q29.4212-6.93664 28.424-5.89503Q27.4269-4.85341 25.838-4.85341Q24.2749-4.85341 23.259-5.90655Q22.2432-6.95969 22.2432-8.6347ZM41.5218-4.85341Q41.8988-5.88607 41.8988-7.03398L41.8988-61.7178Q41.8988-63.6804 42.817-64.6301Q43.7352-65.5798 45.7377-65.5798L88.8411-65.5798Q90.881-65.5798 91.7805-64.6301Q92.68-63.6804 92.68-61.7178L92.68-8.71538Q92.68-6.79016 91.7805-5.82178Q90.881-4.85341 88.8411-4.85341ZM50.7604-50.4276L83.83-50.4276Q85.2142-50.4276 86.1762-51.3954Q87.1382-52.3631 87.1382-53.7473Q87.1382-55.12 86.1948-56.0633Q85.2515-57.0067 83.83-57.0067L50.7604-57.0067Q49.3274-57.0067 48.3782-56.0633Q47.4291-55.12 47.4291-53.7473Q47.4291-52.3631 48.3969-51.3954Q49.3647-50.4276 50.7604-50.4276ZM50.7604-38.142L83.83-38.142Q85.2515-38.142 86.1948-39.0796Q87.1382-40.0172 87.1382-41.4014Q87.1382-42.7856 86.1762-43.7533Q85.2142-44.7211 83.83-44.7211L50.7604-44.7211Q49.3647-44.7211 48.3969-43.7533Q47.4291-42.7856 47.4291-41.4014Q47.4291-40.0172 48.3782-39.0796Q49.3274-38.142 50.7604-38.142ZM52.5615-13.9521L60.7462-13.9521Q63.153-13.9521 64.5402-15.358Q65.9274-16.7638 65.9274-19.1218L65.9274-27.2543Q65.9274-29.6238 64.5402-31.0053Q63.153-32.3867 60.7462-32.3867L52.5615-32.3867Q50.2035-32.3867 48.7977-31.0053Q47.3918-29.6238 47.3918-27.2543L47.3918-19.1218Q47.3918-16.7638 48.7977-15.358Q50.2035-13.9521 52.5615-13.9521ZM72.3415-25.8449L83.83-25.8449Q85.2142-25.8449 86.1575-26.7883Q87.1009-27.7316 87.1009-29.067Q87.1009-30.4885 86.1575-31.4376Q85.2142-32.3867 83.83-32.3867L72.3415-32.3867Q70.9085-32.3867 69.9651-31.4376Q69.0218-30.4885 69.0218-29.067Q69.0218-27.7316 69.9838-26.7883Q70.9458-25.8449 72.3415-25.8449ZM72.3415-13.9521L83.83-13.9521Q85.2142-13.9521 86.1575-14.8955Q87.1009-15.8388 87.1009-17.2115Q87.1009-18.6072 86.1575-19.5749Q85.2142-20.5427 83.83-20.5427L72.3415-20.5427Q70.9458-20.5427 69.9838-19.5749Q69.0218-18.6072 69.0218-17.2115Q69.0218-15.8388 69.9651-14.8955Q70.9085-13.9521 72.3415-13.9521Z"/>
  </g>
  <g id="Bold-S" transform="matrix(1 0 0 1 2283.73 696)">
   <path d="M9.76562-6.7627Q9.76562-0.244141 13.6597 3.39355Q17.5537 7.03125 24.5361 7.03125L88.8916 7.03125Q95.6055 7.03125 99.1699 3.49121Q102.734-0.0488281 102.734-6.71387L102.734-63.7451Q102.734-70.4102 99.1699-73.9502Q95.6055-77.4902 88.8916-77.4902L42.5293-77.4902Q35.8154-77.4902 32.251-73.9502Q28.6865-70.4102 28.6865-63.7451L28.6865-49.292L21.5088-49.292Q15.9668-49.292 12.8662-46.2646Q9.76562-43.2373 9.76562-37.8418ZM20.3613-7.86133L20.3613-36.0107Q20.3613-37.2559 21.0815-37.9761Q21.8018-38.6963 23.0469-38.6963L28.6865-38.6963L28.6865-7.86133Q28.6865-5.95703 27.5024-4.76074Q26.3184-3.56445 24.5361-3.56445Q22.7539-3.56445 21.5576-4.78516Q20.3613-6.00586 20.3613-7.86133ZM38.6475-3.56445Q39.2822-5.15137 39.2822-6.98242L39.2822-62.4268Q39.2822-64.6729 40.3809-65.7837Q41.4795-66.8945 43.7012-66.8945L87.7197-66.8945Q89.9658-66.8945 91.0522-65.7837Q92.1387-64.6729 92.1387-62.4268L92.1387-8.03223Q92.1387-5.81055 91.0522-4.6875Q89.9658-3.56445 87.7197-3.56445ZM48.3887-51.3428L83.0566-51.3428Q84.3506-51.3428 85.2417-52.2461Q86.1328-53.1494 86.1328-54.4434Q86.1328-55.7129 85.2539-56.5918Q84.375-57.4707 83.0566-57.4707L48.3887-57.4707Q47.0459-57.4707 46.1548-56.5918Q45.2637-55.7129 45.2637-54.4434Q45.2637-53.1494 46.167-52.2461Q47.0703-51.3428 48.3887-51.3428ZM48.3887-38.6963L83.0566-38.6963Q84.375-38.6963 85.2539-39.563Q86.1328-40.4297 86.1328-41.7236Q86.1328-43.0176 85.2417-43.9209Q84.3506-44.8242 83.0566-44.8242L48.3887-44.8242Q47.0703-44.8242 46.167-43.9209Q45.2637-43.0176 45.2637-41.7236Q45.2637-40.4297 46.1548-39.563Q47.0459-38.6963 48.3887-38.6963ZM50.293-13.501L59.0576-13.501Q61.4258-13.501 62.7808-14.8682Q64.1357-16.2354 64.1357-18.5547L64.1357-27.0996Q64.1357-29.4434 62.7808-30.7861Q61.4258-32.1289 59.0576-32.1289L50.293-32.1289Q47.9736-32.1289 46.6064-30.7861Q45.2393-29.4434 45.2393-27.0996L45.2393-18.5547Q45.2393-16.2354 46.6064-14.8682Q47.9736-13.501 50.293-13.501ZM70.6787-26.0254L83.0566-26.0254Q84.3506-26.0254 85.2295-26.9043Q86.1084-27.7832 86.1084-29.0283Q86.1084-30.3467 85.2295-31.2378Q84.3506-32.1289 83.0566-32.1289L70.6787-32.1289Q69.3359-32.1289 68.457-31.2378Q67.5781-30.3467 67.5781-29.0283Q67.5781-27.7832 68.4692-26.9043Q69.3604-26.0254 70.6787-26.0254ZM70.6787-13.501L83.0566-13.501Q84.3506-13.501 85.2295-14.3799Q86.1084-15.2588 86.1084-16.5283Q86.1084-17.8467 85.2295-18.75Q84.3506-19.6533 83.0566-19.6533L70.6787-19.6533Q69.3604-19.6533 68.4692-18.75Q67.5781-17.8467 67.5781-16.5283Q67.5781-15.2588 68.457-14.3799Q69.3359-13.501 70.6787-13.501Z"/>
  </g>
  <g id="Semibold-S" transform="matrix(1 0 0 1 1987.85 696)">
   <path d="M9.76562-6.64717Q9.76562-0.244141 13.3531 3.18916Q16.9405 6.62246 23.6386 6.62246L87.7274 6.62246Q94.2725 6.62246 97.6681 3.26016Q101.064-0.102148 101.064-6.58057L101.064-63.8962Q101.064-70.3746 97.6681-73.7369Q94.2725-77.0992 87.7274-77.0992L41.5162-77.0992Q34.9712-77.0992 31.5756-73.7369Q28.18-70.3746 28.18-63.8962L28.18-48.3767L20.238-48.3767Q15.2914-48.3767 12.5285-45.7137Q9.76562-43.0507 9.76562-38.3039ZM19.0639-7.32812L19.0639-36.6239Q19.0639-37.7713 19.7174-38.4249Q20.371-39.0784 21.5184-39.0784L28.18-39.0784L28.18-7.32812Q28.18-5.28164 26.867-3.97871Q25.5541-2.67578 23.6386-2.67578Q21.7053-2.67578 20.3846-4.01201Q19.0639-5.34824 19.0639-7.32812ZM36.6657-2.67578Q37.4782-4.64482 37.4782-6.94688L37.4782-62.9155Q37.4782-65.3571 38.7013-66.5791Q39.9243-67.801 42.2971-67.801L86.9466-67.801Q89.3349-67.801 90.5501-66.5791Q91.7654-65.3571 91.7654-62.9155L91.7654-7.56123Q91.7654-5.13516 90.5501-3.90547Q89.3349-2.67578 86.9466-2.67578ZM46.7535-51.9737L82.5234-51.9737Q83.7552-51.9737 84.5974-52.8326Q85.4396-53.6915 85.4396-54.9232Q85.4396-56.1217 84.6052-56.9562Q83.7707-57.7906 82.5234-57.7906L46.7535-57.7906Q45.4729-57.7906 44.6218-56.9562Q43.7707-56.1217 43.7707-54.9232Q43.7707-53.6915 44.6296-52.8326Q45.4885-51.9737 46.7535-51.9737ZM46.7535-39.0784L82.5234-39.0784Q83.7707-39.0784 84.6052-39.8962Q85.4396-40.7141 85.4396-41.9458Q85.4396-43.1775 84.5974-44.0364Q83.7552-44.8953 82.5234-44.8953L46.7535-44.8953Q45.4885-44.8953 44.6296-44.0364Q43.7707-43.1775 43.7707-41.9458Q43.7707-40.7141 44.6218-39.8962Q45.4729-39.0784 46.7535-39.0784ZM48.7289-13.1899L57.8935-13.1899Q60.235-13.1899 61.5677-14.5305Q62.9005-15.871 62.9005-18.1637L62.9005-26.993Q62.9005-29.3189 61.5677-30.6351Q60.235-31.9512 57.8935-31.9512L48.7289-31.9512Q46.4362-31.9512 45.0957-30.6351Q43.7552-29.3189 43.7552-26.993L43.7552-18.1637Q43.7552-15.871 45.0957-14.5305Q46.4362-13.1899 48.7289-13.1899ZM69.5323-26.1498L82.5234-26.1498Q83.7552-26.1498 84.5896-26.9843Q85.4241-27.8188 85.4241-29.0017Q85.4241-30.2489 84.5896-31.1Q83.7552-31.9512 82.5234-31.9512L69.5323-31.9512Q68.2518-31.9512 67.4173-31.1Q66.5828-30.2489 66.5828-29.0017Q66.5828-27.8188 67.425-26.9843Q68.2673-26.1498 69.5323-26.1498ZM69.5323-13.1899L82.5234-13.1899Q83.7552-13.1899 84.5896-14.0244Q85.4241-14.8589 85.4241-16.0573Q85.4241-17.3224 84.5896-18.1812Q83.7552-19.0401 82.5234-19.0401L69.5323-19.0401Q68.2673-19.0401 67.425-18.1812Q66.5828-17.3224 66.5828-16.0573Q66.5828-14.8589 67.4173-14.0244Q68.2518-13.1899 69.5323-13.1899Z"/>
  </g>
  <g id="Medium-S" transform="matrix(1 0 0 1 1691.77 696)">
   <path d="M9.76562-6.55957Q9.76562-0.244141 13.1206 3.03418Q16.4756 6.3125 22.958 6.3125L86.8447 6.3125Q93.2617 6.3125 96.5293 3.08496Q99.7969-0.142578 99.7969-6.47949L99.7969-64.0107Q99.7969-70.3477 96.5293-73.5752Q93.2617-76.8027 86.8447-76.8027L40.748-76.8027Q34.3311-76.8027 31.0635-73.5752Q27.7959-70.3477 27.7959-64.0107L27.7959-47.6826L19.2744-47.6826Q14.7793-47.6826 12.2725-45.2959Q9.76562-42.9092 9.76562-38.6543ZM18.0801-6.92383L18.0801-37.0889Q18.0801-38.1621 18.6831-38.7651Q19.2861-39.3682 20.3594-39.3682L27.7959-39.3682L27.7959-6.92383Q27.7959-4.76953 26.3853-3.38574Q24.9746-2.00195 22.958-2.00195Q20.9102-2.00195 19.4951-3.42578Q18.0801-4.84961 18.0801-6.92383ZM35.1631-2.00195Q36.1104-4.26074 36.1104-6.91992L36.1104-63.2861Q36.1104-65.876 37.4277-67.1821Q38.7451-68.4883 41.2324-68.4883L86.3604-68.4883Q88.8564-68.4883 90.1694-67.1821Q91.4824-65.876 91.4824-63.2861L91.4824-7.2041Q91.4824-4.62305 90.1694-3.3125Q88.8564-2.00195 86.3604-2.00195ZM45.5137-52.4521L82.1191-52.4521Q83.3037-52.4521 84.1089-53.2773Q84.9141-54.1025 84.9141-55.2871Q84.9141-56.4316 84.1133-57.2324Q83.3125-58.0332 82.1191-58.0332L45.5137-58.0332Q44.2803-58.0332 43.4595-57.2324Q42.6387-56.4316 42.6387-55.2871Q42.6387-54.1025 43.4639-53.2773Q44.2891-52.4521 45.5137-52.4521ZM45.5137-39.3682L82.1191-39.3682Q83.3125-39.3682 84.1133-40.1489Q84.9141-40.9297 84.9141-42.1143Q84.9141-43.2988 84.1089-44.124Q83.3037-44.9492 82.1191-44.9492L45.5137-44.9492Q44.2891-44.9492 43.4639-44.124Q42.6387-43.2988 42.6387-42.1143Q42.6387-40.9297 43.4595-40.1489Q44.2803-39.3682 45.5137-39.3682ZM47.543-12.9541L57.0107-12.9541Q59.332-12.9541 60.6479-14.2744Q61.9639-15.5947 61.9639-17.8672L61.9639-26.9121Q61.9639-29.2246 60.6479-30.5205Q59.332-31.8164 57.0107-31.8164L47.543-31.8164Q45.2705-31.8164 43.9502-30.5205Q42.6299-29.2246 42.6299-26.9121L42.6299-17.8672Q42.6299-15.5947 43.9502-14.2744Q45.2705-12.9541 47.543-12.9541ZM68.6631-26.2441L82.1191-26.2441Q83.3037-26.2441 84.1045-27.0449Q84.9053-27.8457 84.9053-28.9814Q84.9053-30.1748 84.1045-30.9956Q83.3037-31.8164 82.1191-31.8164L68.6631-31.8164Q67.4297-31.8164 66.6289-30.9956Q65.8281-30.1748 65.8281-28.9814Q65.8281-27.8457 66.6333-27.0449Q67.4385-26.2441 68.6631-26.2441ZM68.6631-12.9541L82.1191-12.9541Q83.3037-12.9541 84.1045-13.7549Q84.9053-14.5557 84.9053-15.7002Q84.9053-16.9248 84.1045-17.75Q83.3037-18.5752 82.1191-18.5752L68.6631-18.5752Q67.4385-18.5752 66.6333-17.75Q65.8281-16.9248 65.8281-15.7002Q65.8281-14.5557 66.6289-13.7549Q67.4297-12.9541 68.6631-12.9541Z"/>
  </g>
  <g id="Regular-S" transform="matrix(1 0 0 1 1395.89 696)">
   <path d="M9.76562-6.44531Q9.76562-0.244141 12.8174 2.83203Q15.8691 5.9082 22.0703 5.9082L85.6934 5.9082Q91.9434 5.9082 95.0439 2.85645Q98.1445-0.195312 98.1445-6.34766L98.1445-64.1602Q98.1445-70.3125 95.0439-73.3643Q91.9434-76.416 85.6934-76.416L39.7461-76.416Q33.4961-76.416 30.3955-73.3643Q27.2949-70.3125 27.2949-64.1602L27.2949-46.7773L18.0176-46.7773Q14.1113-46.7773 11.9385-44.751Q9.76562-42.7246 9.76562-39.1113ZM16.7969-6.39648L16.7969-37.6953Q16.7969-38.6719 17.334-39.209Q17.8711-39.7461 18.8477-39.7461L27.2949-39.7461L27.2949-6.39648Q27.2949-4.10156 25.7568-2.6123Q24.2188-1.12305 22.0703-1.12305Q19.873-1.12305 18.335-2.66113Q16.7969-4.19922 16.7969-6.39648ZM33.2031-1.12305Q34.3262-3.75977 34.3262-6.88477L34.3262-63.7695Q34.3262-66.5527 35.7666-67.9688Q37.207-69.3848 39.8438-69.3848L85.5957-69.3848Q88.2324-69.3848 89.6729-67.9688Q91.1133-66.5527 91.1133-63.7695L91.1133-6.73828Q91.1133-3.95508 89.6729-2.53906Q88.2324-1.12305 85.5957-1.12305ZM43.8965-53.0762L81.5918-53.0762Q82.7148-53.0762 83.4717-53.8574Q84.2285-54.6387 84.2285-55.7617Q84.2285-56.8359 83.4717-57.5928Q82.7148-58.3496 81.5918-58.3496L43.8965-58.3496Q42.7246-58.3496 41.9434-57.5928Q41.1621-56.8359 41.1621-55.7617Q41.1621-54.6387 41.9434-53.8574Q42.7246-53.0762 43.8965-53.0762ZM43.8965-39.7461L81.5918-39.7461Q82.7148-39.7461 83.4717-40.4785Q84.2285-41.2109 84.2285-42.334Q84.2285-43.457 83.4717-44.2383Q82.7148-45.0195 81.5918-45.0195L43.8965-45.0195Q42.7246-45.0195 41.9434-44.2383Q41.1621-43.457 41.1621-42.334Q41.1621-41.2109 41.9434-40.4785Q42.7246-39.7461 43.8965-39.7461ZM45.9961-12.6465L55.8594-12.6465Q58.1543-12.6465 59.4482-13.9404Q60.7422-15.2344 60.7422-17.4805L60.7422-26.8066Q60.7422-29.1016 59.4482-30.3711Q58.1543-31.6406 55.8594-31.6406L45.9961-31.6406Q43.75-31.6406 42.4561-30.3711Q41.1621-29.1016 41.1621-26.8066L41.1621-17.4805Q41.1621-15.2344 42.4561-13.9404Q43.75-12.6465 45.9961-12.6465ZM67.5293-26.3672L81.5918-26.3672Q82.7148-26.3672 83.4717-27.124Q84.2285-27.8809 84.2285-28.9551Q84.2285-30.0781 83.4717-30.8594Q82.7148-31.6406 81.5918-31.6406L67.5293-31.6406Q66.3574-31.6406 65.6006-30.8594Q64.8438-30.0781 64.8438-28.9551Q64.8438-27.8809 65.6006-27.124Q66.3574-26.3672 67.5293-26.3672ZM67.5293-12.6465L81.5918-12.6465Q82.7148-12.6465 83.4717-13.4033Q84.2285-14.1602 84.2285-15.2344Q84.2285-16.4062 83.4717-17.1875Q82.7148-17.9688 81.5918-17.9688L67.5293-17.9688Q66.3574-17.9688 65.6006-17.1875Q64.8438-16.4062 64.8438-15.2344Q64.8438-14.1602 65.6006-13.4033Q66.3574-12.6465 67.5293-12.6465Z"/>
  </g>
  <g id="Light-S" transform="matrix(1 0 0 1 1100.45 696)">
   <path d="M9.76562-5.2798Q9.76562 0.0737508 12.4844 2.86992Q15.2031 5.6661 20.6777 5.6661L83.9828 5.6661Q89.7789 5.6661 92.6903 2.78079Q95.6017-0.104523 95.6017-5.83293L95.6017-64.6144Q95.6017-70.3428 92.6903-73.2281Q89.7789-76.1134 83.9828-76.1134L37.7632-76.1134Q31.9674-76.1134 29.0484-73.2281Q26.1294-70.3428 26.1294-64.6144L26.1294-45.6421L17.1094-45.6421Q13.6421-45.6421 11.7039-43.8428Q9.76562-42.0436 9.76562-38.839ZM15.1924-5.27649L15.1924-37.8316Q15.1924-38.9595 15.8431-39.595Q16.4937-40.2306 17.6519-40.2306L26.1294-40.2306L26.1294-5.27649Q26.1294-2.86026 24.5611-1.31048Q22.9927 0.239309 20.6777 0.239309Q18.3291 0.239309 16.7608-1.34417Q15.1924-2.92765 15.1924-5.27649ZM30.085 0.239309Q31.5562-2.23109 31.5562-5.58294L31.5562-64.3145Q31.5562-67.4609 33.1858-69.0737Q34.8155-70.6866 37.8609-70.6866L83.8852-70.6866Q86.9306-70.6866 88.5602-69.0737Q90.1899-67.4609 90.1899-64.3145L90.1899-6.13276Q90.1899-2.9864 88.5602-1.37355Q86.9306 0.239309 83.8852 0.239309ZM41.8076-53.8177L79.9873-53.8177Q80.8833-53.8177 81.4963-54.4402Q82.1093-55.0626 82.1093-55.9586Q82.1093-56.8207 81.4963-57.4338Q80.8833-58.047 79.9873-58.047L41.8076-58.047Q40.8628-58.047 40.2405-57.4338Q39.6182-56.8207 39.6182-55.9586Q39.6182-55.0626 40.2405-54.4402Q40.8628-53.8177 41.8076-53.8177ZM41.8076-40.2306L79.9873-40.2306Q80.8833-40.2306 81.4963-40.8192Q82.1093-41.4078 82.1093-42.3037Q82.1093-43.1997 81.4963-43.822Q80.8833-44.4443 79.9873-44.4443L41.8076-44.4443Q40.8628-44.4443 40.2405-43.822Q39.6182-43.1997 39.6182-42.3037Q39.6182-41.4078 40.2405-40.8192Q40.8628-40.2306 41.8076-40.2306ZM44.1193-12.7373L54.0431-12.7373Q56.2017-12.7373 57.4351-13.9707Q58.6685-15.2041 58.6685-17.3139L58.6685-26.2466Q58.6685-28.3902 57.4351-29.6068Q56.2017-30.8233 54.0431-30.8233L44.1193-30.8233Q42.0092-30.8233 40.7758-29.6068Q39.5424-28.3902 39.5424-26.2466L39.5424-17.3139Q39.5424-15.2041 40.7758-13.9707Q42.0092-12.7373 44.1193-12.7373ZM65.5919-26.5943L79.9721-26.5943Q80.8683-26.5943 81.4813-27.2073Q82.0943-27.8203 82.0943-28.6827Q82.0943-29.5787 81.4813-30.201Q80.8683-30.8233 79.9721-30.8233L65.5919-30.8233Q64.6622-30.8233 64.0491-30.201Q63.4361-29.5787 63.4361-28.6827Q63.4361-27.8203 64.0491-27.2073Q64.6622-26.5943 65.5919-26.5943ZM65.5919-12.7373L79.9721-12.7373Q80.8683-12.7373 81.4813-13.3428Q82.0943-13.9483 82.0943-14.8104Q82.0943-15.7402 81.4813-16.3701Q80.8683-17.0001 79.9721-17.0001L65.5919-17.0001Q64.6622-17.0001 64.0491-16.3701Q63.4361-15.7402 63.4361-14.8104Q63.4361-13.9483 64.0491-13.3428Q64.6622-12.7373 65.5919-12.7373Z"/>
  </g>
  <g id="Thin-S" transform="matrix(1 0 0 1 805.42 696)">
   <path d="M9.76562-3.7383Q9.76562 0.494188 12.0439 2.92004Q14.3222 5.34589 18.8358 5.34589L81.7206 5.34589Q86.9162 5.34589 89.5774 2.68072Q92.2385 0.0155541 92.2385-5.15215L92.2385-65.2151Q92.2385-70.3828 89.5774-73.048Q86.9162-75.7131 81.7206-75.7131L35.1407-75.7131Q29.9456-75.7131 27.2668-73.048Q24.5879-70.3828 24.5879-65.2151L24.5879-44.1406L15.9083-44.1406Q13.0216-44.1406 11.3936-42.6417Q9.76562-41.1428 9.76562-38.4787ZM13.0704-3.79521L13.0704-38.0119Q13.0704-39.3399 13.8712-40.1056Q14.6721-40.8713 16.0704-40.8713L24.5879-40.8713L24.5879-3.79521Q24.5879-1.21854 22.9795 0.411298Q21.3712 2.04113 18.8358 2.04113Q16.2871 2.04113 14.6788 0.397615Q13.0704-1.2459 13.0704-3.79521ZM25.961 2.04113Q27.8927-0.209292 27.8927-3.86116L27.8927-65.0353Q27.8927-68.662 29.7726-70.5352Q31.6524-72.4084 35.2384-72.4084L81.6229-72.4084Q85.2088-72.4084 87.0887-70.5352Q88.9686-68.662 88.9686-65.0353L88.9686-5.33191Q88.9686-1.70524 87.0887 0.167945Q85.2088 2.04113 81.6229 2.04113ZM39.0448-54.7985L77.8653-54.7985Q78.4609-54.7985 78.8837-55.2109Q79.3065-55.6233 79.3065-56.2189Q79.3065-56.8005 78.8837-57.2236Q78.4609-57.6467 77.8653-57.6467L39.0448-57.6467Q38.4004-57.6467 37.9883-57.2236Q37.5762-56.8005 37.5762-56.2189Q37.5762-55.6233 37.9883-55.2109Q38.4004-54.7985 39.0448-54.7985ZM39.0448-40.8713L77.8653-40.8713Q78.4609-40.8713 78.8837-41.2697Q79.3065-41.6681 79.3065-42.2637Q79.3065-42.8593 78.8837-43.2714Q78.4609-43.6835 77.8653-43.6835L39.0448-43.6835Q38.4004-43.6835 37.9883-43.2714Q37.5762-42.8593 37.5762-42.2637Q37.5762-41.6681 37.9883-41.2697Q38.4004-40.8713 39.0448-40.8713ZM41.637-12.8574L51.6409-12.8574Q53.6192-12.8574 54.7726-14.0107Q55.9259-15.1641 55.9259-17.0936L55.9259-25.506Q55.9259-27.4495 54.7726-28.5959Q53.6192-29.7422 51.6409-29.7422L41.637-29.7422Q39.7069-29.7422 38.5535-28.5959Q37.4002-27.4495 37.4002-25.506L37.4002-17.0936Q37.4002-15.1641 38.5535-14.0107Q39.7069-12.8574 41.637-12.8574ZM63.0296-26.8946L77.8299-26.8946Q78.426-26.8946 78.8489-27.3175Q79.2717-27.7403 79.2717-28.3225Q79.2717-28.9181 78.8489-29.3301Q78.426-29.7422 77.8299-29.7422L63.0296-29.7422Q62.4201-29.7422 61.9972-29.3301Q61.5744-28.9181 61.5744-28.3225Q61.5744-27.7403 61.9972-27.3175Q62.4201-26.8946 63.0296-26.8946ZM63.0296-12.8574L77.8299-12.8574Q78.426-12.8574 78.8489-13.2627Q79.2717-13.6681 79.2717-14.2497Q79.2717-14.8593 78.8489-15.2891Q78.426-15.7189 77.8299-15.7189L63.0296-15.7189Q62.4201-15.7189 61.9972-15.2891Q61.5744-14.8593 61.5744-14.2497Q61.5744-13.6681 61.9972-13.2627Q62.4201-12.8574 63.0296-12.8574Z"/>
  </g>
  <g id="Ultralight-S" transform="matrix(1 0 0 1 509.57 696)">
   <path d="M9.76562-2.94876Q9.76562 0.709534 11.8183 2.94571Q13.871 5.18188 17.8925 5.18188L80.5618 5.18188Q85.45 5.18188 87.9829 2.62947Q90.5159 0.0770569 90.5159-4.80347L90.5159-65.5228Q90.5159-70.4033 87.9829-72.9557Q85.45-75.5081 80.5618-75.5081L33.7975-75.5081Q28.9101-75.5081 26.3542-72.9557Q23.7984-70.4033 23.7984-65.5228L23.7984-43.3716L15.2931-43.3716Q12.7037-43.3716 11.2347-42.0265Q9.76562-40.6815 9.76562-38.2942ZM11.9835-3.0365L11.9835-38.1042Q11.9835-39.5348 12.8613-40.3671Q13.739-41.1995 15.2603-41.1995L23.7984-41.1995L23.7984-3.0365Q23.7984-0.377655 22.1695 1.29318Q20.5406 2.96402 17.8925 2.96402Q15.2412 2.96402 13.6124 1.28975Q11.9835-0.384521 11.9835-3.0365ZM23.8487 2.96402Q26.0162 0.826263 26.0162-2.97928L26.0162-65.4045Q26.0162-69.2772 28.0243-71.2837Q30.0323-73.2903 33.8951-73.2903L80.4642-73.2903Q84.3269-73.2903 86.335-71.2837Q88.343-69.2772 88.343-65.4045L88.343-4.92172Q88.343-1.04904 86.335 0.957489Q84.3269 2.96402 80.4642 2.96402ZM37.6297-55.3009L76.7784-55.3009Q77.2202-55.3009 77.5455-55.6057Q77.8709-55.9105 77.8709-56.3522Q77.8709-56.7902 77.5455-57.1159Q77.2202-57.4417 76.7784-57.4417L37.6297-57.4417Q37.1391-57.4417 36.8347-57.1159Q36.5303-56.7902 36.5303-56.3522Q36.5303-55.9105 36.8347-55.6057Q37.1391-55.3009 37.6297-55.3009ZM37.6297-41.1995L76.7784-41.1995Q77.2202-41.1995 77.5455-41.5005Q77.8709-41.8015 77.8709-42.2432Q77.8709-42.6849 77.5455-42.9893Q77.2202-43.2938 76.7784-43.2938L37.6297-43.2938Q37.1391-43.2938 36.8347-42.9893Q36.5303-42.6849 36.5303-42.2432Q36.5303-41.8015 36.8347-41.5005Q37.1391-41.1995 37.6297-41.1995ZM40.3656-12.9189L50.4105-12.9189Q52.2964-12.9189 53.4088-14.0312Q54.5212-15.1436 54.5212-16.9807L54.5212-25.1266Q54.5212-26.9676 53.4088-28.0781Q52.2964-29.1885 50.4105-29.1885L40.3656-29.1885Q38.5277-29.1885 37.4153-28.0781Q36.3029-26.9676 36.3029-25.1266L36.3029-16.9807Q36.3029-15.1436 37.4153-14.0312Q38.5277-12.9189 40.3656-12.9189ZM61.7172-27.0485L76.7326-27.0485Q77.1751-27.0485 77.5005-27.3739Q77.8259-27.6993 77.8259-28.138Q77.8259-28.5797 77.5005-28.8841Q77.1751-29.1885 76.7326-29.1885L61.7172-29.1885Q61.2717-29.1885 60.9463-28.8841Q60.6209-28.5797 60.6209-28.138Q60.6209-27.6993 60.9463-27.3739Q61.2717-27.0485 61.7172-27.0485ZM61.7172-12.9189L76.7326-12.9189Q77.1751-12.9189 77.5005-13.2217Q77.8259-13.5246 77.8259-13.9626Q77.8259-14.4081 77.5005-14.7354Q77.1751-15.0627 76.7326-15.0627L61.7172-15.0627Q61.2717-15.0627 60.9463-14.7354Q60.6209-14.4081 60.6209-13.9626Q60.6209-13.5246 60.9463-13.2217Q61.2717-12.9189 61.7172-12.9189Z"/>
  </g>
 </g>
</svg>
