<?xml version="1.0" encoding="UTF-8"?>
<!--Generator: Apple Native CoreSVG 175-->
<!DOCTYPE svg
PUBLIC "-//W3C//DTD SVG 1.1//EN"
       "http://www.w3.org/Graphics/SVG/1.1/DTD/svg11.dtd">
<svg version="1.1" xmlns="http://www.w3.org/2000/svg" xmlns:xlink="http://www.w3.org/1999/xlink" width="3300" height="2200">
 <!--glyph: "uni10022A.medium", point size: 100.0, font version: "17.3d3e1", template writer version: "65.1"-->
 <g id="Notes">
  <rect height="2200" id="artboard" style="fill:white;opacity:1" width="3300" x="0" y="0"/>
  <line style="fill:none;stroke:black;opacity:1;stroke-width:0.5;" x1="263" x2="3036" y1="292" y2="292"/>
  <text style="stroke:none;fill:black;font-family:sans-serif;font-size:13;font-weight:bold;" transform="matrix(1 0 0 1 263 322)">Weight/Scale Variations</text>
  <text style="stroke:none;fill:black;font-family:sans-serif;font-size:13;text-anchor:middle;" transform="matrix(1 0 0 1 559.711 322)">Ultralight</text>
  <text style="stroke:none;fill:black;font-family:sans-serif;font-size:13;text-anchor:middle;" transform="matrix(1 0 0 1 856.422 322)">Thin</text>
  <text style="stroke:none;fill:black;font-family:sans-serif;font-size:13;text-anchor:middle;" transform="matrix(1 0 0 1 1153.13 322)">Light</text>
  <text style="stroke:none;fill:black;font-family:sans-serif;font-size:13;text-anchor:middle;" transform="matrix(1 0 0 1 1449.84 322)">Regular</text>
  <text style="stroke:none;fill:black;font-family:sans-serif;font-size:13;text-anchor:middle;" transform="matrix(1 0 0 1 1746.56 322)">Medium</text>
  <text style="stroke:none;fill:black;font-family:sans-serif;font-size:13;text-anchor:middle;" transform="matrix(1 0 0 1 2043.27 322)">Semibold</text>
  <text style="stroke:none;fill:black;font-family:sans-serif;font-size:13;text-anchor:middle;" transform="matrix(1 0 0 1 2339.98 322)">Bold</text>
  <text style="stroke:none;fill:black;font-family:sans-serif;font-size:13;text-anchor:middle;" transform="matrix(1 0 0 1 2636.69 322)">Heavy</text>
  <text style="stroke:none;fill:black;font-family:sans-serif;font-size:13;text-anchor:middle;" transform="matrix(1 0 0 1 2933.4 322)">Black</text>
  <line style="fill:none;stroke:black;opacity:1;stroke-width:0.5;" x1="263" x2="3036" y1="1903" y2="1903"/>
  <g transform="matrix(1 0 0 1 263 1933)">
   <path d="M9.24805 0.830078Q10.8691 0.830078 12.2949 0.214844Q13.7207-0.400391 14.8096-1.49414Q15.8984-2.58789 16.5186-4.01367Q17.1387-5.43945 17.1387-7.05078Q17.1387-8.66211 16.5186-10.0879Q15.8984-11.5137 14.8047-12.6074Q13.7109-13.7012 12.2852-14.3164Q10.8594-14.9316 9.23828-14.9316Q7.62695-14.9316 6.20117-14.3164Q4.77539-13.7012 3.69141-12.6074Q2.60742-11.5137 1.9873-10.0879Q1.36719-8.66211 1.36719-7.05078Q1.36719-5.43945 1.9873-4.01367Q2.60742-2.58789 3.69629-1.49414Q4.78516-0.400391 6.21094 0.214844Q7.63672 0.830078 9.24805 0.830078ZM9.24805-0.654297Q7.91992-0.654297 6.7627-1.14746Q5.60547-1.64062 4.73145-2.51953Q3.85742-3.39844 3.36426-4.56055Q2.87109-5.72266 2.87109-7.05078Q2.87109-8.37891 3.35938-9.54102Q3.84766-10.7031 4.72168-11.582Q5.5957-12.4609 6.75293-12.9541Q7.91016-13.4473 9.23828-13.4473Q10.5762-13.4473 11.7334-12.9541Q12.8906-12.4609 13.7695-11.582Q14.6484-10.7031 15.1465-9.54102Q15.6445-8.37891 15.6445-7.05078Q15.6445-5.72266 15.1514-4.56055Q14.6582-3.39844 13.7842-2.51953Q12.9102-1.64062 11.748-1.14746Q10.5859-0.654297 9.24805-0.654297ZM5.6543-7.05078Q5.6543-6.72852 5.85938-6.52832Q6.06445-6.32812 6.40625-6.32812L8.51562-6.32812L8.51562-4.20898Q8.51562-3.88672 8.71094-3.67676Q8.90625-3.4668 9.23828-3.4668Q9.56055-3.4668 9.77051-3.67676Q9.98047-3.88672 9.98047-4.20898L9.98047-6.32812L12.0898-6.32812Q12.4219-6.32812 12.627-6.52832Q12.832-6.72852 12.832-7.05078Q12.832-7.38281 12.627-7.58789Q12.4219-7.79297 12.0898-7.79297L9.98047-7.79297L9.98047-9.90234Q9.98047-10.2344 9.77051-10.4443Q9.56055-10.6543 9.23828-10.6543Q8.90625-10.6543 8.71094-10.4443Q8.51562-10.2344 8.51562-9.90234L8.51562-7.79297L6.40625-7.79297Q6.06445-7.79297 5.85938-7.58789Q5.6543-7.38281 5.6543-7.05078Z"/>
  </g>
  <g transform="matrix(1 0 0 1 281.867 1933)">
   <path d="M11.709 2.91016Q13.75 2.91016 15.5518 2.12891Q17.3535 1.34766 18.7305-0.0292969Q20.1074-1.40625 20.8887-3.20801Q21.6699-5.00977 21.6699-7.05078Q21.6699-9.0918 20.8887-10.8936Q20.1074-12.6953 18.7305-14.0723Q17.3535-15.4492 15.5469-16.2305Q13.7402-17.0117 11.6992-17.0117Q9.6582-17.0117 7.85645-16.2305Q6.05469-15.4492 4.68262-14.0723Q3.31055-12.6953 2.5293-10.8936Q1.74805-9.0918 1.74805-7.05078Q1.74805-5.00977 2.5293-3.20801Q3.31055-1.40625 4.6875-0.0292969Q6.06445 1.34766 7.86621 2.12891Q9.66797 2.91016 11.709 2.91016ZM11.709 1.25Q9.98047 1.25 8.47656 0.605469Q6.97266-0.0390625 5.83496-1.17676Q4.69727-2.31445 4.05762-3.81836Q3.41797-5.32227 3.41797-7.05078Q3.41797-8.7793 4.05762-10.2832Q4.69727-11.7871 5.83008-12.9297Q6.96289-14.0723 8.4668-14.7119Q9.9707-15.3516 11.6992-15.3516Q13.4277-15.3516 14.9316-14.7119Q16.4355-14.0723 17.5781-12.9297Q18.7207-11.7871 19.3652-10.2832Q20.0098-8.7793 20.0098-7.05078Q20.0098-5.32227 19.3701-3.81836Q18.7305-2.31445 17.5928-1.17676Q16.4551-0.0390625 14.9463 0.605469Q13.4375 1.25 11.709 1.25ZM7.17773-7.05078Q7.17773-6.69922 7.41211-6.47461Q7.64648-6.25 8.01758-6.25L10.8887-6.25L10.8887-3.36914Q10.8887-2.99805 11.1133-2.76855Q11.3379-2.53906 11.6895-2.53906Q12.0605-2.53906 12.29-2.76855Q12.5195-2.99805 12.5195-3.36914L12.5195-6.25L15.4004-6.25Q15.7715-6.25 16.001-6.47461Q16.2305-6.69922 16.2305-7.05078Q16.2305-7.42188 16.001-7.65137Q15.7715-7.88086 15.4004-7.88086L12.5195-7.88086L12.5195-10.752Q12.5195-11.1328 12.29-11.3623Q12.0605-11.5918 11.6895-11.5918Q11.3379-11.5918 11.1133-11.3574Q10.8887-11.123 10.8887-10.752L10.8887-7.88086L8.01758-7.88086Q7.63672-7.88086 7.40723-7.65137Q7.17773-7.42188 7.17773-7.05078Z"/>
  </g>
  <g transform="matrix(1 0 0 1 305.646 1933)">
   <path d="M14.9707 5.66406Q17.0605 5.66406 18.96 5.01465Q20.8594 4.36523 22.4512 3.19336Q24.043 2.02148 25.2197 0.429688Q26.3965-1.16211 27.0459-3.06641Q27.6953-4.9707 27.6953-7.05078Q27.6953-9.14062 27.0459-11.04Q26.3965-12.9395 25.2197-14.5312Q24.043-16.123 22.4512-17.2998Q20.8594-18.4766 18.9551-19.126Q17.0508-19.7754 14.9609-19.7754Q12.8711-19.7754 10.9717-19.126Q9.07227-18.4766 7.48535-17.2998Q5.89844-16.123 4.72168-14.5312Q3.54492-12.9395 2.90039-11.04Q2.25586-9.14062 2.25586-7.05078Q2.25586-4.9707 2.90527-3.06641Q3.55469-1.16211 4.72656 0.429688Q5.89844 2.02148 7.49023 3.19336Q9.08203 4.36523 10.9814 5.01465Q12.8809 5.66406 14.9707 5.66406ZM14.9707 3.84766Q13.1641 3.84766 11.5283 3.2959Q9.89258 2.74414 8.53516 1.74805Q7.17773 0.751953 6.17676-0.610352Q5.17578-1.97266 4.62891-3.6084Q4.08203-5.24414 4.08203-7.05078Q4.08203-8.86719 4.62891-10.5029Q5.17578-12.1387 6.17188-13.501Q7.16797-14.8633 8.52539-15.8594Q9.88281-16.8555 11.5186-17.4023Q13.1543-17.9492 14.9609-17.9492Q16.7773-17.9492 18.4131-17.4023Q20.0488-16.8555 21.4111-15.8594Q22.7734-14.8633 23.7695-13.501Q24.7656-12.1387 25.3174-10.5029Q25.8691-8.86719 25.8691-7.05078Q25.8789-5.24414 25.332-3.6084Q24.7852-1.97266 23.7842-0.610352Q22.7832 0.751953 21.4209 1.74805Q20.0586 2.74414 18.4229 3.2959Q16.7871 3.84766 14.9707 3.84766ZM9.19922-7.05078Q9.19922-6.66992 9.45801-6.4209Q9.7168-6.17188 10.1172-6.17188L14.0625-6.17188L14.0625-2.2168Q14.0625-1.81641 14.3115-1.55762Q14.5605-1.29883 14.9512-1.29883Q15.3516-1.29883 15.6104-1.55273Q15.8691-1.80664 15.8691-2.2168L15.8691-6.17188L19.8242-6.17188Q20.2246-6.17188 20.4785-6.4209Q20.7324-6.66992 20.7324-7.05078Q20.7324-7.46094 20.4785-7.71484Q20.2246-7.96875 19.8242-7.96875L15.8691-7.96875L15.8691-11.9141Q15.8691-12.3242 15.6104-12.583Q15.3516-12.8418 14.9512-12.8418Q14.5605-12.8418 14.3115-12.583Q14.0625-12.3242 14.0625-11.9141L14.0625-7.96875L10.1172-7.96875Q9.70703-7.96875 9.45312-7.71484Q9.19922-7.46094 9.19922-7.05078Z"/>
  </g>
  <text style="stroke:none;fill:black;font-family:sans-serif;font-size:13;font-weight:bold;" transform="matrix(1 0 0 1 263 1953)">Design Variations</text>
  <text style="stroke:none;fill:black;font-family:sans-serif;font-size:13;" transform="matrix(1 0 0 1 263 1971)">Symbols are supported in up to nine weights and three scales.</text>
  <text style="stroke:none;fill:black;font-family:sans-serif;font-size:13;" transform="matrix(1 0 0 1 263 1989)">For optimal layout with text and other symbols, vertically align</text>
  <text style="stroke:none;fill:black;font-family:sans-serif;font-size:13;" transform="matrix(1 0 0 1 263 2007)">symbols with the adjacent text.</text>
  <line style="fill:none;stroke:#00AEEF;stroke-width:0.5;opacity:1.0;" x1="776" x2="776" y1="1919" y2="1933"/>
  <g transform="matrix(1 0 0 1 776 1933)">
   <path d="M3.31055 0.15625Q3.70117 0.15625 3.91602-0.00976562Q4.13086-0.175781 4.26758-0.585938L5.52734-4.0332L11.2891-4.0332L12.5488-0.585938Q12.6855-0.175781 12.9004-0.00976562Q13.1152 0.15625 13.4961 0.15625Q13.8867 0.15625 14.1162-0.0585938Q14.3457-0.273438 14.3457-0.644531Q14.3457-0.869141 14.2383-1.17188L9.6582-13.3691Q9.48242-13.8184 9.17969-14.043Q8.87695-14.2676 8.4082-14.2676Q7.5-14.2676 7.17773-13.3789L2.59766-1.16211Q2.49023-0.859375 2.49023-0.634766Q2.49023-0.263672 2.70996-0.0537109Q2.92969 0.15625 3.31055 0.15625ZM6.00586-5.51758L8.37891-12.0898L8.42773-12.0898L10.8008-5.51758Z"/>
  </g>
  <line style="fill:none;stroke:#00AEEF;stroke-width:0.5;opacity:1.0;" x1="793.197" x2="793.197" y1="1919" y2="1933"/>
  <text style="stroke:none;fill:black;font-family:sans-serif;font-size:13;font-weight:bold;" transform="matrix(1 0 0 1 776 1953)">Margins</text>
  <text style="stroke:none;fill:black;font-family:sans-serif;font-size:13;" transform="matrix(1 0 0 1 776 1971)">Leading and trailing margins on the left and right side of each symbol</text>
  <text style="stroke:none;fill:black;font-family:sans-serif;font-size:13;" transform="matrix(1 0 0 1 776 1989)">can be adjusted by modifying the x-location of the margin guidelines.</text>
  <text style="stroke:none;fill:black;font-family:sans-serif;font-size:13;" transform="matrix(1 0 0 1 776 2007)">Modifications are automatically applied proportionally to all</text>
  <text style="stroke:none;fill:black;font-family:sans-serif;font-size:13;" transform="matrix(1 0 0 1 776 2025)">scales and weights.</text>
  <g transform="matrix(1 0 0 1 1289 1933)">
   <path d="M2.8418 1.86523L4.54102 3.57422Q5.18555 4.22852 5.90332 4.17969Q6.62109 4.13086 7.31445 3.35938L18.0078-8.42773L17.041-9.4043L6.42578 2.27539Q6.16211 2.57812 5.89355 2.61719Q5.625 2.65625 5.27344 2.30469L4.10156 1.14258Q3.75 0.791016 3.79395 0.522461Q3.83789 0.253906 4.14062-0.0195312L15.6152-10.8203L14.6387-11.7871L3.04688-0.898438Q2.30469-0.214844 2.25098 0.498047Q2.19727 1.21094 2.8418 1.86523ZM9.25781-16.3281Q8.94531-16.0254 8.90625-15.6348Q8.86719-15.2441 9.04297-14.9512Q9.21875-14.6777 9.55566-14.541Q9.89258-14.4043 10.3809-14.5215Q11.4746-14.7754 12.5977-14.7314Q13.7207-14.6875 14.7949-13.9844L14.209-12.5293Q13.9551-11.9043 14.0674-11.4404Q14.1797-10.9766 14.5801-10.5664L16.875-8.25195Q17.2363-7.88086 17.5781-7.82227Q17.9199-7.76367 18.3398-7.8418L19.4043-8.03711L20.0684-7.36328L20.0293-6.80664Q20-6.43555 20.1221-6.12305Q20.2441-5.81055 20.6055-5.44922L21.3672-4.70703Q21.7285-4.3457 22.1533-4.33105Q22.5781-4.31641 22.9297-4.66797L25.8398-7.58789Q26.1914-7.93945 26.1816-8.35449Q26.1719-8.76953 25.8105-9.13086L25.0391-9.89258Q24.6875-10.2539 24.3799-10.3857Q24.0723-10.5176 23.7109-10.4883L23.1348-10.4395L22.4902-11.0742L22.7344-12.1973Q22.832-12.6172 22.6953-12.9834Q22.5586-13.3496 22.1191-13.7891L19.9219-15.9766Q18.6719-17.2168 17.2607-17.8369Q15.8496-18.457 14.4189-18.4814Q12.9883-18.5059 11.665-17.959Q10.3418-17.4121 9.25781-16.3281ZM10.752-15.957Q11.6602-16.6211 12.7002-16.9043Q13.7402-17.1875 14.8047-17.085Q15.8691-16.9824 16.8701-16.5137Q17.8711-16.0449 18.7012-15.2051L21.1328-12.793Q21.3086-12.6172 21.3525-12.4512Q21.3965-12.2852 21.3379-12.0312L21.0156-10.5469L22.5195-9.0625L23.5059-9.12109Q23.6914-9.13086 23.7891-9.09668Q23.8867-9.0625 24.0332-8.91602L24.6094-8.33984L22.168-5.89844L21.5918-6.47461Q21.4453-6.62109 21.4062-6.71875Q21.3672-6.81641 21.377-7.01172L21.4453-7.98828L19.9512-9.47266L18.4277-9.21875Q18.1836-9.16992 18.042-9.2041Q17.9004-9.23828 17.7148-9.41406L15.7129-11.416Q15.5176-11.5918 15.4932-11.7529Q15.4688-11.9141 15.5859-12.1875L16.4648-14.2773Q15.293-15.3711 13.8281-15.791Q12.3633-16.2109 10.8398-15.7617Q10.7227-15.7324 10.6885-15.8057Q10.6543-15.8789 10.752-15.957Z"/>
  </g>
  <text style="stroke:none;fill:black;font-family:sans-serif;font-size:13;font-weight:bold;" transform="matrix(1 0 0 1 1289 1953)">Exporting</text>
  <text style="stroke:none;fill:black;font-family:sans-serif;font-size:13;" transform="matrix(1 0 0 1 1289 1971)">Symbols should be outlined when exporting to ensure the</text>
  <text style="stroke:none;fill:black;font-family:sans-serif;font-size:13;" transform="matrix(1 0 0 1 1289 1989)">design is preserved when submitting to Xcode.</text>
  <text id="template-version" style="stroke:none;fill:black;font-family:sans-serif;font-size:13;text-anchor:end;" transform="matrix(1 0 0 1 3036 1933)">Template v.3.0</text>
  <text style="stroke:none;fill:black;font-family:sans-serif;font-size:13;text-anchor:end;" transform="matrix(1 0 0 1 3036 1951)">Requires Xcode 13 or greater</text>
  <text id="descriptive-name" style="stroke:none;fill:black;font-family:sans-serif;font-size:13;text-anchor:end;" transform="matrix(1 0 0 1 3036 1969)">Generated from tray.2.fill</text>
  <text style="stroke:none;fill:black;font-family:sans-serif;font-size:13;text-anchor:end;" transform="matrix(1 0 0 1 3036 1987)">Typeset at 100 points</text>
  <text style="stroke:none;fill:black;font-family:sans-serif;font-size:13;" transform="matrix(1 0 0 1 263 726)">Small</text>
  <text style="stroke:none;fill:black;font-family:sans-serif;font-size:13;" transform="matrix(1 0 0 1 263 1156)">Medium</text>
  <text style="stroke:none;fill:black;font-family:sans-serif;font-size:13;" transform="matrix(1 0 0 1 263 1586)">Large</text>
 </g>
 <g id="Guides">
  <g id="H-reference" style="fill:#27AAE1;stroke:none;" transform="matrix(1 0 0 1 339 696)">
   <path d="M0.993347 0L3.6377 0L29.3282-67.1326L30.0301-67.1326L30.0301-70.459L28.1227-70.459ZM11.6882-24.4797L46.9818-24.4797L46.2311-26.7288L12.4382-26.7288ZM55.1193 0L57.7637 0L30.6381-70.459L29.4327-70.459L29.4327-67.1326Z"/>
  </g>
  <line id="Baseline-S" style="fill:none;stroke:#27AAE1;opacity:1;stroke-width:0.5;" x1="263" x2="3036" y1="696" y2="696"/>
  <line id="Capline-S" style="fill:none;stroke:#27AAE1;opacity:1;stroke-width:0.5;" x1="263" x2="3036" y1="625.541" y2="625.541"/>
  <g id="H-reference" style="fill:#27AAE1;stroke:none;" transform="matrix(1 0 0 1 339 1126)">
   <path d="M0.993347 0L3.6377 0L29.3282-67.1326L30.0301-67.1326L30.0301-70.459L28.1227-70.459ZM11.6882-24.4797L46.9818-24.4797L46.2311-26.7288L12.4382-26.7288ZM55.1193 0L57.7637 0L30.6381-70.459L29.4327-70.459L29.4327-67.1326Z"/>
  </g>
  <line id="Baseline-M" style="fill:none;stroke:#27AAE1;opacity:1;stroke-width:0.5;" x1="263" x2="3036" y1="1126" y2="1126"/>
  <line id="Capline-M" style="fill:none;stroke:#27AAE1;opacity:1;stroke-width:0.5;" x1="263" x2="3036" y1="1055.54" y2="1055.54"/>
  <g id="H-reference" style="fill:#27AAE1;stroke:none;" transform="matrix(1 0 0 1 339 1556)">
   <path d="M0.993347 0L3.6377 0L29.3282-67.1326L30.0301-67.1326L30.0301-70.459L28.1227-70.459ZM11.6882-24.4797L46.9818-24.4797L46.2311-26.7288L12.4382-26.7288ZM55.1193 0L57.7637 0L30.6381-70.459L29.4327-70.459L29.4327-67.1326Z"/>
  </g>
  <line id="Baseline-L" style="fill:none;stroke:#27AAE1;opacity:1;stroke-width:0.5;" x1="263" x2="3036" y1="1556" y2="1556"/>
  <line id="Capline-L" style="fill:none;stroke:#27AAE1;opacity:1;stroke-width:0.5;" x1="263" x2="3036" y1="1485.54" y2="1485.54"/>
  <line id="left-margin-Regular-M" style="fill:none;stroke:#00AEEF;stroke-width:0.5;opacity:1.0;" x1="1379.84" x2="1379.84" y1="1030.79" y2="1150.12"/>
  <line id="right-margin-Regular-M" style="fill:none;stroke:#00AEEF;stroke-width:0.5;opacity:1.0;" x1="1519.85" x2="1519.85" y1="1030.79" y2="1150.12"/>
 </g>
 <g id="Symbols">
  <g id="Black-L" transform="matrix(1 0 0 1 2841.5 1556)">
   <path d="M39.914-22.1306L143.889-22.1306Q155.337-22.1306 161.499-28.2604Q167.661-34.3902 167.661-45.5484L167.661-60.9777Q167.661-68.198 167.412-73.6192Q167.164-79.0404 163.187-81.9619L139.953-99.6472Q136.016-102.646 132.507-104.494Q128.999-106.342 124.913-107.175Q120.827-108.008 115.043-108.008L68.7809-108.008Q62.976-108.008 58.8898-107.175Q54.8037-106.342 51.3246-104.494Q47.8456-102.646 43.8506-99.6472L20.6371-81.9619Q16.7187-79.0404 16.4305-73.6192Q16.1424-68.198 16.1424-60.9777L16.1424-45.5484Q16.1424-34.4098 22.325-28.2702Q28.5077-22.1306 39.914-22.1306ZM91.9115-53.7525Q87.7345-53.7525 84.8472-55.7516Q81.9599-57.7507 80.4355-60.7783Q78.9111-63.8059 78.9111-66.8409L78.9111-67.065Q78.9111-68.9883 77.606-70.3508Q76.3008-71.7132 73.1804-71.7132L39.1842-71.7132Q37.3287-71.7132 36.8347-72.5803Q36.3407-73.4474 37.9117-74.6275L57.6437-89.6891Q59.4418-91.1535 61.1292-91.8333Q62.8166-92.5131 65.5119-92.5131L118.312-92.5131Q121.066-92.5131 122.724-91.8041Q124.382-91.0951 126.181-89.6891L145.95-74.8611Q147.621-73.6018 147.048-72.6575Q146.475-71.7132 144.64-71.7132L110.623-71.7132Q107.523-71.7132 106.208-70.3508Q104.892-68.9883 104.892-67.065L104.892-66.8409Q104.892-63.8059 103.407-60.7783Q101.923-57.7507 99.0062-55.7516Q96.0897-53.7525 91.9115-53.7525ZM39.914 39.1278L143.889 39.1278Q155.2 39.1278 161.43 32.9356Q167.661 26.7434 167.661 15.4198L167.661-2.87484Q167.661-6.58572 165.964-8.68296Q164.267-10.7802 160.63-10.7802L111.149-10.7802Q107.932-10.7802 106.587-9.34895Q105.243-7.9177 105.243-5.95674L105.243-5.79112Q105.243-2.69882 103.729 0.416946Q102.215 3.53272 99.2399 5.60064Q96.2649 7.66856 91.9115 7.66856Q87.6176 7.66856 84.6427 5.60064Q81.6678 3.53272 80.1143 0.416946Q78.5607-2.69882 78.5607-5.79112L78.5607-5.95674Q78.5607-7.9177 77.2263-9.34895Q75.892-10.7802 72.6548-10.7802L23.7783-10.7802Q20.1998-10.7802 18.1711-8.68296Q16.1424-6.58572 16.1424-2.87484L16.1424 15.4198Q16.1424 26.7457 22.3542 32.9368Q28.5661 39.1278 39.914 39.1278Z"/>
  </g>
  <g id="Heavy-L" transform="matrix(1 0 0 1 2545.19 1556)">
   <path d="M38.8761-22.2875L144.131-22.2875Q155.185-22.2875 161.032-28.0718Q166.879-33.8561 166.879-44.5219L166.879-62.4044Q166.879-68.8996 166.563-73.721Q166.247-78.5424 162.663-81.278L139.589-99.8546Q135.789-102.901 132.396-104.742Q129.003-106.583 125.077-107.407Q121.152-108.231 115.66-108.231L67.378-108.231Q61.8559-108.231 57.9273-107.407Q53.9986-106.583 50.6309-104.742Q47.2633-102.901 43.4183-99.8546L20.3751-81.278Q16.835-78.5424 16.4818-73.721Q16.1286-68.8996 16.1286-62.4044L16.1286-44.5219Q16.1286-33.8807 22.0057-28.0841Q27.8828-22.2875 38.8761-22.2875ZM91.5161-53.0949Q87.2623-53.0949 84.2622-55.1464Q81.262-57.1979 79.6566-60.3433Q78.0511-63.4886 78.0511-66.703L78.0511-66.9309Q78.0511-68.8564 76.7926-70.2419Q75.5341-71.6274 72.5941-71.6274L37.0177-71.6274Q35.0057-71.6274 34.4762-72.5513Q33.9467-73.4751 35.6223-74.8282L55.6776-91.0674Q57.7575-92.8638 59.6557-93.6511Q61.5538-94.4385 64.6852-94.4385L118.352-94.4385Q121.528-94.4385 123.404-93.6288Q125.28-92.8192 127.36-91.0674L147.43-75.0067Q149.21-73.5789 148.606-72.6031Q148.002-71.6274 146.02-71.6274L110.413-71.6274Q107.504-71.6274 106.23-70.2419Q104.956-68.8564 104.956-66.9309L104.956-66.703Q104.956-63.4886 103.388-60.3433Q101.82-57.1979 98.7978-55.1464Q95.7753-53.0949 91.5161-53.0949ZM38.8761 38.2438L144.131 38.2438Q155.066 38.2438 160.972 32.369Q166.879 26.4942 166.879 15.5925L166.879-4.00721Q166.879-7.45052 165.219-9.53057Q163.559-11.6106 160.139-11.6106L110.815-11.6106Q107.816-11.6106 106.52-10.1654Q105.224-8.72019 105.224-6.78019L105.224-6.59691Q105.224-3.34351 103.634-0.128418Q102.043 3.08668 98.9763 5.19789Q95.9092 7.3091 91.5161 7.3091Q87.173 7.3091 84.106 5.19789Q81.0389 3.08668 79.4112-0.128418Q77.7834-3.34351 77.7834-6.59691L77.7834-6.78019Q77.7834-8.72019 76.5026-10.1654Q75.2217-11.6106 72.1925-11.6106L23.3453-11.6106Q19.9698-11.6106 18.0492-9.53057Q16.1286-7.45052 16.1286-4.00721L16.1286 15.5925Q16.1286 26.5054 22.028 32.3746Q27.9274 38.2438 38.8761 38.2438Z"/>
  </g>
  <g id="Bold-L" transform="matrix(1 0 0 1 2248.98 1556)">
   <path d="M37.5704-22.5914L144.424-22.5914Q154.956-22.5914 160.418-27.9679Q165.881-33.3444 165.881-43.403L165.881-64.1717Q165.881-69.7754 165.499-73.859Q165.118-77.9426 162.017-80.4326L139.054-100.146Q135.43-103.231 132.183-105.06Q128.936-106.89 125.207-107.702Q121.477-108.515 116.339-108.515L65.6936-108.515Q60.5174-108.515 56.7809-107.702Q53.0445-106.89 49.8188-105.06Q46.5931-103.231 42.9402-100.146L20.015-80.4326Q16.9437-77.9426 16.5284-73.859Q16.1132-69.7754 16.1132-64.1717L16.1132-43.403Q16.1132-33.3691 21.6137-27.9803Q27.1142-22.5914 37.5704-22.5914ZM91.0095-52.4369Q86.6484-52.4369 83.4913-54.5537Q80.3342-56.6706 78.614-59.9731Q76.8937-63.2756 76.8937-66.7576L76.8937-67.0005Q76.8937-68.8961 75.7114-70.2713Q74.5291-71.6465 71.8418-71.6465L34.2167-71.6465Q32.102-71.6465 31.5488-72.6098Q30.9956-73.573 32.7348-75.0742L53.2641-92.8181Q55.7048-95.0366 57.8829-95.951Q60.0609-96.8653 63.6855-96.8653L118.346-96.8653Q122-96.8653 124.164-95.9364Q126.327-95.0074 128.768-92.8181L149.288-75.191Q151.133-73.6228 150.512-72.6346Q149.892-71.6465 147.815-71.6465L110.152-71.6465Q107.503-71.6465 106.302-70.2713Q105.1-68.8961 105.1-67.0005L105.1-66.7576Q105.1-63.2756 103.414-59.9731Q101.727-56.6706 98.5552-54.5537Q95.3835-52.4369 91.0095-52.4369ZM37.5704 36.9364L144.424 36.9364Q154.859 36.9364 160.37 31.4461Q165.881 25.9558 165.881 15.6064L165.881-5.72628Q165.881-8.81672 164.293-10.8253Q162.705-12.834 159.584-12.834L110.415-12.834Q107.707-12.834 106.491-11.4106Q105.276-9.98727 105.276-8.10013L105.276-7.88639Q105.276-4.38857 103.574-1.03558Q101.873 2.3174 98.672 4.48239Q95.4711 6.64738 91.0095 6.64738Q86.59 6.64738 83.3891 4.48239Q80.1882 2.3174 78.4533-1.03558Q76.7185-4.38857 76.7185-7.88639L76.7185-8.10013Q76.7185-9.98727 75.5216-11.4106Q74.3247-12.834 71.579-12.834L22.7404-12.834Q19.6483-12.834 17.8807-10.8253Q16.1132-8.81672 16.1132-5.72628L16.1132 15.6064Q16.1132 25.9822 21.6283 31.4593Q27.1434 36.9364 37.5704 36.9364Z"/>
  </g>
  <g id="Semibold-L" transform="matrix(1 0 0 1 1952.62 1556)">
   <path d="M36.6703-22.801L144.625-22.801Q154.798-22.801 159.995-27.8963Q165.193-32.9916 165.193-42.6316L165.193-65.39Q165.193-70.3792 164.766-73.9541Q164.339-77.5291 161.572-79.8499L138.685-100.346Q135.183-103.458 132.037-105.28Q128.89-107.102 125.296-107.906Q121.701-108.711 116.806-108.711L64.5324-108.711Q59.5946-108.711 55.9906-107.906Q52.3867-107.102 49.2589-105.28Q46.1311-103.458 42.6105-100.346L19.7668-79.8499Q17.0186-77.5291 16.5606-73.9541Q16.1026-70.3792 16.1026-65.39L16.1026-42.6316Q16.1026-33.0165 21.3434-27.9087Q26.5843-22.801 36.6703-22.801ZM90.6603-51.9833Q86.2252-51.9833 82.9599-54.1451Q79.6946-56.307 77.8952-59.7179Q76.0958-63.1288 76.0958-66.7952L76.0958-67.0485Q76.0958-68.9235 74.9661-70.2916Q73.8363-71.6597 71.3232-71.6597L32.2857-71.6597Q30.1002-71.6597 29.5307-72.6501Q28.9611-73.6405 30.7442-75.2437L51.6002-94.0249Q54.2897-96.5345 56.6607-97.5364Q59.0316-98.5384 62.9963-98.5384L118.342-98.5384Q122.326-98.5384 124.687-97.5272Q127.049-96.5159 129.738-94.0249L150.57-75.318Q152.458-73.653 151.827-72.6564Q151.195-71.6597 149.053-71.6597L109.972-71.6597Q107.502-71.6597 106.351-70.2916Q105.2-68.9235 105.2-67.0485L105.2-66.7952Q105.2-63.1288 103.431-59.7179Q101.663-56.307 98.388-54.1451Q95.1134-51.9833 90.6603-51.9833ZM36.6703 36.0352L144.625 36.0352Q154.717 36.0352 159.955 30.8099Q165.193 25.5847 165.193 15.616L165.193-6.9114Q165.193-9.75857 163.655-11.718Q162.117-13.6773 159.201-13.6773L110.139-13.6773Q107.632-13.6773 106.472-12.2691Q105.311-10.8608 105.311-9.01009L105.311-8.77535Q105.311-5.10902 103.533-1.66098Q101.756 1.78707 98.4623 3.98913Q95.1691 6.1912 90.6603 6.1912Q86.1881 6.1912 82.8949 3.98913Q79.6017 1.78707 77.793-1.66098Q75.9844-5.10902 75.9844-8.77535L75.9844-9.01009Q75.9844-10.8608 74.8453-12.2691Q73.7063-13.6773 71.1561-13.6773L22.3235-13.6773Q19.4266-13.6773 17.7646-11.718Q16.1026-9.75857 16.1026-6.9114L16.1026 15.616Q16.1026 25.6216 21.3527 30.8284Q26.6029 36.0352 36.6703 36.0352Z"/>
  </g>
  <g id="Medium-L" transform="matrix(1 0 0 1 1656.17 1556)">
   <path d="M35.9878-22.9599L144.778-22.9599Q154.678-22.9599 159.675-27.842Q164.671-32.7241 164.671-42.0467L164.671-66.3138Q164.671-70.837 164.21-74.0262Q163.748-77.2155 161.235-79.408L138.405-100.498Q134.995-103.631 131.925-105.447Q128.855-107.262 125.363-108.061Q121.871-108.859 117.161-108.859L63.652-108.859Q58.8949-108.859 55.3914-108.061Q51.888-107.262 48.8344-105.447Q45.7808-103.631 42.3605-100.498L19.5786-79.408Q17.0754-77.2155 16.585-74.0262Q16.0945-70.837 16.0945-66.3138L16.0945-42.0467Q16.0945-32.7491 21.1385-27.8545Q26.1825-22.9599 35.9878-22.9599ZM90.3955-51.6393Q85.9044-51.6393 82.5569-53.8353Q79.2095-56.0314 77.3502-59.5244Q75.4908-63.0174 75.4908-66.8237L75.4908-67.0848Q75.4908-68.9443 74.4009-70.307Q73.311-71.6697 70.93-71.6697L30.8216-71.6697Q28.5824-71.6697 28.0005-72.6807Q27.4185-73.6917 29.2348-75.3723L50.3386-94.9401Q53.2167-97.6703 55.734-98.7386Q58.2512-99.8069 62.4737-99.8069L118.339-99.8069Q122.572-99.8069 125.084-98.7334Q127.596-97.6598 130.474-94.9401L151.541-75.4144Q153.463-73.676 152.823-72.6728Q152.183-71.6697 149.992-71.6697L109.836-71.6697Q107.502-71.6697 106.388-70.307Q105.275-68.9443 105.275-67.0848L105.275-66.8237Q105.275-63.0174 103.444-59.5244Q101.614-56.0314 98.2612-53.8353Q94.9086-51.6393 90.3955-51.6393ZM35.9878 35.3518L144.778 35.3518Q154.609 35.3518 159.64 30.3275Q164.671 25.3032 164.671 15.6232L164.671-7.81001Q164.671-10.4727 163.171-12.3948Q161.67-14.3168 158.911-14.3168L109.93-14.3168Q107.575-14.3168 106.457-12.92Q105.338-11.5231 105.338-9.70006L105.338-9.4494Q105.338-5.6553 103.502-2.13518Q101.666 1.38494 98.3033 3.61512Q94.9401 5.8453 90.3955 5.8453Q85.8833 5.8453 82.5202 3.61512Q79.157 1.38494 77.2923-2.13518Q75.4277-5.6553 75.4277-9.4494L75.4277-9.70006Q75.4277-11.5231 74.3326-12.92Q73.2374-14.3168 70.8354-14.3168L22.0073-14.3168Q19.2586-14.3168 17.6765-12.3948Q16.0945-10.4727 16.0945-7.81001L16.0945 15.6232Q16.0945 25.3481 21.1438 30.3499Q26.193 35.3518 35.9878 35.3518Z"/>
  </g>
  <g id="Regular-L" transform="matrix(1 0 0 1 1359.81 1556)">
   <path d="M35.0976-23.1671L144.977-23.1671Q154.522-23.1671 159.256-27.7711Q163.991-32.3752 163.991-41.2839L163.991-67.5188Q163.991-71.4341 163.484-74.1203Q162.978-76.8065 160.795-78.8316L138.04-100.696Q134.751-103.856 131.78-105.664Q128.81-107.472 125.451-108.262Q122.092-109.053 117.624-109.053L62.5035-109.053Q57.9822-109.053 54.6098-108.262Q51.2375-107.472 48.2807-105.664Q45.3239-103.856 42.0345-100.696L19.3331-78.8316Q17.1495-76.8065 16.6168-74.1203Q16.084-71.4341 16.084-67.5188L16.084-41.2839Q16.084-32.4003 20.8712-27.7837Q25.6584-23.1671 35.0976-23.1671ZM90.0501-51.1907Q85.4858-51.1907 82.0314-53.4312Q78.5769-55.6718 76.6393-59.272Q74.7016-62.8722 74.7016-66.8608L74.7016-67.1323Q74.7016-68.9714 73.6637-70.327Q72.6259-71.6827 70.4171-71.6827L28.9119-71.6827Q26.6026-71.6827 26.0045-72.7206Q25.4064-73.7585 27.2661-75.54L48.6931-96.1337Q51.8172-99.1518 54.5252-100.307Q57.2333-101.462 61.7921-101.462L118.335-101.462Q122.894-101.462 125.602-100.307Q128.31-99.1518 131.434-96.1337L152.809-75.54Q154.774-73.7059 154.123-72.6943Q153.472-71.6827 151.216-71.6827L109.658-71.6827Q107.501-71.6827 106.437-70.327Q105.373-68.9714 105.373-67.1323L105.373-66.8608Q105.373-62.8722 103.462-59.272Q101.55-55.6718 98.0958-53.4312Q94.6414-51.1907 90.0501-51.1907ZM35.0976 34.4604L144.977 34.4604Q154.469 34.4604 159.23 29.6983Q163.991 24.9362 163.991 15.6327L163.991-8.9821Q163.991-11.4042 162.54-13.2776Q161.088-15.1509 158.533-15.1509L109.658-15.1509Q107.501-15.1509 106.437-13.769Q105.373-12.387 105.373-10.6L105.373-10.3286Q105.373-6.36783 103.462-2.7537Q101.55 0.860436 98.0958 3.12728Q94.6414 5.39412 90.0501 5.39412Q85.4858 5.39412 82.0314 3.12728Q78.5769 0.860436 76.6393-2.7537Q74.7016-6.36783 74.7016-10.3286L74.7016-10.6Q74.7016-12.387 73.6637-13.769Q72.6259-15.1509 70.4171-15.1509L21.5949-15.1509Q19.0393-15.1509 17.5617-13.2776Q16.084-11.4042 16.084-8.9821L16.084 15.6327Q16.084 24.9915 20.8712 29.7259Q25.6584 34.4604 35.0976 34.4604Z"/>
  </g>
  <g id="Light-L" transform="matrix(1 0 0 1 1063.53 1556)">
   <path d="M34.067-24.0832L145.13-24.0832Q154.102-24.0832 158.607-28.5346Q163.113-32.986 163.113-41.4939L163.113-68.7401Q163.113-72.0831 162.673-74.2922Q162.234-76.5013 160.375-78.2589L137.124-101.116Q134.007-104.18 131.151-105.959Q128.294-107.739 125.06-108.52Q121.825-109.301 117.548-109.301L61.6829-109.301Q57.3713-109.301 54.1136-108.52Q50.8559-107.739 48.023-105.959Q45.1902-104.18 42.0727-101.116L18.856-78.2589Q16.9969-76.5013 16.5404-74.2922Q16.084-72.0831 16.084-68.7401L16.084-41.4939Q16.084-32.973 20.623-28.5281Q25.1621-24.0832 34.067-24.0832ZM89.5922-51.7441Q84.875-51.7441 81.201-54.0325Q77.5271-56.3208 75.4177-60.1023Q73.3084-63.8839 73.3084-68.3496L73.3084-68.6974Q73.3084-70.3072 72.4422-71.4052Q71.576-72.5033 69.7299-72.5033L26.2209-72.5033Q24.427-72.5033 23.9433-73.3694Q23.4597-74.2356 24.9378-75.6926L47.1661-97.6225Q50.6147-101.003 53.6377-102.206Q56.6606-103.408 61.2576-103.408L117.972-103.408Q122.569-103.408 125.592-102.206Q128.615-101.003 132.064-97.6225L154.259-75.6926Q155.804-74.2023 155.287-73.3528Q154.77-72.5033 153.01-72.5033L109.467-72.5033Q107.654-72.5033 106.771-71.4052Q105.888-70.3072 105.888-68.6974L105.888-68.3496Q105.888-63.8839 103.796-60.1023Q101.703-56.3208 98.029-54.0325Q94.3551-51.7441 89.5922-51.7441ZM34.067 32.1892L145.13 32.1892Q154.068 32.1892 158.59 27.6371Q163.113 23.085 163.113 14.3539L163.113-12.2076Q163.113-14.2478 161.881-15.749Q160.649-17.2503 158.495-17.2503L109.467-17.2503Q107.654-17.2503 106.771-16.1356Q105.888-15.0209 105.888-13.4436L105.888-13.0959Q105.888-8.6772 103.796-4.87211Q101.703-1.06703 98.029 1.23798Q94.3551 3.54298 89.5922 3.54298Q84.875 3.54298 81.201 1.23798Q77.5271-1.06703 75.4177-4.87211Q73.3084-8.6772 73.3084-13.0959L73.3084-13.4436Q73.3084-15.0209 72.4422-16.1356Q71.576-17.2503 69.7299-17.2503L20.7362-17.2503Q18.5814-17.2503 17.3327-15.749Q16.084-14.2478 16.084-12.2076L16.084 14.3539Q16.084 23.1785 20.623 27.6838Q25.1621 32.1892 34.067 32.1892Z"/>
  </g>
  <g id="Thin-L" transform="matrix(1 0 0 1 767.404 1556)">
   <path d="M32.704-25.2949L145.332-25.2949Q153.547-25.2949 157.749-29.5444Q161.952-33.7939 161.952-41.7717L161.952-70.3555Q161.952-72.9415 161.601-74.5195Q161.25-76.0975 159.82-77.5015L135.912-101.671Q133.022-104.609 130.318-106.351Q127.613-108.092 124.543-108.861Q121.472-109.629 117.447-109.629L60.5977-109.629Q56.5634-109.629 53.4573-108.861Q50.3512-108.092 47.6823-106.351Q45.0134-104.609 42.1231-101.671L18.225-77.5015Q16.795-76.0975 16.4395-74.5195Q16.084-72.9415 16.084-70.3555L16.084-41.7717Q16.084-33.7304 20.2948-29.5126Q24.5056-25.2949 32.704-25.2949ZM88.9866-52.4761Q84.0671-52.4761 80.1028-54.8276Q76.1386-57.1792 73.8022-61.2005Q71.4657-65.2219 71.4657-70.3187L71.4657-70.7674Q71.4657-72.074 70.8266-72.8313Q70.1875-73.5885 68.8211-73.5885L22.6619-73.5885Q21.5495-73.5885 21.2173-74.2276Q20.885-74.8667 21.8584-75.8945L45.1466-99.5916Q49.0244-103.451 52.4638-104.717Q55.9032-105.983 60.5506-105.983L117.493-105.983Q122.14-105.983 125.58-104.717Q129.019-103.451 132.897-99.5916L156.177-75.8945Q157.167-74.8588 156.827-74.2237Q156.486-73.5885 155.383-73.5885L109.214-73.5885Q107.856-73.5885 107.213-72.8313Q106.57-72.074 106.57-70.7674L106.57-70.3187Q106.57-65.2219 104.237-61.2005Q101.905-57.1792 97.9406-54.8276Q93.9763-52.4761 88.9866-52.4761ZM32.704 29.1853L145.332 29.1853Q153.538 29.1853 157.745 24.911Q161.952 20.6367 161.952 12.6626L161.952-16.4735Q161.952-18.0087 161.01-19.0177Q160.069-20.0268 158.444-20.0268L109.214-20.0268Q107.856-20.0268 107.213-19.2656Q106.57-18.5044 106.57-17.2045L106.57-16.7558Q106.57-11.7315 104.237-7.67388Q101.905-3.61625 97.9406-1.26078Q93.9763 1.09469 88.9866 1.09469Q84.0671 1.09469 80.1028-1.26078Q76.1386-3.61625 73.8022-7.67388Q71.4657-11.7315 71.4657-16.7558L71.4657-17.2045Q71.4657-18.5044 70.8266-19.2656Q70.1875-20.0268 68.8211-20.0268L19.6004-20.0268Q17.9758-20.0268 17.0299-19.0177Q16.084-18.0087 16.084-16.4735L16.084 12.6626Q16.084 20.7806 20.2948 24.983Q24.5056 29.1853 32.704 29.1853Z"/>
  </g>
  <g id="Ultralight-L" transform="matrix(1 0 0 1 470.991 1556)">
   <path d="M32.0059-25.9155L145.435-25.9155Q153.263-25.9155 157.31-30.0616Q161.357-34.2077 161.357-41.914L161.357-71.1829Q161.357-73.3811 161.051-74.6359Q160.745-75.8907 159.535-77.1135L135.292-101.956Q132.518-104.829 129.891-106.551Q127.264-108.273 124.278-109.035Q121.291-109.797 117.395-109.797L60.0418-109.797Q56.1496-109.797 53.1212-109.035Q50.0927-108.273 47.5078-106.551Q44.9228-104.829 42.149-101.956L17.9017-77.1135Q16.6916-75.8907 16.3878-74.6359Q16.084-73.3811 16.084-71.1829L16.084-41.914Q16.084-34.1184 20.1266-30.0169Q24.1693-25.9155 32.0059-25.9155ZM88.6764-52.851Q83.6533-52.851 79.5404-55.2349Q75.4274-57.6188 72.9747-61.763Q70.5219-65.9072 70.5219-71.3272L70.5219-71.8276Q70.5219-72.9789 69.9991-73.5617Q69.4764-74.1444 68.3556-74.1444L20.839-74.1444Q20.0757-74.1444 19.821-74.6671Q19.5663-75.1899 20.2812-75.9979L44.1122-100.6Q48.2098-104.705 51.8625-106.003Q55.5152-107.302 60.1885-107.302L117.247-107.302Q121.92-107.302 125.573-106.003Q129.226-104.705 133.323-100.6L157.16-75.9979Q157.866-75.1951 157.615-74.6697Q157.365-74.1444 156.598-74.1444L109.085-74.1444Q107.959-74.1444 107.439-73.5617Q106.919-72.9789 106.919-71.8276L106.919-71.3272Q106.919-65.9072 104.464-61.763Q102.008-57.6188 97.8953-55.2349Q93.7824-52.851 88.6764-52.851ZM32.0059 27.6467L145.435 27.6467Q153.266 27.6467 157.312 23.5147Q161.357 19.3827 161.357 11.7964L161.357-18.6585Q161.357-19.9349 160.564-20.6919Q159.771-21.4489 158.418-21.4489L109.085-21.4489Q107.959-21.4489 107.439-20.8688Q106.919-20.2886 106.919-19.1307L106.919-18.6304Q106.919-13.2959 104.464-9.10893Q102.008-4.92195 97.8953-2.54063Q93.7824-0.159314 88.6764-0.159314Q83.6533-0.159314 79.5404-2.54063Q75.4274-4.92195 72.9747-9.10893Q70.5219-13.2959 70.5219-18.6304L70.5219-19.1307Q70.5219-20.2886 69.9991-20.8688Q69.4764-21.4489 68.3556-21.4489L19.0187-21.4489Q17.6656-21.4489 16.8748-20.6919Q16.084-19.9349 16.084-18.6585L16.084 11.7964Q16.084 19.5525 20.1266 23.5996Q24.1693 27.6467 32.0059 27.6467Z"/>
  </g>
  <g id="Black-M" transform="matrix(1 0 0 1 2861.92 1126)">
   <path d="M31.6755-25.0706L111.29-25.0706Q120.42-25.0706 125.434-30.0958Q130.447-35.121 130.447-44.1347L130.447-54.117Q130.447-60.2566 130.322-64.9074Q130.196-69.5582 126.822-71.9452L108.616-85.0152Q105.472-87.2856 102.669-88.7191Q99.8666-90.1525 96.581-90.8043Q93.2953-91.456 88.5888-91.456L54.382-91.456Q49.6699-91.456 46.3844-90.8043Q43.0989-90.1525 40.3246-88.7191Q37.5503-87.2856 34.3496-85.0152L16.149-71.9452Q12.832-69.5582 12.675-64.9074Q12.518-60.2566 12.518-54.117L12.518-44.1347Q12.518-35.1268 17.5369-30.0987Q22.5559-25.0706 31.6755-25.0706ZM71.4855-50.2202Q68.2946-50.2202 66.1249-51.7304Q63.9552-53.2407 62.8207-55.5096Q61.6861-57.7785 61.6861-60.0405L61.6861-60.221Q61.6861-61.6783 60.6581-62.6791Q59.6302-63.6799 57.1067-63.6799L31.855-63.6799Q30.6217-63.6799 30.2851-64.2796Q29.9484-64.8793 31.0239-65.601L46.1418-76.4388Q47.3366-77.3371 48.5055-77.7778Q49.6744-78.2186 51.3929-78.2186L91.5778-78.2186Q93.3534-78.2186 94.4938-77.7493Q95.6341-77.28 96.8289-76.4388L111.998-65.8293Q113.142-65.0451 112.743-64.3625Q112.344-63.6799 111.116-63.6799L85.8585-63.6799Q83.3406-63.6799 82.3099-62.6791Q81.2791-61.6783 81.2791-60.221L81.2791-60.0405Q81.2791-57.7785 80.1759-55.5096Q79.0726-53.2407 76.8744-51.7304Q74.6761-50.2202 71.4855-50.2202ZM31.6755 22.8302L111.29 22.8302Q120.301 22.8302 125.374 17.7885Q130.447 12.7468 130.447 3.68892L130.447-9.6268Q130.447-12.68 129.13-14.2692Q127.813-15.8583 124.864-15.8583L86.3724-15.8583Q83.7402-15.8583 82.681-14.7977Q81.6217-13.7371 81.6217-12.2282L81.6217-12.1048Q81.6217-9.78544 80.4899-7.43102Q79.3581-5.07659 77.1027-3.50652Q74.8474-1.93644 71.4855-1.93644Q68.1804-1.93644 65.9251-3.50652Q63.6697-5.07659 62.5066-7.43102Q61.3435-9.78544 61.3435-12.1048L61.3435-12.2282Q61.3435-13.7371 60.287-14.7977Q59.2305-15.8583 56.5929-15.8583L18.6779-15.8583Q15.7853-15.8583 14.1517-14.2692Q12.518-12.68 12.518-9.6268L12.518 3.68892Q12.518 12.7463 17.5655 17.7882Q22.613 22.8302 31.6755 22.8302Z"/>
  </g>
  <g id="Heavy-M" transform="matrix(1 0 0 1 2565.55 1126)">
   <path d="M30.7559-25.1394L111.512-25.1394Q120.31-25.1394 125.037-29.841Q129.764-34.5426 129.764-43.1118L129.764-55.399Q129.764-60.8826 129.566-64.9911Q129.368-69.0996 126.348-71.3295L108.345-85.1793Q105.318-87.5043 102.619-88.9339Q99.9189-90.3635 96.7778-91.0072Q93.6368-91.6509 89.1984-91.6509L53.0863-91.6509Q48.6314-91.6509 45.4892-91.0072Q42.3471-90.3635 39.6702-88.9339Q36.9934-87.5043 33.9235-85.1793L15.9369-71.3295Q12.9598-69.0996 12.7322-64.9911Q12.5046-60.8826 12.5046-55.399L12.5046-43.1118Q12.5046-34.5567 17.2477-29.848Q21.9908-25.1394 30.7559-25.1394ZM71.1412-49.5263Q67.8894-49.5263 65.6296-51.0833Q63.3699-52.6404 62.1719-55.0077Q60.9739-57.3751 60.9739-59.7683L60.9739-59.9456Q60.9739-61.426 59.9757-62.4732Q58.9775-63.5203 56.597-63.5203L29.9853-63.5203Q28.5516-63.5203 28.1696-64.1914Q27.7877-64.8624 29.0006-65.7831L44.3607-77.6488Q45.8011-78.8382 47.1469-79.3797Q48.4927-79.9212 50.6341-79.9212L91.6505-79.9212Q93.8355-79.9212 95.1595-79.3579Q96.4835-78.7946 97.9239-77.6488L113.311-65.9576Q114.601-64.9769 114.159-64.2486Q113.717-63.5203 112.299-63.5203L85.6712-63.5203Q83.3071-63.5203 82.3007-62.4732Q81.2943-61.426 81.2943-59.9456L81.2943-59.7683Q81.2943-57.3751 80.1263-55.0077Q78.9583-52.6404 76.6768-51.0833Q74.3952-49.5263 71.1412-49.5263ZM30.7559 22.1756L111.512 22.1756Q120.207 22.1756 124.985 17.4248Q129.764 12.674 129.764 3.97574L129.764-10.4362Q129.764-13.2631 128.463-14.8698Q127.162-16.4765 124.387-16.4765L86.0638-16.4765Q83.6125-16.4765 82.5842-15.3775Q81.556-14.2786 81.556-12.7709L81.556-12.6372Q81.556-10.2026 80.3662-7.76872Q79.1764-5.33481 76.8512-3.72594Q74.5261-2.11707 71.1412-2.11707Q67.8021-2.11707 65.477-3.72594Q63.1518-5.33481 61.932-7.76872Q60.7122-10.2026 60.7122-12.6372L60.7122-12.7709Q60.7122-14.2786 59.6922-15.3775Q58.6721-16.4765 56.2044-16.4765L18.3338-16.4765Q15.6027-16.4765 14.0536-14.8698Q12.5046-13.2631 12.5046-10.4362L12.5046 3.97574Q12.5046 12.6785 17.2695 17.4271Q22.0344 22.1756 30.7559 22.1756Z"/>
  </g>
  <g id="Bold-M" transform="matrix(1 0 0 1 2269.23 1126)">
   <path d="M29.7272-25.2164L111.761-25.2164Q120.187-25.2164 124.593-29.5559Q128.999-33.8955 128.999-41.9675L128.999-56.8332Q128.999-61.5828 128.721-65.0847Q128.443-68.5866 125.818-70.6407L108.042-85.3627Q105.147-87.7489 102.562-89.1742Q99.9773-90.5995 96.9981-91.2342Q94.0188-91.869 89.8803-91.869L51.6368-91.869Q47.4696-91.869 44.4879-91.2342Q41.5061-90.5995 38.9382-89.1742Q36.3704-87.7489 33.4469-85.3627L15.6995-70.6407Q13.1027-68.5866 12.7961-65.0847Q12.4895-61.5828 12.4895-56.8332L12.4895-41.9675Q12.4895-33.919 16.9241-29.5677Q21.3587-25.2164 29.7272-25.2164ZM70.756-48.7501Q67.4361-48.7501 65.0756-50.3595Q62.7152-51.9689 61.4462-54.4463Q60.1773-56.9237 60.1773-59.4638L60.1773-59.6375Q60.1773-61.1439 59.2123-62.2428Q58.2473-63.3418 56.0267-63.3418L27.8938-63.3418Q26.2358-63.3418 25.8032-64.0926Q25.3706-64.8435 26.7374-65.9869L42.3682-79.0024Q44.0834-80.5175 45.6271-81.1716Q47.1709-81.8258 49.7852-81.8258L91.7318-81.8258Q94.3747-81.8258 95.9042-81.1573Q97.4337-80.4889 99.1488-79.0024L114.78-66.1011Q116.232-64.9006 115.742-64.1212Q115.253-63.3418 113.623-63.3418L85.4618-63.3418Q83.2697-63.3418 82.2905-62.2428Q81.3112-61.1439 81.3112-59.6375L81.3112-59.4638Q81.3112-56.9237 80.0708-54.4463Q78.8304-51.9689 76.4557-50.3595Q74.081-48.7501 70.756-48.7501ZM29.7272 21.4433L111.761 21.4433Q120.101 21.4433 124.55 17.0179Q128.999 12.5925 128.999 4.2966L128.999-11.3417Q128.999-13.9153 127.716-15.5416Q126.433-17.1679 123.854-17.1679L85.7187-17.1679Q83.4695-17.1679 82.476-16.0261Q81.4825-14.8843 81.4825-13.3779L81.4825-13.2328Q81.4825-10.6693 80.2278-8.14649Q78.9732-5.62367 76.5699-3.97139Q74.1666-2.31912 70.756-2.31912Q67.379-2.31912 64.9757-3.97139Q62.5724-5.62367 61.2892-8.14649Q60.006-10.6693 60.006-13.2328L60.006-13.3779Q60.006-14.8843 59.0267-16.0261Q58.0475-17.1679 55.7698-17.1679L17.9489-17.1679Q15.3984-17.1679 13.9439-15.5416Q12.4895-13.9153 12.4895-11.3417L12.4895 4.2966Q12.4895 12.6028 16.9384 17.0231Q21.3872 21.4433 29.7272 21.4433Z"/>
  </g>
  <g id="Semibold-M" transform="matrix(1 0 0 1 1972.79 1126)">
   <path d="M29.018-25.2695L111.933-25.2695Q120.102-25.2695 124.287-29.3595Q128.472-33.4494 128.472-41.1787L128.472-57.8219Q128.472-62.0655 128.138-65.1492Q127.805-68.2329 125.452-70.1659L107.833-85.4892Q105.028-87.9175 102.523-89.3398Q100.018-90.7621 97.1499-91.3907Q94.2822-92.0193 90.3504-92.0193L50.6376-92.0193Q46.6687-92.0193 43.7975-91.3907Q40.9263-90.7621 38.4336-89.3398Q35.9409-87.9175 33.1183-85.4892L15.5359-70.1659Q13.2013-68.2329 12.8402-65.1492Q12.4791-62.0655 12.4791-57.8219L12.4791-41.1787Q12.4791-33.4794 16.701-29.3744Q20.9229-25.2695 29.018-25.2695ZM70.4905-48.2149Q67.1236-48.2149 64.6937-49.8605Q62.2638-51.506 60.9459-54.0593Q59.628-56.6126 59.628-59.254L59.628-59.4251Q59.628-60.9494 58.686-62.0841Q57.744-63.2187 55.6336-63.2187L26.452-63.2187Q24.6394-63.2187 24.1718-64.0246Q23.7042-64.8304 25.1771-66.1273L40.9947-79.9356Q42.8992-81.6752 44.5794-82.407Q46.2596-83.1388 49.2-83.1388L91.7879-83.1388Q94.7465-83.1388 96.4176-82.3979Q98.0887-81.657 99.9932-79.9356L115.792-66.2Q117.357-64.8479 116.834-64.0333Q116.312-63.2187 114.536-63.2187L85.3174-63.2187Q83.2439-63.2187 82.2834-62.0841Q81.3229-60.9494 81.3229-59.4251L81.3229-59.254Q81.3229-56.6126 80.0326-54.0593Q78.7423-51.506 76.3033-49.8605Q73.8643-48.2149 70.4905-48.2149ZM29.018 20.9385L111.933 20.9385Q120.029 20.9385 124.25 16.7374Q128.472 12.5364 128.472 4.51779L128.472-11.9659Q128.472-14.365 127.201-16.0048Q125.93-17.6446 123.486-17.6446L85.4808-17.6446Q83.371-17.6446 82.4014-16.4733Q81.4318-15.3019 81.4318-13.7964L81.4318-13.6434Q81.4318-10.991 80.1325-8.40692Q78.8331-5.8228 76.376-4.14061Q73.9188-2.45842 70.4905-2.45842Q67.0873-2.45842 64.6301-4.14061Q62.173-5.8228 60.846-8.40692Q59.5191-10.991 59.5191-13.6434L59.5191-13.7964Q59.5191-15.3019 58.568-16.4733Q57.6169-17.6446 55.4702-17.6446L17.6835-17.6446Q15.2576-17.6446 13.8683-16.0048Q12.4791-14.365 12.4791-11.9659L12.4791 4.51779Q12.4791 12.5506 16.7101 16.7445Q20.9411 20.9385 29.018 20.9385Z"/>
  </g>
  <g id="Medium-M" transform="matrix(1 0 0 1 1676.28 1126)">
   <path d="M28.4803-25.3097L112.063-25.3097Q120.038-25.3097 124.055-29.2105Q128.072-33.1112 128.072-40.5806L128.072-58.5715Q128.072-62.4315 127.697-65.1981Q127.321-67.9647 125.175-69.8058L107.674-85.5852Q104.938-88.0453 102.493-89.4654Q100.048-90.8855 97.265-91.5094Q94.4819-92.1333 90.7069-92.1333L49.8799-92.1333Q46.0614-92.1333 43.2741-91.5094Q40.4867-90.8855 38.051-89.4654Q35.6153-88.0453 32.8691-85.5852L15.4119-69.8058Q13.276-67.9647 12.8736-65.1981Q12.4712-62.4315 12.4712-58.5715L12.4712-40.5806Q12.4712-33.146 16.5319-29.2279Q20.5925-25.3097 28.4803-25.3097ZM70.2892-47.8092Q66.8866-47.8092 64.4041-49.4821Q61.9215-51.155 60.5666-53.7658Q59.2116-56.3767 59.2116-59.0948L59.2116-59.2641Q59.2116-60.8019 58.287-61.9637Q57.3623-63.1254 55.3355-63.1254L25.3587-63.1254Q23.4289-63.1254 22.9348-63.973Q22.4408-64.8205 23.9941-66.2338L39.9532-80.6432Q42.0013-82.5529 43.785-83.3437Q45.5686-84.1344 48.7563-84.1344L91.8304-84.1344Q95.0283-84.1344 96.8069-83.3385Q98.5854-82.5427 100.634-80.6432L116.56-66.2749Q118.21-64.808 117.662-63.9667Q117.114-63.1254 115.228-63.1254L85.2079-63.1254Q83.2243-63.1254 82.278-61.9637Q81.3317-60.8019 81.3317-59.2641L81.3317-59.0948Q81.3317-56.3767 80.0036-53.7658Q78.6755-51.155 76.1878-49.4821Q73.7001-47.8092 70.2892-47.8092ZM28.4803 20.5557L112.063 20.5557Q119.974 20.5557 124.023 16.5247Q128.072 12.4938 128.072 4.68551L128.072-12.4392Q128.072-14.7059 126.811-16.356Q125.549-18.006 123.207-18.006L85.3004-18.006Q83.2963-18.006 82.3448-16.8123Q81.3934-15.6186 81.3934-14.1137L81.3934-13.9547Q81.3934-11.235 80.0601-8.60439Q78.7269-5.9738 76.2289-4.26892Q73.7309-2.56403 70.2892-2.56403Q66.8661-2.56403 64.3681-4.26892Q61.8701-5.9738 60.51-8.60439Q59.1499-11.235 59.1499-13.9547L59.1499-14.1137Q59.1499-15.6186 58.2202-16.8123Q57.2904-18.006 55.243-18.006L17.4823-18.006Q15.1508-18.006 13.811-16.356Q12.4712-14.7059 12.4712-12.4392L12.4712 4.68551Q12.4712 12.511 16.537 16.5333Q20.6028 20.5557 28.4803 20.5557Z"/>
  </g>
  <g id="Regular-M" transform="matrix(1 0 0 1 1379.84 1126)">
   <path d="M27.7789-25.3622L112.233-25.3622Q119.954-25.3622 123.752-29.0161Q127.551-32.67 127.551-39.8004L127.551-59.5493Q127.551-62.9089 127.12-65.2619Q126.69-67.6149 124.813-69.3362L107.468-85.7103Q104.821-88.2121 102.455-89.6293Q100.088-91.0464 97.4152-91.6642Q94.7424-92.282 91.1719-92.282L48.8917-92.282Q45.2693-92.282 42.5913-91.6642Q39.9133-91.0464 37.5519-89.6293Q35.1905-88.2121 32.5441-85.7103L15.2501-69.3362Q13.3734-67.6149 12.9172-65.2619Q12.4609-62.9089 12.4609-59.5493L12.4609-39.8004Q12.4609-32.7112 16.3112-29.0367Q20.1615-25.3622 27.7789-25.3622ZM70.0265-47.2799Q66.5775-47.2799 64.0263-48.9885Q61.4751-50.6972 60.0718-53.3831Q58.6684-56.069 58.6684-58.8872L58.6684-59.054Q58.6684-60.6095 57.7665-61.8066Q56.8645-63.0037 54.9467-63.0037L23.9327-63.0037Q21.85-63.0037 21.3213-63.9057Q20.7927-64.8076 22.4509-66.3728L38.5947-81.5661Q40.8302-83.6979 42.7488-84.5654Q44.6674-85.4329 48.1775-85.4329L91.8858-85.4329Q95.396-85.4329 97.3146-84.5654Q99.2332-83.6979 101.469-81.5661L117.561-66.3728Q119.322-64.756 118.742-63.8798Q118.162-63.0037 116.131-63.0037L85.065-63.0037Q83.1988-63.0037 82.2711-61.8066Q81.3433-60.6095 81.3433-59.054L81.3433-58.8872Q81.3433-56.069 79.9658-53.3831Q78.5883-50.6972 76.0371-48.9885Q73.4858-47.2799 70.0265-47.2799ZM27.7789 20.0564L112.233 20.0564Q119.902 20.0564 123.726 16.2473Q127.551 12.4382 127.551 4.90428L127.551-13.0565Q127.551-15.1506 126.301-16.8141Q125.052-18.4775 122.844-18.4775L85.065-18.4775Q83.1988-18.4775 82.2711-17.2545Q81.3433-16.0316 81.3433-14.5276L81.3433-14.3608Q81.3433-11.5532 79.9658-8.86196Q78.5883-6.17075 76.0371-4.43627Q73.4858-2.7018 70.0265-2.7018Q66.5775-2.7018 64.0263-4.43627Q61.4751-6.17075 60.0718-8.86196Q58.6684-11.5532 58.6684-14.3608L58.6684-14.5276Q58.6684-16.0316 57.7665-17.2545Q56.8645-18.4775 54.9467-18.4775L17.2198-18.4775Q15.0115-18.4775 13.7362-16.8141Q12.4609-15.1506 12.4609-13.0565L12.4609 4.90428Q12.4609 12.4593 16.3112 16.2579Q20.1615 20.0564 27.7789 20.0564Z"/>
  </g>
  <g id="Light-M" transform="matrix(1 0 0 1 1083.52 1126)">
   <path d="M26.8549-26.1836L112.37-26.1836Q119.577-26.1836 123.171-29.7006Q126.764-33.2177 126.764-39.9887L126.764-60.6444Q126.764-63.4908 126.393-65.416Q126.023-67.3412 124.437-68.8228L106.646-86.0866Q104.154-88.503 101.89-89.8945Q99.626-91.2859 97.0644-91.8952Q94.5029-92.5045 91.1035-92.5045L48.156-92.5045Q44.7217-92.5045 42.1464-91.8952Q39.5712-91.2859 37.3209-89.8945Q35.0707-88.503 32.5784-86.0866L14.8223-68.8228Q13.2366-67.3412 12.8488-65.416Q12.4609-63.4908 12.4609-60.6444L12.4609-39.9887Q12.4609-33.2247 16.0887-29.7041Q19.7165-26.1836 26.8549-26.1836ZM69.616-47.7761Q66.0299-47.7761 63.2819-49.5276Q60.5339-51.279 58.9766-54.1275Q57.4193-56.976 57.4193-60.222L57.4193-60.4572Q57.4193-61.8072 56.6713-62.7733Q55.9233-63.7394 54.3306-63.7394L21.5201-63.7394Q19.8994-63.7394 19.4734-64.4874Q19.0474-65.2354 20.3635-66.5096L37.2257-82.9009Q39.7521-85.3575 41.953-86.2679Q44.1539-87.1783 47.6983-87.1783L91.5607-87.1783Q95.1051-87.1783 97.306-86.2679Q99.5069-85.3575 102.033-82.9009L118.861-66.5096Q120.246-65.201 119.786-64.4702Q119.325-63.7394 117.739-63.7394L84.894-63.7394Q83.3357-63.7394 82.5705-62.7733Q81.8053-61.8072 81.8053-60.4572L81.8053-60.222Q81.8053-56.976 80.2652-54.1275Q78.7251-51.279 75.9771-49.5276Q73.2291-47.7761 69.616-47.7761ZM26.8549 18.0202L112.37 18.0202Q119.542 18.0202 123.153 14.3994Q126.764 10.7786 126.764 3.75779L126.764-15.9483Q126.764-17.7001 125.711-19.0299Q124.658-20.3596 122.81-20.3596L84.894-20.3596Q83.3357-20.3596 82.5705-19.3763Q81.8053-18.393 81.8053-17.077L81.8053-16.8418Q81.8053-13.6236 80.2652-10.7612Q78.7251-7.89882 75.9771-6.13013Q73.2291-4.36145 69.616-4.36145Q66.0299-4.36145 63.2819-6.13013Q60.5339-7.89882 58.9766-10.7612Q57.4193-13.6236 57.4193-16.8418L57.4193-17.077Q57.4193-18.393 56.6713-19.3763Q55.9233-20.3596 54.3306-20.3596L16.4499-20.3596Q14.601-20.3596 13.531-19.0299Q12.4609-17.7001 12.4609-15.9483L12.4609 3.75779Q12.4609 10.8339 16.0887 14.427Q19.7165 18.0202 26.8549 18.0202Z"/>
  </g>
  <g id="Thin-M" transform="matrix(1 0 0 1 787.33 1126)">
   <path d="M25.6329-27.2699L112.551-27.2699Q119.08-27.2699 122.401-30.6059Q125.723-33.942 125.723-40.2377L125.723-62.0926Q125.723-64.2603 125.431-65.6198Q125.14-66.9793 123.939-68.1437L105.56-86.5843Q103.271-88.8878 101.143-90.2452Q99.015-91.6026 96.6006-92.2007Q94.1862-92.7988 91.013-92.7988L47.183-92.7988Q43.9974-92.7988 41.558-92.2007Q39.1187-91.6026 37.0154-90.2452Q34.9121-88.8878 32.6236-86.5843L14.2565-68.1437Q13.0556-66.9793 12.7583-65.6198Q12.4609-64.2603 12.4609-62.0926L12.4609-40.2377Q12.4609-33.9038 15.7944-30.5868Q19.1279-27.2699 25.6329-27.2699ZM69.0731-48.4324Q65.3056-48.4324 62.2973-50.2405Q59.289-52.0486 57.5281-55.1121Q55.7673-58.1756 55.7673-61.9874L55.7673-62.3131Q55.7673-63.3912 55.2229-64.0518Q54.6785-64.7124 53.5158-64.7124L18.3293-64.7124Q17.3196-64.7124 17.0293-65.2568Q16.7391-65.8012 17.6027-66.6906L35.4151-84.6663Q38.3263-87.5526 40.9006-88.5196Q43.4749-89.4866 47.0645-89.4866L91.1307-89.4866Q94.7203-89.4866 97.2946-88.5196Q99.8689-87.5526 102.78-84.6663L120.581-66.6906Q121.468-65.7896 121.166-65.251Q120.864-64.7124 119.867-64.7124L84.6677-64.7124Q83.5167-64.7124 82.9665-64.0518Q82.4163-63.3912 82.4163-62.3131L82.4163-61.9874Q82.4163-58.1756 80.6612-55.1121Q78.9061-52.0486 75.8978-50.2405Q72.8896-48.4324 69.0731-48.4324ZM25.6329 15.327L112.551 15.327Q119.067 15.327 122.395 11.9553Q125.723 8.58357 125.723 2.24147L125.723-19.773Q125.723-21.0719 124.93-21.9604Q124.138-22.849 122.764-22.849L84.6677-22.849Q83.5167-22.849 82.9665-22.1825Q82.4163-21.5161 82.4163-20.4488L82.4163-20.1231Q82.4163-16.362 80.6612-13.2732Q78.9061-10.1843 75.8978-8.3704Q72.8896-6.55646 69.0731-6.55646Q65.3056-6.55646 62.2973-8.3704Q59.289-10.1843 57.5281-13.2732Q55.7673-16.362 55.7673-20.1231L55.7673-20.4488Q55.7673-21.5161 55.2229-22.1825Q54.6785-22.849 53.5158-22.849L15.4317-22.849Q14.058-22.849 13.2595-21.9604Q12.4609-21.0719 12.4609-19.773L12.4609 2.24147Q12.4609 8.68413 15.7944 12.0056Q19.1279 15.327 25.6329 15.327Z"/>
  </g>
  <g id="Ultralight-M" transform="matrix(1 0 0 1 490.886 1126)">
   <path d="M25.007-27.8263L112.643-27.8263Q118.825-27.8263 122.007-31.0696Q125.189-34.313 125.189-40.3653L125.189-62.8344Q125.189-64.6545 124.939-65.7242Q124.688-66.7939 123.685-67.7959L105.004-86.8392Q102.819-89.0849 100.761-90.4249Q98.702-91.7648 96.363-92.3572Q94.0239-92.9496 90.9666-92.9496L46.6847-92.9496Q43.6264-92.9496 41.2567-92.3572Q38.8869-91.7648 36.8589-90.4249Q34.8309-89.0849 32.6468-86.8392L13.9668-67.7959Q12.9629-66.7939 12.7119-65.7242Q12.4609-64.6545 12.4609-62.8344L12.4609-40.3653Q12.4609-34.2516 15.6437-31.0389Q18.8264-27.8263 25.007-27.8263ZM68.795-48.7685Q64.9346-48.7685 61.793-50.6056Q58.6514-52.4428 56.7862-55.6164Q54.9211-58.79 54.9211-62.8916L54.9211-63.2637Q54.9211-64.2025 54.481-64.7066Q54.0409-65.2108 53.0984-65.2108L16.695-65.2108Q15.9982-65.2108 15.7775-65.6509Q15.5568-66.091 16.1887-66.7833L34.4877-85.5705Q37.596-88.6768 40.3615-89.6729Q43.127-90.6689 46.7398-90.6689L90.9104-90.6689Q94.5232-90.6689 97.2887-89.6729Q100.054-88.6768 103.163-85.5705L121.462-66.7833Q122.094-66.091 121.873-65.6509Q121.652-65.2108 120.956-65.2108L84.5519-65.2108Q83.6094-65.2108 83.1693-64.7066Q82.7292-64.2025 82.7292-63.2637L82.7292-62.8916Q82.7292-58.79 80.864-55.6164Q78.9988-52.4428 75.8572-50.6056Q72.7157-48.7685 68.795-48.7685ZM25.007 13.9477L112.643 13.9477Q118.824 13.9477 122.007 10.7035Q125.189 7.4593 125.189 1.46481L125.189-21.7319Q125.189-22.7989 124.53-23.4614Q123.871-24.124 122.741-24.124L84.5519-24.124Q83.6094-24.124 83.1693-23.6199Q82.7292-23.1158 82.7292-22.1758L82.7292-21.8038Q82.7292-17.7646 80.864-14.5598Q78.9988-11.355 75.8572-9.51785Q72.7157-7.68074 68.795-7.68074Q64.9346-7.68074 61.793-9.51785Q58.6514-11.355 56.7862-14.5598Q54.9211-17.7646 54.9211-21.8038L54.9211-22.1758Q54.9211-23.1158 54.481-23.6199Q54.0409-24.124 53.0984-24.124L14.9102-24.124Q13.7799-24.124 13.1204-23.4614Q12.4609-22.7989 12.4609-21.7319L12.4609 1.46481Q12.4609 7.58302 15.6437 10.7653Q18.8264 13.9477 25.007 13.9477Z"/>
  </g>
  <g id="Black-S" transform="matrix(1 0 0 1 2877.3 696)">
   <path d="M25.0488-27.2949L87.1582-27.2949Q94.3848-27.2949 98.3887-31.3232Q102.393-35.3516 102.393-42.5293L102.393-49.707Q102.393-54.6875 102.319-58.4717Q102.246-62.2559 99.5117-64.1602L85.1562-74.2188Q82.666-75.9766 80.4443-77.0996Q78.2227-78.2227 75.6104-78.7354Q72.998-79.248 69.2383-79.248L42.9688-79.248Q39.209-79.248 36.5967-78.7354Q33.9844-78.2227 31.7871-77.0996Q29.5898-75.9766 27.0508-74.2188L12.6953-64.1602Q10.0098-62.2559 9.91211-58.4717Q9.81445-54.6875 9.81445-49.707L9.81445-42.5293Q9.81445-35.3516 13.8184-31.3232Q17.8223-27.2949 25.0488-27.2949ZM56.1035-47.2168Q53.6133-47.2168 51.9287-48.3887Q50.2441-49.5605 49.3652-51.3184Q48.4863-53.0762 48.4863-54.834L48.4863-54.9805Q48.4863-56.1035 47.6807-56.8604Q46.875-57.6172 44.873-57.6172L25.3906-57.6172Q24.5117-57.6172 24.2676-58.0566Q24.0234-58.4961 24.8047-58.9844L36.6211-67.2363Q37.5-67.8711 38.3789-68.1885Q39.2578-68.5059 40.4785-68.5059L71.7285-68.5059Q72.998-68.5059 73.8525-68.1641Q74.707-67.8223 75.5859-67.2363L87.4512-59.1797Q88.2812-58.6426 87.9883-58.1299Q87.6953-57.6172 86.8164-57.6172L67.334-57.6172Q65.332-57.6172 64.5264-56.8604Q63.7207-56.1035 63.7207-54.9805L63.7207-54.834Q63.7207-53.0762 62.8662-51.3184Q62.0117-49.5605 60.3027-48.3887Q58.5938-47.2168 56.1035-47.2168ZM25.0488 10.3516L87.1582 10.3516Q94.2871 10.3516 98.3398 6.32324Q102.393 2.29492 102.393-4.88281L102.393-15.0879Q102.393-17.5293 101.367-18.75Q100.342-19.9707 97.998-19.9707L67.7734-19.9707Q65.6738-19.9707 64.8438-19.165Q64.0137-18.3594 64.0137-17.1875L64.0137-17.0898Q64.0137-15.2832 63.1348-13.4521Q62.2559-11.6211 60.498-10.4004Q58.7402-9.17969 56.1035-9.17969Q53.5156-9.17969 51.7578-10.4004Q50-11.6211 49.0967-13.4521Q48.1934-15.2832 48.1934-17.0898L48.1934-17.1875Q48.1934-18.3594 47.3633-19.165Q46.5332-19.9707 44.4336-19.9707L14.6973-19.9707Q12.4023-19.9707 11.1084-18.75Q9.81445-17.5293 9.81445-15.0879L9.81445-4.88281Q9.81445 2.29492 13.8428 6.32324Q17.8711 10.3516 25.0488 10.3516Z"/>
  </g>
  <g id="Heavy-S" transform="matrix(1 0 0 1 2580.83 696)">
   <path d="M24.3804-27.2488L87.3311-27.2488Q94.3387-27.2488 98.1236-31.0178Q101.909-34.7869 101.909-41.6304L101.909-50.6636Q101.909-55.1485 101.766-58.5235Q101.624-61.8986 99.1545-63.6992L85.0295-74.3109Q82.6199-76.1264 80.4731-77.2494Q78.3264-78.3725 75.8236-78.8794Q73.3207-79.3863 69.7684-79.3863L41.9546-79.3863Q38.3907-79.3863 35.8879-78.8794Q33.3851-78.3725 31.257-77.2494Q29.1289-76.1264 26.682-74.3109L12.5685-63.6992Q10.1365-61.8986 9.96973-58.5235Q9.80293-55.1485 9.80293-50.6636L9.80293-41.6304Q9.80293-34.7984 13.5994-31.0236Q17.3959-27.2488 24.3804-27.2488ZM55.8615-46.5599Q53.3367-46.5599 51.6003-47.7664Q49.8638-48.9728 48.9504-50.794Q48.0369-52.6152 48.0369-54.4306L48.0369-54.5656Q48.0369-55.7347 47.237-56.5607Q46.4371-57.3867 44.5158-57.3867L24.0999-57.3867Q22.9905-57.3867 22.6945-57.9068Q22.3985-58.4269 23.3411-59.1227L35.2727-68.1007Q36.3245-68.9429 37.3187-69.3409Q38.3128-69.739 39.8908-69.739L71.8322-69.739Q73.4475-69.739 74.423-69.3223Q75.3985-68.9056 76.4503-68.1007L88.4077-59.2719Q89.4106-58.5273 89.0658-57.957Q88.721-57.3867 87.6231-57.3867L67.1957-57.3867Q65.2859-57.3867 64.4803-56.5607Q63.6746-55.7347 63.6746-54.5656L63.6746-54.4306Q63.6746-52.6152 62.7855-50.794Q61.8965-48.9728 60.1414-47.7664Q58.3863-46.5599 55.8615-46.5599ZM24.3804 10.0519L87.3311 10.0519Q94.2525 10.0519 98.0805 6.24833Q101.909 2.44474 101.909-4.49098L101.909-15.4106Q101.909-17.7022 100.872-18.9805Q99.8347-20.2588 97.5947-20.2588L67.5314-20.2588Q65.5471-20.2588 64.7227-19.3898Q63.8984-18.5207 63.8984-17.3258L63.8984-17.2281Q63.8984-15.3754 62.9907-13.4982Q62.083-11.6211 60.2906-10.3716Q58.4982-9.12207 55.8615-9.12207Q53.2621-9.12207 51.4697-10.3716Q49.6773-11.6211 48.7452-13.4982Q47.8131-15.3754 47.8131-17.2281L47.8131-17.3258Q47.8131-18.5207 46.9945-19.3898Q46.1759-20.2588 44.1801-20.2588L14.5013-20.2588Q12.2986-20.2588 11.0508-18.9805Q9.80293-17.7022 9.80293-15.4106L9.80293-4.49098Q9.80293 2.44474 13.618 6.24833Q17.4332 10.0519 24.3804 10.0519Z"/>
  </g>
  <g id="Bold-S" transform="matrix(1 0 0 1 2284.4 696)">
   <path d="M23.6328-27.1973L87.5244-27.1973Q94.2871-27.1973 97.8271-30.6763Q101.367-34.1553 101.367-40.625L101.367-51.7334Q101.367-55.6641 101.147-58.5815Q100.928-61.499 98.7549-63.1836L84.8877-74.4141Q82.5684-76.2939 80.5054-77.417Q78.4424-78.54 76.062-79.0405Q73.6816-79.541 70.3613-79.541L40.8203-79.541Q37.4756-79.541 35.0952-79.0405Q32.7148-78.54 30.6641-77.417Q28.6133-76.2939 26.2695-74.4141L12.4268-63.1836Q10.2783-61.499 10.0342-58.5815Q9.79004-55.6641 9.79004-51.7334L9.79004-40.625Q9.79004-34.1797 13.3545-30.6885Q16.9189-27.1973 23.6328-27.1973ZM55.5908-45.8252Q53.0273-45.8252 51.2329-47.0703Q49.4385-48.3154 48.4863-50.2075Q47.5342-52.0996 47.5342-53.9795L47.5342-54.1016Q47.5342-55.3223 46.7407-56.2256Q45.9473-57.1289 44.1162-57.1289L22.6562-57.1289Q21.2891-57.1289 20.9351-57.7393Q20.5811-58.3496 21.7041-59.2773L33.7646-69.0674Q35.0098-70.1416 36.1328-70.6299Q37.2559-71.1182 39.2334-71.1182L71.9482-71.1182Q73.9502-71.1182 75.061-70.6177Q76.1719-70.1172 77.417-69.0674L89.4775-59.375Q90.6738-58.3984 90.271-57.7637Q89.8682-57.1289 88.5254-57.1289L67.041-57.1289Q65.2344-57.1289 64.4287-56.2256Q63.623-55.3223 63.623-54.1016L63.623-53.9795Q63.623-52.0996 62.6953-50.2075Q61.7676-48.3154 59.9609-47.0703Q58.1543-45.8252 55.5908-45.8252ZM23.6328 9.7168L87.5244 9.7168Q94.2139 9.7168 97.7905 6.16455Q101.367 2.6123 101.367-4.05273L101.367-15.7715Q101.367-17.8955 100.317-19.2383Q99.2676-20.5811 97.1436-20.5811L67.2607-20.5811Q65.4053-20.5811 64.5874-19.6411Q63.7695-18.7012 63.7695-17.4805L63.7695-17.3828Q63.7695-15.4785 62.8296-13.5498Q61.8896-11.6211 60.0586-10.3394Q58.2275-9.05762 55.5908-9.05762Q52.9785-9.05762 51.1475-10.3394Q49.3164-11.6211 48.3521-13.5498Q47.3877-15.4785 47.3877-17.3828L47.3877-17.4805Q47.3877-18.7012 46.582-19.6411Q45.7764-20.5811 43.8965-20.5811L14.2822-20.5811Q12.1826-20.5811 10.9863-19.2383Q9.79004-17.8955 9.79004-15.7715L9.79004-4.05273Q9.79004 2.6123 13.3667 6.16455Q16.9434 9.7168 23.6328 9.7168Z"/>
  </g>
  <g id="Semibold-S" transform="matrix(1 0 0 1 1987.88 696)">
   <path d="M23.1174-27.1617L87.6577-27.1617Q94.2516-27.1617 97.6228-30.4408Q100.994-33.7198 100.994-39.9318L100.994-52.471Q100.994-56.0195 100.721-58.6215Q100.448-61.2235 98.4794-62.8281L84.7899-74.4852Q82.5328-76.4095 80.5276-77.5325Q78.5224-78.6556 76.2264-79.1516Q73.9305-79.6477 70.7701-79.6477L40.0383-79.6477Q36.8446-79.6477 34.5487-79.1516Q32.2527-78.6556 30.2553-77.5325Q28.2578-76.4095 25.9852-74.4852L12.329-62.8281Q10.3761-61.2235 10.0786-58.6215Q9.78115-56.0195 9.78115-52.471L9.78115-39.9318Q9.78115-33.7531 13.1856-30.4574Q16.5901-27.1617 23.1174-27.1617ZM55.4042-45.3187Q52.8141-45.3187 50.9796-46.5904Q49.1452-47.8622 48.1664-49.8032Q47.1876-51.7441 47.1876-53.6685L47.1876-53.7816Q47.1876-55.0379 46.3986-55.9945Q45.6096-56.9512 43.8407-56.9512L21.6609-56.9512Q20.116-56.9512 19.722-57.6237Q19.328-58.2963 20.5755-59.384L32.7249-69.7339Q34.1033-70.9681 35.3152-71.5186Q36.5271-72.069 38.7802-72.069L72.0282-72.069Q74.2968-72.069 75.5009-71.5108Q76.7051-70.9525 78.0835-69.7339L90.2151-59.4461Q91.5447-58.3096 91.1019-57.6304Q90.6591-56.9512 89.1475-56.9512L66.9344-56.9512Q65.1988-56.9512 64.3932-55.9945Q63.5875-55.0379 63.5875-53.7816L63.5875-53.6685Q63.5875-51.7441 62.6331-49.8032Q61.6787-47.8622 59.8365-46.5904Q57.9943-45.3187 55.4042-45.3187ZM23.1174 9.48574L87.6577 9.48574Q94.1872 9.48574 97.5906 6.10679Q100.994 2.72783 100.994-3.75059L100.994-16.0203Q100.994-18.0288 99.9353-19.416Q98.8766-20.8032 96.8325-20.8032L67.0741-20.8032Q65.3075-20.8032 64.4941-19.8144Q63.6807-18.8256 63.6807-17.5871L63.6807-17.4895Q63.6807-15.5496 62.7185-13.5854Q61.7563-11.6211 59.8986-10.3171Q58.0409-9.01318 55.4042-9.01318Q52.783-9.01318 50.9253-10.3171Q49.0676-11.6211 48.081-13.5854Q47.0944-15.5496 47.0944-17.4895L47.0944-17.5871Q47.0944-18.8256 46.2977-19.8144Q45.5009-20.8032 43.701-20.8032L14.1312-20.8032Q12.1026-20.8032 10.9419-19.416Q9.78115-18.0288 9.78115-16.0203L9.78115-3.75059Q9.78115 2.72783 13.1934 6.10679Q16.6057 9.48574 23.1174 9.48574Z"/>
  </g>
  <g id="Medium-S" transform="matrix(1 0 0 1 1691.31 696)">
   <path d="M22.7266-27.1348L87.7588-27.1348Q94.2246-27.1348 97.4678-30.2622Q100.711-33.3896 100.711-39.4062L100.711-53.0303Q100.711-56.2891 100.397-58.6519Q100.084-61.0146 98.2705-62.5586L84.7158-74.5391Q82.5059-76.4971 80.5444-77.6201Q78.583-78.7432 76.3511-79.2358Q74.1191-79.7285 71.0801-79.7285L39.4453-79.7285Q36.3662-79.7285 34.1343-79.2358Q31.9023-78.7432 29.9453-77.6201Q27.9883-76.4971 25.7695-74.5391L12.2549-62.5586Q10.4502-61.0146 10.1123-58.6519Q9.77441-56.2891 9.77441-53.0303L9.77441-39.4062Q9.77441-33.4297 13.0576-30.2822Q16.3408-27.1348 22.7266-27.1348ZM55.2627-44.9346Q52.6523-44.9346 50.7876-46.2266Q48.9229-47.5186 47.9238-49.4966Q46.9248-51.4746 46.9248-53.4326L46.9248-53.5391Q46.9248-54.8223 46.1392-55.8193Q45.3535-56.8164 43.6318-56.8164L20.9062-56.8164Q19.2266-56.8164 18.8022-57.5361Q18.3779-58.2559 19.7197-59.4648L31.9365-70.2393Q33.416-71.5947 34.6953-72.1924Q35.9746-72.79 38.4365-72.79L72.0889-72.79Q74.5596-72.79 75.8345-72.188Q77.1094-71.5859 78.5889-70.2393L90.7744-59.5Q92.2051-58.2422 91.7319-57.5293Q91.2588-56.8164 89.6191-56.8164L66.8535-56.8164Q65.1719-56.8164 64.3662-55.8193Q63.5605-54.8223 63.5605-53.5391L63.5605-53.4326Q63.5605-51.4746 62.5859-49.4966Q61.6113-47.5186 59.7422-46.2266Q57.873-44.9346 55.2627-44.9346ZM22.7266 9.31055L87.7588 9.31055Q94.167 9.31055 97.439 6.06299Q100.711 2.81543 100.711-3.52148L100.711-16.209Q100.711-18.1299 99.6455-19.5508Q98.5801-20.9717 96.5967-20.9717L66.9326-20.9717Q65.2334-20.9717 64.4233-19.9458Q63.6133-18.9199 63.6133-17.668L63.6133-17.5703Q63.6133-15.6035 62.6343-13.6123Q61.6553-11.6211 59.7773-10.3003Q57.8994-8.97949 55.2627-8.97949Q52.6348-8.97949 50.7568-10.3003Q48.8789-11.6211 47.8755-13.6123Q46.8721-15.6035 46.8721-17.5703L46.8721-17.668Q46.8721-18.9199 46.082-19.9458Q45.292-20.9717 43.5527-20.9717L14.0166-20.9717Q12.042-20.9717 10.9082-19.5508Q9.77441-18.1299 9.77441-16.209L9.77441-3.52148Q9.77441 2.81543 13.062 6.06299Q16.3496 9.31055 22.7266 9.31055Z"/>
  </g>
  <g id="Regular-S" transform="matrix(1 0 0 1 1394.79 696)">
   <path d="M22.2168-27.0996L87.8906-27.0996Q94.1895-27.0996 97.2656-30.0293Q100.342-32.959 100.342-38.7207L100.342-53.7598Q100.342-56.6406 99.9756-58.6914Q99.6094-60.7422 97.998-62.207L84.6191-74.6094Q82.4707-76.6113 80.5664-77.7344Q78.6621-78.8574 76.5137-79.3457Q74.3652-79.834 71.4844-79.834L38.6719-79.834Q35.7422-79.834 33.5938-79.3457Q31.4453-78.8574 29.541-77.7344Q27.6367-76.6113 25.4883-74.6094L12.1582-62.207Q10.5469-60.7422 10.1562-58.6914Q9.76562-56.6406 9.76562-53.7598L9.76562-38.7207Q9.76562-33.0078 12.8906-30.0537Q16.0156-27.0996 22.2168-27.0996ZM55.0781-44.4336Q52.4414-44.4336 50.5371-45.752Q48.6328-47.0703 47.6074-49.0967Q46.582-51.123 46.582-53.125L46.582-53.2227Q46.582-54.541 45.8008-55.5908Q45.0195-56.6406 43.3594-56.6406L19.9219-56.6406Q18.0664-56.6406 17.6025-57.4219Q17.1387-58.2031 18.6035-59.5703L30.9082-70.8984Q32.5195-72.4121 33.8867-73.0713Q35.2539-73.7305 37.9883-73.7305L72.168-73.7305Q74.9023-73.7305 76.2695-73.0713Q77.6367-72.4121 79.248-70.8984L91.5039-59.5703Q93.0664-58.1543 92.5537-57.3975Q92.041-56.6406 90.2344-56.6406L66.748-56.6406Q65.1367-56.6406 64.3311-55.5908Q63.5254-54.541 63.5254-53.2227L63.5254-53.125Q63.5254-51.123 62.5244-49.0967Q61.5234-47.0703 59.6191-45.752Q57.7148-44.4336 55.0781-44.4336ZM22.2168 9.08203L87.8906 9.08203Q94.1406 9.08203 97.2412 6.00586Q100.342 2.92969 100.342-3.22266L100.342-16.4551Q100.342-18.2617 99.2676-19.7266Q98.1934-21.1914 96.2891-21.1914L66.748-21.1914Q65.1367-21.1914 64.3311-20.1172Q63.5254-19.043 63.5254-17.7734L63.5254-17.6758Q63.5254-15.6738 62.5244-13.6475Q61.5234-11.6211 59.6191-10.2783Q57.7148-8.93555 55.0781-8.93555Q52.4414-8.93555 50.5371-10.2783Q48.6328-11.6211 47.6074-13.6475Q46.582-15.6738 46.582-17.6758L46.582-17.7734Q46.582-19.043 45.8008-20.1172Q45.0195-21.1914 43.3594-21.1914L13.8672-21.1914Q11.9629-21.1914 10.8643-19.7266Q9.76562-18.2617 9.76562-16.4551L9.76562-3.22266Q9.76562 2.92969 12.8906 6.00586Q16.0156 9.08203 22.2168 9.08203Z"/>
  </g>
  <g id="Light-S" transform="matrix(1 0 0 1 1098.43 696)">
   <path d="M21.3994-27.8262L88.0117-27.8262Q93.8566-27.8262 96.751-30.6348Q99.6455-33.4435 99.6455-38.8873L99.6455-54.7284Q99.6455-57.1554 99.3323-58.8277Q99.0191-60.5001 97.6652-61.7528L83.8926-74.9423Q81.8804-76.8687 80.0669-77.969Q78.2534-79.0693 76.2034-79.55Q74.1534-80.0308 71.4238-80.0308L38.0211-80.0308Q35.2577-80.0308 33.2002-79.55Q31.1427-79.0693 29.3367-77.969Q27.5307-76.8687 25.5185-74.9423L11.7798-61.7528Q10.4258-60.5001 10.0957-58.8277Q9.76562-57.1554 9.76562-54.7284L9.76562-38.8873Q9.76562-33.462 12.6938-30.6441Q15.6219-27.8262 21.3994-27.8262ZM54.715-44.8725Q51.9569-44.8725 49.8786-46.2288Q47.8002-47.585 46.6386-49.7552Q45.477-51.9254 45.477-54.3058L45.477-54.464Q45.477-55.6005 44.832-56.4459Q44.1869-57.2914 42.8144-57.2914L17.7877-57.2914Q16.3409-57.2914 15.9678-57.9365Q15.5947-58.5815 16.7569-59.6914L29.6972-72.0792Q31.5659-73.8803 33.1828-74.5773Q34.7997-75.2744 37.5643-75.2744L71.8803-75.2744Q74.645-75.2744 76.2619-74.5773Q77.8788-73.8803 79.7475-72.0792L92.6542-59.6914Q93.8838-58.548 93.477-57.9197Q93.0702-57.2914 91.6573-57.2914L66.5967-57.2914Q65.2578-57.2914 64.5959-56.4459Q63.9341-55.6005 63.9341-54.464L63.9341-54.3058Q63.9341-51.9254 62.7893-49.7552Q61.6445-47.585 59.5661-46.2288Q57.4877-44.8725 54.715-44.8725ZM21.3994 7.28073L88.0117 7.28073Q93.8227 7.28073 96.7341 4.37113Q99.6455 1.46154 99.6455-4.23686L99.6455-19.0132Q99.6455-20.517 98.7453-21.6867Q97.8452-22.8564 96.2588-22.8564L66.5967-22.8564Q65.2578-22.8564 64.5959-21.9941Q63.9341-21.1319 63.9341-20.0287L63.9341-19.8705Q63.9341-17.5054 62.7893-15.3276Q61.6445-13.1498 59.5661-11.7767Q57.4877-10.4037 54.715-10.4037Q51.9569-10.4037 49.8786-11.7767Q47.8002-13.1498 46.6386-15.3276Q45.477-17.5054 45.477-19.8705L45.477-20.0287Q45.477-21.1319 44.832-21.9941Q44.1869-22.8564 42.8144-22.8564L13.1861-22.8564Q11.5997-22.8564 10.6827-21.6867Q9.76562-20.517 9.76562-19.0132L9.76562-4.23686Q9.76562 1.4918 12.6938 4.38627Q15.6219 7.28073 21.3994 7.28073Z"/>
  </g>
  <g id="Thin-S" transform="matrix(1 0 0 1 802.177 696)">
   <path d="M20.3184-28.7871L88.1718-28.7871Q93.4163-28.7871 96.0704-31.4357Q98.7246-34.0842 98.7246-39.1076L98.7246-56.0096Q98.7246-57.8361 98.4815-59.008Q98.2384-60.1799 97.2249-61.1521L82.9316-75.3826Q81.0998-77.2091 79.4063-78.2793Q77.7129-79.3494 75.7931-79.8203Q73.8732-80.2912 71.3438-80.2912L37.1604-80.2912Q34.617-80.2912 32.6797-79.8203Q30.7424-79.3494 29.0664-78.2793Q27.3904-77.2091 25.5586-75.3826L11.2793-61.1521Q10.2657-60.1799 10.0157-59.008Q9.76562-57.8361 9.76562-56.0096L9.76562-39.1076Q9.76562-34.0627 12.4335-31.4249Q15.1013-28.7871 20.3184-28.7871ZM54.2347-45.4531Q51.3162-45.4531 49.0076-46.8594Q46.699-48.2658 45.3573-50.6262Q44.0156-52.9866 44.0156-55.8674L44.0156-56.1057Q44.0156-57.0017 43.5507-57.5769Q43.0857-58.1521 42.0936-58.1521L14.965-58.1521Q14.0588-58.1521 13.8058-58.6171Q13.5528-59.082 14.3147-59.8515L28.0955-73.6409Q30.3045-75.822 32.2518-76.5692Q34.199-77.3164 37.0036-77.3164L71.4999-77.3164Q74.3046-77.3164 76.2518-76.5692Q78.199-75.822 80.4081-73.6409L94.1755-59.8515Q94.9648-59.0686 94.6981-58.6104Q94.4314-58.1521 93.5391-58.1521L66.3966-58.1521Q65.4179-58.1521 64.9462-57.5769Q64.4746-57.0017 64.4746-56.1057L64.4746-55.8674Q64.4746-52.9866 63.1396-50.6262Q61.8046-48.2658 59.496-46.8594Q57.1874-45.4531 54.2347-45.4531ZM20.3184 4.89837L88.1718 4.89837Q93.4023 4.89837 96.0634 2.20908Q98.7246-0.480209 98.7246-5.57822L98.7246-22.3966Q98.7246-23.4997 98.0547-24.2791Q97.3847-25.0585 96.2188-25.0585L66.3966-25.0585Q65.4179-25.0585 64.9462-24.4766Q64.4746-23.8947 64.4746-23.0114L64.4746-22.7732Q64.4746-19.9278 63.1396-17.5497Q61.8046-15.1716 59.496-13.7585Q57.1874-12.3454 54.2347-12.3454Q51.3162-12.3454 49.0076-13.7585Q46.699-15.1716 45.3573-17.5497Q44.0156-19.9278 44.0156-22.7732L44.0156-23.0114Q44.0156-23.8947 43.5507-24.4766Q43.0857-25.0585 42.0936-25.0585L12.2854-25.0585Q11.1194-25.0585 10.4425-24.2791Q9.76562-23.4997 9.76562-22.3966L9.76562-5.57822Q9.76562-0.40992 12.4335 2.24422Q15.1013 4.89837 20.3184 4.89837Z"/>
  </g>
  <g id="Ultralight-S" transform="matrix(1 0 0 1 505.702 696)">
   <path d="M19.7647-29.2793L88.2538-29.2793Q93.1908-29.2793 95.7218-31.8459Q98.2529-34.4124 98.2529-39.2204L98.2529-56.6658Q98.2529-58.1848 98.0457-59.1003Q97.8386-60.0159 96.9994-60.8444L82.4394-75.6081Q80.6999-77.3834 79.068-78.4382Q77.4361-79.493 75.5829-79.9587Q73.7297-80.4245 71.3028-80.4245L36.7195-80.4245Q34.2888-80.4245 32.4131-79.9587Q30.5374-79.493 28.928-78.4382Q27.3186-77.3834 25.5791-75.6081L11.0229-60.8444Q10.1837-60.0159 9.97467-59.1003Q9.76562-58.1848 9.76562-56.6658L9.76562-39.2204Q9.76562-34.3704 12.3001-31.8249Q14.8346-29.2793 19.7647-29.2793ZM53.9886-45.7504Q50.988-45.7504 48.5615-47.1825Q46.1349-48.6145 44.701-51.0723Q43.2671-53.5301 43.2671-56.6673L43.2671-56.9466Q43.2671-57.7194 42.8944-58.1562Q42.5217-58.593 41.7244-58.593L13.5193-58.593Q12.8899-58.593 12.6984-58.9657Q12.5069-59.3384 13.0638-59.9335L27.2751-74.4408Q29.6585-76.8166 31.7749-77.5894Q33.8913-78.3623 36.7165-78.3623L71.3051-78.3623Q74.1302-78.3623 76.2466-77.5894Q78.363-76.8166 80.7465-74.4408L94.9547-59.9335Q95.5185-59.3353 95.3236-58.9642Q95.1286-58.593 94.503-58.593L66.2941-58.593Q65.4999-58.593 65.1257-58.1562Q64.7514-57.7194 64.7514-56.9466L64.7514-56.6673Q64.7514-53.5301 63.319-51.0723Q61.8866-48.6145 59.4601-47.1825Q57.0335-45.7504 53.9886-45.7504ZM19.7647 3.67813L88.2538 3.67813Q93.187 3.67813 95.7199 1.10168Q98.2529-1.47476 98.2529-6.26526L98.2529-24.1295Q98.2529-25.0275 97.7009-25.6069Q97.1489-26.1864 96.1983-26.1864L66.2941-26.1864Q65.4999-26.1864 65.1257-25.7481Q64.7514-25.3098 64.7514-24.5392L64.7514-24.2599Q64.7514-21.1685 63.319-18.6878Q61.8866-16.2071 59.4601-14.7736Q57.0335-13.34 53.9886-13.34Q50.988-13.34 48.5615-14.7736Q46.1349-16.2071 44.701-18.6878Q43.2671-21.1685 43.2671-24.2599L43.2671-24.5392Q43.2671-25.3098 42.8944-25.7481Q42.5217-26.1864 41.7244-26.1864L11.824-26.1864Q10.8734-26.1864 10.3195-25.6069Q9.76562-25.0275 9.76562-24.1295L9.76562-6.26526Q9.76562-1.38397 12.3001 1.14708Q14.8346 3.67813 19.7647 3.67813Z"/>
  </g>
 </g>
</svg>
