<?xml version="1.0" encoding="UTF-8"?>
<!--Generator: Apple Native CoreSVG 175-->
<!DOCTYPE svg
PUBLIC "-//W3C//DTD SVG 1.1//EN"
       "http://www.w3.org/Graphics/SVG/1.1/DTD/svg11.dtd">
<svg version="1.1" xmlns="http://www.w3.org/2000/svg" xmlns:xlink="http://www.w3.org/1999/xlink" width="3300" height="2200">
 <!--glyph: "uni100149.medium", point size: 100.0, font version: "17.0d12e1", template writer version: "65.1"-->
 <g id="Notes">
  <rect height="2200" id="artboard" style="fill:white;opacity:1" width="3300" x="0" y="0"/>
  <line style="fill:none;stroke:black;opacity:1;stroke-width:0.5;" x1="263" x2="3036" y1="292" y2="292"/>
  <text style="stroke:none;fill:black;font-family:sans-serif;font-size:13;font-weight:bold;" transform="matrix(1 0 0 1 263 322)">Weight/Scale Variations</text>
  <text style="stroke:none;fill:black;font-family:sans-serif;font-size:13;text-anchor:middle;" transform="matrix(1 0 0 1 559.711 322)">Ultralight</text>
  <text style="stroke:none;fill:black;font-family:sans-serif;font-size:13;text-anchor:middle;" transform="matrix(1 0 0 1 856.422 322)">Thin</text>
  <text style="stroke:none;fill:black;font-family:sans-serif;font-size:13;text-anchor:middle;" transform="matrix(1 0 0 1 1153.13 322)">Light</text>
  <text style="stroke:none;fill:black;font-family:sans-serif;font-size:13;text-anchor:middle;" transform="matrix(1 0 0 1 1449.84 322)">Regular</text>
  <text style="stroke:none;fill:black;font-family:sans-serif;font-size:13;text-anchor:middle;" transform="matrix(1 0 0 1 1746.56 322)">Medium</text>
  <text style="stroke:none;fill:black;font-family:sans-serif;font-size:13;text-anchor:middle;" transform="matrix(1 0 0 1 2043.27 322)">Semibold</text>
  <text style="stroke:none;fill:black;font-family:sans-serif;font-size:13;text-anchor:middle;" transform="matrix(1 0 0 1 2339.98 322)">Bold</text>
  <text style="stroke:none;fill:black;font-family:sans-serif;font-size:13;text-anchor:middle;" transform="matrix(1 0 0 1 2636.69 322)">Heavy</text>
  <text style="stroke:none;fill:black;font-family:sans-serif;font-size:13;text-anchor:middle;" transform="matrix(1 0 0 1 2933.4 322)">Black</text>
  <line style="fill:none;stroke:black;opacity:1;stroke-width:0.5;" x1="263" x2="3036" y1="1903" y2="1903"/>
  <g transform="matrix(1 0 0 1 263 1933)">
   <path d="M9.24805 0.830078Q10.8691 0.830078 12.2949 0.214844Q13.7207-0.400391 14.8096-1.49414Q15.8984-2.58789 16.5186-4.01367Q17.1387-5.43945 17.1387-7.05078Q17.1387-8.66211 16.5186-10.0879Q15.8984-11.5137 14.8047-12.6074Q13.7109-13.7012 12.2852-14.3164Q10.8594-14.9316 9.23828-14.9316Q7.62695-14.9316 6.20117-14.3164Q4.77539-13.7012 3.69141-12.6074Q2.60742-11.5137 1.9873-10.0879Q1.36719-8.66211 1.36719-7.05078Q1.36719-5.43945 1.9873-4.01367Q2.60742-2.58789 3.69629-1.49414Q4.78516-0.400391 6.21094 0.214844Q7.63672 0.830078 9.24805 0.830078ZM9.24805-0.654297Q7.91992-0.654297 6.7627-1.14746Q5.60547-1.64062 4.73145-2.51953Q3.85742-3.39844 3.36426-4.56055Q2.87109-5.72266 2.87109-7.05078Q2.87109-8.37891 3.35938-9.54102Q3.84766-10.7031 4.72168-11.582Q5.5957-12.4609 6.75293-12.9541Q7.91016-13.4473 9.23828-13.4473Q10.5762-13.4473 11.7334-12.9541Q12.8906-12.4609 13.7695-11.582Q14.6484-10.7031 15.1465-9.54102Q15.6445-8.37891 15.6445-7.05078Q15.6445-5.72266 15.1514-4.56055Q14.6582-3.39844 13.7842-2.51953Q12.9102-1.64062 11.748-1.14746Q10.5859-0.654297 9.24805-0.654297ZM5.6543-7.05078Q5.6543-6.72852 5.85938-6.52832Q6.06445-6.32812 6.40625-6.32812L8.51562-6.32812L8.51562-4.20898Q8.51562-3.88672 8.71094-3.67676Q8.90625-3.4668 9.23828-3.4668Q9.56055-3.4668 9.77051-3.67676Q9.98047-3.88672 9.98047-4.20898L9.98047-6.32812L12.0898-6.32812Q12.4219-6.32812 12.627-6.52832Q12.832-6.72852 12.832-7.05078Q12.832-7.38281 12.627-7.58789Q12.4219-7.79297 12.0898-7.79297L9.98047-7.79297L9.98047-9.90234Q9.98047-10.2344 9.77051-10.4443Q9.56055-10.6543 9.23828-10.6543Q8.90625-10.6543 8.71094-10.4443Q8.51562-10.2344 8.51562-9.90234L8.51562-7.79297L6.40625-7.79297Q6.06445-7.79297 5.85938-7.58789Q5.6543-7.38281 5.6543-7.05078Z"/>
  </g>
  <g transform="matrix(1 0 0 1 281.867 1933)">
   <path d="M11.709 2.91016Q13.75 2.91016 15.5518 2.12891Q17.3535 1.34766 18.7305-0.0292969Q20.1074-1.40625 20.8887-3.20801Q21.6699-5.00977 21.6699-7.05078Q21.6699-9.0918 20.8887-10.8936Q20.1074-12.6953 18.7305-14.0723Q17.3535-15.4492 15.5469-16.2305Q13.7402-17.0117 11.6992-17.0117Q9.6582-17.0117 7.85645-16.2305Q6.05469-15.4492 4.68262-14.0723Q3.31055-12.6953 2.5293-10.8936Q1.74805-9.0918 1.74805-7.05078Q1.74805-5.00977 2.5293-3.20801Q3.31055-1.40625 4.6875-0.0292969Q6.06445 1.34766 7.86621 2.12891Q9.66797 2.91016 11.709 2.91016ZM11.709 1.25Q9.98047 1.25 8.47656 0.605469Q6.97266-0.0390625 5.83496-1.17676Q4.69727-2.31445 4.05762-3.81836Q3.41797-5.32227 3.41797-7.05078Q3.41797-8.7793 4.05762-10.2832Q4.69727-11.7871 5.83008-12.9297Q6.96289-14.0723 8.4668-14.7119Q9.9707-15.3516 11.6992-15.3516Q13.4277-15.3516 14.9316-14.7119Q16.4355-14.0723 17.5781-12.9297Q18.7207-11.7871 19.3652-10.2832Q20.0098-8.7793 20.0098-7.05078Q20.0098-5.32227 19.3701-3.81836Q18.7305-2.31445 17.5928-1.17676Q16.4551-0.0390625 14.9463 0.605469Q13.4375 1.25 11.709 1.25ZM7.17773-7.05078Q7.17773-6.69922 7.41211-6.47461Q7.64648-6.25 8.01758-6.25L10.8887-6.25L10.8887-3.36914Q10.8887-2.99805 11.1133-2.76855Q11.3379-2.53906 11.6895-2.53906Q12.0605-2.53906 12.29-2.76855Q12.5195-2.99805 12.5195-3.36914L12.5195-6.25L15.4004-6.25Q15.7715-6.25 16.001-6.47461Q16.2305-6.69922 16.2305-7.05078Q16.2305-7.42188 16.001-7.65137Q15.7715-7.88086 15.4004-7.88086L12.5195-7.88086L12.5195-10.752Q12.5195-11.1328 12.29-11.3623Q12.0605-11.5918 11.6895-11.5918Q11.3379-11.5918 11.1133-11.3574Q10.8887-11.123 10.8887-10.752L10.8887-7.88086L8.01758-7.88086Q7.63672-7.88086 7.40723-7.65137Q7.17773-7.42188 7.17773-7.05078Z"/>
  </g>
  <g transform="matrix(1 0 0 1 305.646 1933)">
   <path d="M14.9707 5.66406Q17.0605 5.66406 18.96 5.01465Q20.8594 4.36523 22.4512 3.19336Q24.043 2.02148 25.2197 0.429688Q26.3965-1.16211 27.0459-3.06641Q27.6953-4.9707 27.6953-7.05078Q27.6953-9.14062 27.0459-11.04Q26.3965-12.9395 25.2197-14.5312Q24.043-16.123 22.4512-17.2998Q20.8594-18.4766 18.9551-19.126Q17.0508-19.7754 14.9609-19.7754Q12.8711-19.7754 10.9717-19.126Q9.07227-18.4766 7.48535-17.2998Q5.89844-16.123 4.72168-14.5312Q3.54492-12.9395 2.90039-11.04Q2.25586-9.14062 2.25586-7.05078Q2.25586-4.9707 2.90527-3.06641Q3.55469-1.16211 4.72656 0.429688Q5.89844 2.02148 7.49023 3.19336Q9.08203 4.36523 10.9814 5.01465Q12.8809 5.66406 14.9707 5.66406ZM14.9707 3.84766Q13.1641 3.84766 11.5283 3.2959Q9.89258 2.74414 8.53516 1.74805Q7.17773 0.751953 6.17676-0.610352Q5.17578-1.97266 4.62891-3.6084Q4.08203-5.24414 4.08203-7.05078Q4.08203-8.86719 4.62891-10.5029Q5.17578-12.1387 6.17188-13.501Q7.16797-14.8633 8.52539-15.8594Q9.88281-16.8555 11.5186-17.4023Q13.1543-17.9492 14.9609-17.9492Q16.7773-17.9492 18.4131-17.4023Q20.0488-16.8555 21.4111-15.8594Q22.7734-14.8633 23.7695-13.501Q24.7656-12.1387 25.3174-10.5029Q25.8691-8.86719 25.8691-7.05078Q25.8789-5.24414 25.332-3.6084Q24.7852-1.97266 23.7842-0.610352Q22.7832 0.751953 21.4209 1.74805Q20.0586 2.74414 18.4229 3.2959Q16.7871 3.84766 14.9707 3.84766ZM9.19922-7.05078Q9.19922-6.66992 9.45801-6.4209Q9.7168-6.17188 10.1172-6.17188L14.0625-6.17188L14.0625-2.2168Q14.0625-1.81641 14.3115-1.55762Q14.5605-1.29883 14.9512-1.29883Q15.3516-1.29883 15.6104-1.55273Q15.8691-1.80664 15.8691-2.2168L15.8691-6.17188L19.8242-6.17188Q20.2246-6.17188 20.4785-6.4209Q20.7324-6.66992 20.7324-7.05078Q20.7324-7.46094 20.4785-7.71484Q20.2246-7.96875 19.8242-7.96875L15.8691-7.96875L15.8691-11.9141Q15.8691-12.3242 15.6104-12.583Q15.3516-12.8418 14.9512-12.8418Q14.5605-12.8418 14.3115-12.583Q14.0625-12.3242 14.0625-11.9141L14.0625-7.96875L10.1172-7.96875Q9.70703-7.96875 9.45312-7.71484Q9.19922-7.46094 9.19922-7.05078Z"/>
  </g>
  <text style="stroke:none;fill:black;font-family:sans-serif;font-size:13;font-weight:bold;" transform="matrix(1 0 0 1 263 1953)">Design Variations</text>
  <text style="stroke:none;fill:black;font-family:sans-serif;font-size:13;" transform="matrix(1 0 0 1 263 1971)">Symbols are supported in up to nine weights and three scales.</text>
  <text style="stroke:none;fill:black;font-family:sans-serif;font-size:13;" transform="matrix(1 0 0 1 263 1989)">For optimal layout with text and other symbols, vertically align</text>
  <text style="stroke:none;fill:black;font-family:sans-serif;font-size:13;" transform="matrix(1 0 0 1 263 2007)">symbols with the adjacent text.</text>
  <line style="fill:none;stroke:#00AEEF;stroke-width:0.5;opacity:1.0;" x1="776" x2="776" y1="1919" y2="1933"/>
  <g transform="matrix(1 0 0 1 776 1933)">
   <path d="M3.31055 0.15625Q3.70117 0.15625 3.91602-0.00976562Q4.13086-0.175781 4.26758-0.585938L5.52734-4.0332L11.2891-4.0332L12.5488-0.585938Q12.6855-0.175781 12.9004-0.00976562Q13.1152 0.15625 13.4961 0.15625Q13.8867 0.15625 14.1162-0.0585938Q14.3457-0.273438 14.3457-0.644531Q14.3457-0.869141 14.2383-1.17188L9.6582-13.3691Q9.48242-13.8184 9.17969-14.043Q8.87695-14.2676 8.4082-14.2676Q7.5-14.2676 7.17773-13.3789L2.59766-1.16211Q2.49023-0.859375 2.49023-0.634766Q2.49023-0.263672 2.70996-0.0537109Q2.92969 0.15625 3.31055 0.15625ZM6.00586-5.51758L8.37891-12.0898L8.42773-12.0898L10.8008-5.51758Z"/>
  </g>
  <line style="fill:none;stroke:#00AEEF;stroke-width:0.5;opacity:1.0;" x1="793.197" x2="793.197" y1="1919" y2="1933"/>
  <text style="stroke:none;fill:black;font-family:sans-serif;font-size:13;font-weight:bold;" transform="matrix(1 0 0 1 776 1953)">Margins</text>
  <text style="stroke:none;fill:black;font-family:sans-serif;font-size:13;" transform="matrix(1 0 0 1 776 1971)">Leading and trailing margins on the left and right side of each symbol</text>
  <text style="stroke:none;fill:black;font-family:sans-serif;font-size:13;" transform="matrix(1 0 0 1 776 1989)">can be adjusted by modifying the x-location of the margin guidelines.</text>
  <text style="stroke:none;fill:black;font-family:sans-serif;font-size:13;" transform="matrix(1 0 0 1 776 2007)">Modifications are automatically applied proportionally to all</text>
  <text style="stroke:none;fill:black;font-family:sans-serif;font-size:13;" transform="matrix(1 0 0 1 776 2025)">scales and weights.</text>
  <g transform="matrix(1 0 0 1 1289 1933)">
   <path d="M2.8418 1.86523L4.54102 3.57422Q5.18555 4.22852 5.90332 4.17969Q6.62109 4.13086 7.31445 3.35938L18.0078-8.42773L17.041-9.4043L6.42578 2.27539Q6.16211 2.57812 5.89355 2.61719Q5.625 2.65625 5.27344 2.30469L4.10156 1.14258Q3.75 0.791016 3.79395 0.522461Q3.83789 0.253906 4.14062-0.0195312L15.6152-10.8203L14.6387-11.7871L3.04688-0.898438Q2.30469-0.214844 2.25098 0.498047Q2.19727 1.21094 2.8418 1.86523ZM9.25781-16.3281Q8.94531-16.0254 8.90625-15.6348Q8.86719-15.2441 9.04297-14.9512Q9.21875-14.6777 9.55566-14.541Q9.89258-14.4043 10.3809-14.5215Q11.4746-14.7754 12.5977-14.7314Q13.7207-14.6875 14.7949-13.9844L14.209-12.5293Q13.9551-11.9043 14.0674-11.4404Q14.1797-10.9766 14.5801-10.5664L16.875-8.25195Q17.2363-7.88086 17.5781-7.82227Q17.9199-7.76367 18.3398-7.8418L19.4043-8.03711L20.0684-7.36328L20.0293-6.80664Q20-6.43555 20.1221-6.12305Q20.2441-5.81055 20.6055-5.44922L21.3672-4.70703Q21.7285-4.3457 22.1533-4.33105Q22.5781-4.31641 22.9297-4.66797L25.8398-7.58789Q26.1914-7.93945 26.1816-8.35449Q26.1719-8.76953 25.8105-9.13086L25.0391-9.89258Q24.6875-10.2539 24.3799-10.3857Q24.0723-10.5176 23.7109-10.4883L23.1348-10.4395L22.4902-11.0742L22.7344-12.1973Q22.832-12.6172 22.6953-12.9834Q22.5586-13.3496 22.1191-13.7891L19.9219-15.9766Q18.6719-17.2168 17.2607-17.8369Q15.8496-18.457 14.4189-18.4814Q12.9883-18.5059 11.665-17.959Q10.3418-17.4121 9.25781-16.3281ZM10.752-15.957Q11.6602-16.6211 12.7002-16.9043Q13.7402-17.1875 14.8047-17.085Q15.8691-16.9824 16.8701-16.5137Q17.8711-16.0449 18.7012-15.2051L21.1328-12.793Q21.3086-12.6172 21.3525-12.4512Q21.3965-12.2852 21.3379-12.0312L21.0156-10.5469L22.5195-9.0625L23.5059-9.12109Q23.6914-9.13086 23.7891-9.09668Q23.8867-9.0625 24.0332-8.91602L24.6094-8.33984L22.168-5.89844L21.5918-6.47461Q21.4453-6.62109 21.4062-6.71875Q21.3672-6.81641 21.377-7.01172L21.4453-7.98828L19.9512-9.47266L18.4277-9.21875Q18.1836-9.16992 18.042-9.2041Q17.9004-9.23828 17.7148-9.41406L15.7129-11.416Q15.5176-11.5918 15.4932-11.7529Q15.4688-11.9141 15.5859-12.1875L16.4648-14.2773Q15.293-15.3711 13.8281-15.791Q12.3633-16.2109 10.8398-15.7617Q10.7227-15.7324 10.6885-15.8057Q10.6543-15.8789 10.752-15.957Z"/>
  </g>
  <text style="stroke:none;fill:black;font-family:sans-serif;font-size:13;font-weight:bold;" transform="matrix(1 0 0 1 1289 1953)">Exporting</text>
  <text style="stroke:none;fill:black;font-family:sans-serif;font-size:13;" transform="matrix(1 0 0 1 1289 1971)">Symbols should be outlined when exporting to ensure the</text>
  <text style="stroke:none;fill:black;font-family:sans-serif;font-size:13;" transform="matrix(1 0 0 1 1289 1989)">design is preserved when submitting to Xcode.</text>
  <text id="template-version" style="stroke:none;fill:black;font-family:sans-serif;font-size:13;text-anchor:end;" transform="matrix(1 0 0 1 3036 1933)">Template v.3.0</text>
  <text style="stroke:none;fill:black;font-family:sans-serif;font-size:13;text-anchor:end;" transform="matrix(1 0 0 1 3036 1951)">Requires Xcode 13 or greater</text>
  <text id="descriptive-name" style="stroke:none;fill:black;font-family:sans-serif;font-size:13;text-anchor:end;" transform="matrix(1 0 0 1 3036 1969)">Generated from arrow.counterclockwise</text>
  <text style="stroke:none;fill:black;font-family:sans-serif;font-size:13;text-anchor:end;" transform="matrix(1 0 0 1 3036 1987)">Typeset at 100 points</text>
  <text style="stroke:none;fill:black;font-family:sans-serif;font-size:13;" transform="matrix(1 0 0 1 263 726)">Small</text>
  <text style="stroke:none;fill:black;font-family:sans-serif;font-size:13;" transform="matrix(1 0 0 1 263 1156)">Medium</text>
  <text style="stroke:none;fill:black;font-family:sans-serif;font-size:13;" transform="matrix(1 0 0 1 263 1586)">Large</text>
 </g>
 <g id="Guides">
  <g id="H-reference" style="fill:#27AAE1;stroke:none;" transform="matrix(1 0 0 1 339 696)">
   <path d="M0.993347 0L3.6377 0L29.3282-67.1326L30.0301-67.1326L30.0301-70.459L28.1227-70.459ZM11.6882-24.4797L46.9818-24.4797L46.2311-26.7288L12.4382-26.7288ZM55.1193 0L57.7637 0L30.6381-70.459L29.4327-70.459L29.4327-67.1326Z"/>
  </g>
  <line id="Baseline-S" style="fill:none;stroke:#27AAE1;opacity:1;stroke-width:0.5;" x1="263" x2="3036" y1="696" y2="696"/>
  <line id="Capline-S" style="fill:none;stroke:#27AAE1;opacity:1;stroke-width:0.5;" x1="263" x2="3036" y1="625.541" y2="625.541"/>
  <g id="H-reference" style="fill:#27AAE1;stroke:none;" transform="matrix(1 0 0 1 339 1126)">
   <path d="M0.993347 0L3.6377 0L29.3282-67.1326L30.0301-67.1326L30.0301-70.459L28.1227-70.459ZM11.6882-24.4797L46.9818-24.4797L46.2311-26.7288L12.4382-26.7288ZM55.1193 0L57.7637 0L30.6381-70.459L29.4327-70.459L29.4327-67.1326Z"/>
  </g>
  <line id="Baseline-M" style="fill:none;stroke:#27AAE1;opacity:1;stroke-width:0.5;" x1="263" x2="3036" y1="1126" y2="1126"/>
  <line id="Capline-M" style="fill:none;stroke:#27AAE1;opacity:1;stroke-width:0.5;" x1="263" x2="3036" y1="1055.54" y2="1055.54"/>
  <g id="H-reference" style="fill:#27AAE1;stroke:none;" transform="matrix(1 0 0 1 339 1556)">
   <path d="M0.993347 0L3.6377 0L29.3282-67.1326L30.0301-67.1326L30.0301-70.459L28.1227-70.459ZM11.6882-24.4797L46.9818-24.4797L46.2311-26.7288L12.4382-26.7288ZM55.1193 0L57.7637 0L30.6381-70.459L29.4327-70.459L29.4327-67.1326Z"/>
  </g>
  <line id="Baseline-L" style="fill:none;stroke:#27AAE1;opacity:1;stroke-width:0.5;" x1="263" x2="3036" y1="1556" y2="1556"/>
  <line id="Capline-L" style="fill:none;stroke:#27AAE1;opacity:1;stroke-width:0.5;" x1="263" x2="3036" y1="1485.54" y2="1485.54"/>
  <line id="left-margin-Regular-M" style="fill:none;stroke:#00AEEF;stroke-width:0.5;opacity:1.0;" x1="1397.96" x2="1397.96" y1="1030.79" y2="1150.12"/>
  <line id="right-margin-Regular-M" style="fill:none;stroke:#00AEEF;stroke-width:0.5;opacity:1.0;" x1="1501.72" x2="1501.72" y1="1030.79" y2="1150.12"/>
 </g>
 <g id="Symbols">
  <g id="Black-L" transform="matrix(1 0 0 1 2863.67 1556)">
   <path d="M11.2793-31.0547Q11.2793-21.3379 14.2334-12.5732Q17.1875-3.80859 22.5586 3.51562Q27.9297 10.8398 35.2295 16.2109Q42.5293 21.582 51.2939 24.5361Q60.0586 27.4902 69.7266 27.4902Q79.4434 27.4902 88.1836 24.5361Q96.9238 21.582 104.248 16.2109Q111.572 10.8398 116.943 3.51562Q122.314-3.80859 125.244-12.5732Q128.174-21.3379 128.174-31.0547Q128.174-43.2129 123.755-53.7354Q119.336-64.2578 111.45-72.1924Q103.564-80.127 93.0908-84.5947Q82.6172-89.0625 70.5566-89.0625Q69.7754-89.0625 68.9453-89.0137Q68.1152-88.9648 67.2852-88.8672L76.8555-98.0957Q78.0762-99.3652 78.8086-100.879Q79.541-102.393 79.541-104.492Q79.541-108.594 76.709-111.499Q73.877-114.404 69.8242-114.404Q65.8691-114.404 63.1836-111.572L37.7441-85.6445Q34.6191-82.666 34.6191-78.4668Q34.6191-76.3672 35.4004-74.585Q36.1816-72.8027 37.7441-71.2402L63.1836-45.4102Q65.8203-42.7246 69.8242-42.7246Q73.877-42.7246 76.709-45.5811Q79.541-48.4375 79.541-52.5391Q79.541-54.5898 78.8086-56.1035Q78.0762-57.6172 76.8066-58.8379L65.8691-69.6289Q66.9434-69.7754 68.1152-69.8242Q69.2871-69.873 70.5566-69.873Q78.4668-69.873 85.2539-66.9189Q92.041-63.9648 97.1436-58.667Q102.246-53.3691 105.103-46.3135Q107.959-39.2578 107.959-31.0547Q107.959-23.1445 105.005-16.1865Q102.051-9.22852 96.8018-3.97949Q91.5527 1.26953 84.6191 4.24805Q77.6855 7.22656 69.7266 7.22656Q61.8164 7.22656 54.8584 4.24805Q47.9004 1.26953 42.627-3.97949Q37.3535-9.22852 34.375-16.1865Q31.3965-23.1445 31.3965-31.0547Q31.3965-35.6445 28.6133-38.501Q25.8301-41.3574 21.4844-41.3574Q17.041-41.3574 14.1602-38.501Q11.2793-35.6445 11.2793-31.0547Z"/>
  </g>
  <g id="Heavy-L" transform="matrix(1 0 0 1 2567.73 1556)">
   <path d="M11.2793-31.0089Q11.2793-21.4073 14.1872-12.7464Q17.0952-4.08554 22.3915 3.1353Q27.6878 10.3561 34.8896 15.6521Q42.0914 20.948 50.7465 23.8617Q59.4017 26.7754 68.9545 26.7754Q78.5561 26.7754 87.1868 23.8617Q95.8176 20.948 103.038 15.6521Q110.258 10.3561 115.555 3.1353Q120.851-4.08554 123.746-12.7464Q126.641-21.4073 126.641-31.0089Q126.641-43.0054 122.257-53.4012Q117.873-63.797 110.062-71.645Q102.251-79.493 91.8865-83.9088Q81.5224-88.3247 69.5885-88.3247Q68.1732-88.3247 66.7671-88.1954Q65.361-88.0661 64.0816-87.8532L75.8301-99.3286Q76.9005-100.46 77.5349-101.801Q78.1693-103.142 78.1693-104.953Q78.1693-108.524 75.7175-111.044Q73.2658-113.563 69.7433-113.563Q66.2491-113.563 63.9214-111.089L38.2401-84.9068Q35.4836-82.2739 35.4836-78.6163Q35.4836-76.8051 36.1668-75.2419Q36.85-73.6786 38.2401-72.2893L63.9328-46.2402Q66.2125-43.9003 69.7319-43.9003Q73.2658-43.9003 75.7175-46.3707Q78.1693-48.8411 78.1693-52.4124Q78.1693-54.1748 77.5349-55.5157Q76.9005-56.8565 75.7812-57.9506L62.5389-71.0693Q64.0854-71.3661 65.8737-71.4954Q67.662-71.6248 69.5885-71.6248Q77.9251-71.6248 85.104-68.5207Q92.2829-65.4167 97.6852-59.8656Q103.088-54.3144 106.123-46.936Q109.158-39.5576 109.158-31.0089Q109.158-22.6608 106.048-15.3454Q102.938-8.02994 97.4239-2.51579Q91.9098 2.99835 84.6191 6.12679Q77.3285 9.25522 68.9545 9.25522Q60.6178 9.25522 53.3142 6.12679Q46.0106 2.99835 40.472-2.51579Q34.9335-8.02994 31.8108-15.3454Q28.688-22.6608 28.688-31.0089Q28.688-34.9648 26.2966-37.4466Q23.9052-39.9284 20.1363-39.9284Q16.2689-39.9284 13.7741-37.4466Q11.2793-34.9648 11.2793-31.0089Z"/>
  </g>
  <g id="Bold-L" transform="matrix(1 0 0 1 2271.87 1556)">
   <path d="M11.2793-30.957Q11.2793-21.4844 14.1357-12.9395Q16.9922-4.39453 22.2046 2.70996Q27.417 9.81445 34.5093 15.0269Q41.6016 20.2393 50.1343 23.1079Q58.667 25.9766 68.0908 25.9766Q77.5635 25.9766 86.0718 23.1079Q94.5801 20.2393 101.685 15.0269Q108.789 9.81445 114.001 2.70996Q119.214-4.39453 122.07-12.9395Q124.927-21.4844 124.927-30.957Q124.927-42.7734 120.581-53.0273Q116.235-63.2812 108.508-71.0327Q100.781-78.7842 90.5396-83.1421Q80.2979-87.5 68.5059-87.5Q66.3818-87.5 64.3311-87.2803Q62.2803-87.0605 60.498-86.7188L74.6826-100.708Q75.5859-101.685 76.1108-102.832Q76.6357-103.979 76.6357-105.469Q76.6357-108.447 74.6094-110.535Q72.583-112.622 69.6533-112.622Q66.6748-112.622 64.7461-110.547L38.7939-84.082Q36.4502-81.8359 36.4502-78.7842Q36.4502-77.2949 37.0239-75.9766Q37.5977-74.6582 38.7939-73.4619L64.7705-47.168Q66.6504-45.2148 69.6289-45.2148Q72.583-45.2148 74.6094-47.2534Q76.6357-49.292 76.6357-52.2705Q76.6357-53.7109 76.1108-54.8584Q75.5859-56.0059 74.6338-56.958L58.8135-72.6807Q60.8887-73.1445 63.3667-73.3643Q65.8447-73.584 68.5059-73.584Q77.3193-73.584 84.9365-70.3125Q92.5537-67.041 98.291-61.2061Q104.028-55.3711 107.263-47.6318Q110.498-39.8926 110.498-30.957Q110.498-22.1191 107.214-14.4043Q103.931-6.68945 98.1201-0.878906Q92.3096 4.93164 84.6191 8.22754Q76.9287 11.5234 68.0908 11.5234Q59.2773 11.5234 51.5869 8.22754Q43.8965 4.93164 38.0615-0.878906Q32.2266-6.68945 28.9429-14.4043Q25.6592-22.1191 25.6592-30.957Q25.6592-34.2041 23.7061-36.2671Q21.7529-38.3301 18.6279-38.3301Q15.4053-38.3301 13.3423-36.2671Q11.2793-34.2041 11.2793-30.957Z"/>
  </g>
  <g id="Semibold-L" transform="matrix(1 0 0 1 1975.75 1556)">
   <path d="M11.2793-30.9212Q11.2793-21.5378 14.1003-13.073Q16.9212-4.60815 22.0757 2.41661Q27.2301 9.44138 34.2468 14.5958Q41.2636 19.7502 49.712 22.588Q58.1604 25.4257 67.4957 25.4257Q76.8791 25.4257 85.3031 22.588Q93.7271 19.7502 100.751 14.5958Q107.776 9.44138 112.931 2.41661Q118.085-4.60815 120.915-13.073Q123.745-21.5378 123.745-30.9212Q123.745-42.6132 119.426-52.7695Q115.107-62.9257 107.438-70.6104Q99.7681-78.2951 89.6107-82.6134Q79.4533-86.9316 67.7597-86.9316Q65.1466-86.9316 62.6514-86.6493Q60.1562-86.367 58.0276-85.9367L73.8914-101.659Q74.6796-102.529 75.1289-103.543Q75.5783-104.557 75.5783-105.824Q75.5783-108.394 73.8453-110.184Q72.1123-111.974 69.5908-111.974Q66.9678-111.974 65.3152-110.174L39.1762-83.5136Q37.117-81.5338 37.117-78.8994Q37.117-77.6329 37.6152-76.4832Q38.1134-75.3334 39.1762-74.2706L65.3481-47.8081Q66.9525-46.1212 69.558-46.1212Q72.1123-46.1212 73.8453-47.8622Q75.5783-49.6033 75.5783-52.1729Q75.5783-53.3913 75.1289-54.4052Q74.6796-55.4192 73.8426-56.2737L56.2454-73.7915Q58.6845-74.3706 61.6383-74.6529Q64.592-74.9352 67.7597-74.9352Q76.902-74.9352 84.8213-71.5481Q92.7406-68.161 98.7087-62.1304Q104.677-56.0997 108.049-48.1117Q111.422-40.1237 111.422-30.9212Q111.422-21.7461 108.018-13.7558Q104.615-5.76553 98.6 0.249481Q92.585 6.2645 84.6191 9.67598Q76.6533 13.0875 67.4957 13.0875Q58.3534 13.0875 50.3963 9.67598Q42.4393 6.2645 36.3998 0.249481Q30.3604-5.76553 26.9657-13.7558Q23.571-21.7461 23.571-30.9212Q23.571-33.68 21.92-35.4542Q20.269-37.2284 17.588-37.2284Q14.8102-37.2284 13.0447-35.4542Q11.2793-33.68 11.2793-30.9212Z"/>
  </g>
  <g id="Medium-L" transform="matrix(1 0 0 1 1679.49 1556)">
   <path d="M11.2793-30.8945Q11.2793-21.5782 14.0732-13.1741Q16.8671-4.7699 21.978 2.19421Q27.0889 9.15833 34.0485 14.2693Q41.008 19.3802 49.3923 22.1939Q57.7766 25.0076 67.0441 25.0076Q76.3603 25.0076 84.7202 22.1939Q93.0801 19.3802 100.044 14.2693Q107.008 9.15833 112.119 2.19421Q117.229-4.7699 120.039-13.1741Q122.849-21.5782 122.849-30.8945Q122.849-42.4919 118.55-52.5742Q114.251-62.6564 106.625-70.2908Q98.9998-77.9251 88.9065-82.2124Q78.8132-86.4998 67.1936-86.4998Q64.2097-86.4998 61.3777-86.171Q58.5457-85.8421 56.1539-85.3439L73.2918-102.38Q73.9922-103.169 74.3843-104.082Q74.7765-104.995 74.7765-106.094Q74.7765-108.353 73.2658-109.917Q71.7552-111.481 69.5442-111.481Q67.1906-111.481 65.7463-109.891L39.4661-83.0818Q37.6221-81.3049 37.6221-78.9871Q37.6221-77.8885 38.063-76.8673Q38.504-75.8461 39.4661-74.884L65.786-48.2933Q67.1814-46.8086 69.5038-46.8086Q71.7552-46.8086 73.2658-48.3238Q74.7765-49.839 74.7765-52.0988Q74.7765-53.1487 74.3843-54.0615Q73.9922-54.9744 73.243-55.7549L54.2976-74.6338Q57.0137-75.3006 60.3275-75.6298Q63.6414-75.959 67.1936-75.959Q76.5846-75.959 84.7332-72.4846Q92.8818-69.0102 99.0253-62.8311Q105.169-56.6521 108.646-48.4753Q112.123-40.2985 112.123-30.8945Q112.123-21.463 108.628-13.2637Q105.134-5.06439 98.9639 1.1055Q92.794 7.27539 84.6191 10.7746Q76.4442 14.2738 67.0441 14.2738Q57.6523 14.2738 49.493 10.7746Q41.3338 7.27539 35.1395 1.1055Q28.9452-5.06439 25.4662-13.2637Q21.9872-21.463 21.9872-30.8945Q21.9872-33.2825 20.5654-34.8373Q19.1437-36.3922 16.7999-36.3922Q14.3585-36.3922 12.8189-34.8373Q11.2793-33.2825 11.2793-30.8945Z"/>
  </g>
  <g id="Regular-L" transform="matrix(1 0 0 1 1383.36 1556)">
   <path d="M11.2793-30.8594Q11.2793-21.6309 14.0381-13.3057Q16.7969-4.98047 21.8506 1.9043Q26.9043 8.78906 33.7891 13.8428Q40.6738 18.8965 48.9746 21.6797Q57.2754 24.4629 66.4551 24.4629Q75.6836 24.4629 83.96 21.6797Q92.2363 18.8965 99.1211 13.8428Q106.006 8.78906 111.06 1.9043Q116.113-4.98047 118.896-13.3057Q121.68-21.6309 121.68-30.8594Q121.68-42.334 117.407-52.3193Q113.135-62.3047 105.566-69.873Q97.998-77.4414 87.9883-81.6895Q77.9785-85.9375 66.4551-85.9375Q62.9883-85.9375 59.7168-85.5469Q56.4453-85.1562 53.7109-84.5703L72.5098-103.32Q73.0957-104.004 73.4131-104.785Q73.7305-105.566 73.7305-106.445Q73.7305-108.301 72.5098-109.57Q71.2891-110.84 69.4824-110.84Q67.4805-110.84 66.3086-109.521L39.8438-82.5195Q38.2812-81.0059 38.2812-79.1016Q38.2812-78.2227 38.6475-77.3682Q39.0137-76.5137 39.8438-75.6836L66.3574-48.9258Q67.4805-47.7051 69.4336-47.7051Q71.2891-47.7051 72.5098-48.9258Q73.7305-50.1465 73.7305-52.002Q73.7305-52.832 73.4131-53.6133Q73.0957-54.3945 72.4609-55.0781L51.7578-75.7324Q54.834-76.5137 58.6182-76.9043Q62.4023-77.2949 66.4551-77.2949Q76.1719-77.2949 84.6191-73.7061Q93.0664-70.1172 99.4385-63.7451Q105.811-57.373 109.424-48.9502Q113.037-40.5273 113.037-30.8594Q113.037-21.0938 109.424-12.6221Q105.811-4.15039 99.4385 2.22168Q93.0664 8.59375 84.6191 12.207Q76.1719 15.8203 66.4551 15.8203Q56.7383 15.8203 48.3154 12.207Q39.8926 8.59375 33.4961 2.22168Q27.0996-4.15039 23.5107-12.6221Q19.9219-21.0938 19.9219-30.8594Q19.9219-32.7637 18.7988-34.0332Q17.6758-35.3027 15.7715-35.3027Q13.7695-35.3027 12.5244-34.0332Q11.2793-32.7637 11.2793-30.8594Z"/>
  </g>
  <g id="Light-L" transform="matrix(1 0 0 1 1087.31 1556)">
   <path d="M11.2793-31.041Q11.2793-21.888 14.0003-13.6612Q16.7213-5.43442 21.6991 1.36719Q26.6769 8.16879 33.4785 13.1618Q40.2802 18.1549 48.4825 20.8927Q56.6849 23.6305 65.789 23.6305Q74.9268 23.6305 83.12 20.8927Q91.3132 18.1549 98.1148 13.1618Q104.916 8.16879 109.902 1.36719Q114.887-5.43442 117.625-13.6612Q120.363-21.888 120.363-31.041Q120.363-42.3943 116.159-52.2511Q111.954-62.1078 104.484-69.5553Q97.0139-77.0027 87.1101-81.1825Q77.2064-85.3622 65.789-85.3622Q61.5051-85.3622 57.5371-84.8507Q53.569-84.3391 50.502-83.6014L72.0406-105.334Q72.5204-105.865 72.7699-106.48Q73.0194-107.095 73.0194-107.793Q73.0194-109.179 72.1012-110.146Q71.183-111.112 69.7548-111.112Q68.2068-111.112 67.2928-110.112L40.0856-82.2319Q38.6139-80.809 38.6139-79.3137Q38.6139-78.6316 38.9423-77.9282Q39.2708-77.2247 40.0856-76.3947L67.3561-48.6687Q68.2373-47.7203 69.706-47.7203Q71.1525-47.7203 72.086-48.6534Q73.0194-49.5865 73.0194-50.9727Q73.0194-51.651 72.7699-52.2583Q72.5204-52.8656 72.0222-53.4134L48.761-76.8074Q52.2308-77.755 56.6734-78.2516Q61.116-78.7483 65.789-78.7483Q75.8392-78.7483 84.5436-75.0759Q93.248-71.4035 99.8016-64.8727Q106.355-58.342 110.052-49.6769Q113.748-41.0118 113.748-31.041Q113.748-20.9572 110.052-12.236Q106.355-3.51486 99.8016 3.04642Q93.248 9.6077 84.5436 13.3118Q75.8392 17.0158 65.789 17.0158Q55.7541 17.0158 47.0741 13.3118Q38.3942 9.6077 31.8237 3.04642Q25.2533-3.51486 21.5733-12.236Q17.8932-20.9572 17.8932-31.041Q17.8932-32.4913 17.0277-33.4579Q16.1621-34.4246 14.6965-34.4246Q13.1638-34.4246 12.2215-33.4579Q11.2793-32.4913 11.2793-31.041Z"/>
  </g>
  <g id="Thin-L" transform="matrix(1 0 0 1 791.472 1556)">
   <path d="M11.2793-31.2813Q11.2793-22.2282 13.9503-14.1315Q16.6214-6.03485 21.4993 0.656509Q26.3771 7.34787 33.0685 12.2608Q39.7598 17.1738 47.8321 19.8517Q55.9044 22.5296 64.9086 22.5296Q73.9258 22.5296 82.0087 19.8517Q90.0917 17.1738 96.7831 12.2608Q103.474 7.34787 108.37 0.656509Q113.266-6.03485 115.944-14.1315Q118.621-22.2282 118.621-31.2813Q118.621-42.4744 114.507-52.161Q110.393-61.8477 103.053-69.1349Q95.713-76.4221 85.9493-80.5119Q76.1856-84.6016 64.9086-84.6016Q59.5428-84.6016 54.6543-83.9298Q49.7658-83.2581 46.2578-82.3204L71.4203-107.996Q71.7598-108.328 71.9189-108.723Q72.0779-109.117 72.0779-109.574Q72.0779-110.34 71.5603-110.906Q71.0426-111.472 70.1149-111.472Q69.1681-111.472 68.5936-110.892L40.406-81.852Q39.0549-80.5489 39.0549-79.5937Q39.0549-79.1718 39.333-78.669Q39.6111-78.1662 40.406-77.3361L68.6775-48.3284Q69.2383-47.7402 70.0661-47.7402Q70.9724-47.7402 71.5252-48.2929Q72.0779-48.8457 72.0779-49.6117Q72.0779-50.09 71.9189-50.4669Q71.7598-50.8438 71.4417-51.2108L44.7975-78.2288Q48.7877-79.3961 54.1008-80.0331Q59.4139-80.6702 64.9086-80.6702Q75.3983-80.6702 84.4433-76.8879Q93.4883-73.1056 100.282-66.3643Q107.076-59.623 110.883-50.6378Q114.69-41.6527 114.69-31.2813Q114.69-20.7771 110.883-11.7256Q107.076-2.6741 100.282 4.13742Q93.4883 10.9489 84.4433 14.7732Q75.3983 18.5974 64.9086 18.5974Q54.4533 18.5974 45.4327 14.7732Q36.412 10.9489 29.6112 4.13742Q22.8104-2.6741 19.0109-11.7256Q15.2115-20.7771 15.2115-31.2813Q15.2115-32.1312 14.6858-32.6973Q14.1602-33.2634 13.2751-33.2634Q12.3634-33.2634 11.8214-32.6973Q11.2793-32.1312 11.2793-31.2813Z"/>
  </g>
  <g id="Ultralight-L" transform="matrix(1 0 0 1 495.207 1556)">
   <path d="M11.2793-31.4041Q11.2793-22.403 13.9244-14.373Q16.5695-6.34308 21.3963 0.292206Q26.223 6.92749 32.8579 11.7996Q39.4928 16.6718 47.4987 19.3184Q55.5046 21.965 64.4569 21.965Q73.4131 21.965 81.4396 19.3184Q89.4661 16.6718 96.1014 11.7996Q102.737 6.92749 107.586 0.292206Q112.435-6.34308 115.082-14.373Q117.729-22.403 117.729-31.4041Q117.729-42.5156 113.661-52.1149Q109.592-61.7142 102.319-68.9194Q95.0462-76.1246 85.3546-80.1682Q75.663-84.2117 64.4569-84.2117Q58.5381-84.2117 53.1776-83.4579Q47.8172-82.7042 44.0842-81.6643L71.1021-109.36Q71.3699-109.589 71.4832-109.871Q71.5965-110.152 71.5965-110.487Q71.5965-110.934 71.2837-111.296Q70.9709-111.657 70.2995-111.657Q69.6602-111.657 69.2604-111.292L40.5701-81.6566Q39.2799-80.4153 39.2799-79.7371Q39.2799-79.4487 39.5329-79.0482Q39.7858-78.6476 40.5701-77.8175L69.3542-48.1537Q69.751-47.7509 70.2507-47.7509Q70.8801-47.7509 71.2383-48.1087Q71.5965-48.4665 71.5965-48.9143Q71.5965-49.2897 71.4832-49.5491Q71.3699-49.8085 71.1441-50.0832L42.7666-78.9566Q47.0238-80.2376 52.7832-80.946Q58.5426-81.6544 64.4569-81.6544Q75.1732-81.6544 84.3922-77.8156Q93.6111-73.9769 100.528-67.128Q107.446-60.2791 111.308-51.1299Q115.171-41.9807 115.171-31.4041Q115.171-20.6848 111.308-11.4639Q107.446-2.24304 100.528 4.69666Q93.6111 11.6364 84.3922 15.522Q75.1732 19.4077 64.4569 19.4077Q53.7865 19.4077 44.5919 15.522Q35.3973 11.6364 28.4786 4.69666Q21.5599-2.24304 17.6983-11.4639Q13.8367-20.6848 13.8367-31.4041Q13.8367-31.9466 13.4857-32.3078Q13.1348-32.6691 12.5473-32.6691Q11.953-32.6691 11.6161-32.3078Q11.2793-31.9466 11.2793-31.4041Z"/>
  </g>
  <g id="Black-M" transform="matrix(1 0 0 1 2878.93 1126)">
   <path d="M8.74023-32.0801Q8.74023-22.6074 12.3047-14.3066Q15.8691-6.00586 22.1436 0.292969Q28.418 6.5918 36.7188 10.1562Q45.0195 13.7207 54.4922 13.7207Q63.9648 13.7207 72.2412 10.1562Q80.5176 6.5918 86.8164 0.292969Q93.1152-6.00586 96.6553-14.3066Q100.195-22.6074 100.195-32.0801Q100.195-41.6016 96.7529-49.8291Q93.3105-58.0566 87.1826-64.2334Q81.0547-70.4102 72.876-73.9014Q64.6973-77.3926 55.2734-77.3926Q54.9316-77.3926 54.541-77.3682Q54.1504-77.3438 53.8086-77.3438L60.2539-83.5938Q61.3281-84.668 61.9629-85.9131Q62.5977-87.1582 62.5977-88.9648Q62.5977-92.4805 60.1807-94.9463Q57.7637-97.4121 54.2969-97.4121Q50.9277-97.4121 48.6328-95.0195L28.9062-74.8535Q26.2207-72.2656 26.2207-68.7012Q26.2207-66.8945 26.8799-65.3564Q27.5391-63.8184 28.9062-62.5L48.6328-42.334Q50.9277-40.0879 54.2969-40.0879Q57.7637-40.0879 60.1807-42.5049Q62.5977-44.9219 62.5977-48.3887Q62.5977-50.1953 61.9629-51.4404Q61.3281-52.6855 60.2539-53.7598L52.8809-61.0352Q53.4668-61.0352 54.0527-61.0596Q54.6387-61.084 55.2734-61.084Q61.1328-61.084 66.1621-58.8867Q71.1914-56.6895 74.9512-52.7588Q78.7109-48.8281 80.7861-43.5547Q82.8613-38.2812 82.8613-32.0801Q82.8613-26.2207 80.6641-21.0693Q78.4668-15.918 74.585-11.9873Q70.7031-8.05664 65.5518-5.83496Q60.4004-3.61328 54.4922-3.61328Q48.584-3.61328 43.4082-5.83496Q38.2324-8.05664 34.3018-11.9873Q30.3711-15.918 28.1738-21.0693Q25.9766-26.2207 25.9766-32.0801Q25.9766-36.0352 23.5596-38.4766Q21.1426-40.918 17.4316-40.918Q13.6719-40.918 11.2061-38.4766Q8.74023-36.0352 8.74023-32.0801Z"/>
  </g>
  <g id="Heavy-M" transform="matrix(1 0 0 1 2582.83 1126)">
   <path d="M8.74023-31.9992Q8.74023-22.6303 12.2528-14.439Q15.7654-6.24771 21.9532-0.0354767Q28.141 6.17676 36.3323 9.68361Q44.5236 13.1905 53.8811 13.1905Q63.2271 13.1905 71.3997 9.68361Q79.5723 6.17676 85.7792-0.0354767Q91.9861-6.24771 95.48-14.439Q98.9738-22.6303 98.9738-31.9992Q98.9738-41.3826 95.5544-49.5178Q92.1349-57.653 86.0588-63.7665Q79.9828-69.8799 71.8849-73.3368Q63.7871-76.7937 54.4785-76.7937Q53.6873-76.7937 52.8816-76.7231Q52.076-76.6525 51.3657-76.5602L59.3552-84.3658Q60.3027-85.3249 60.8509-86.4491Q61.3991-87.5732 61.3991-89.1258Q61.3991-92.2157 59.2934-94.3703Q57.1877-96.5248 54.1588-96.5248Q51.1581-96.5248 49.1516-94.4206L29.3327-74.1966Q26.9928-71.92 26.9928-68.8049Q26.9928-67.2287 27.5654-65.881Q28.138-64.5332 29.3327-63.3759L49.1516-43.1984Q51.1581-41.217 54.1473-41.217Q57.1877-41.217 59.2934-43.3289Q61.3991-45.4407 61.3991-48.481Q61.3991-50.0458 60.8509-51.1639Q60.3027-52.282 59.3437-53.241L50.2762-62.2108Q51.2314-62.326 52.2781-62.4023Q53.3249-62.4786 54.4785-62.4786Q60.6834-62.4786 66.0355-60.1543Q71.3875-57.83 75.4005-53.6865Q79.4136-49.543 81.6444-44.0044Q83.8753-38.4659 83.8753-31.9992Q83.8753-25.7828 81.5514-20.332Q79.2274-14.8811 75.1209-10.7315Q71.0144-6.58188 65.5689-4.24461Q60.1234-1.90735 53.8811-1.90735Q47.6273-1.90735 42.1635-4.24461Q36.6997-6.58188 32.5558-10.7315Q28.4119-14.8811 26.088-20.332Q23.764-25.7828 23.764-31.9992Q23.764-35.4362 21.6755-37.5721Q19.5869-39.7079 16.3368-39.7079Q13.0493-39.7079 10.8948-37.5721Q8.74023-35.4362 8.74023-31.9992Z"/>
  </g>
  <g id="Bold-M" transform="matrix(1 0 0 1 2286.8 1126)">
   <path d="M8.74023-31.9092Q8.74023-22.6562 12.1948-14.5874Q15.6494-6.51855 21.7407-0.402832Q27.832 5.71289 35.9009 9.15527Q43.9697 12.5977 53.1982 12.5977Q62.4023 12.5977 70.459 9.15527Q78.5156 5.71289 84.6191-0.402832Q90.7227-6.51855 94.165-14.5874Q97.6074-22.6562 97.6074-31.9092Q97.6074-41.1377 94.2139-49.1699Q90.8203-57.2021 84.8022-63.2446Q78.7842-69.2871 70.7764-72.7051Q62.7686-76.123 53.5889-76.123Q52.2949-76.123 51.0254-76.001Q49.7559-75.8789 48.6328-75.6836L58.3496-85.2295Q59.1553-86.0596 59.6069-87.0483Q60.0586-88.0371 60.0586-89.3066Q60.0586-91.9189 58.3008-93.7256Q56.543-95.5322 54.0039-95.5322Q51.416-95.5322 49.7314-93.75L29.8096-73.4619Q27.8564-71.5332 27.8564-68.9209Q27.8564-67.6025 28.3325-66.4673Q28.8086-65.332 29.8096-64.3555L49.7314-44.165Q51.416-42.4805 53.9795-42.4805Q56.543-42.4805 58.3008-44.2505Q60.0586-46.0205 60.0586-48.584Q60.0586-49.8779 59.6069-50.8545Q59.1553-51.8311 58.3252-52.6611L47.3633-63.5254Q48.7305-63.7695 50.293-63.9038Q51.8555-64.0381 53.5889-64.0381Q60.1807-64.0381 65.8936-61.5723Q71.6064-59.1064 75.9033-54.7241Q80.2002-50.3418 82.605-44.5068Q85.0098-38.6719 85.0098-31.9092Q85.0098-25.293 82.5439-19.5068Q80.0781-13.7207 75.7202-9.32617Q71.3623-4.93164 65.5884-2.46582Q59.8145 0 53.1982 0Q46.5576 0 40.7715-2.46582Q34.9854-4.93164 30.603-9.32617Q26.2207-13.7207 23.7549-19.5068Q21.2891-25.293 21.2891-31.9092Q21.2891-34.7656 19.5679-36.5601Q17.8467-38.3545 15.1123-38.3545Q12.3535-38.3545 10.5469-36.5601Q8.74023-34.7656 8.74023-31.9092Z"/>
  </g>
  <g id="Semibold-M" transform="matrix(1 0 0 1 1990.56 1126)">
   <path d="M8.74023-31.8466Q8.74023-22.6738 12.1548-14.6896Q15.5693-6.70547 21.5939-0.656128Q27.6184 5.39322 35.603 8.79097Q43.5875 12.1887 52.7275 12.1887Q61.834 12.1887 69.8105 8.79097Q77.787 5.39322 83.8192-0.656128Q89.8514-6.70547 93.2583-14.6896Q96.6652-22.6738 96.6652-31.8466Q96.6652-40.9691 93.2896-48.93Q89.9139-56.8909 83.9359-62.8845Q77.9579-68.8782 70.0123-72.2694Q62.0667-75.6607 52.9755-75.6607Q51.3351-75.6607 49.7456-75.5032Q48.156-75.3456 46.7491-75.0793L57.6561-85.8246Q58.3641-86.5662 58.7494-87.4615Q59.1347-88.3568 59.1347-89.431Q59.1347-91.7145 57.6168-93.2812Q56.0989-94.8479 53.8971-94.8479Q51.5938-94.8479 50.1312-93.2877L30.1384-72.9553Q28.4515-71.2669 28.4515-69.001Q28.4515-67.8604 28.8612-66.8716Q29.2709-65.8829 30.1384-65.0307L50.1312-44.8318Q51.5938-43.3517 53.8643-43.3517Q56.0989-43.3517 57.6168-44.886Q59.1347-46.4203 59.1347-48.6549Q59.1347-49.7627 58.7494-50.6413Q58.3641-51.5198 57.6233-52.2614L45.3545-64.4318Q47.0062-64.7652 48.9243-64.9391Q50.8423-65.1131 52.9755-65.1131Q59.8343-65.1131 65.7959-62.5496Q71.7575-59.9861 76.2501-55.4394Q80.7426-50.8926 83.2672-44.8532Q85.7918-38.8138 85.7918-31.8466Q85.7918-24.955 83.2283-18.9381Q80.6648-12.9211 76.1337-8.35762Q71.6026-3.7941 65.6017-1.2394Q59.6008 1.31531 52.7275 1.31531Q45.8199 1.31531 39.8117-1.2394Q33.8036-3.7941 29.2568-8.35762Q24.7101-12.9211 22.1466-18.9381Q19.5831-24.955 19.5831-31.8466Q19.5831-34.3033 18.1149-35.8624Q16.6466-37.4214 14.2677-37.4214Q11.8736-37.4214 10.3069-35.8624Q8.74023-34.3033 8.74023-31.8466Z"/>
  </g>
  <g id="Medium-M" transform="matrix(1 0 0 1 1694.21 1126)">
   <path d="M8.74023-31.8001Q8.74023-22.6875 12.1246-14.7671Q15.509-6.84662 21.4828-0.848007Q27.4567 5.1506 35.3771 8.51479Q43.2976 11.879 52.3705 11.879Q61.4021 11.879 69.3184 8.51479Q77.2346 5.1506 83.213-0.848007Q89.1914-6.84662 92.5713-14.7671Q95.9511-22.6875 95.9511-31.8001Q95.9511-40.8409 92.5888-48.748Q89.2265-56.6551 83.2787-62.6118Q77.3308-68.5684 69.4324-71.9395Q61.5341-75.3105 52.5108-75.3105Q50.6073-75.3105 48.7755-75.1259Q46.9437-74.9413 45.3201-74.6208L57.1312-86.2762Q57.7644-86.9499 58.099-87.7747Q58.4335-88.5994 58.4335-89.5256Q58.4335-91.5596 57.0976-92.9443Q55.7617-94.3291 53.8162-94.3291Q51.7288-94.3291 50.4349-92.9375L30.3879-72.5716Q28.9032-71.0648 28.9032-69.0613Q28.9032-68.0557 29.2622-67.1783Q29.6211-66.301 30.3879-65.5434L50.4349-45.3369Q51.7288-44.0117 53.7766-44.0117Q55.7617-44.0117 57.0976-45.3678Q58.4335-46.7239 58.4335-48.7091Q58.4335-49.675 58.099-50.4795Q57.7644-51.284 57.0908-51.9577L43.8316-65.1192Q45.6993-65.5197 47.8867-65.7242Q50.074-65.9286 52.5108-65.9286Q59.5711-65.9286 65.7215-63.2912Q71.8719-60.6537 76.5125-55.9822Q81.1531-51.3107 83.7688-45.1164Q86.3846-38.9221 86.3846-31.8001Q86.3846-24.6994 83.7471-18.507Q81.1096-12.3146 76.4469-7.62329Q71.7842-2.93198 65.6116-0.309753Q59.4391 2.31247 52.3705 2.31247Q45.2606 2.31247 39.0839-0.309753Q32.9071-2.93198 28.2356-7.62329Q23.5641-12.3146 20.9267-18.507Q18.2892-24.6994 18.2892-31.8001Q18.2892-33.9531 17.0132-35.3336Q15.7372-36.7142 13.6276-36.7142Q11.5097-36.7142 10.125-35.3336Q8.74023-33.9531 8.74023-31.8001Z"/>
  </g>
  <g id="Regular-M" transform="matrix(1 0 0 1 1397.96 1126)">
   <path d="M8.74023-31.7383Q8.74023-22.7051 12.085-14.8682Q15.4297-7.03125 21.3379-1.09863Q27.2461 4.83398 35.083 8.1543Q42.9199 11.4746 51.9043 11.4746Q60.8398 11.4746 68.6768 8.1543Q76.5137 4.83398 82.4219-1.09863Q88.3301-7.03125 91.6748-14.8682Q95.0195-22.7051 95.0195-31.7383Q95.0195-40.6738 91.6748-48.5107Q88.3301-56.3477 82.4219-62.2559Q76.5137-68.1641 68.6768-71.5088Q60.8398-74.8535 51.9043-74.8535Q49.6582-74.8535 47.5098-74.6338Q45.3613-74.4141 43.457-74.0234L56.4453-86.8652Q56.9824-87.4512 57.251-88.1836Q57.5195-88.916 57.5195-89.6484Q57.5195-91.3574 56.4209-92.5049Q55.3223-93.6523 53.7109-93.6523Q51.9043-93.6523 50.8301-92.4805L30.7129-72.0703Q29.4922-70.8008 29.4922-69.1406Q29.4922-68.3105 29.7852-67.5781Q30.0781-66.8457 30.7129-66.2109L50.8301-45.9961Q51.9043-44.873 53.6621-44.873Q55.3223-44.873 56.4209-45.9961Q57.5195-47.1191 57.5195-48.7793Q57.5195-49.5605 57.251-50.2686Q56.9824-50.9766 56.3965-51.5625L41.8457-66.0156Q43.9941-66.5039 46.5332-66.748Q49.0723-66.9922 51.9043-66.9922Q59.2285-66.9922 65.625-64.2578Q72.0215-61.5234 76.8555-56.6895Q81.6895-51.8555 84.4238-45.459Q87.1582-39.0625 87.1582-31.7383Q87.1582-24.3652 84.4238-17.9443Q81.6895-11.5234 76.8555-6.66504Q72.0215-1.80664 65.625 0.90332Q59.2285 3.61328 51.9043 3.61328Q44.5312 3.61328 38.1348 0.90332Q31.7383-1.80664 26.9043-6.66504Q22.0703-11.5234 19.3359-17.9443Q16.6016-24.3652 16.6016-31.7383Q16.6016-33.4961 15.5762-34.6436Q14.5508-35.791 12.793-35.791Q11.0352-35.791 9.8877-34.6436Q8.74023-33.4961 8.74023-31.7383Z"/>
  </g>
  <g id="Light-M" transform="matrix(1 0 0 1 1101.84 1126)">
   <path d="M8.74023-31.9046Q8.74023-22.9774 12.0243-15.239Q15.3084-7.50046 21.1334-1.65863Q26.9585 4.1832 34.6893 7.45811Q42.4202 10.733 51.2985 10.733Q60.1585 10.733 67.8894 7.45811Q75.6203 4.1832 81.4453-1.65863Q87.2704-7.50046 90.5621-15.239Q93.8538-22.9774 93.8538-31.9046Q93.8538-40.7341 90.5621-48.4501Q87.2704-56.1661 81.4453-61.9759Q75.6203-67.7856 67.8894-71.0621Q60.1585-74.3385 51.2985-74.3385Q48.3261-74.3385 45.557-74.0055Q42.7879-73.6725 40.5807-73.1606L56.0364-88.6665Q56.4674-89.1312 56.6833-89.6973Q56.8993-90.2634 56.8993-90.8592Q56.8993-92.1448 56.0577-93.0271Q55.2162-93.9095 53.9528-93.9095Q52.5551-93.9095 51.7082-93.0099L30.9402-71.7979Q29.7951-70.6192 29.7951-69.3222Q29.7951-68.6737 30.0503-68.0775Q30.3055-67.4812 30.9402-66.8312L51.738-45.7542Q52.5703-44.8883 53.904-44.8883Q55.201-44.8883 56.0501-45.7539Q56.8993-46.6194 56.8993-47.8714Q56.8993-48.5008 56.6833-49.0501Q56.4674-49.5995 56.0028-50.0641L39.1518-66.9846Q41.6481-67.6239 44.7849-67.9588Q47.9218-68.2938 51.2985-68.2938Q58.9256-68.2938 65.5491-65.4915Q72.1725-62.6892 77.1732-57.7038Q82.1739-52.7184 84.9915-46.1098Q87.809-39.5012 87.809-31.9046Q87.809-24.2439 84.9915-17.5961Q82.1739-10.9482 77.1732-5.93071Q72.1725-0.913239 65.5491 1.89476Q58.9256 4.70276 51.2985 4.70276Q43.6531 4.70276 37.0296 1.89476Q30.4062-0.913239 25.4059-5.93071Q20.4056-10.9482 17.5953-17.5961Q14.785-24.2439 14.785-31.9046Q14.785-33.2542 13.9866-34.129Q13.1882-35.0037 11.8393-35.0037Q10.4904-35.0037 9.61533-34.129Q8.74023-33.2542 8.74023-31.9046Z"/>
  </g>
  <g id="Thin-M" transform="matrix(1 0 0 1 805.896 1126)">
   <path d="M8.74023-32.1251Q8.74023-23.3376 11.9442-15.7291Q15.1482-8.12073 20.8633-2.39906Q26.5785 3.3226 34.169 6.53725Q41.7595 9.75189 50.4982 9.75189Q59.2575 9.75189 66.8484 6.53725Q74.4392 3.3226 80.1544-2.39906Q85.8696-8.12073 89.0911-15.7291Q92.3126-23.3376 92.3126-32.1251Q92.3126-40.8142 89.0911-48.37Q85.8696-55.9258 80.1544-61.6055Q74.4392-67.2852 66.8484-70.4716Q59.2575-73.658 50.4982-73.658Q46.5645-73.658 42.9749-73.1747Q39.3852-72.6913 36.7775-72.02L55.4962-91.0484Q55.7869-91.3536 55.9326-91.6992Q56.0783-92.0448 56.0783-92.4606Q56.0783-93.1854 55.5771-93.7176Q55.0758-94.2497 54.2732-94.2497Q53.4157-94.2497 52.8694-93.7111L31.2401-71.4378Q30.1956-70.3789 30.1956-69.5625Q30.1956-69.1544 30.4005-68.7382Q30.6053-68.322 31.2401-67.6521L52.9396-45.4338Q53.4508-44.9081 54.2244-44.9081Q55.0407-44.9081 55.5595-45.4334Q56.0783-45.9587 56.0783-46.6698Q56.0783-47.1001 55.9326-47.4388Q55.7869-47.7776 55.4825-48.082L35.5881-68.2655Q38.5452-69.1055 42.4728-69.5606Q46.4005-70.0157 50.4982-70.0157Q58.5251-70.0157 65.4491-67.123Q72.3732-64.2303 77.594-59.0446Q82.8148-53.8589 85.7422-46.9704Q88.6696-40.0818 88.6696-32.1251Q88.6696-24.0837 85.7422-17.1356Q82.8148-10.1875 77.594-4.95987Q72.3732 0.267792 65.4491 3.20625Q58.5251 6.14471 50.4982 6.14471Q42.4919 6.14471 35.5682 3.20625Q28.6446 0.267792 23.4238-4.95987Q18.203-10.1875 15.2931-17.1356Q12.3833-24.0837 12.3833-32.1251Q12.3833-32.9338 11.8851-33.4484Q11.3869-33.963 10.5782-33.963Q9.76944-33.963 9.25484-33.4484Q8.74023-32.9338 8.74023-32.1251Z"/>
  </g>
  <g id="Ultralight-M" transform="matrix(1 0 0 1 509.58 1126)">
   <path d="M8.74023-32.238Q8.74023-23.5222 11.9034-15.9805Q15.0665-8.43887 20.7249-2.77863Q26.3832 2.88162 33.9024 6.06575Q41.4215 9.24988 50.0877 9.24988Q58.7967 9.24988 66.3155 6.06575Q73.8342 2.88162 79.493-2.77863Q85.1517-8.43887 88.3373-15.9805Q91.523-23.5222 91.523-32.238Q91.523-40.8554 88.3373-48.3292Q85.1517-55.8029 79.493-61.4159Q73.8342-67.0288 66.3155-70.1691Q58.7967-73.3093 50.0877-73.3093Q45.6619-73.3093 41.6519-72.7493Q37.6419-72.1893 34.8289-71.4348L55.2193-92.2691Q55.4382-92.4919 55.5481-92.7246Q55.658-92.9573 55.658-93.2816Q55.658-93.7187 55.331-94.0716Q55.0041-94.4244 54.4373-94.4244Q53.8567-94.4244 53.4637-94.0697L31.3942-71.2532Q30.4001-70.256 30.4001-69.6854Q30.4001-69.4 30.5798-69.0765Q30.7594-68.7531 31.3942-68.0725L53.5545-45.2698Q53.9024-44.9188 54.3884-44.9188Q54.9591-44.9188 55.3085-45.2698Q55.658-45.6207 55.658-46.0548Q55.658-46.3821 55.5481-46.6133Q55.4382-46.8445 55.2155-47.0673L33.7631-68.9217Q36.9553-69.8639 41.2884-70.3808Q45.6215-70.8977 50.0877-70.8977Q58.3206-70.8977 65.398-67.9588Q72.4754-65.02 77.8091-59.7321Q83.1429-54.4441 86.1267-47.4117Q89.1106-40.3793 89.1106-32.238Q89.1106-24.0021 86.1267-16.8999Q83.1429-9.79767 77.8091-4.46243Q72.4754 0.872803 65.398 3.87764Q58.3206 6.88248 50.0877 6.88248Q41.8976 6.88248 34.8198 3.87764Q27.742 0.872803 22.4087-4.46243Q17.0753-9.79767 14.114-16.8999Q11.1526-24.0021 11.1526-32.238Q11.1526-32.7698 10.8082-33.0997Q10.4637-33.4297 9.93195-33.4297Q9.40018-33.4297 9.07021-33.0997Q8.74023-32.7698 8.74023-32.238Z"/>
  </g>
  <g id="Black-S" transform="matrix(1 0 0 1 2890.58 696)">
   <path d="M6.83594-32.8125Q6.83594-25.3418 9.64355-18.8232Q12.4512-12.3047 17.3828-7.34863Q22.3145-2.39258 28.833 0.415039Q35.3516 3.22266 42.8223 3.22266Q50.293 3.22266 56.8115 0.415039Q63.3301-2.39258 68.2617-7.34863Q73.1934-12.3047 76.001-18.8232Q78.8086-25.3418 78.8086-32.8125Q78.8086-40.2832 76.0986-46.7529Q73.3887-53.2227 68.5791-58.0811Q63.7695-62.9395 57.3486-65.6738Q50.9277-68.4082 43.5059-68.4082Q43.3105-68.4082 43.1152-68.4082Q42.9199-68.4082 42.7246-68.4082L47.4609-72.998Q48.291-73.8281 48.8281-74.8535Q49.3652-75.8789 49.3652-77.3438Q49.3652-80.2246 47.3877-82.2266Q45.4102-84.2285 42.5781-84.2285Q39.8926-84.2285 37.9883-82.2754L22.5098-66.4551Q20.3125-64.3555 20.3125-61.4258Q20.3125-58.5449 22.5098-56.3477L37.9883-40.5273Q39.8438-38.6719 42.5781-38.6719Q45.4102-38.6719 47.3877-40.6494Q49.3652-42.627 49.3652-45.459Q49.3652-46.9238 48.8281-47.9492Q48.291-48.9746 47.4609-49.8047L42.041-55.127Q42.4316-55.127 42.7979-55.127Q43.1641-55.127 43.5059-55.127Q47.998-55.127 51.8555-53.4424Q55.7129-51.7578 58.5938-48.7305Q61.4746-45.7031 63.0615-41.6504Q64.6484-37.5977 64.6484-32.8125Q64.6484-28.2715 62.9639-24.3164Q61.2793-20.3613 58.2764-17.3584Q55.2734-14.3555 51.3184-12.6465Q47.3633-10.9375 42.8223-10.9375Q38.2812-10.9375 34.3018-12.6465Q30.3223-14.3555 27.3193-17.3584Q24.3164-20.3613 22.6074-24.3164Q20.8984-28.2715 20.8984-32.8125Q20.8984-36.0352 18.9209-38.0127Q16.9434-39.9902 13.916-39.9902Q10.8398-39.9902 8.83789-38.0127Q6.83594-36.0352 6.83594-32.8125Z"/>
  </g>
  <g id="Heavy-S" transform="matrix(1 0 0 1 2594.32 696)">
   <path d="M6.83594-32.7202Q6.83594-25.3304 9.60312-18.8923Q12.3703-12.4542 17.2443-7.56187Q22.1184-2.66953 28.5564 0.10376Q34.9945 2.87704 42.3729 2.87704Q49.7513 2.87704 56.1893 0.10376Q62.6274-2.66953 67.5014-7.56187Q72.3755-12.4542 75.1427-18.8923Q77.9099-25.3304 77.9099-32.7202Q77.9099-40.0986 75.2171-46.4993Q72.5243-52.8999 67.7437-57.7179Q62.9631-62.5359 56.5998-65.2473Q50.2365-67.9588 42.8947-67.9588Q42.4232-67.9588 41.9456-67.9298Q41.468-67.9008 41.0072-67.8436L46.7461-73.4245Q47.4846-74.1852 47.9523-75.1186Q48.42-76.0521 48.42-77.3323Q48.42-79.8904 46.6732-81.6677Q44.9265-83.445 42.4286-83.445Q39.9963-83.445 38.3224-81.6994L22.8554-65.9248Q20.9351-64.0785 20.9351-61.4952Q20.9351-58.9371 22.8554-57.016L38.3224-41.288Q39.959-39.64 42.4286-39.64Q44.9265-39.64 46.6732-41.3872Q48.42-43.1343 48.42-45.6551Q48.42-46.9353 47.9523-47.8626Q47.4846-48.79 46.7346-49.5514L40.1512-56.0143Q40.818-56.0951 41.5012-56.1237Q42.1844-56.1523 42.8947-56.1523Q47.6524-56.1523 51.7574-54.3701Q55.8624-52.5879 58.9394-49.3992Q62.0163-46.2105 63.7241-41.9559Q65.432-37.7014 65.432-32.7202Q65.432-27.9144 63.6494-23.7347Q61.8668-19.5549 58.6967-16.3849Q55.5267-13.2149 51.347-11.4136Q47.1672-9.61227 42.3729-9.61227Q37.5786-9.61227 33.3801-11.4136Q29.1817-13.2149 26.0117-16.3849Q22.8416-19.5549 21.0403-23.7347Q19.239-27.9144 19.239-32.7202Q19.239-35.5515 17.5148-37.3039Q15.7906-39.0564 13.1096-39.0564Q10.379-39.0564 8.60748-37.3039Q6.83594-35.5515 6.83594-32.7202Z"/>
  </g>
  <g id="Bold-S" transform="matrix(1 0 0 1 2298.11 696)">
   <path d="M6.83594-32.6172Q6.83594-25.3174 9.55811-18.9697Q12.2803-12.6221 17.0898-7.80029Q21.8994-2.97852 28.2471-0.244141Q34.5947 2.49023 41.8701 2.49023Q49.1455 2.49023 55.4932-0.244141Q61.8408-2.97852 66.6504-7.80029Q71.46-12.6221 74.1821-18.9697Q76.9043-25.3174 76.9043-32.6172Q76.9043-39.8926 74.231-46.2158Q71.5576-52.5391 66.8091-57.312Q62.0605-62.085 55.7617-64.7705Q49.4629-67.4561 42.2119-67.4561Q41.4307-67.4561 40.6372-67.395Q39.8438-67.334 39.0869-67.2119L45.9473-73.9014Q46.582-74.585 46.9727-75.415Q47.3633-76.2451 47.3633-77.3193Q47.3633-79.5166 45.874-81.0425Q44.3848-82.5684 42.2607-82.5684Q40.1123-82.5684 38.6963-81.0547L23.2422-65.332Q21.6309-63.7695 21.6309-61.5723Q21.6309-59.375 23.2422-57.7637L38.6963-42.1387Q40.0879-40.7227 42.2607-40.7227Q44.3848-40.7227 45.874-42.2119Q47.3633-43.7012 47.3633-45.874Q47.3633-46.9482 46.9727-47.7661Q46.582-48.584 45.9229-49.2676L38.0371-57.0068Q39.0137-57.1777 40.0513-57.2388Q41.0889-57.2998 42.2119-57.2998Q47.2656-57.2998 51.6479-55.4077Q56.0303-53.5156 59.3262-50.1465Q62.6221-46.7773 64.4653-42.2974Q66.3086-37.8174 66.3086-32.6172Q66.3086-27.5146 64.4165-23.0835Q62.5244-18.6523 59.1675-15.2954Q55.8105-11.9385 51.3794-10.0342Q46.9482-8.12988 41.8701-8.12988Q36.792-8.12988 32.3486-10.0342Q27.9053-11.9385 24.5483-15.2954Q21.1914-18.6523 19.2871-23.0835Q17.3828-27.5146 17.3828-32.6172Q17.3828-35.0098 15.9424-36.5112Q14.502-38.0127 12.207-38.0127Q9.86328-38.0127 8.34961-36.5112Q6.83594-35.0098 6.83594-32.6172Z"/>
  </g>
  <g id="Semibold-S" transform="matrix(1 0 0 1 2001.74 696)">
   <path d="M6.83594-32.5462Q6.83594-25.3082 9.52682-19.0228Q12.2177-12.7373 16.983-7.96471Q21.7484-3.19214 28.0338-0.484085Q34.3193 2.22397 41.5237 2.22397Q48.7282 2.22397 55.0133-0.484085Q61.2984-3.19214 66.0637-7.96471Q70.829-12.7373 73.5199-19.0228Q76.2108-25.3082 76.2108-32.5462Q76.2108-39.7507 73.5508-46.0205Q70.8908-52.2903 66.1648-57.032Q61.4388-61.7737 55.1842-64.4417Q48.9296-67.1097 41.7412-67.1097Q40.7463-67.1097 39.735-67.0261Q38.7238-66.9426 37.7625-66.7763L45.3964-74.2302Q45.9602-74.8604 46.2975-75.6195Q46.6347-76.3786 46.6347-77.3102Q46.6347-79.2587 45.3232-80.6114Q44.0117-81.9641 42.1455-81.9641Q40.1924-81.9641 38.9542-80.6107L23.5085-64.9231Q22.1107-63.5559 22.1107-61.6257Q22.1107-59.6771 23.5085-58.2794L38.9542-42.7254Q40.1764-41.4688 42.1455-41.4688Q44.0117-41.4688 45.3232-42.7807Q46.6347-44.0926 46.6347-46.0251Q46.6347-46.9574 46.2975-47.6997Q45.9602-48.4421 45.3629-49.0723L36.5799-57.6912Q37.7693-57.9239 39.0514-58.0074Q40.3336-58.091 41.7412-58.091Q46.9994-58.091 51.5724-56.1234Q56.1455-54.1557 59.5924-50.6622Q63.0394-47.1687 64.9761-42.5331Q66.9128-37.8975 66.9128-32.5462Q66.9128-27.2392 64.9452-22.6349Q62.9776-18.0305 59.4917-14.5447Q56.0059-11.0588 51.4015-9.08318Q46.7972-7.10754 41.5237-7.10754Q36.2495-7.10754 31.6376-9.08318Q27.0256-11.0588 23.5397-14.5447Q20.0539-18.0305 18.0786-22.6349Q16.1034-27.2392 16.1034-32.5462Q16.1034-34.6367 14.8582-35.9646Q13.6131-37.2925 11.5852-37.2925Q9.50775-37.2925 8.17184-35.9646Q6.83594-34.6367 6.83594-32.5462Z"/>
  </g>
  <g id="Medium-S" transform="matrix(1 0 0 1 1705.29 696)">
   <path d="M6.83594-32.4921Q6.83594-25.3021 9.50356-19.0636Q12.1712-12.825 16.9025-8.08945Q21.6339-3.35388 27.8721-0.666046Q34.1103 2.02179 41.2605 2.02179Q48.4108 2.02179 54.6494-0.666046Q60.8879-3.35388 65.6193-8.08945Q70.3506-12.825 73.0183-19.0636Q75.6859-25.3021 75.6859-32.4921Q75.6859-39.6423 73.0358-45.8721Q70.3857-52.1019 65.6761-56.8199Q60.9665-61.5379 54.7459-64.1922Q48.5252-66.8465 41.3841-66.8465Q40.2275-66.8465 39.0511-66.7465Q37.8746-66.6466 36.7584-66.4459L44.9783-74.4797Q45.488-75.0694 45.7851-75.7744Q46.0823-76.4793 46.0823-77.3041Q46.0823-79.0634 44.9055-80.2845Q43.7286-81.5056 42.0578-81.5056Q40.2527-81.5056 39.1495-80.2734L23.7106-64.6133Q22.4747-63.3942 22.4747-61.6661Q22.4747-59.906 23.7106-58.67L39.1495-43.1702Q40.2443-42.0349 42.0578-42.0349Q43.7286-42.0349 44.9055-43.2117Q46.0823-44.3886 46.0823-46.1395Q46.0823-46.9635 45.7851-47.6486Q45.488-48.3337 44.9387-48.9235L35.4744-58.21Q36.8263-58.49 38.2935-58.5903Q39.7606-58.6906 41.3841-58.6906Q46.7972-58.6906 51.5152-56.6658Q56.2332-54.641 59.795-51.0529Q63.3568-47.4648 65.3641-42.7113Q67.3714-37.9578 67.3714-32.4921Q67.3714-27.0302 65.3465-22.2942Q63.3217-17.5583 59.7382-13.9748Q56.1546-10.3912 51.4187-8.3622Q46.6827-6.33316 41.2605-6.33316Q35.8391-6.33316 31.0986-8.3622Q26.358-10.3912 22.7749-13.9748Q19.1917-17.5583 17.1623-22.2942Q15.1329-27.0302 15.1329-32.4921Q15.1329-34.3536 14.0362-35.5503Q12.9395-36.747 11.113-36.747Q9.23843-36.747 8.03719-35.5503Q6.83594-34.3536 6.83594-32.4921Z"/>
  </g>
  <g id="Regular-S" transform="matrix(1 0 0 1 1408.93 696)">
   <path d="M6.83594-32.4219Q6.83594-25.293 9.47266-19.1162Q12.1094-12.9395 16.7969-8.25195Q21.4844-3.56445 27.6611-0.90332Q33.8379 1.75781 40.918 1.75781Q47.998 1.75781 54.1748-0.90332Q60.3516-3.56445 65.0391-8.25195Q69.7266-12.9395 72.3633-19.1162Q75-25.293 75-32.4219Q75-39.502 72.3633-45.6787Q69.7266-51.8555 65.0391-56.543Q60.3516-61.2305 54.1748-63.8672Q47.998-66.5039 40.918-66.5039Q39.5508-66.5039 38.1592-66.3818Q36.7676-66.2598 35.4492-66.0156L44.4336-74.8047Q44.873-75.3418 45.1172-75.9766Q45.3613-76.6113 45.3613-77.2949Q45.3613-78.8086 44.3604-79.8584Q43.3594-80.9082 41.9434-80.9082Q40.332-80.9082 39.4043-79.834L23.9746-64.209Q22.9492-63.1836 22.9492-61.7188Q22.9492-60.2051 23.9746-59.1797L39.4043-43.75Q40.332-42.7734 41.9434-42.7734Q43.3594-42.7734 44.3604-43.7744Q45.3613-44.7754 45.3613-46.2891Q45.3613-46.9727 45.1172-47.583Q44.873-48.1934 44.3848-48.7305L34.0332-58.8867Q35.5957-59.2285 37.3047-59.3506Q39.0137-59.4727 40.918-59.4727Q46.5332-59.4727 51.4404-57.373Q56.3477-55.2734 60.0586-51.5625Q63.7695-47.8516 65.8691-42.9443Q67.9688-38.0371 67.9688-32.4219Q67.9688-26.7578 65.8691-21.8506Q63.7695-16.9434 60.0586-13.2324Q56.3477-9.52148 51.4404-7.42188Q46.5332-5.32227 40.918-5.32227Q35.3027-5.32227 30.3955-7.42188Q25.4883-9.52148 21.7773-13.2324Q18.0664-16.9434 15.9668-21.8506Q13.8672-26.7578 13.8672-32.4219Q13.8672-33.9844 12.9639-35.0098Q12.0605-36.0352 10.498-36.0352Q8.88672-36.0352 7.86133-35.0098Q6.83594-33.9844 6.83594-32.4219Z"/>
  </g>
  <g id="Light-S" transform="matrix(1 0 0 1 1112.73 696)">
   <path d="M6.83594-32.5584Q6.83594-25.5203 9.42726-19.4344Q12.0186-13.3484 16.6229-8.73642Q21.2273-4.12445 27.3132-1.51634Q33.3992 1.09177 40.3885 1.09177Q47.3923 1.09177 53.4782-1.51634Q59.5642-4.12445 64.1762-8.73642Q68.7881-13.3484 71.3795-19.4344Q73.9708-25.5203 73.9708-32.5584Q73.9708-39.5477 71.3795-45.6184Q68.7881-51.6891 64.1762-56.2859Q59.5642-60.8826 53.4782-63.4663Q47.3923-66.05 40.3885-66.05Q38.3698-66.05 36.4334-65.8295Q34.4971-65.609 32.8911-65.2588L44.0552-76.3939Q44.4191-76.825 44.6102-77.3159Q44.8013-77.8069 44.8013-78.3699Q44.8013-79.5197 44.0426-80.32Q43.2838-81.1203 42.1555-81.1203Q40.9073-81.1203 40.1764-80.3032L24.1562-63.9816Q23.2063-63.0325 23.2063-61.8698Q23.2063-60.7048 24.1562-59.7397L40.1917-43.5532Q40.9225-42.7887 42.1402-42.7887Q43.2686-42.7887 44.035-43.5627Q44.8013-44.3367 44.8013-45.4865Q44.8013-46.0342 44.6102-46.516Q44.4191-46.9978 44.0216-47.4136L31.6719-59.7343Q33.522-60.1974 35.7533-60.4179Q37.9845-60.6384 40.3885-60.6384Q46.2608-60.6384 51.3725-58.4705Q56.4842-56.3026 60.339-52.4555Q64.1937-48.6084 66.3689-43.512Q68.544-38.4155 68.544-32.5584Q68.544-26.6518 66.3689-21.5401Q64.1937-16.4284 60.339-12.5736Q56.4842-8.71887 51.3725-6.54373Q46.2608-4.36859 40.3885-4.36859Q34.5306-4.36859 29.4189-6.54373Q24.3073-8.71887 20.4529-12.5736Q16.5985-16.4284 14.4306-21.5401Q12.2627-26.6518 12.2627-32.5584Q12.2627-33.7723 11.5562-34.5554Q10.8498-35.3386 9.65042-35.3386Q8.40225-35.3386 7.61909-34.5554Q6.83594-33.7723 6.83594-32.5584Z"/>
  </g>
  <g id="Thin-S" transform="matrix(1 0 0 1 816.7 696)">
   <path d="M6.83594-32.7385Q6.83594-25.8202 9.36737-19.8544Q11.8988-13.8885 16.3929-9.37691Q20.887-4.86526 26.8528-2.32697Q32.8186 0.211334 39.6873 0.211334Q46.5919 0.211334 52.5578-2.32697Q58.5236-4.86526 63.0352-9.37691Q67.5468-13.8885 70.0783-19.8544Q72.6097-25.8202 72.6097-32.7385Q72.6097-39.6072 70.0783-45.5379Q67.5468-51.4687 63.0352-55.9452Q58.5236-60.4218 52.5578-62.9356Q46.5919-65.4495 39.6873-65.4495Q36.8088-65.4495 34.1515-65.099Q31.4941-64.7484 29.5082-64.2578L43.5547-78.4958Q43.8187-78.7872 43.9396-79.0878Q44.0605-79.3884 44.0605-79.7913Q44.0605-80.4611 43.6222-80.9307Q43.1839-81.4003 42.4355-81.4003Q41.6679-81.4003 41.1972-80.9235L24.3965-63.6818Q23.5466-62.8319 23.5466-62.0705Q23.5466-61.3655 24.3965-60.4805L41.2323-43.293Q41.703-42.8085 42.4004-42.8085Q43.1488-42.8085 43.6047-43.2823Q44.0605-43.7561 44.0605-44.426Q44.0605-44.7929 43.9396-45.1046Q43.8187-45.4163 43.541-45.6718L28.5492-60.8551Q30.7793-61.4784 33.7013-61.829Q36.6234-62.1796 39.6873-62.1796Q45.9007-62.1796 51.2825-59.9216Q56.6643-57.6637 60.709-53.6366Q64.7537-49.6094 67.0292-44.2627Q69.3047-38.916 69.3047-32.7385Q69.3047-26.5114 67.0292-21.1296Q64.7537-15.7478 60.709-11.7031Q56.6643-7.65839 51.2825-5.38292Q45.9007-3.10745 39.6873-3.10745Q33.5098-3.10745 28.1281-5.38292Q22.7463-7.65839 18.7012-11.7031Q14.6561-15.7478 12.3985-21.1296Q10.141-26.5114 10.141-32.7385Q10.141-33.4923 9.69467-33.955Q9.24835-34.4177 8.52966-34.4177Q7.76215-34.4177 7.29904-33.955Q6.83594-33.4923 6.83594-32.7385Z"/>
  </g>
  <g id="Ultralight-S" transform="matrix(1 0 0 1 520.337 696)">
   <path d="M6.83594-32.8308Q6.83594-25.9743 9.33647-20.0699Q11.837-14.1655 16.2746-9.70497Q20.7123-5.24445 26.6167-2.74239Q32.5211-0.240326 39.3288-0.240326Q46.1815-0.240326 52.0859-2.74239Q57.9903-5.24445 62.4508-9.70497Q66.9113-14.1655 69.4118-20.0699Q71.9124-25.9743 71.9124-32.8308Q71.9124-39.6385 69.4118-45.4971Q66.9113-51.3557 62.4508-55.7709Q57.9903-60.186 52.0859-62.6637Q46.1815-65.1413 39.3288-65.1413Q36.0085-65.1413 32.9823-64.7243Q29.9561-64.3074 27.7748-63.7451L43.2983-79.5731Q43.5104-79.792 43.5959-79.9953Q43.6813-80.1987 43.6813-80.5191Q43.6813-80.9425 43.4067-81.2431Q43.132-81.5437 42.5789-81.5437Q42.0578-81.5437 41.7198-81.2416L24.5193-63.5277Q23.7213-62.7296 23.7213-62.1727Q23.7213-61.7035 24.5193-60.8597L41.7656-43.1595Q42.1028-42.8192 42.5339-42.8192Q43.087-42.8192 43.3842-43.1389Q43.6813-43.4586 43.6813-43.882Q43.6813-44.1574 43.5959-44.3817Q43.5104-44.606 43.2953-44.78L26.9493-61.4296Q29.3747-62.1346 32.6504-62.5519Q35.9261-62.9692 39.3288-62.9692Q45.7161-62.9692 51.2363-60.6651Q56.7566-58.3611 60.899-54.2416Q65.0414-50.1221 67.3679-44.6472Q69.6945-39.1724 69.6945-32.8308Q69.6945-26.4397 67.3679-20.9194Q65.0414-15.3992 60.899-11.2568Q56.7566-7.11441 51.2363-4.78783Q45.7161-2.46124 39.3288-2.46124Q32.9872-2.46124 27.4666-4.78783Q21.946-7.11441 17.804-11.2568Q13.662-15.3992 11.3579-20.9194Q9.0538-26.4397 9.0538-32.8308Q9.0538-33.3488 8.74062-33.6475Q8.42743-33.9462 7.95517-33.9462Q7.43332-33.9462 7.13463-33.6475Q6.83594-33.3488 6.83594-32.8308Z"/>
  </g>
 </g>
</svg>
