<?xml version="1.0" encoding="UTF-8"?>
<!--Generator: Apple Native CoreSVG 175-->
<!DOCTYPE svg
PUBLIC "-//W3C//DTD SVG 1.1//EN"
       "http://www.w3.org/Graphics/SVG/1.1/DTD/svg11.dtd">
<svg version="1.1" xmlns="http://www.w3.org/2000/svg" xmlns:xlink="http://www.w3.org/1999/xlink" width="3300" height="2200">
 <!--glyph: "uni100945.medium", point size: 100.0, font version: "17.1d1e1", template writer version: "65.1"-->
 <g id="Notes">
  <rect height="2200" id="artboard" style="fill:white;opacity:1" width="3300" x="0" y="0"/>
  <line style="fill:none;stroke:black;opacity:1;stroke-width:0.5;" x1="263" x2="3036" y1="292" y2="292"/>
  <text style="stroke:none;fill:black;font-family:sans-serif;font-size:13;font-weight:bold;" transform="matrix(1 0 0 1 263 322)">Weight/Scale Variations</text>
  <text style="stroke:none;fill:black;font-family:sans-serif;font-size:13;text-anchor:middle;" transform="matrix(1 0 0 1 559.711 322)">Ultralight</text>
  <text style="stroke:none;fill:black;font-family:sans-serif;font-size:13;text-anchor:middle;" transform="matrix(1 0 0 1 856.422 322)">Thin</text>
  <text style="stroke:none;fill:black;font-family:sans-serif;font-size:13;text-anchor:middle;" transform="matrix(1 0 0 1 1153.13 322)">Light</text>
  <text style="stroke:none;fill:black;font-family:sans-serif;font-size:13;text-anchor:middle;" transform="matrix(1 0 0 1 1449.84 322)">Regular</text>
  <text style="stroke:none;fill:black;font-family:sans-serif;font-size:13;text-anchor:middle;" transform="matrix(1 0 0 1 1746.56 322)">Medium</text>
  <text style="stroke:none;fill:black;font-family:sans-serif;font-size:13;text-anchor:middle;" transform="matrix(1 0 0 1 2043.27 322)">Semibold</text>
  <text style="stroke:none;fill:black;font-family:sans-serif;font-size:13;text-anchor:middle;" transform="matrix(1 0 0 1 2339.98 322)">Bold</text>
  <text style="stroke:none;fill:black;font-family:sans-serif;font-size:13;text-anchor:middle;" transform="matrix(1 0 0 1 2636.69 322)">Heavy</text>
  <text style="stroke:none;fill:black;font-family:sans-serif;font-size:13;text-anchor:middle;" transform="matrix(1 0 0 1 2933.4 322)">Black</text>
  <line style="fill:none;stroke:black;opacity:1;stroke-width:0.5;" x1="263" x2="3036" y1="1903" y2="1903"/>
  <g transform="matrix(1 0 0 1 263 1933)">
   <path d="M9.24805 0.830078Q10.8691 0.830078 12.2949 0.214844Q13.7207-0.400391 14.8096-1.49414Q15.8984-2.58789 16.5186-4.01367Q17.1387-5.43945 17.1387-7.05078Q17.1387-8.66211 16.5186-10.0879Q15.8984-11.5137 14.8047-12.6074Q13.7109-13.7012 12.2852-14.3164Q10.8594-14.9316 9.23828-14.9316Q7.62695-14.9316 6.20117-14.3164Q4.77539-13.7012 3.69141-12.6074Q2.60742-11.5137 1.9873-10.0879Q1.36719-8.66211 1.36719-7.05078Q1.36719-5.43945 1.9873-4.01367Q2.60742-2.58789 3.69629-1.49414Q4.78516-0.400391 6.21094 0.214844Q7.63672 0.830078 9.24805 0.830078ZM9.24805-0.654297Q7.91992-0.654297 6.7627-1.14746Q5.60547-1.64062 4.73145-2.51953Q3.85742-3.39844 3.36426-4.56055Q2.87109-5.72266 2.87109-7.05078Q2.87109-8.37891 3.35938-9.54102Q3.84766-10.7031 4.72168-11.582Q5.5957-12.4609 6.75293-12.9541Q7.91016-13.4473 9.23828-13.4473Q10.5762-13.4473 11.7334-12.9541Q12.8906-12.4609 13.7695-11.582Q14.6484-10.7031 15.1465-9.54102Q15.6445-8.37891 15.6445-7.05078Q15.6445-5.72266 15.1514-4.56055Q14.6582-3.39844 13.7842-2.51953Q12.9102-1.64062 11.748-1.14746Q10.5859-0.654297 9.24805-0.654297ZM5.6543-7.05078Q5.6543-6.72852 5.85938-6.52832Q6.06445-6.32812 6.40625-6.32812L8.51562-6.32812L8.51562-4.20898Q8.51562-3.88672 8.71094-3.67676Q8.90625-3.4668 9.23828-3.4668Q9.56055-3.4668 9.77051-3.67676Q9.98047-3.88672 9.98047-4.20898L9.98047-6.32812L12.0898-6.32812Q12.4219-6.32812 12.627-6.52832Q12.832-6.72852 12.832-7.05078Q12.832-7.38281 12.627-7.58789Q12.4219-7.79297 12.0898-7.79297L9.98047-7.79297L9.98047-9.90234Q9.98047-10.2344 9.77051-10.4443Q9.56055-10.6543 9.23828-10.6543Q8.90625-10.6543 8.71094-10.4443Q8.51562-10.2344 8.51562-9.90234L8.51562-7.79297L6.40625-7.79297Q6.06445-7.79297 5.85938-7.58789Q5.6543-7.38281 5.6543-7.05078Z"/>
  </g>
  <g transform="matrix(1 0 0 1 281.867 1933)">
   <path d="M11.709 2.91016Q13.75 2.91016 15.5518 2.12891Q17.3535 1.34766 18.7305-0.0292969Q20.1074-1.40625 20.8887-3.20801Q21.6699-5.00977 21.6699-7.05078Q21.6699-9.0918 20.8887-10.8936Q20.1074-12.6953 18.7305-14.0723Q17.3535-15.4492 15.5469-16.2305Q13.7402-17.0117 11.6992-17.0117Q9.6582-17.0117 7.85645-16.2305Q6.05469-15.4492 4.68262-14.0723Q3.31055-12.6953 2.5293-10.8936Q1.74805-9.0918 1.74805-7.05078Q1.74805-5.00977 2.5293-3.20801Q3.31055-1.40625 4.6875-0.0292969Q6.06445 1.34766 7.86621 2.12891Q9.66797 2.91016 11.709 2.91016ZM11.709 1.25Q9.98047 1.25 8.47656 0.605469Q6.97266-0.0390625 5.83496-1.17676Q4.69727-2.31445 4.05762-3.81836Q3.41797-5.32227 3.41797-7.05078Q3.41797-8.7793 4.05762-10.2832Q4.69727-11.7871 5.83008-12.9297Q6.96289-14.0723 8.4668-14.7119Q9.9707-15.3516 11.6992-15.3516Q13.4277-15.3516 14.9316-14.7119Q16.4355-14.0723 17.5781-12.9297Q18.7207-11.7871 19.3652-10.2832Q20.0098-8.7793 20.0098-7.05078Q20.0098-5.32227 19.3701-3.81836Q18.7305-2.31445 17.5928-1.17676Q16.4551-0.0390625 14.9463 0.605469Q13.4375 1.25 11.709 1.25ZM7.17773-7.05078Q7.17773-6.69922 7.41211-6.47461Q7.64648-6.25 8.01758-6.25L10.8887-6.25L10.8887-3.36914Q10.8887-2.99805 11.1133-2.76855Q11.3379-2.53906 11.6895-2.53906Q12.0605-2.53906 12.29-2.76855Q12.5195-2.99805 12.5195-3.36914L12.5195-6.25L15.4004-6.25Q15.7715-6.25 16.001-6.47461Q16.2305-6.69922 16.2305-7.05078Q16.2305-7.42188 16.001-7.65137Q15.7715-7.88086 15.4004-7.88086L12.5195-7.88086L12.5195-10.752Q12.5195-11.1328 12.29-11.3623Q12.0605-11.5918 11.6895-11.5918Q11.3379-11.5918 11.1133-11.3574Q10.8887-11.123 10.8887-10.752L10.8887-7.88086L8.01758-7.88086Q7.63672-7.88086 7.40723-7.65137Q7.17773-7.42188 7.17773-7.05078Z"/>
  </g>
  <g transform="matrix(1 0 0 1 305.646 1933)">
   <path d="M14.9707 5.66406Q17.0605 5.66406 18.96 5.01465Q20.8594 4.36523 22.4512 3.19336Q24.043 2.02148 25.2197 0.429688Q26.3965-1.16211 27.0459-3.06641Q27.6953-4.9707 27.6953-7.05078Q27.6953-9.14062 27.0459-11.04Q26.3965-12.9395 25.2197-14.5312Q24.043-16.123 22.4512-17.2998Q20.8594-18.4766 18.9551-19.126Q17.0508-19.7754 14.9609-19.7754Q12.8711-19.7754 10.9717-19.126Q9.07227-18.4766 7.48535-17.2998Q5.89844-16.123 4.72168-14.5312Q3.54492-12.9395 2.90039-11.04Q2.25586-9.14062 2.25586-7.05078Q2.25586-4.9707 2.90527-3.06641Q3.55469-1.16211 4.72656 0.429688Q5.89844 2.02148 7.49023 3.19336Q9.08203 4.36523 10.9814 5.01465Q12.8809 5.66406 14.9707 5.66406ZM14.9707 3.84766Q13.1641 3.84766 11.5283 3.2959Q9.89258 2.74414 8.53516 1.74805Q7.17773 0.751953 6.17676-0.610352Q5.17578-1.97266 4.62891-3.6084Q4.08203-5.24414 4.08203-7.05078Q4.08203-8.86719 4.62891-10.5029Q5.17578-12.1387 6.17188-13.501Q7.16797-14.8633 8.52539-15.8594Q9.88281-16.8555 11.5186-17.4023Q13.1543-17.9492 14.9609-17.9492Q16.7773-17.9492 18.4131-17.4023Q20.0488-16.8555 21.4111-15.8594Q22.7734-14.8633 23.7695-13.501Q24.7656-12.1387 25.3174-10.5029Q25.8691-8.86719 25.8691-7.05078Q25.8789-5.24414 25.332-3.6084Q24.7852-1.97266 23.7842-0.610352Q22.7832 0.751953 21.4209 1.74805Q20.0586 2.74414 18.4229 3.2959Q16.7871 3.84766 14.9707 3.84766ZM9.19922-7.05078Q9.19922-6.66992 9.45801-6.4209Q9.7168-6.17188 10.1172-6.17188L14.0625-6.17188L14.0625-2.2168Q14.0625-1.81641 14.3115-1.55762Q14.5605-1.29883 14.9512-1.29883Q15.3516-1.29883 15.6104-1.55273Q15.8691-1.80664 15.8691-2.2168L15.8691-6.17188L19.8242-6.17188Q20.2246-6.17188 20.4785-6.4209Q20.7324-6.66992 20.7324-7.05078Q20.7324-7.46094 20.4785-7.71484Q20.2246-7.96875 19.8242-7.96875L15.8691-7.96875L15.8691-11.9141Q15.8691-12.3242 15.6104-12.583Q15.3516-12.8418 14.9512-12.8418Q14.5605-12.8418 14.3115-12.583Q14.0625-12.3242 14.0625-11.9141L14.0625-7.96875L10.1172-7.96875Q9.70703-7.96875 9.45312-7.71484Q9.19922-7.46094 9.19922-7.05078Z"/>
  </g>
  <text style="stroke:none;fill:black;font-family:sans-serif;font-size:13;font-weight:bold;" transform="matrix(1 0 0 1 263 1953)">Design Variations</text>
  <text style="stroke:none;fill:black;font-family:sans-serif;font-size:13;" transform="matrix(1 0 0 1 263 1971)">Symbols are supported in up to nine weights and three scales.</text>
  <text style="stroke:none;fill:black;font-family:sans-serif;font-size:13;" transform="matrix(1 0 0 1 263 1989)">For optimal layout with text and other symbols, vertically align</text>
  <text style="stroke:none;fill:black;font-family:sans-serif;font-size:13;" transform="matrix(1 0 0 1 263 2007)">symbols with the adjacent text.</text>
  <line style="fill:none;stroke:#00AEEF;stroke-width:0.5;opacity:1.0;" x1="776" x2="776" y1="1919" y2="1933"/>
  <g transform="matrix(1 0 0 1 776 1933)">
   <path d="M3.31055 0.15625Q3.70117 0.15625 3.91602-0.00976562Q4.13086-0.175781 4.26758-0.585938L5.52734-4.0332L11.2891-4.0332L12.5488-0.585938Q12.6855-0.175781 12.9004-0.00976562Q13.1152 0.15625 13.4961 0.15625Q13.8867 0.15625 14.1162-0.0585938Q14.3457-0.273438 14.3457-0.644531Q14.3457-0.869141 14.2383-1.17188L9.6582-13.3691Q9.48242-13.8184 9.17969-14.043Q8.87695-14.2676 8.4082-14.2676Q7.5-14.2676 7.17773-13.3789L2.59766-1.16211Q2.49023-0.859375 2.49023-0.634766Q2.49023-0.263672 2.70996-0.0537109Q2.92969 0.15625 3.31055 0.15625ZM6.00586-5.51758L8.37891-12.0898L8.42773-12.0898L10.8008-5.51758Z"/>
  </g>
  <line style="fill:none;stroke:#00AEEF;stroke-width:0.5;opacity:1.0;" x1="793.197" x2="793.197" y1="1919" y2="1933"/>
  <text style="stroke:none;fill:black;font-family:sans-serif;font-size:13;font-weight:bold;" transform="matrix(1 0 0 1 776 1953)">Margins</text>
  <text style="stroke:none;fill:black;font-family:sans-serif;font-size:13;" transform="matrix(1 0 0 1 776 1971)">Leading and trailing margins on the left and right side of each symbol</text>
  <text style="stroke:none;fill:black;font-family:sans-serif;font-size:13;" transform="matrix(1 0 0 1 776 1989)">can be adjusted by modifying the x-location of the margin guidelines.</text>
  <text style="stroke:none;fill:black;font-family:sans-serif;font-size:13;" transform="matrix(1 0 0 1 776 2007)">Modifications are automatically applied proportionally to all</text>
  <text style="stroke:none;fill:black;font-family:sans-serif;font-size:13;" transform="matrix(1 0 0 1 776 2025)">scales and weights.</text>
  <g transform="matrix(1 0 0 1 1289 1933)">
   <path d="M2.8418 1.86523L4.54102 3.57422Q5.18555 4.22852 5.90332 4.17969Q6.62109 4.13086 7.31445 3.35938L18.0078-8.42773L17.041-9.4043L6.42578 2.27539Q6.16211 2.57812 5.89355 2.61719Q5.625 2.65625 5.27344 2.30469L4.10156 1.14258Q3.75 0.791016 3.79395 0.522461Q3.83789 0.253906 4.14062-0.0195312L15.6152-10.8203L14.6387-11.7871L3.04688-0.898438Q2.30469-0.214844 2.25098 0.498047Q2.19727 1.21094 2.8418 1.86523ZM9.25781-16.3281Q8.94531-16.0254 8.90625-15.6348Q8.86719-15.2441 9.04297-14.9512Q9.21875-14.6777 9.55566-14.541Q9.89258-14.4043 10.3809-14.5215Q11.4746-14.7754 12.5977-14.7314Q13.7207-14.6875 14.7949-13.9844L14.209-12.5293Q13.9551-11.9043 14.0674-11.4404Q14.1797-10.9766 14.5801-10.5664L16.875-8.25195Q17.2363-7.88086 17.5781-7.82227Q17.9199-7.76367 18.3398-7.8418L19.4043-8.03711L20.0684-7.36328L20.0293-6.80664Q20-6.43555 20.1221-6.12305Q20.2441-5.81055 20.6055-5.44922L21.3672-4.70703Q21.7285-4.3457 22.1533-4.33105Q22.5781-4.31641 22.9297-4.66797L25.8398-7.58789Q26.1914-7.93945 26.1816-8.35449Q26.1719-8.76953 25.8105-9.13086L25.0391-9.89258Q24.6875-10.2539 24.3799-10.3857Q24.0723-10.5176 23.7109-10.4883L23.1348-10.4395L22.4902-11.0742L22.7344-12.1973Q22.832-12.6172 22.6953-12.9834Q22.5586-13.3496 22.1191-13.7891L19.9219-15.9766Q18.6719-17.2168 17.2607-17.8369Q15.8496-18.457 14.4189-18.4814Q12.9883-18.5059 11.665-17.959Q10.3418-17.4121 9.25781-16.3281ZM10.752-15.957Q11.6602-16.6211 12.7002-16.9043Q13.7402-17.1875 14.8047-17.085Q15.8691-16.9824 16.8701-16.5137Q17.8711-16.0449 18.7012-15.2051L21.1328-12.793Q21.3086-12.6172 21.3525-12.4512Q21.3965-12.2852 21.3379-12.0312L21.0156-10.5469L22.5195-9.0625L23.5059-9.12109Q23.6914-9.13086 23.7891-9.09668Q23.8867-9.0625 24.0332-8.91602L24.6094-8.33984L22.168-5.89844L21.5918-6.47461Q21.4453-6.62109 21.4062-6.71875Q21.3672-6.81641 21.377-7.01172L21.4453-7.98828L19.9512-9.47266L18.4277-9.21875Q18.1836-9.16992 18.042-9.2041Q17.9004-9.23828 17.7148-9.41406L15.7129-11.416Q15.5176-11.5918 15.4932-11.7529Q15.4688-11.9141 15.5859-12.1875L16.4648-14.2773Q15.293-15.3711 13.8281-15.791Q12.3633-16.2109 10.8398-15.7617Q10.7227-15.7324 10.6885-15.8057Q10.6543-15.8789 10.752-15.957Z"/>
  </g>
  <text style="stroke:none;fill:black;font-family:sans-serif;font-size:13;font-weight:bold;" transform="matrix(1 0 0 1 1289 1953)">Exporting</text>
  <text style="stroke:none;fill:black;font-family:sans-serif;font-size:13;" transform="matrix(1 0 0 1 1289 1971)">Symbols should be outlined when exporting to ensure the</text>
  <text style="stroke:none;fill:black;font-family:sans-serif;font-size:13;" transform="matrix(1 0 0 1 1289 1989)">design is preserved when submitting to Xcode.</text>
  <text id="template-version" style="stroke:none;fill:black;font-family:sans-serif;font-size:13;text-anchor:end;" transform="matrix(1 0 0 1 3036 1933)">Template v.3.0</text>
  <text style="stroke:none;fill:black;font-family:sans-serif;font-size:13;text-anchor:end;" transform="matrix(1 0 0 1 3036 1951)">Requires Xcode 13 or greater</text>
  <text id="descriptive-name" style="stroke:none;fill:black;font-family:sans-serif;font-size:13;text-anchor:end;" transform="matrix(1 0 0 1 3036 1969)">Generated from newspaper.fill</text>
  <text style="stroke:none;fill:black;font-family:sans-serif;font-size:13;text-anchor:end;" transform="matrix(1 0 0 1 3036 1987)">Typeset at 100 points</text>
  <text style="stroke:none;fill:black;font-family:sans-serif;font-size:13;" transform="matrix(1 0 0 1 263 726)">Small</text>
  <text style="stroke:none;fill:black;font-family:sans-serif;font-size:13;" transform="matrix(1 0 0 1 263 1156)">Medium</text>
  <text style="stroke:none;fill:black;font-family:sans-serif;font-size:13;" transform="matrix(1 0 0 1 263 1586)">Large</text>
 </g>
 <g id="Guides">
  <g id="H-reference" style="fill:#27AAE1;stroke:none;" transform="matrix(1 0 0 1 339 696)">
   <path d="M0.993347 0L3.6377 0L29.3282-67.1326L30.0301-67.1326L30.0301-70.459L28.1227-70.459ZM11.6882-24.4797L46.9818-24.4797L46.2311-26.7288L12.4382-26.7288ZM55.1193 0L57.7637 0L30.6381-70.459L29.4327-70.459L29.4327-67.1326Z"/>
  </g>
  <line id="Baseline-S" style="fill:none;stroke:#27AAE1;opacity:1;stroke-width:0.5;" x1="263" x2="3036" y1="696" y2="696"/>
  <line id="Capline-S" style="fill:none;stroke:#27AAE1;opacity:1;stroke-width:0.5;" x1="263" x2="3036" y1="625.541" y2="625.541"/>
  <g id="H-reference" style="fill:#27AAE1;stroke:none;" transform="matrix(1 0 0 1 339 1126)">
   <path d="M0.993347 0L3.6377 0L29.3282-67.1326L30.0301-67.1326L30.0301-70.459L28.1227-70.459ZM11.6882-24.4797L46.9818-24.4797L46.2311-26.7288L12.4382-26.7288ZM55.1193 0L57.7637 0L30.6381-70.459L29.4327-70.459L29.4327-67.1326Z"/>
  </g>
  <line id="Baseline-M" style="fill:none;stroke:#27AAE1;opacity:1;stroke-width:0.5;" x1="263" x2="3036" y1="1126" y2="1126"/>
  <line id="Capline-M" style="fill:none;stroke:#27AAE1;opacity:1;stroke-width:0.5;" x1="263" x2="3036" y1="1055.54" y2="1055.54"/>
  <g id="H-reference" style="fill:#27AAE1;stroke:none;" transform="matrix(1 0 0 1 339 1556)">
   <path d="M0.993347 0L3.6377 0L29.3282-67.1326L30.0301-67.1326L30.0301-70.459L28.1227-70.459ZM11.6882-24.4797L46.9818-24.4797L46.2311-26.7288L12.4382-26.7288ZM55.1193 0L57.7637 0L30.6381-70.459L29.4327-70.459L29.4327-67.1326Z"/>
  </g>
  <line id="Baseline-L" style="fill:none;stroke:#27AAE1;opacity:1;stroke-width:0.5;" x1="263" x2="3036" y1="1556" y2="1556"/>
  <line id="Capline-L" style="fill:none;stroke:#27AAE1;opacity:1;stroke-width:0.5;" x1="263" x2="3036" y1="1485.54" y2="1485.54"/>
  <line id="left-margin-Ultralight-S" style="fill:none;stroke:#00AEEF;stroke-width:0.5;opacity:1.0;" x1="509.613" x2="509.613" y1="600.785" y2="720.121"/>
  <line id="right-margin-Ultralight-S" style="fill:none;stroke:#00AEEF;stroke-width:0.5;opacity:1.0;" x1="609.81" x2="609.81" y1="600.785" y2="720.121"/>
  <line id="left-margin-Regular-S" style="fill:none;stroke:#00AEEF;stroke-width:0.5;opacity:1.0;" x1="1396.82" x2="1396.82" y1="600.785" y2="720.121"/>
  <line id="right-margin-Regular-S" style="fill:none;stroke:#00AEEF;stroke-width:0.5;opacity:1.0;" x1="1502.87" x2="1502.87" y1="600.785" y2="720.121"/>
  <line id="left-margin-Black-S" style="fill:none;stroke:#00AEEF;stroke-width:0.5;opacity:1.0;" x1="2877.37" x2="2877.37" y1="600.785" y2="720.121"/>
  <line id="right-margin-Black-S" style="fill:none;stroke:#00AEEF;stroke-width:0.5;opacity:1.0;" x1="2989.43" x2="2989.43" y1="600.785" y2="720.121"/>
 </g>
 <g id="Symbols">
  <g id="Black-S" transform="matrix(1 0 0 1 2877.37 696)">
   <path d="M9.76562-37.5488L9.76562-5.41992Q9.76562-2.97852 10.8154-1.58691Q11.8652-0.195312 13.3301 0.366211Q14.7949 0.927734 15.9668 0.927734Q17.1387 0.927734 18.5791 0.366211Q20.0195-0.195312 21.0693-1.58691Q22.1191-2.97852 22.1191-5.41992L22.1191-51.8066L22.1191-51.8066Q19.3359-51.8066 16.4795-50.2441Q13.623-48.6816 11.6943-45.5078Q9.76562-42.334 9.76562-37.5488ZM26.3184 8.1543L87.0605 8.1543Q94.2383 8.1543 98.2666 4.12598Q102.295 0.0976562 102.295-7.08008L102.295-63.3301Q102.295-70.5078 98.2666-74.5361Q94.2383-78.5645 87.0605-78.5645L44.6777-78.5645Q37.5-78.5645 33.4717-74.5361Q29.4434-70.5078 29.4434-63.3301L29.4434 2.49023Q29.4434 4.73633 28.6865 6.10352Q27.9297 7.4707 26.3184 8.1543ZM50.0488-49.6094Q48.584-49.6094 47.5586-50.6348Q46.5332-51.6602 46.5332-53.125Q46.5332-54.5898 47.5342-55.5908Q48.5352-56.5918 50.0488-56.5918L81.6895-56.5918Q83.2031-56.5918 84.2041-55.5908Q85.2051-54.5898 85.2051-53.125Q85.2051-51.6602 84.1797-50.6348Q83.1543-49.6094 81.6895-49.6094ZM50.0488-37.6465Q48.5352-37.6465 47.5342-38.6475Q46.5332-39.6484 46.5332-41.1133Q46.5332-42.5781 47.5586-43.6035Q48.584-44.6289 50.0488-44.6289L81.6895-44.6289Q83.1543-44.6289 84.1797-43.6035Q85.2051-42.5781 85.2051-41.1133Q85.2051-39.6484 84.2041-38.6475Q83.2031-37.6465 81.6895-37.6465ZM70.9961-25.6836Q69.5312-25.6836 68.5059-26.6846Q67.4805-27.6855 67.4805-29.1016Q67.4805-30.6152 68.4814-31.6162Q69.4824-32.6172 70.9961-32.6172L81.6895-32.6172Q83.1543-32.6172 84.1553-31.6162Q85.1562-30.6152 85.1562-29.1016Q85.1562-27.6855 84.1553-26.6846Q83.1543-25.6836 81.6895-25.6836ZM70.9961-14.3555Q69.4824-14.3555 68.4814-15.3564Q67.4805-16.3574 67.4805-17.8223Q67.4805-19.2871 68.5059-20.3125Q69.5312-21.3379 70.9961-21.3379L81.6895-21.3379Q83.1543-21.3379 84.1553-20.3125Q85.1562-19.2871 85.1562-17.8223Q85.1562-16.3574 84.1553-15.3564Q83.1543-14.3555 81.6895-14.3555ZM51.5137-14.3555Q49.2188-14.3555 47.8516-15.7227Q46.4844-17.0898 46.4844-19.3848L46.4844-27.6367Q46.4844-29.9316 47.8516-31.2744Q49.2188-32.6172 51.5137-32.6172L58.7891-32.6172Q61.084-32.6172 62.4512-31.2744Q63.8184-29.9316 63.8184-27.6367L63.8184-19.3848Q63.8184-17.0898 62.4512-15.7227Q61.084-14.3555 58.7891-14.3555Z"/>
  </g>
  <g id="Regular-S" transform="matrix(1 0 0 1 1396.82 696)">
   <path d="M9.76562-39.1113L9.76562-5.37109Q9.76562-4.00391 10.3516-2.97852Q10.9375-1.95312 11.9873-1.36719Q13.0371-0.78125 14.4043-0.78125Q15.7715-0.78125 16.7969-1.36719Q17.8223-1.95312 18.4082-2.97852Q18.9941-4.00391 18.9941-5.37109L18.9941-46.7773L17.7734-46.7773Q15.2832-46.7773 13.501-45.874Q11.7188-44.9707 10.7422-43.2617Q9.76562-41.5527 9.76562-39.1113ZM23.3887 5.9082L83.8379 5.9082Q90.0879 5.9082 93.1885 2.85645Q96.2891-0.195312 96.2891-6.34766L96.2891-64.1602Q96.2891-70.3125 93.1885-73.3643Q90.0879-76.416 83.8379-76.416L39.7461-76.416Q33.4961-76.416 30.3955-73.3643Q27.2949-70.3125 27.2949-64.1602L27.2949-2.53906Q27.2949 0.634766 26.4648 2.58789Q25.6348 4.54102 23.3887 5.9082ZM42.9688-53.0762Q41.7969-53.0762 41.0156-53.8574Q40.2344-54.6387 40.2344-55.7617Q40.2344-56.8359 41.0156-57.5928Q41.7969-58.3496 42.9688-58.3496L80.6641-58.3496Q81.7871-58.3496 82.5439-57.5928Q83.3008-56.8359 83.3008-55.7617Q83.3008-54.6387 82.5439-53.8574Q81.7871-53.0762 80.6641-53.0762ZM42.9688-39.7461Q41.7969-39.7461 41.0156-40.4785Q40.2344-41.2109 40.2344-42.334Q40.2344-43.457 41.0156-44.2383Q41.7969-45.0195 42.9688-45.0195L80.6641-45.0195Q81.7871-45.0195 82.5439-44.2383Q83.3008-43.457 83.3008-42.334Q83.3008-41.2109 82.5439-40.4785Q81.7871-39.7461 80.6641-39.7461ZM66.6016-26.3672Q65.4297-26.3672 64.6729-27.124Q63.916-27.8809 63.916-28.9551Q63.916-30.0781 64.6729-30.8594Q65.4297-31.6406 66.6016-31.6406L80.6641-31.6406Q81.7871-31.6406 82.5439-30.8594Q83.3008-30.0781 83.3008-28.9551Q83.3008-27.8809 82.5439-27.124Q81.7871-26.3672 80.6641-26.3672ZM66.6016-12.6465Q65.4297-12.6465 64.6729-13.4033Q63.916-14.1602 63.916-15.2344Q63.916-16.4062 64.6729-17.1875Q65.4297-17.9688 66.6016-17.9688L80.6641-17.9688Q81.7871-17.9688 82.5439-17.1875Q83.3008-16.4062 83.3008-15.2344Q83.3008-14.1602 82.5439-13.4033Q81.7871-12.6465 80.6641-12.6465ZM44.873-12.5977Q42.6758-12.5977 41.4551-13.8184Q40.2344-15.0391 40.2344-17.2363L40.2344-27.0508Q40.2344-29.1992 41.4551-30.4199Q42.6758-31.6406 44.873-31.6406L54.2969-31.6406Q56.4941-31.6406 57.7148-30.4199Q58.9355-29.1992 58.9355-27.0508L58.9355-17.2363Q58.9355-15.0391 57.7148-13.8184Q56.4941-12.5977 54.2969-12.5977Z"/>
  </g>
  <g id="Ultralight-S" transform="matrix(1 0 0 1 509.613 696)">
   <path d="M9.76562-38.3392L9.76562-2.28348Q9.76562-0.688934 10.5106 0.336456Q11.2556 1.36185 12.4416 1.85699Q13.6276 2.35214 14.904 2.30637Q16.1804 2.30637 17.3191 1.78871Q18.4578 1.27106 19.1574 0.268173Q19.857-0.734711 19.857-2.28348L19.857-43.3716L15.2756-43.3716Q13.5574-43.3716 12.3203-42.7635Q11.0832-42.1555 10.4244-41.0366Q9.76562-39.9178 9.76562-38.3392ZM19.7105 5.18188L80.4321 5.18188Q85.3653 5.18188 87.8983 2.62947Q90.4312 0.0770569 90.4312-4.80347L90.4312-65.5228Q90.4312-70.4033 87.8983-72.9557Q85.3653-75.5081 80.4321-75.5081L33.7975-75.5081Q28.9101-75.5081 26.3542-72.9557Q23.7984-70.4033 23.7984-65.5228L23.7984-0.94986Q23.7984 1.54266 22.8321 3.01895Q21.8658 4.49524 19.7105 5.18188ZM37.5648-55.3009Q37.1193-55.3009 36.7924-55.6057Q36.4655-55.9105 36.4655-56.3522Q36.4655-56.7902 36.7924-57.1159Q37.1193-57.4417 37.5648-57.4417L76.7136-57.4417Q77.2011-57.4417 77.5036-57.1159Q77.8061-56.7902 77.8061-56.3522Q77.8061-55.9105 77.5036-55.6057Q77.2011-55.3009 76.7136-55.3009ZM37.5648-41.1995Q37.1193-41.1995 36.7924-41.5005Q36.4655-41.8015 36.4655-42.2432Q36.4655-42.6849 36.7924-42.9893Q37.1193-43.2938 37.5648-43.2938L76.7136-43.2938Q77.2011-43.2938 77.5036-42.9893Q77.8061-42.6849 77.8061-42.2432Q77.8061-41.8015 77.5036-41.5005Q77.2011-41.1995 76.7136-41.1995ZM61.6974-27.0485Q61.2068-27.0485 60.8814-27.3739Q60.556-27.6993 60.556-28.138Q60.556-28.5797 60.8814-28.8841Q61.2068-29.1885 61.6974-29.1885L76.6678-29.1885Q77.1553-29.1885 77.4582-28.8841Q77.7611-28.5797 77.7611-28.138Q77.7611-27.6993 77.4582-27.3739Q77.1553-27.0485 76.6678-27.0485ZM61.6974-12.9189Q61.2068-12.9189 60.8814-13.2217Q60.556-13.5246 60.556-13.9626Q60.556-14.4081 60.8814-14.7354Q61.2068-15.0627 61.6974-15.0627L76.6678-15.0627Q77.1553-15.0627 77.4582-14.7354Q77.7611-14.4081 77.7611-13.9626Q77.7611-13.5246 77.4582-13.2217Q77.1553-12.9189 76.6678-12.9189ZM40.332-12.0979Q38.4529-12.0979 37.3455-13.2053Q36.2381-14.3127 36.2381-16.1011L36.2381-25.1434Q36.2381-26.9745 37.3455-28.0815Q38.4529-29.1885 40.332-29.1885L50.3464-29.1885Q52.1805-29.1885 53.3104-28.0815Q54.4403-26.9745 54.4403-25.1434L54.4403-16.1011Q54.4403-14.3127 53.3104-13.2053Q52.1805-12.0979 50.3464-12.0979Z"/>
  </g>
 </g>
</svg>
